<svg width="245" height="496" viewBox="0 0 245 496" fill="none" xmlns="http://www.w3.org/2000/svg">
<path opacity="0.35" d="M86.3391 161.636H89.8776C90.6397 161.636 91.2574 162.254 91.2574 163.016C91.2574 163.778 90.6397 164.396 89.8776 164.396H86.3391C85.577 164.396 84.9592 163.778 84.9592 163.016C84.9592 162.254 85.577 161.636 86.3391 161.636Z" stroke="black"/>
<path opacity="0.4" d="M92.0891 162.352V162.835C92.0891 163.236 92.5297 163.417 92.5297 163.016V163.016C92.5297 162.726 92.3561 162.465 92.0891 162.352" fill="black"/>
<path d="M85.1227 163.016C85.1227 162.344 85.6673 161.799 86.339 161.799H89.8776C90.5494 161.799 91.0939 162.344 91.0939 163.016V163.016C91.0939 163.688 90.5494 164.232 89.8776 164.232H86.339C85.6673 164.232 85.1227 163.688 85.1227 163.016V163.016Z" fill="black"/>
<path fill-rule="evenodd" clip-rule="evenodd" d="M80.2562 161.891C80.9913 161.891 81.6983 162.173 82.231 162.68C82.2712 162.719 82.3353 162.718 82.3748 162.678L82.7583 162.291C82.7783 162.271 82.7894 162.244 82.7893 162.216C82.7891 162.187 82.7776 162.16 82.7574 162.14C81.3591 160.8 79.1531 160.8 77.7548 162.14C77.7346 162.16 77.7231 162.187 77.7229 162.216C77.7227 162.244 77.7338 162.271 77.7538 162.291L78.1374 162.678C78.1769 162.718 78.2411 162.719 78.2812 162.68C78.814 162.173 79.521 161.891 80.2562 161.891ZM80.2562 163.15C80.6601 163.15 81.0496 163.3 81.349 163.571C81.3895 163.609 81.4532 163.609 81.4927 163.569L81.8758 163.182C81.8959 163.162 81.9071 163.134 81.9068 163.106C81.9065 163.077 81.8948 163.05 81.8742 163.03C80.9625 162.182 79.5507 162.182 78.639 163.03C78.6184 163.05 78.6067 163.077 78.6064 163.106C78.6061 163.134 78.6174 163.162 78.6376 163.182L79.0205 163.569C79.06 163.609 79.1238 163.609 79.1643 163.571C79.4634 163.3 79.8526 163.15 80.2562 163.15ZM81.0235 163.997C81.0241 164.026 81.0128 164.053 80.9923 164.073L80.3297 164.742C80.3103 164.762 80.2838 164.773 80.2562 164.773C80.2286 164.773 80.2021 164.762 80.1827 164.742L79.52 164.073C79.4995 164.053 79.4882 164.026 79.4888 163.997C79.4894 163.968 79.5019 163.941 79.5232 163.922C79.9463 163.564 80.5661 163.564 80.9892 163.922C81.0105 163.941 81.0229 163.968 81.0235 163.997Z" fill="black"/>
<path fill-rule="evenodd" clip-rule="evenodd" d="M75.7235 161.247H75.3917C75.2085 161.247 75.06 161.395 75.06 161.578V164.453C75.06 164.637 75.2085 164.785 75.3917 164.785H75.7235C75.9067 164.785 76.0552 164.637 76.0552 164.453V161.578C76.0552 161.395 75.9067 161.247 75.7235 161.247ZM73.8436 162.021H74.1754C74.3586 162.021 74.5071 162.169 74.5071 162.352V164.453C74.5071 164.637 74.3586 164.785 74.1754 164.785H73.8436C73.6604 164.785 73.5119 164.637 73.5119 164.453V162.352C73.5119 162.169 73.6604 162.021 73.8436 162.021ZM72.6273 162.795H72.2955C72.1123 162.795 71.9638 162.943 71.9638 163.126V164.453C71.9638 164.637 72.1123 164.785 72.2955 164.785H72.6273C72.8105 164.785 72.959 164.637 72.959 164.453V163.126C72.959 162.943 72.8105 162.795 72.6273 162.795ZM71.0792 163.458H70.7474C70.5642 163.458 70.4157 163.607 70.4157 163.79V164.453C70.4157 164.637 70.5642 164.785 70.7474 164.785H71.0792C71.2624 164.785 71.4109 164.637 71.4109 164.453V163.79C71.4109 163.607 71.2624 163.458 71.0792 163.458Z" fill="black"/>
<path d="M0 120.399C0 119.435 0.781641 118.653 1.74584 118.653V118.653C2.71005 118.653 3.49169 119.435 3.49169 120.399V129.71C3.49169 130.674 2.71005 131.456 1.74584 131.456V131.456C0.781641 131.456 0 130.674 0 129.71V120.399Z" fill="#545050"/>
<path d="M0 197.216C0 196.252 0.781641 195.47 1.74584 195.47V195.47C2.71005 195.47 3.49169 196.252 3.49169 197.216V235.624C3.49169 236.589 2.71005 237.37 1.74584 237.37V237.37C0.781641 237.37 0 236.589 0 235.624V197.216Z" fill="#545050"/>
<path d="M245 165.209C245 164.245 244.218 163.463 243.254 163.463V163.463C242.29 163.463 241.508 164.245 241.508 165.209V230.387C241.508 231.351 242.29 232.133 243.254 232.133V232.133C244.218 232.133 245 231.351 245 230.387V165.209Z" fill="#545050"/>
<path d="M0 147.168C0 146.204 0.781641 145.422 1.74584 145.422V145.422C2.71005 145.422 3.49169 146.204 3.49169 147.168V185.577C3.49169 186.541 2.71005 187.323 1.74584 187.323V187.323C0.781641 187.323 0 186.541 0 185.577V147.168Z" fill="#545050"/>
<rect x="1.91043" width="241.669" height="495.755" rx="38" fill="#653730"/>
<rect x="4.77606" y="2.86563" width="234.982" height="490.024" rx="38" fill="#953223"/>
<rect x="14" y="12" width="217" height="472" rx="28" fill="white"/>
<rect x="83" y="474" width="77" height="3" rx="1.5" fill="#342F2F"/>
<path opacity="0.35" d="M207.799 24.5015H215.006C216.203 24.5015 217.173 25.4716 217.173 26.6682V27.7954C217.173 28.992 216.203 29.962 215.006 29.962H207.799C206.602 29.962 205.632 28.992 205.632 27.7954V26.6682C205.632 25.4716 206.602 24.5015 207.799 24.5015Z" stroke="black"/>
<path opacity="0.4" d="M218.243 26.0917V28.3719C218.702 28.1788 219 27.7295 219 27.2318C219 26.7341 218.702 26.2848 218.243 26.0917" fill="black"/>
<path d="M206.272 26.2416C206.272 25.6341 206.765 25.1416 207.372 25.1416H215.433C216.04 25.1416 216.533 25.6341 216.533 26.2416V28.2219C216.533 28.8295 216.04 29.3219 215.433 29.3219H207.372C206.765 29.3219 206.272 28.8295 206.272 28.2219V26.2416Z" fill="black"/>
<path fill-rule="evenodd" clip-rule="evenodd" d="M197.91 25.2982C199.173 25.2982 200.388 25.7836 201.303 26.6539C201.372 26.7211 201.482 26.7203 201.55 26.652L202.209 25.987C202.243 25.9524 202.263 25.9055 202.262 25.8567C202.262 25.8079 202.242 25.7613 202.208 25.727C199.805 23.4243 196.014 23.4243 193.611 25.727C193.577 25.7612 193.557 25.8079 193.556 25.8567C193.556 25.9054 193.575 25.9523 193.61 25.987L194.269 26.652C194.337 26.7204 194.447 26.7212 194.516 26.6539C195.431 25.7835 196.646 25.2982 197.91 25.2982ZM197.91 27.4619C198.604 27.4618 199.273 27.7198 199.787 28.1856C199.857 28.2518 199.967 28.2503 200.034 28.1824L200.693 27.5174C200.727 27.4825 200.746 27.4352 200.746 27.386C200.745 27.3368 200.725 27.2899 200.69 27.2557C199.123 25.7985 196.697 25.7985 195.131 27.2557C195.095 27.2899 195.075 27.3368 195.075 27.386C195.074 27.4352 195.093 27.4825 195.128 27.5174L195.786 28.1824C195.854 28.2503 195.964 28.2518 196.033 28.1856C196.547 27.7201 197.216 27.4622 197.91 27.4619ZM199.228 28.9177C199.229 28.967 199.21 29.0145 199.175 29.0491L198.036 30.1981C198.003 30.2319 197.957 30.2509 197.91 30.2509C197.862 30.2509 197.817 30.2319 197.783 30.1981L196.645 29.0491C196.609 29.0145 196.59 28.9669 196.591 28.9176C196.592 28.8683 196.613 28.8216 196.65 28.7886C197.377 28.1736 198.442 28.1736 199.169 28.7886C199.206 28.8217 199.227 28.8684 199.228 28.9177Z" fill="black"/>
<path fill-rule="evenodd" clip-rule="evenodd" d="M190.121 24.1915H189.551C189.236 24.1915 188.981 24.4467 188.981 24.7615V29.7019C188.981 30.0168 189.236 30.272 189.551 30.272H190.121C190.436 30.272 190.691 30.0168 190.691 29.7019V24.7615C190.691 24.4467 190.436 24.1915 190.121 24.1915ZM186.89 25.5216H187.461C187.775 25.5216 188.031 25.7768 188.031 26.0916V29.7019C188.031 30.0168 187.775 30.272 187.461 30.272H186.89C186.576 30.272 186.32 30.0168 186.32 29.7019V26.0916C186.32 25.7768 186.576 25.5216 186.89 25.5216ZM184.8 26.8517H184.23C183.915 26.8517 183.66 27.1069 183.66 27.4218V29.7019C183.66 30.0168 183.915 30.272 184.23 30.272H184.8C185.115 30.272 185.37 30.0168 185.37 29.7019V27.4218C185.37 27.1069 185.115 26.8517 184.8 26.8517ZM182.14 27.9918H181.57C181.255 27.9918 181 28.247 181 28.5618V29.7019C181 30.0168 181.255 30.272 181.57 30.272H182.14C182.455 30.272 182.71 30.0168 182.71 29.7019V28.5618C182.71 28.247 182.455 27.9918 182.14 27.9918Z" fill="black"/>
<path d="M31.8301 23.4V28.36H32.7821V29H29.9661V28.36H31.1101V24.32L30.0381 25.128L29.6461 24.592L31.3021 23.4H31.8301ZM34.7149 29C34.6989 28.904 34.6909 28.8053 34.6909 28.704C34.6909 28.3627 34.7523 28.0533 34.8749 27.776C35.0029 27.4987 35.1603 27.248 35.3469 27.024C35.5336 26.7947 35.7336 26.584 35.9469 26.392C36.1656 26.1947 36.3683 26.008 36.5549 25.832C36.7416 25.6507 36.8963 25.472 37.0189 25.296C37.1469 25.1147 37.2109 24.9227 37.2109 24.72C37.2109 24.496 37.1283 24.312 36.9629 24.168C36.7976 24.0187 36.5843 23.944 36.3229 23.944C36.0989 23.944 35.8936 23.9893 35.7069 24.08C35.5256 24.1653 35.3549 24.2827 35.1949 24.432L34.7949 23.944C35.0083 23.752 35.2429 23.5973 35.4989 23.48C35.7603 23.3627 36.0616 23.304 36.4029 23.304C36.6376 23.304 36.8509 23.3387 37.0429 23.408C37.2403 23.4773 37.4056 23.576 37.5389 23.704C37.6776 23.8267 37.7843 23.9707 37.8589 24.136C37.9336 24.3013 37.9709 24.48 37.9709 24.672C37.9709 24.928 37.9123 25.1653 37.7949 25.384C37.6829 25.5973 37.5389 25.8027 37.3629 26C37.1923 26.192 37.0029 26.3787 36.7949 26.56C36.5923 26.736 36.4003 26.9173 36.2189 27.104C36.0376 27.2907 35.8776 27.4853 35.7389 27.688C35.6056 27.8907 35.5256 28.1093 35.4989 28.344H37.9629V29H34.7149ZM39.8718 25.28C39.8718 25.1147 39.9171 24.984 40.0078 24.888C40.1038 24.792 40.2371 24.744 40.4078 24.744C40.5465 24.744 40.6691 24.7973 40.7758 24.904C40.8878 25.0107 40.9438 25.136 40.9438 25.28C40.9438 25.44 40.8931 25.5707 40.7918 25.672C40.6905 25.768 40.5625 25.816 40.4078 25.816C40.2638 25.816 40.1385 25.7627 40.0318 25.656C39.9251 25.5493 39.8718 25.424 39.8718 25.28ZM39.8718 28.56C39.8718 28.3947 39.9171 28.264 40.0078 28.168C40.1038 28.072 40.2371 28.024 40.4078 28.024C40.5465 28.024 40.6691 28.0773 40.7758 28.184C40.8878 28.2907 40.9438 28.416 40.9438 28.56C40.9438 28.72 40.8931 28.8507 40.7918 28.952C40.6905 29.048 40.5625 29.096 40.4078 29.096C40.2638 29.096 40.1385 29.0427 40.0318 28.936C39.9251 28.8293 39.8718 28.704 39.8718 28.56ZM45.0222 23.4V28.36H45.9742V29H43.1582V28.36H44.3022V24.32L43.2302 25.128L42.8382 24.592L44.4942 23.4H45.0222ZM47.9071 29C47.8911 28.904 47.8831 28.8053 47.8831 28.704C47.8831 28.3627 47.9445 28.0533 48.0671 27.776C48.1951 27.4987 48.3525 27.248 48.5391 27.024C48.7258 26.7947 48.9258 26.584 49.1391 26.392C49.3578 26.1947 49.5605 26.008 49.7471 25.832C49.9338 25.6507 50.0885 25.472 50.2111 25.296C50.3391 25.1147 50.4031 24.9227 50.4031 24.72C50.4031 24.496 50.3205 24.312 50.1551 24.168C49.9898 24.0187 49.7765 23.944 49.5151 23.944C49.2911 23.944 49.0858 23.9893 48.8991 24.08C48.7178 24.1653 48.5471 24.2827 48.3871 24.432L47.9871 23.944C48.2005 23.752 48.4351 23.5973 48.6911 23.48C48.9525 23.3627 49.2538 23.304 49.5951 23.304C49.8298 23.304 50.0431 23.3387 50.2351 23.408C50.4325 23.4773 50.5978 23.576 50.7311 23.704C50.8698 23.8267 50.9765 23.9707 51.0511 24.136C51.1258 24.3013 51.1631 24.48 51.1631 24.672C51.1631 24.928 51.1045 25.1653 50.9871 25.384C50.8751 25.5973 50.7311 25.8027 50.5551 26C50.3845 26.192 50.1951 26.3787 49.9871 26.56C49.7845 26.736 49.5925 26.9173 49.4111 27.104C49.2298 27.2907 49.0698 27.4853 48.9311 27.688C48.7978 27.8907 48.7178 28.1093 48.6911 28.344H51.1551V29H47.9071Z" fill="black"/>
<path d="M61 12H185V12C183.808 12.3415 182.972 13.4133 182.931 14.653L182.914 15.1517V15.1517C182.914 22.7999 176.714 29 169.066 29H76.9339C69.2857 29 63.0856 22.7999 63.0856 15.1517V15.1517L63.0692 14.653C63.0283 13.4133 62.1924 12.3415 61 12V12Z" fill="#953223"/>
<rect x="20" y="33" width="205" height="432" fill="#F4EFEF"/>
<path d="M38.0245 433.464C38.1741 433.003 38.8259 433.003 38.9755 433.464L40.5206 438.219C40.5876 438.425 40.7795 438.564 40.9962 438.564H45.9962C46.4806 438.564 46.6819 439.184 46.2901 439.469L42.245 442.408C42.0697 442.535 41.9964 442.761 42.0633 442.967L43.6084 447.722C43.7581 448.183 43.2309 448.566 42.839 448.281L38.7939 445.342C38.6186 445.215 38.3814 445.215 38.2061 445.342L34.161 448.281C33.7691 448.566 33.2419 448.183 33.3916 447.722L34.9367 442.967C35.0036 442.761 34.9303 442.535 34.755 442.408L30.7099 439.469C30.3181 439.184 30.5194 438.564 31.0038 438.564H36.0038C36.2205 438.564 36.4124 438.425 36.4794 438.219L38.0245 433.464Z" fill="#A3A3A3"/>
<circle cx="81.5" cy="442.5" r="7.5" fill="#A3A3A3"/>
<path d="M77 443.5H81.5V438" stroke="white" stroke-opacity="0.83"/>
<circle cx="162" cy="437" r="2" fill="#A3A3A3"/>
<circle cx="167" cy="437" r="2" fill="#A3A3A3"/>
<circle cx="172" cy="437" r="2" fill="#A3A3A3"/>
<circle cx="162" cy="442" r="2" fill="#A3A3A3"/>
<circle cx="167" cy="442" r="2" fill="#A3A3A3"/>
<circle cx="172" cy="442" r="2" fill="#A3A3A3"/>
<circle cx="162" cy="447" r="2" fill="#A3A3A3"/>
<circle cx="167" cy="447" r="2" fill="#A3A3A3"/>
<circle cx="172" cy="447" r="2" fill="#A3A3A3"/>
<circle cx="124.5" cy="442.5" r="7" stroke="#A3A3A3"/>
<circle cx="124.5" cy="440.5" r="2.5" fill="#A3A3A3"/>
<path d="M130 446.21C125.6 442.208 120.833 444.542 119 446.21C119 446.21 122.463 449.2 125.05 448.989C127.254 448.81 130 446.21 130 446.21Z" fill="#A3A3A3" stroke="#A3A3A3"/>
<path d="M25.8973 451.8H28.3873V452.292H26.4673V453.576H28.0693V454.044H26.4673V456H25.8973V451.8ZM28.7795 454.458C28.7795 454.226 28.8155 454.01 28.8875 453.81C28.9595 453.606 29.0595 453.43 29.1875 453.282C29.3195 453.134 29.4755 453.018 29.6555 452.934C29.8395 452.85 30.0395 452.808 30.2555 452.808C30.4355 452.808 30.5975 452.84 30.7415 452.904C30.8895 452.964 31.0175 453.04 31.1255 453.132V452.88H31.6175V455.244C31.6175 455.396 31.6535 455.496 31.7255 455.544C31.8015 455.588 31.8835 455.61 31.9715 455.61L31.8575 456.03C31.4735 456.03 31.2415 455.874 31.1615 455.562C31.1135 455.626 31.0575 455.69 30.9935 455.754C30.9335 455.814 30.8635 455.868 30.7835 455.916C30.7035 455.964 30.6135 456.002 30.5135 456.03C30.4135 456.058 30.3035 456.072 30.1835 456.072C29.9875 456.072 29.8035 456.034 29.6315 455.958C29.4635 455.882 29.3155 455.774 29.1875 455.634C29.0635 455.494 28.9635 455.326 28.8875 455.13C28.8155 454.93 28.7795 454.706 28.7795 454.458ZM30.3035 455.592C30.4555 455.592 30.5995 455.556 30.7355 455.484C30.8715 455.412 30.9855 455.318 31.0775 455.202V453.528C30.9695 453.452 30.8495 453.392 30.7175 453.348C30.5895 453.3 30.4535 453.276 30.3095 453.276C30.1655 453.276 30.0335 453.304 29.9135 453.36C29.7935 453.416 29.6895 453.496 29.6015 453.6C29.5175 453.7 29.4515 453.822 29.4035 453.966C29.3555 454.11 29.3315 454.268 29.3315 454.44C29.3315 454.608 29.3555 454.764 29.4035 454.908C29.4515 455.048 29.5195 455.17 29.6075 455.274C29.6955 455.374 29.7975 455.452 29.9135 455.508C30.0335 455.564 30.1635 455.592 30.3035 455.592ZM32.3954 453.024L32.8874 452.82L33.9494 455.388L35.0114 452.82L35.4734 453.024L34.2134 456H33.6494L32.3954 453.024ZM38.4534 454.44C38.4534 454.284 38.4274 454.136 38.3754 453.996C38.3274 453.856 38.2574 453.734 38.1654 453.63C38.0774 453.526 37.9714 453.444 37.8474 453.384C37.7274 453.32 37.5954 453.288 37.4514 453.288C37.1354 453.288 36.8894 453.392 36.7134 453.6C36.5374 453.808 36.4494 454.084 36.4494 454.428C36.4494 454.584 36.4734 454.734 36.5214 454.878C36.5734 455.018 36.6434 455.142 36.7314 455.25C36.8234 455.354 36.9294 455.438 37.0494 455.502C37.1734 455.562 37.3074 455.592 37.4514 455.592C37.6074 455.592 37.7474 455.564 37.8714 455.508C37.9954 455.452 38.0994 455.374 38.1834 455.274C38.2714 455.17 38.3374 455.048 38.3814 454.908C38.4294 454.768 38.4534 454.612 38.4534 454.44ZM35.8974 454.44C35.8974 454.188 35.9374 453.962 36.0174 453.762C36.0974 453.558 36.2054 453.386 36.3414 453.246C36.4814 453.106 36.6454 452.998 36.8334 452.922C37.0254 452.846 37.2314 452.808 37.4514 452.808C37.6674 452.808 37.8694 452.846 38.0574 452.922C38.2494 452.998 38.4154 453.106 38.5554 453.246C38.6954 453.386 38.8054 453.556 38.8854 453.756C38.9654 453.956 39.0054 454.18 39.0054 454.428C39.0054 454.676 38.9654 454.902 38.8854 455.106C38.8094 455.306 38.7014 455.478 38.5614 455.622C38.4214 455.766 38.2554 455.878 38.0634 455.958C37.8754 456.034 37.6714 456.072 37.4514 456.072C37.2274 456.072 37.0194 456.032 36.8274 455.952C36.6394 455.872 36.4754 455.76 36.3354 455.616C36.1994 455.472 36.0914 455.3 36.0114 455.1C35.9354 454.9 35.8974 454.68 35.8974 454.44ZM41.6554 453.402C41.5794 453.37 41.4894 453.354 41.3854 453.354C41.2734 453.354 41.1634 453.378 41.0554 453.426C40.9514 453.474 40.8574 453.546 40.7734 453.642C40.6934 453.738 40.6274 453.862 40.5754 454.014C40.5274 454.162 40.5034 454.338 40.5034 454.542V456H39.9634V452.88H40.4854V453.558C40.5214 453.462 40.5694 453.368 40.6294 453.276C40.6894 453.184 40.7594 453.104 40.8394 453.036C40.9234 452.968 41.0194 452.914 41.1274 452.874C41.2354 452.83 41.3554 452.808 41.4874 452.808C41.5474 452.808 41.6054 452.812 41.6614 452.82C41.7214 452.824 41.7734 452.832 41.8174 452.844L41.6554 453.402ZM43.1398 456H42.5998V452.88H43.1398V456ZM42.8698 452.346C42.7658 452.346 42.6758 452.31 42.5998 452.238C42.5278 452.162 42.4918 452.072 42.4918 451.968C42.4918 451.852 42.5258 451.76 42.5938 451.692C42.6618 451.624 42.7538 451.59 42.8698 451.59C42.9738 451.59 43.0618 451.628 43.1338 451.704C43.2098 451.776 43.2478 451.864 43.2478 451.968C43.2478 452.084 43.2138 452.176 43.1458 452.244C43.0778 452.312 42.9858 452.346 42.8698 452.346ZM44.5858 452.01H44.9998V452.994H45.8638V453.462H44.9998V454.968C44.9998 455.084 45.0118 455.182 45.0358 455.262C45.0638 455.342 45.0998 455.406 45.1438 455.454C45.1878 455.502 45.2398 455.538 45.2998 455.562C45.3638 455.582 45.4298 455.592 45.4978 455.592C45.5978 455.592 45.6918 455.576 45.7798 455.544C45.8678 455.512 45.9518 455.474 46.0318 455.43L46.1818 455.862C46.1018 455.91 45.9938 455.956 45.8578 456C45.7218 456.048 45.5798 456.072 45.4318 456.072C45.1318 456.072 44.8938 455.974 44.7178 455.778C44.5458 455.582 44.4598 455.298 44.4598 454.926V453.462H43.9198V452.994H44.4718L44.5858 452.01ZM49.1634 454.44C49.1634 454.284 49.1374 454.136 49.0854 453.996C49.0374 453.856 48.9674 453.734 48.8754 453.63C48.7874 453.526 48.6814 453.444 48.5574 453.384C48.4374 453.32 48.3054 453.288 48.1614 453.288C47.8454 453.288 47.5994 453.392 47.4234 453.6C47.2474 453.808 47.1594 454.084 47.1594 454.428C47.1594 454.584 47.1834 454.734 47.2314 454.878C47.2834 455.018 47.3534 455.142 47.4414 455.25C47.5334 455.354 47.6394 455.438 47.7594 455.502C47.8834 455.562 48.0174 455.592 48.1614 455.592C48.3174 455.592 48.4574 455.564 48.5814 455.508C48.7054 455.452 48.8094 455.374 48.8934 455.274C48.9814 455.17 49.0474 455.048 49.0914 454.908C49.1394 454.768 49.1634 454.612 49.1634 454.44ZM46.6074 454.44C46.6074 454.188 46.6474 453.962 46.7274 453.762C46.8074 453.558 46.9154 453.386 47.0514 453.246C47.1914 453.106 47.3554 452.998 47.5434 452.922C47.7354 452.846 47.9414 452.808 48.1614 452.808C48.3774 452.808 48.5794 452.846 48.7674 452.922C48.9594 452.998 49.1254 453.106 49.2654 453.246C49.4054 453.386 49.5154 453.556 49.5954 453.756C49.6754 453.956 49.7154 454.18 49.7154 454.428C49.7154 454.676 49.6754 454.902 49.5954 455.106C49.5194 455.306 49.4114 455.478 49.2714 455.622C49.1314 455.766 48.9654 455.878 48.7734 455.958C48.5854 456.034 48.3814 456.072 48.1614 456.072C47.9374 456.072 47.7294 456.032 47.5374 455.952C47.3494 455.872 47.1854 455.76 47.0454 455.616C46.9094 455.472 46.8014 455.3 46.7214 455.1C46.6454 454.9 46.6074 454.68 46.6074 454.44ZM50.6314 455.298C50.7354 455.39 50.8654 455.464 51.0214 455.52C51.1814 455.576 51.3514 455.604 51.5314 455.604C51.7554 455.604 51.9234 455.568 52.0354 455.496C52.1514 455.42 52.2094 455.324 52.2094 455.208C52.2094 455.148 52.1974 455.092 52.1734 455.04C52.1534 454.988 52.1134 454.938 52.0534 454.89C51.9974 454.842 51.9194 454.796 51.8194 454.752C51.7194 454.704 51.5894 454.652 51.4294 454.596C51.1334 454.496 50.9134 454.378 50.7694 454.242C50.6254 454.102 50.5534 453.91 50.5534 453.666C50.5534 453.546 50.5794 453.434 50.6314 453.33C50.6874 453.226 50.7654 453.136 50.8654 453.06C50.9694 452.98 51.0934 452.918 51.2374 452.874C51.3854 452.83 51.5534 452.808 51.7414 452.808C51.9454 452.808 52.1234 452.83 52.2754 452.874C52.4314 452.914 52.5714 452.966 52.6954 453.03L52.5454 453.474C52.4374 453.41 52.3134 453.358 52.1734 453.318C52.0374 453.278 51.8854 453.258 51.7174 453.258C51.5094 453.258 51.3514 453.3 51.2434 453.384C51.1354 453.468 51.0814 453.56 51.0814 453.66C51.0814 453.708 51.0894 453.752 51.1054 453.792C51.1254 453.832 51.1594 453.87 51.2074 453.906C51.2554 453.942 51.3194 453.978 51.3994 454.014C51.4794 454.05 51.5794 454.088 51.6994 454.128C51.8954 454.196 52.0614 454.266 52.1974 454.338C52.3334 454.406 52.4434 454.482 52.5274 454.566C52.6114 454.65 52.6714 454.742 52.7074 454.842C52.7434 454.938 52.7614 455.046 52.7614 455.166C52.7614 455.306 52.7314 455.432 52.6714 455.544C52.6114 455.656 52.5274 455.752 52.4194 455.832C52.3114 455.908 52.1794 455.966 52.0234 456.006C51.8714 456.05 51.7014 456.072 51.5134 456.072C51.2734 456.072 51.0594 456.042 50.8714 455.982C50.6834 455.922 50.5274 455.844 50.4034 455.748L50.6314 455.298Z" fill="#A3A3A3"/>
<path d="M71.5569 454.086H69.4869V456H68.9169V451.8H69.4869V453.594H71.5569V451.8H72.1269V456H71.5569V454.086ZM73.9259 456H73.3859V452.88H73.9259V456ZM73.6559 452.346C73.5519 452.346 73.4619 452.31 73.3859 452.238C73.3139 452.162 73.2779 452.072 73.2779 451.968C73.2779 451.852 73.3119 451.76 73.3799 451.692C73.4479 451.624 73.5399 451.59 73.6559 451.59C73.7599 451.59 73.8479 451.628 73.9199 451.704C73.9959 451.776 74.0339 451.864 74.0339 451.968C74.0339 452.084 73.9999 452.176 73.9319 452.244C73.8639 452.312 73.7719 452.346 73.6559 452.346ZM75.0839 455.298C75.1879 455.39 75.3179 455.464 75.4739 455.52C75.6339 455.576 75.8039 455.604 75.9839 455.604C76.2079 455.604 76.3759 455.568 76.4879 455.496C76.6039 455.42 76.6619 455.324 76.6619 455.208C76.6619 455.148 76.6499 455.092 76.6259 455.04C76.6059 454.988 76.5659 454.938 76.5059 454.89C76.4499 454.842 76.3719 454.796 76.2719 454.752C76.1719 454.704 76.0419 454.652 75.8819 454.596C75.5859 454.496 75.3659 454.378 75.2219 454.242C75.0779 454.102 75.0059 453.91 75.0059 453.666C75.0059 453.546 75.0319 453.434 75.0839 453.33C75.1399 453.226 75.2179 453.136 75.3179 453.06C75.4219 452.98 75.5459 452.918 75.6899 452.874C75.8379 452.83 76.0059 452.808 76.1939 452.808C76.3979 452.808 76.5759 452.83 76.7279 452.874C76.8839 452.914 77.0239 452.966 77.1479 453.03L76.9979 453.474C76.8899 453.41 76.7659 453.358 76.6259 453.318C76.4899 453.278 76.3379 453.258 76.1699 453.258C75.9619 453.258 75.8039 453.3 75.6959 453.384C75.5879 453.468 75.5339 453.56 75.5339 453.66C75.5339 453.708 75.5419 453.752 75.5579 453.792C75.5779 453.832 75.6119 453.87 75.6599 453.906C75.7079 453.942 75.7719 453.978 75.8519 454.014C75.9319 454.05 76.0319 454.088 76.1519 454.128C76.3479 454.196 76.5139 454.266 76.6499 454.338C76.7859 454.406 76.8959 454.482 76.9799 454.566C77.0639 454.65 77.1239 454.742 77.1599 454.842C77.1959 454.938 77.2139 455.046 77.2139 455.166C77.2139 455.306 77.1839 455.432 77.1239 455.544C77.0639 455.656 76.9799 455.752 76.8719 455.832C76.7639 455.908 76.6319 455.966 76.4759 456.006C76.3239 456.05 76.1539 456.072 75.9659 456.072C75.7259 456.072 75.5119 456.042 75.3239 455.982C75.1359 455.922 74.9799 455.844 74.8559 455.748L75.0839 455.298ZM78.4186 452.01H78.8326V452.994H79.6966V453.462H78.8326V454.968C78.8326 455.084 78.8446 455.182 78.8686 455.262C78.8966 455.342 78.9326 455.406 78.9766 455.454C79.0206 455.502 79.0726 455.538 79.1326 455.562C79.1966 455.582 79.2626 455.592 79.3306 455.592C79.4306 455.592 79.5246 455.576 79.6126 455.544C79.7006 455.512 79.7846 455.474 79.8646 455.43L80.0146 455.862C79.9346 455.91 79.8266 455.956 79.6906 456C79.5546 456.048 79.4126 456.072 79.2646 456.072C78.9646 456.072 78.7266 455.974 78.5506 455.778C78.3786 455.582 78.2926 455.298 78.2926 454.926V453.462H77.7526V452.994H78.3046L78.4186 452.01ZM82.9962 454.44C82.9962 454.284 82.9702 454.136 82.9182 453.996C82.8702 453.856 82.8002 453.734 82.7082 453.63C82.6202 453.526 82.5142 453.444 82.3902 453.384C82.2702 453.32 82.1382 453.288 81.9942 453.288C81.6782 453.288 81.4322 453.392 81.2562 453.6C81.0802 453.808 80.9922 454.084 80.9922 454.428C80.9922 454.584 81.0162 454.734 81.0642 454.878C81.1162 455.018 81.1862 455.142 81.2742 455.25C81.3662 455.354 81.4722 455.438 81.5922 455.502C81.7162 455.562 81.8502 455.592 81.9942 455.592C82.1502 455.592 82.2902 455.564 82.4142 455.508C82.5382 455.452 82.6422 455.374 82.7262 455.274C82.8142 455.17 82.8802 455.048 82.9242 454.908C82.9722 454.768 82.9962 454.612 82.9962 454.44ZM80.4402 454.44C80.4402 454.188 80.4802 453.962 80.5602 453.762C80.6402 453.558 80.7482 453.386 80.8842 453.246C81.0242 453.106 81.1882 452.998 81.3762 452.922C81.5682 452.846 81.7742 452.808 81.9942 452.808C82.2102 452.808 82.4122 452.846 82.6002 452.922C82.7922 452.998 82.9582 453.106 83.0982 453.246C83.2382 453.386 83.3482 453.556 83.4282 453.756C83.5082 453.956 83.5482 454.18 83.5482 454.428C83.5482 454.676 83.5082 454.902 83.4282 455.106C83.3522 455.306 83.2442 455.478 83.1042 455.622C82.9642 455.766 82.7982 455.878 82.6062 455.958C82.4182 456.034 82.2142 456.072 81.9942 456.072C81.7702 456.072 81.5622 456.032 81.3702 455.952C81.1822 455.872 81.0182 455.76 80.8782 455.616C80.7422 455.472 80.6342 455.3 80.5542 455.1C80.4782 454.9 80.4402 454.68 80.4402 454.44ZM81.3762 452.184L82.5102 451.434L82.7622 451.938L81.5622 452.55L81.3762 452.184ZM86.1981 453.402C86.1221 453.37 86.0321 453.354 85.9281 453.354C85.8161 453.354 85.7061 453.378 85.5981 453.426C85.4941 453.474 85.4001 453.546 85.3161 453.642C85.2361 453.738 85.1701 453.862 85.1181 454.014C85.0701 454.162 85.0461 454.338 85.0461 454.542V456H84.5061V452.88H85.0281V453.558C85.0641 453.462 85.1121 453.368 85.1721 453.276C85.2321 453.184 85.3021 453.104 85.3821 453.036C85.4661 452.968 85.5621 452.914 85.6701 452.874C85.7781 452.83 85.8981 452.808 86.0301 452.808C86.0901 452.808 86.1481 452.812 86.2041 452.82C86.2641 452.824 86.3161 452.832 86.3601 452.844L86.1981 453.402ZM87.6826 456H87.1426V452.88H87.6826V456ZM87.4126 452.346C87.3086 452.346 87.2186 452.31 87.1426 452.238C87.0706 452.162 87.0346 452.072 87.0346 451.968C87.0346 451.852 87.0686 451.76 87.1366 451.692C87.2046 451.624 87.2966 451.59 87.4126 451.59C87.5166 451.59 87.6046 451.628 87.6766 451.704C87.7526 451.776 87.7906 451.864 87.7906 451.968C87.7906 452.084 87.7566 452.176 87.6886 452.244C87.6206 452.312 87.5286 452.346 87.4126 452.346ZM90.8746 453.45C90.7586 453.394 90.6506 453.354 90.5506 453.33C90.4506 453.302 90.3386 453.288 90.2146 453.288C90.0746 453.288 89.9426 453.314 89.8186 453.366C89.6986 453.418 89.5946 453.494 89.5066 453.594C89.4186 453.69 89.3486 453.808 89.2966 453.948C89.2486 454.088 89.2246 454.248 89.2246 454.428C89.2246 454.592 89.2466 454.744 89.2906 454.884C89.3386 455.024 89.4046 455.148 89.4886 455.256C89.5726 455.36 89.6726 455.442 89.7886 455.502C89.9046 455.562 90.0346 455.592 90.1786 455.592C90.3306 455.592 90.4606 455.576 90.5686 455.544C90.6766 455.512 90.7926 455.462 90.9166 455.394L91.0846 455.85C90.9566 455.918 90.8166 455.972 90.6646 456.012C90.5126 456.052 90.3386 456.072 90.1426 456.072C89.9186 456.072 89.7166 456.032 89.5366 455.952C89.3566 455.872 89.2026 455.76 89.0746 455.616C88.9466 455.472 88.8466 455.3 88.7746 455.1C88.7066 454.9 88.6726 454.68 88.6726 454.44C88.6726 454.216 88.7066 454.006 88.7746 453.81C88.8466 453.61 88.9486 453.436 89.0806 453.288C89.2126 453.14 89.3706 453.024 89.5546 452.94C89.7426 452.852 89.9526 452.808 90.1846 452.808C90.3646 452.808 90.5206 452.824 90.6526 452.856C90.7846 452.888 90.9126 452.934 91.0366 452.994L90.8746 453.45ZM94.2101 454.44C94.2101 454.284 94.1841 454.136 94.1321 453.996C94.0841 453.856 94.0141 453.734 93.9221 453.63C93.8341 453.526 93.7281 453.444 93.6041 453.384C93.4841 453.32 93.3521 453.288 93.2081 453.288C92.8921 453.288 92.6461 453.392 92.4701 453.6C92.2941 453.808 92.2061 454.084 92.2061 454.428C92.2061 454.584 92.2301 454.734 92.2781 454.878C92.3301 455.018 92.4001 455.142 92.4881 455.25C92.5801 455.354 92.6861 455.438 92.8061 455.502C92.9301 455.562 93.0641 455.592 93.2081 455.592C93.3641 455.592 93.5041 455.564 93.6281 455.508C93.7521 455.452 93.8561 455.374 93.9401 455.274C94.0281 455.17 94.0941 455.048 94.1381 454.908C94.1861 454.768 94.2101 454.612 94.2101 454.44ZM91.6541 454.44C91.6541 454.188 91.6941 453.962 91.7741 453.762C91.8541 453.558 91.9621 453.386 92.0981 453.246C92.2381 453.106 92.4021 452.998 92.5901 452.922C92.7821 452.846 92.9881 452.808 93.2081 452.808C93.4241 452.808 93.6261 452.846 93.8141 452.922C94.0061 452.998 94.1721 453.106 94.3121 453.246C94.4521 453.386 94.5621 453.556 94.6421 453.756C94.7221 453.956 94.7621 454.18 94.7621 454.428C94.7621 454.676 94.7221 454.902 94.6421 455.106C94.5661 455.306 94.4581 455.478 94.3181 455.622C94.1781 455.766 94.0121 455.878 93.8201 455.958C93.6321 456.034 93.4281 456.072 93.2081 456.072C92.9841 456.072 92.7761 456.032 92.5841 455.952C92.3961 455.872 92.2321 455.76 92.0921 455.616C91.9561 455.472 91.8481 455.3 91.7681 455.1C91.6921 454.9 91.6541 454.68 91.6541 454.44Z" fill="#A3A3A3"/>
<path d="M112.054 453.894C112.054 454.146 112.086 454.376 112.15 454.584C112.218 454.788 112.31 454.964 112.426 455.112C112.546 455.26 112.688 455.374 112.852 455.454C113.016 455.534 113.196 455.574 113.392 455.574C113.588 455.574 113.758 455.552 113.902 455.508C114.046 455.46 114.186 455.396 114.322 455.316L114.496 455.79C114.348 455.87 114.178 455.938 113.986 455.994C113.798 456.046 113.578 456.072 113.326 456.072C113.05 456.072 112.798 456.022 112.57 455.922C112.346 455.822 112.152 455.68 111.988 455.496C111.824 455.308 111.696 455.082 111.604 454.818C111.516 454.55 111.472 454.25 111.472 453.918C111.472 453.598 111.516 453.304 111.604 453.036C111.696 452.768 111.826 452.538 111.994 452.346C112.162 452.15 112.364 451.998 112.6 451.89C112.84 451.782 113.106 451.728 113.398 451.728C113.602 451.728 113.784 451.748 113.944 451.788C114.108 451.824 114.262 451.876 114.406 451.944L114.232 452.424C114.108 452.364 113.98 452.316 113.848 452.28C113.72 452.244 113.568 452.226 113.392 452.226C113.2 452.226 113.022 452.264 112.858 452.34C112.694 452.412 112.552 452.52 112.432 452.664C112.312 452.808 112.218 452.984 112.15 453.192C112.086 453.396 112.054 453.63 112.054 453.894ZM117.588 454.44C117.588 454.284 117.562 454.136 117.51 453.996C117.462 453.856 117.392 453.734 117.3 453.63C117.212 453.526 117.106 453.444 116.982 453.384C116.862 453.32 116.73 453.288 116.586 453.288C116.27 453.288 116.024 453.392 115.848 453.6C115.672 453.808 115.584 454.084 115.584 454.428C115.584 454.584 115.608 454.734 115.656 454.878C115.708 455.018 115.778 455.142 115.866 455.25C115.958 455.354 116.064 455.438 116.184 455.502C116.308 455.562 116.442 455.592 116.586 455.592C116.742 455.592 116.882 455.564 117.006 455.508C117.13 455.452 117.234 455.374 117.318 455.274C117.406 455.17 117.472 455.048 117.516 454.908C117.564 454.768 117.588 454.612 117.588 454.44ZM115.032 454.44C115.032 454.188 115.072 453.962 115.152 453.762C115.232 453.558 115.34 453.386 115.476 453.246C115.616 453.106 115.78 452.998 115.968 452.922C116.16 452.846 116.366 452.808 116.586 452.808C116.802 452.808 117.004 452.846 117.192 452.922C117.384 452.998 117.55 453.106 117.69 453.246C117.83 453.386 117.94 453.556 118.02 453.756C118.1 453.956 118.14 454.18 118.14 454.428C118.14 454.676 118.1 454.902 118.02 455.106C117.944 455.306 117.836 455.478 117.696 455.622C117.556 455.766 117.39 455.878 117.198 455.958C117.01 456.034 116.806 456.072 116.586 456.072C116.362 456.072 116.154 456.032 115.962 455.952C115.774 455.872 115.61 455.76 115.47 455.616C115.334 455.472 115.226 455.3 115.146 455.1C115.07 454.9 115.032 454.68 115.032 454.44ZM119.62 453.402C119.732 453.234 119.874 453.094 120.046 452.982C120.222 452.866 120.43 452.808 120.67 452.808C121.022 452.808 121.284 452.914 121.456 453.126C121.632 453.338 121.72 453.618 121.72 453.966V456H121.18V454.026C121.18 453.798 121.128 453.618 121.024 453.486C120.92 453.35 120.772 453.282 120.58 453.282C120.488 453.282 120.398 453.3 120.31 453.336C120.222 453.368 120.136 453.414 120.052 453.474C119.972 453.534 119.896 453.604 119.824 453.684C119.756 453.764 119.694 453.848 119.638 453.936V456H119.098V452.88H119.62V453.402ZM123.135 452.01H123.549V452.994H124.413V453.462H123.549V454.968C123.549 455.084 123.561 455.182 123.585 455.262C123.613 455.342 123.649 455.406 123.693 455.454C123.737 455.502 123.789 455.538 123.849 455.562C123.913 455.582 123.979 455.592 124.047 455.592C124.147 455.592 124.241 455.576 124.329 455.544C124.417 455.512 124.501 455.474 124.581 455.43L124.731 455.862C124.651 455.91 124.543 455.956 124.407 456C124.271 456.048 124.129 456.072 123.981 456.072C123.681 456.072 123.443 455.974 123.267 455.778C123.095 455.582 123.009 455.298 123.009 454.926V453.462H122.469V452.994H123.021L123.135 452.01ZM125.187 454.458C125.187 454.226 125.223 454.01 125.295 453.81C125.367 453.606 125.467 453.43 125.595 453.282C125.727 453.134 125.883 453.018 126.063 452.934C126.247 452.85 126.447 452.808 126.663 452.808C126.843 452.808 127.005 452.84 127.149 452.904C127.297 452.964 127.425 453.04 127.533 453.132V452.88H128.025V455.244C128.025 455.396 128.061 455.496 128.133 455.544C128.209 455.588 128.291 455.61 128.379 455.61L128.265 456.03C127.881 456.03 127.649 455.874 127.569 455.562C127.521 455.626 127.465 455.69 127.401 455.754C127.341 455.814 127.271 455.868 127.191 455.916C127.111 455.964 127.021 456.002 126.921 456.03C126.821 456.058 126.711 456.072 126.591 456.072C126.395 456.072 126.211 456.034 126.039 455.958C125.871 455.882 125.723 455.774 125.595 455.634C125.471 455.494 125.371 455.326 125.295 455.13C125.223 454.93 125.187 454.706 125.187 454.458ZM126.711 455.592C126.863 455.592 127.007 455.556 127.143 455.484C127.279 455.412 127.393 455.318 127.485 455.202V453.528C127.377 453.452 127.257 453.392 127.125 453.348C126.997 453.3 126.861 453.276 126.717 453.276C126.573 453.276 126.441 453.304 126.321 453.36C126.201 453.416 126.097 453.496 126.009 453.6C125.925 453.7 125.859 453.822 125.811 453.966C125.763 454.11 125.739 454.268 125.739 454.44C125.739 454.608 125.763 454.764 125.811 454.908C125.859 455.048 125.927 455.17 126.015 455.274C126.103 455.374 126.205 455.452 126.321 455.508C126.441 455.564 126.571 455.592 126.711 455.592ZM129.586 452.01H130V452.994H130.864V453.462H130V454.968C130 455.084 130.012 455.182 130.036 455.262C130.064 455.342 130.1 455.406 130.144 455.454C130.188 455.502 130.24 455.538 130.3 455.562C130.364 455.582 130.43 455.592 130.498 455.592C130.598 455.592 130.692 455.576 130.78 455.544C130.868 455.512 130.952 455.474 131.032 455.43L131.182 455.862C131.102 455.91 130.994 455.956 130.858 456C130.722 456.048 130.58 456.072 130.432 456.072C130.132 456.072 129.894 455.974 129.718 455.778C129.546 455.582 129.46 455.298 129.46 454.926V453.462H128.92V452.994H129.472L129.586 452.01ZM134.163 454.44C134.163 454.284 134.137 454.136 134.085 453.996C134.037 453.856 133.967 453.734 133.875 453.63C133.787 453.526 133.681 453.444 133.557 453.384C133.437 453.32 133.305 453.288 133.161 453.288C132.845 453.288 132.599 453.392 132.423 453.6C132.247 453.808 132.159 454.084 132.159 454.428C132.159 454.584 132.183 454.734 132.231 454.878C132.283 455.018 132.353 455.142 132.441 455.25C132.533 455.354 132.639 455.438 132.759 455.502C132.883 455.562 133.017 455.592 133.161 455.592C133.317 455.592 133.457 455.564 133.581 455.508C133.705 455.452 133.809 455.374 133.893 455.274C133.981 455.17 134.047 455.048 134.091 454.908C134.139 454.768 134.163 454.612 134.163 454.44ZM131.607 454.44C131.607 454.188 131.647 453.962 131.727 453.762C131.807 453.558 131.915 453.386 132.051 453.246C132.191 453.106 132.355 452.998 132.543 452.922C132.735 452.846 132.941 452.808 133.161 452.808C133.377 452.808 133.579 452.846 133.767 452.922C133.959 452.998 134.125 453.106 134.265 453.246C134.405 453.386 134.515 453.556 134.595 453.756C134.675 453.956 134.715 454.18 134.715 454.428C134.715 454.676 134.675 454.902 134.595 455.106C134.519 455.306 134.411 455.478 134.271 455.622C134.131 455.766 133.965 455.878 133.773 455.958C133.585 456.034 133.381 456.072 133.161 456.072C132.937 456.072 132.729 456.032 132.537 455.952C132.349 455.872 132.185 455.76 132.045 455.616C131.909 455.472 131.801 455.3 131.721 455.1C131.645 454.9 131.607 454.68 131.607 454.44ZM135.631 455.298C135.735 455.39 135.865 455.464 136.021 455.52C136.181 455.576 136.351 455.604 136.531 455.604C136.755 455.604 136.923 455.568 137.035 455.496C137.151 455.42 137.209 455.324 137.209 455.208C137.209 455.148 137.197 455.092 137.173 455.04C137.153 454.988 137.113 454.938 137.053 454.89C136.997 454.842 136.919 454.796 136.819 454.752C136.719 454.704 136.589 454.652 136.429 454.596C136.133 454.496 135.913 454.378 135.769 454.242C135.625 454.102 135.553 453.91 135.553 453.666C135.553 453.546 135.579 453.434 135.631 453.33C135.687 453.226 135.765 453.136 135.865 453.06C135.969 452.98 136.093 452.918 136.237 452.874C136.385 452.83 136.553 452.808 136.741 452.808C136.945 452.808 137.123 452.83 137.275 452.874C137.431 452.914 137.571 452.966 137.695 453.03L137.545 453.474C137.437 453.41 137.313 453.358 137.173 453.318C137.037 453.278 136.885 453.258 136.717 453.258C136.509 453.258 136.351 453.3 136.243 453.384C136.135 453.468 136.081 453.56 136.081 453.66C136.081 453.708 136.089 453.752 136.105 453.792C136.125 453.832 136.159 453.87 136.207 453.906C136.255 453.942 136.319 453.978 136.399 454.014C136.479 454.05 136.579 454.088 136.699 454.128C136.895 454.196 137.061 454.266 137.197 454.338C137.333 454.406 137.443 454.482 137.527 454.566C137.611 454.65 137.671 454.742 137.707 454.842C137.743 454.938 137.761 455.046 137.761 455.166C137.761 455.306 137.731 455.432 137.671 455.544C137.611 455.656 137.527 455.752 137.419 455.832C137.311 455.908 137.179 455.966 137.023 456.006C136.871 456.05 136.701 456.072 136.513 456.072C136.273 456.072 136.059 456.042 135.871 455.982C135.683 455.922 135.527 455.844 135.403 455.748L135.631 455.298Z" fill="#A3A3A3"/>
<path d="M155.987 451.8H159.137V452.304H157.847V456H157.277V452.304H155.987V451.8ZM159.749 454.662C159.785 454.954 159.887 455.182 160.055 455.346C160.223 455.51 160.445 455.592 160.721 455.592C160.901 455.592 161.063 455.574 161.207 455.538C161.351 455.498 161.489 455.448 161.621 455.388L161.747 455.85C161.603 455.918 161.441 455.972 161.261 456.012C161.081 456.052 160.879 456.072 160.655 456.072C160.431 456.072 160.229 456.036 160.049 455.964C159.869 455.888 159.715 455.782 159.587 455.646C159.463 455.506 159.367 455.336 159.299 455.136C159.231 454.932 159.197 454.7 159.197 454.44C159.197 454.208 159.231 453.992 159.299 453.792C159.367 453.592 159.463 453.42 159.587 453.276C159.711 453.128 159.859 453.014 160.031 452.934C160.203 452.85 160.395 452.808 160.607 452.808C160.831 452.808 161.027 452.846 161.195 452.922C161.363 452.998 161.503 453.102 161.615 453.234C161.727 453.366 161.811 453.52 161.867 453.696C161.923 453.872 161.951 454.058 161.951 454.254C161.951 454.394 161.945 454.53 161.933 454.662H159.749ZM160.595 453.276C160.359 453.276 160.165 453.356 160.013 453.516C159.865 453.676 159.775 453.912 159.743 454.224H161.453C161.453 453.92 161.377 453.686 161.225 453.522C161.073 453.358 160.863 453.276 160.595 453.276ZM164.903 453.45C164.787 453.394 164.679 453.354 164.579 453.33C164.479 453.302 164.367 453.288 164.243 453.288C164.103 453.288 163.971 453.314 163.847 453.366C163.727 453.418 163.623 453.494 163.535 453.594C163.447 453.69 163.377 453.808 163.325 453.948C163.277 454.088 163.253 454.248 163.253 454.428C163.253 454.592 163.275 454.744 163.319 454.884C163.367 455.024 163.433 455.148 163.517 455.256C163.601 455.36 163.701 455.442 163.817 455.502C163.933 455.562 164.063 455.592 164.207 455.592C164.359 455.592 164.489 455.576 164.597 455.544C164.705 455.512 164.821 455.462 164.945 455.394L165.113 455.85C164.985 455.918 164.845 455.972 164.693 456.012C164.541 456.052 164.367 456.072 164.171 456.072C163.947 456.072 163.745 456.032 163.565 455.952C163.385 455.872 163.231 455.76 163.103 455.616C162.975 455.472 162.875 455.3 162.803 455.1C162.735 454.9 162.701 454.68 162.701 454.44C162.701 454.216 162.735 454.006 162.803 453.81C162.875 453.61 162.977 453.436 163.109 453.288C163.241 453.14 163.399 453.024 163.583 452.94C163.771 452.852 163.981 452.808 164.213 452.808C164.393 452.808 164.549 452.824 164.681 452.856C164.813 452.888 164.941 452.934 165.065 452.994L164.903 453.45ZM166.432 454.968C166.432 455.184 166.476 455.344 166.564 455.448C166.656 455.552 166.782 455.604 166.942 455.604C167.018 455.604 167.092 455.596 167.164 455.58C167.236 455.56 167.3 455.538 167.356 455.514L167.488 455.952C167.416 455.984 167.326 456.012 167.218 456.036C167.114 456.06 166.998 456.072 166.87 456.072C166.73 456.072 166.6 456.052 166.48 456.012C166.364 455.972 166.262 455.91 166.174 455.826C166.086 455.742 166.016 455.634 165.964 455.502C165.916 455.37 165.892 455.21 165.892 455.022V451.56H166.432V454.968ZM167.938 454.458C167.938 454.226 167.974 454.01 168.046 453.81C168.118 453.606 168.218 453.43 168.346 453.282C168.478 453.134 168.634 453.018 168.814 452.934C168.998 452.85 169.198 452.808 169.414 452.808C169.594 452.808 169.756 452.84 169.9 452.904C170.048 452.964 170.176 453.04 170.284 453.132V452.88H170.776V455.244C170.776 455.396 170.812 455.496 170.884 455.544C170.96 455.588 171.042 455.61 171.13 455.61L171.016 456.03C170.632 456.03 170.4 455.874 170.32 455.562C170.272 455.626 170.216 455.69 170.152 455.754C170.092 455.814 170.022 455.868 169.942 455.916C169.862 455.964 169.772 456.002 169.672 456.03C169.572 456.058 169.462 456.072 169.342 456.072C169.146 456.072 168.962 456.034 168.79 455.958C168.622 455.882 168.474 455.774 168.346 455.634C168.222 455.494 168.122 455.326 168.046 455.13C167.974 454.93 167.938 454.706 167.938 454.458ZM169.462 455.592C169.614 455.592 169.758 455.556 169.894 455.484C170.03 455.412 170.144 455.318 170.236 455.202V453.528C170.128 453.452 170.008 453.392 169.876 453.348C169.748 453.3 169.612 453.276 169.468 453.276C169.324 453.276 169.192 453.304 169.072 453.36C168.952 453.416 168.848 453.496 168.76 453.6C168.676 453.7 168.61 453.822 168.562 453.966C168.514 454.11 168.49 454.268 168.49 454.44C168.49 454.608 168.514 454.764 168.562 454.908C168.61 455.048 168.678 455.17 168.766 455.274C168.854 455.374 168.956 455.452 169.072 455.508C169.192 455.564 169.322 455.592 169.462 455.592ZM173.215 456.072C173.023 456.072 172.841 456.034 172.669 455.958C172.501 455.882 172.353 455.774 172.225 455.634C172.101 455.494 172.003 455.326 171.931 455.13C171.859 454.93 171.823 454.706 171.823 454.458C171.823 454.222 171.859 454.004 171.931 453.804C172.007 453.6 172.107 453.426 172.231 453.282C172.359 453.134 172.507 453.018 172.675 452.934C172.843 452.85 173.021 452.808 173.209 452.808C173.417 452.808 173.595 452.85 173.743 452.934C173.895 453.018 174.013 453.104 174.097 453.192V451.56H174.637V455.244C174.637 455.396 174.673 455.496 174.745 455.544C174.821 455.588 174.903 455.61 174.991 455.61L174.877 456.03C174.497 456.03 174.265 455.878 174.181 455.574C174.089 455.702 173.965 455.818 173.809 455.922C173.653 456.022 173.455 456.072 173.215 456.072ZM173.335 455.592C173.483 455.592 173.623 455.558 173.755 455.49C173.891 455.418 174.005 455.326 174.097 455.214V453.666C174.021 453.57 173.915 453.482 173.779 453.402C173.647 453.318 173.497 453.276 173.329 453.276C173.185 453.276 173.053 453.306 172.933 453.366C172.817 453.426 172.717 453.508 172.633 453.612C172.549 453.716 172.485 453.84 172.441 453.984C172.397 454.124 172.375 454.276 172.375 454.44C172.375 454.608 172.399 454.762 172.447 454.902C172.495 455.042 172.561 455.164 172.645 455.268C172.733 455.368 172.835 455.448 172.951 455.508C173.071 455.564 173.199 455.592 173.335 455.592ZM178.21 454.44C178.21 454.284 178.184 454.136 178.132 453.996C178.084 453.856 178.014 453.734 177.922 453.63C177.834 453.526 177.728 453.444 177.604 453.384C177.484 453.32 177.352 453.288 177.208 453.288C176.892 453.288 176.646 453.392 176.47 453.6C176.294 453.808 176.206 454.084 176.206 454.428C176.206 454.584 176.23 454.734 176.278 454.878C176.33 455.018 176.4 455.142 176.488 455.25C176.58 455.354 176.686 455.438 176.806 455.502C176.93 455.562 177.064 455.592 177.208 455.592C177.364 455.592 177.504 455.564 177.628 455.508C177.752 455.452 177.856 455.374 177.94 455.274C178.028 455.17 178.094 455.048 178.138 454.908C178.186 454.768 178.21 454.612 178.21 454.44ZM175.654 454.44C175.654 454.188 175.694 453.962 175.774 453.762C175.854 453.558 175.962 453.386 176.098 453.246C176.238 453.106 176.402 452.998 176.59 452.922C176.782 452.846 176.988 452.808 177.208 452.808C177.424 452.808 177.626 452.846 177.814 452.922C178.006 452.998 178.172 453.106 178.312 453.246C178.452 453.386 178.562 453.556 178.642 453.756C178.722 453.956 178.762 454.18 178.762 454.428C178.762 454.676 178.722 454.902 178.642 455.106C178.566 455.306 178.458 455.478 178.318 455.622C178.178 455.766 178.012 455.878 177.82 455.958C177.632 456.034 177.428 456.072 177.208 456.072C176.984 456.072 176.776 456.032 176.584 455.952C176.396 455.872 176.232 455.76 176.092 455.616C175.956 455.472 175.848 455.3 175.768 455.1C175.692 454.9 175.654 454.68 175.654 454.44Z" fill="#A3A3A3"/>
<path d="M193.855 454.662C193.891 454.954 193.993 455.182 194.161 455.346C194.329 455.51 194.551 455.592 194.827 455.592C195.007 455.592 195.169 455.574 195.313 455.538C195.457 455.498 195.595 455.448 195.727 455.388L195.853 455.85C195.709 455.918 195.547 455.972 195.367 456.012C195.187 456.052 194.985 456.072 194.761 456.072C194.537 456.072 194.335 456.036 194.155 455.964C193.975 455.888 193.821 455.782 193.693 455.646C193.569 455.506 193.473 455.336 193.405 455.136C193.337 454.932 193.303 454.7 193.303 454.44C193.303 454.208 193.337 453.992 193.405 453.792C193.473 453.592 193.569 453.42 193.693 453.276C193.817 453.128 193.965 453.014 194.137 452.934C194.309 452.85 194.501 452.808 194.713 452.808C194.937 452.808 195.133 452.846 195.301 452.922C195.469 452.998 195.609 453.102 195.721 453.234C195.833 453.366 195.917 453.52 195.973 453.696C196.029 453.872 196.057 454.058 196.057 454.254C196.057 454.394 196.051 454.53 196.039 454.662H193.855ZM194.701 453.276C194.465 453.276 194.271 453.356 194.119 453.516C193.971 453.676 193.881 453.912 193.849 454.224H195.559C195.559 453.92 195.483 453.686 195.331 453.522C195.179 453.358 194.969 453.276 194.701 453.276ZM197.317 454.188V453.696H199.357V454.188H197.317ZM203.92 455.664L203.524 456.072L201.484 454.068V456H200.914V451.8H201.484V453.714L203.272 451.782L203.656 452.136L202.018 453.84L203.92 455.664ZM204.488 454.458C204.488 454.226 204.524 454.01 204.596 453.81C204.668 453.606 204.768 453.43 204.896 453.282C205.028 453.134 205.184 453.018 205.364 452.934C205.548 452.85 205.748 452.808 205.964 452.808C206.144 452.808 206.306 452.84 206.45 452.904C206.598 452.964 206.726 453.04 206.834 453.132V452.88H207.326V455.244C207.326 455.396 207.362 455.496 207.434 455.544C207.51 455.588 207.592 455.61 207.68 455.61L207.566 456.03C207.182 456.03 206.95 455.874 206.87 455.562C206.822 455.626 206.766 455.69 206.702 455.754C206.642 455.814 206.572 455.868 206.492 455.916C206.412 455.964 206.322 456.002 206.222 456.03C206.122 456.058 206.012 456.072 205.892 456.072C205.696 456.072 205.512 456.034 205.34 455.958C205.172 455.882 205.024 455.774 204.896 455.634C204.772 455.494 204.672 455.326 204.596 455.13C204.524 454.93 204.488 454.706 204.488 454.458ZM206.012 455.592C206.164 455.592 206.308 455.556 206.444 455.484C206.58 455.412 206.694 455.318 206.786 455.202V453.528C206.678 453.452 206.558 453.392 206.426 453.348C206.298 453.3 206.162 453.276 206.018 453.276C205.874 453.276 205.742 453.304 205.622 453.36C205.502 453.416 205.398 453.496 205.31 453.6C205.226 453.7 205.16 453.822 205.112 453.966C205.064 454.11 205.04 454.268 205.04 454.44C205.04 454.608 205.064 454.764 205.112 454.908C205.16 455.048 205.228 455.17 205.316 455.274C205.404 455.374 205.506 455.452 205.622 455.508C205.742 455.564 205.872 455.592 206.012 455.592ZM209.181 456H208.641V452.88H209.181V456ZM208.911 452.346C208.807 452.346 208.717 452.31 208.641 452.238C208.569 452.162 208.533 452.072 208.533 451.968C208.533 451.852 208.567 451.76 208.635 451.692C208.703 451.624 208.795 451.59 208.911 451.59C209.015 451.59 209.103 451.628 209.175 451.704C209.251 451.776 209.289 451.864 209.289 451.968C209.289 452.084 209.255 452.176 209.187 452.244C209.119 452.312 209.027 452.346 208.911 452.346ZM210.147 452.88H212.493V453.294L210.777 455.52H212.523V456H210.111V455.574L211.833 453.348H210.147V452.88ZM213.735 454.662C213.771 454.954 213.873 455.182 214.041 455.346C214.209 455.51 214.431 455.592 214.707 455.592C214.887 455.592 215.049 455.574 215.193 455.538C215.337 455.498 215.475 455.448 215.607 455.388L215.733 455.85C215.589 455.918 215.427 455.972 215.247 456.012C215.067 456.052 214.865 456.072 214.641 456.072C214.417 456.072 214.215 456.036 214.035 455.964C213.855 455.888 213.701 455.782 213.573 455.646C213.449 455.506 213.353 455.336 213.285 455.136C213.217 454.932 213.183 454.7 213.183 454.44C213.183 454.208 213.217 453.992 213.285 453.792C213.353 453.592 213.449 453.42 213.573 453.276C213.697 453.128 213.845 453.014 214.017 452.934C214.189 452.85 214.381 452.808 214.593 452.808C214.817 452.808 215.013 452.846 215.181 452.922C215.349 452.998 215.489 453.102 215.601 453.234C215.713 453.366 215.797 453.52 215.853 453.696C215.909 453.872 215.937 454.058 215.937 454.254C215.937 454.394 215.931 454.53 215.919 454.662H213.735ZM214.581 453.276C214.345 453.276 214.151 453.356 213.999 453.516C213.851 453.676 213.761 453.912 213.729 454.224H215.439C215.439 453.92 215.363 453.686 215.211 453.522C215.059 453.358 214.849 453.276 214.581 453.276ZM217.418 453.402C217.53 453.234 217.672 453.094 217.844 452.982C218.02 452.866 218.228 452.808 218.468 452.808C218.82 452.808 219.082 452.914 219.254 453.126C219.43 453.338 219.518 453.618 219.518 453.966V456H218.978V454.026C218.978 453.798 218.926 453.618 218.822 453.486C218.718 453.35 218.57 453.282 218.378 453.282C218.286 453.282 218.196 453.3 218.108 453.336C218.02 453.368 217.934 453.414 217.85 453.474C217.77 453.534 217.694 453.604 217.622 453.684C217.554 453.764 217.492 453.848 217.436 453.936V456H216.896V452.88H217.418V453.402Z" fill="#653730"/>
<path fill-rule="evenodd" clip-rule="evenodd" d="M208.554 449.274C207.007 447.53 205.403 445.792 205.592 443.577C205.6 443.491 205.709 442.942 205.99 442.544C206.191 442.259 206.41 442.145 206.31 442.081C206.261 442.05 206.262 442.065 205.745 442.329C205.572 442.418 205.313 442.524 205.093 442.643C204.804 442.798 204.294 443.161 204.09 443.373C203.732 443.747 203.569 444.119 203.549 444.179C202.878 446.264 204.311 448.629 208.554 449.274Z" fill="#953223"/>
<path fill-rule="evenodd" clip-rule="evenodd" d="M213.578 445.698C212.307 445.425 208.978 443.36 207.057 442.903C206.979 442.885 206.702 442.865 206.597 442.649C206.478 442.406 206.606 442.182 206.363 442.092C206.269 442.057 205.625 443.818 205.629 443.826C206.7 445.793 209.798 447.415 213.578 445.698Z" fill="#953223"/>
<path fill-rule="evenodd" clip-rule="evenodd" d="M210.445 435.557C209.767 437.646 209.131 439.768 206.922 441.032C206.3 441.388 207.44 441.07 206.607 441.462C206.515 441.506 206.173 441.882 206.256 441.91C206.308 441.928 206.311 442.243 206.977 442.305C207.479 442.352 208.247 442.292 208.506 442.263C209.076 442.201 209.585 441.997 210.021 441.616C211.45 440.364 212.012 437.964 210.445 435.557Z" fill="#953223"/>
<path fill-rule="evenodd" clip-rule="evenodd" d="M216 444.625C212.577 444.135 209.331 443.341 206.358 442.076C207.374 445.022 211.27 447.479 216 444.625Z" fill="#953223"/>
<path fill-rule="evenodd" clip-rule="evenodd" d="M198.549 445.352C200.431 443.851 202.297 442.303 204.977 442.161C205.469 442.135 206.247 442.17 206.388 442.054C206.464 441.991 206.053 441.776 205.998 441.726C205.624 441.394 204.56 440.671 204.027 440.571C201.741 440.139 198.751 441.789 198.549 445.352Z" fill="#953223"/>
<path fill-rule="evenodd" clip-rule="evenodd" d="M198.13 446.913C200.349 444.525 203.218 443.097 206.363 442.077C202.908 440.973 198.224 442.071 198.13 446.913Z" fill="#953223"/>
<path fill-rule="evenodd" clip-rule="evenodd" d="M199.566 437.233C201.96 438.103 204.4 438.942 205.577 440.939C205.909 441.502 205.991 441.28 206.334 442.02C206.373 442.103 206.526 442.006 206.572 441.943C206.624 441.872 206.532 441.74 206.599 441.658C206.717 441.513 206.764 441.328 206.882 441.161C207.152 440.779 207.592 440.263 207.449 439.827C206.769 437.744 203.628 436.035 199.566 437.233Z" fill="#953223"/>
<path fill-rule="evenodd" clip-rule="evenodd" d="M198 437.377C201.126 438.513 204.004 439.969 206.372 442.083C206.408 439.02 203.515 435.75 198 437.377Z" fill="#953223"/>
<path fill-rule="evenodd" clip-rule="evenodd" d="M209.024 434C208.58 436.85 207.76 439.566 206.36 442.077C209.875 441.111 212.676 437.786 209.024 434Z" fill="#953223"/>
<path fill-rule="evenodd" clip-rule="evenodd" d="M209.628 450C207.865 447.657 206.816 444.998 206.358 442.077C204.102 444.507 204.038 448.558 209.628 450Z" fill="#953223"/>
<rect x="84" y="17" width="77" height="3" rx="1.5" fill="#272727"/>
</svg>
