<svg width="24" height="24" viewBox="0 0 24 24" fill="none" xmlns="http://www.w3.org/2000/svg">
<path d="M14.8394 4.18841C13.7141 1.71955 10.992 -0.0173536 7.81768 0.000130815C3.76808 0.0223964 0.438518 2.93844 0.340223 6.5526C0.291759 8.33573 1.02167 9.96609 2.24804 11.1924C3.22568 12.1701 3.71631 13.4577 3.66685 14.7675C3.66028 14.9416 3.65929 15.117 3.66412 15.2934C3.7935 20.0466 8.34187 24.0029 13.6677 24C19.188 23.997 23.662 20.0011 23.662 15.0723C23.662 11.4595 21.258 8.3482 17.8002 6.94312C16.4526 6.39548 15.3974 5.41279 14.8394 4.18841Z" fill="url(#paint0_linear_177_692)"/>
<path opacity="0.1" d="M22.7953 2.83154H13.6659C13.1456 2.83154 12.7237 3.20814 12.7237 3.67267V10.9617H11.2763V3.67272C11.2763 3.20814 10.8545 2.83159 10.3341 2.83159H1.20477C0.68442 2.83159 0.262573 3.20818 0.262573 3.67272V18.3589C0.262573 18.8234 0.68442 19.2 1.20477 19.2H10.3341C10.8545 19.2 11.2763 18.8234 11.2763 18.3589V15.3955H12.7237V18.3589C12.7237 18.8234 13.1456 19.2 13.6659 19.2H22.7953C23.3157 19.2 23.7375 18.8234 23.7375 18.3589V3.67272C23.7375 3.20814 23.3156 2.83154 22.7953 2.83154Z" fill="#953223"/>
<path d="M22.7953 20.1843H13.666C13.1456 20.1843 12.7238 19.8078 12.7238 19.3432V4.65704C12.7238 4.19251 13.1456 3.81592 13.666 3.81592H22.7953C23.3157 3.81592 23.7375 4.19251 23.7375 4.65704V19.3432C23.7375 19.8078 23.3157 20.1843 22.7953 20.1843Z" fill="#E47B7B"/>
<path d="M23.7376 13.8125V19.3428C23.7376 19.8073 23.3155 20.1842 22.7951 20.1842H13.6661C13.1458 20.1842 12.7236 19.8073 12.7236 19.3428V13.8125H23.7376Z" fill="url(#paint1_linear_177_692)"/>
<path d="M15.1616 13.8125V16.6897C15.1616 16.8842 14.9846 17.0422 14.7662 17.0422H12.7236V13.8125H15.1616Z" fill="#FF4D4D"/>
<path d="M21.1958 4.96942L21.6166 3.81592H14.8447L15.2655 4.96942C15.3264 5.13643 15.5008 5.2495 15.6976 5.2495H20.7636C20.9604 5.2495 21.1349 5.13643 21.1958 4.96942Z" fill="#E47B7B"/>
<path d="M10.3341 20.1843H1.20477C0.68442 20.1843 0.262573 19.8078 0.262573 19.3432V4.65704C0.262573 4.19251 0.68442 3.81592 1.20477 3.81592H10.3341C10.8545 3.81592 11.2763 4.19251 11.2763 4.65704V19.3432C11.2763 19.8078 10.8545 20.1843 10.3341 20.1843Z" fill="#FFB3B3"/>
<path d="M11.2765 13.8125V19.3428C11.2765 19.8073 10.8543 20.1842 10.3339 20.1842H1.20496C0.684613 20.1842 0.262451 19.8073 0.262451 19.3428V13.8125H11.2765Z" fill="url(#paint2_linear_177_692)"/>
<path d="M8.83856 13.8125H11.2765V17.0422H9.23342C9.01551 17.0422 8.83856 16.8842 8.83856 16.6897V13.8125Z" fill="#FF6C6C"/>
<path d="M5.76944 11.5165C7.36361 11.5165 8.65594 10.3628 8.65594 8.93965C8.65594 7.51649 7.36361 6.36279 5.76944 6.36279C4.17527 6.36279 2.88293 7.51649 2.88293 8.93965C2.88293 10.3628 4.17527 11.5165 5.76944 11.5165Z" fill="white"/>
<path d="M18.2306 11.5165C19.8248 11.5165 21.1171 10.3628 21.1171 8.93965C21.1171 7.51649 19.8248 6.36279 18.2306 6.36279C16.6364 6.36279 15.3441 7.51649 15.3441 8.93965C15.3441 10.3628 16.6364 11.5165 18.2306 11.5165Z" fill="white"/>
<path d="M5.3512 9.87888H5.07123C4.72951 9.87888 4.45154 9.63073 4.45154 9.32566V8.55424C4.45154 8.24918 4.72951 8.00098 5.07123 8.00098H5.3512C5.69292 8.00098 5.97095 8.24918 5.97095 8.55424V9.32566C5.97095 9.63073 5.69292 9.87888 5.3512 9.87888ZM5.07129 8.46973C5.01909 8.46973 4.97667 8.50765 4.97667 8.55424V9.32566C4.97667 9.37226 5.01915 9.41013 5.07129 9.41013H5.35126C5.40345 9.41013 5.44593 9.37221 5.44593 9.32566V8.55424C5.44593 8.50765 5.40345 8.46973 5.35126 8.46973H5.07129Z" fill="#FF6C6C"/>
<path d="M6.86431 9.87888C6.71933 9.87888 6.60177 9.77393 6.60177 9.64451V8.46973H6.57846C6.43348 8.46973 6.31592 8.36477 6.31592 8.23535C6.31592 8.10593 6.43348 8.00098 6.57846 8.00098H6.86431C7.00928 8.00098 7.12685 8.10593 7.12685 8.23535V9.64451C7.12685 9.77393 7.00928 9.87888 6.86431 9.87888Z" fill="#FF6C6C"/>
<path d="M17.4602 9.87888H17.1802C16.8385 9.87888 16.5605 9.63073 16.5605 9.32566V8.55424C16.5605 8.24918 16.8385 8.00098 17.1802 8.00098H17.4602C17.8019 8.00098 18.0799 8.24918 18.0799 8.55424V9.32566C18.0799 9.63073 17.8019 9.87888 17.4602 9.87888ZM17.1802 8.46973C17.128 8.46973 17.0856 8.50765 17.0856 8.55424V9.32566C17.0856 9.37226 17.128 9.41013 17.1802 9.41013H17.4602C17.5123 9.41013 17.5548 9.37221 17.5548 9.32566V8.55424C17.5548 8.50765 17.5123 8.46973 17.4602 8.46973H17.1802Z" fill="#FF6C6C"/>
<path d="M19.6382 9.85826H18.6874C18.576 9.85826 18.4767 9.79549 18.4398 9.70165C18.4028 9.60781 18.4362 9.50337 18.5231 9.44107C18.7879 9.25127 19.1976 8.9043 19.2795 8.7273C19.311 8.65929 19.306 8.58424 19.2665 8.53151C19.2358 8.49049 19.1901 8.46973 19.1307 8.46973C19.031 8.46973 18.9499 8.5421 18.9499 8.63107C18.9499 8.76049 18.8324 8.86545 18.6874 8.86545C18.5424 8.86545 18.4249 8.76049 18.4249 8.63107C18.4249 8.28363 18.7415 8.00098 19.1307 8.00098C19.3659 8.00098 19.5745 8.09937 19.703 8.27098C19.8407 8.45487 19.8638 8.69238 19.7648 8.90637C19.6937 9.05984 19.5338 9.2343 19.366 9.38951H19.6382C19.7832 9.38951 19.9008 9.49446 19.9008 9.62388C19.9008 9.75331 19.7832 9.85826 19.6382 9.85826Z" fill="#FF6C6C"/>
<path d="M8.56774 13.9919H2.97116C2.82592 13.9919 2.70825 13.8868 2.70825 13.7572C2.70825 13.6276 2.82592 13.5225 2.97116 13.5225H8.56774C8.71298 13.5225 8.83065 13.6276 8.83065 13.7572C8.83065 13.8868 8.71298 13.9919 8.56774 13.9919Z" fill="#FF4D4D"/>
<path d="M6.99248 12.736H4.54635C4.40112 12.736 4.28345 12.6309 4.28345 12.5013C4.28345 12.3717 4.40112 12.2666 4.54635 12.2666H6.99248C7.13771 12.2666 7.25538 12.3717 7.25538 12.5013C7.25538 12.6309 7.13771 12.736 6.99248 12.736Z" fill="white"/>
<path d="M8.56774 14.8254H2.97116C2.82592 14.8254 2.70825 14.7203 2.70825 14.5907C2.70825 14.4611 2.82592 14.356 2.97116 14.356H8.56774C8.71298 14.356 8.83065 14.4611 8.83065 14.5907C8.83065 14.7203 8.71298 14.8254 8.56774 14.8254Z" fill="#FF4D4D"/>
<path d="M8.56774 15.6589H2.97116C2.82592 15.6589 2.70825 15.5538 2.70825 15.4242C2.70825 15.2945 2.82592 15.1895 2.97116 15.1895H8.56774C8.71298 15.1895 8.83065 15.2945 8.83065 15.4242C8.83065 15.5538 8.71298 15.6589 8.56774 15.6589Z" fill="#FF4D4D"/>
<path d="M21.0289 13.9919H15.4323C15.2871 13.9919 15.1694 13.8868 15.1694 13.7572C15.1694 13.6276 15.2871 13.5225 15.4323 13.5225H21.0289C21.1742 13.5225 21.2918 13.6276 21.2918 13.7572C21.2918 13.8868 21.1741 13.9919 21.0289 13.9919Z" fill="#FF6C6C"/>
<path d="M19.4537 12.736H17.0075C16.8623 12.736 16.7446 12.6309 16.7446 12.5013C16.7446 12.3717 16.8623 12.2666 17.0075 12.2666H19.4537C19.5989 12.2666 19.7166 12.3717 19.7166 12.5013C19.7166 12.6309 19.5989 12.736 19.4537 12.736Z" fill="white"/>
<path d="M21.0289 14.8254H15.4323C15.2871 14.8254 15.1694 14.7203 15.1694 14.5907C15.1694 14.4611 15.2871 14.356 15.4323 14.356H21.0289C21.1742 14.356 21.2918 14.4611 21.2918 14.5907C21.2918 14.7203 21.1741 14.8254 21.0289 14.8254Z" fill="#FF6C6C"/>
<path d="M21.0289 15.6589H15.4323C15.2871 15.6589 15.1694 15.5538 15.1694 15.4242C15.1694 15.2945 15.2871 15.1895 15.4323 15.1895H21.0289C21.1742 15.1895 21.2918 15.2945 21.2918 15.4242C21.2918 15.5538 21.1741 15.6589 21.0289 15.6589Z" fill="#FF6C6C"/>
<path d="M14.7664 16.3795H9.23371C9.01559 16.3795 8.83875 16.2216 8.83875 16.0269V12.2984C8.83875 12.1037 9.01559 11.9458 9.23371 11.9458H14.7664C14.9846 11.9458 15.1614 12.1037 15.1614 12.2984V16.0269C15.1614 16.2216 14.9846 16.3795 14.7664 16.3795Z" fill="#FF9494"/>
<path d="M22.7953 3.58154H21.6167C21.503 3.58154 21.4022 3.64684 21.3671 3.74336L20.9462 4.89686C20.9204 4.96759 20.847 5.01512 20.7637 5.01512H15.6976C15.6143 5.01512 15.541 4.96759 15.5151 4.89686L15.2063 4.05029H20.1705C20.3155 4.05029 20.433 3.94534 20.433 3.81592C20.433 3.6865 20.3155 3.58154 20.1705 3.58154H13.666C13.0017 3.58154 12.4612 4.06403 12.4612 4.65709V11.7117H9.23368C8.87112 11.7117 8.57618 11.975 8.57618 12.2987V16.0272C8.57618 16.3509 8.87112 16.6142 9.23368 16.6142H11.0138V19.3432C11.0138 19.6778 10.7089 19.95 10.3341 19.95H1.20479C0.829989 19.95 0.525077 19.6778 0.525077 19.3432V4.65709C0.525077 4.3225 0.829989 4.05029 1.20479 4.05029H2.19283L2.5546 5.04198C2.65101 5.30631 2.92505 5.48387 3.23636 5.48387H8.30241C8.61378 5.48387 8.88776 5.30631 8.98417 5.04198L9.34595 4.05029H10.334C10.7088 4.05029 11.0136 4.3225 11.0136 4.65709V10.6551C11.0136 10.7845 11.1312 10.8895 11.2762 10.8895C11.4212 10.8895 11.5387 10.7845 11.5387 10.6551V4.65709C11.5387 4.06403 10.9983 3.58154 10.334 3.58154H1.20479C0.540462 3.58154 0 4.06403 0 4.65709V19.3433C0 19.9363 0.540462 20.4188 1.20479 20.4188H10.3341C10.9984 20.4188 11.5388 19.9363 11.5388 19.3433V16.6143H12.4612V19.3433C12.4612 19.9363 13.0016 20.4188 13.6659 20.4188H22.7952C23.4595 20.4188 24 19.9363 24 19.3433V4.65709C24.0001 4.06403 23.4596 3.58154 22.7953 3.58154ZM8.48498 4.89681C8.4592 4.96754 8.38584 5.01507 8.30246 5.01507H3.23642C3.15309 5.01507 3.07973 4.96754 3.0539 4.89681L2.74505 4.05025H8.79378L8.48498 4.89681ZM9.10126 16.0272V12.2987C9.10126 12.2335 9.16065 12.1805 9.23368 12.1805H14.7665C14.8395 12.1805 14.8988 12.2335 14.8988 12.2987V16.0272C14.8988 16.0924 14.8395 16.1455 14.7665 16.1455H9.23368C9.16065 16.1455 9.10126 16.0924 9.10126 16.0272ZM23.475 19.3432C23.475 19.6778 23.1701 19.95 22.7953 19.95H13.666C13.2912 19.95 12.9863 19.6778 12.9863 19.3432V16.6142H14.7664C15.1289 16.6142 15.4239 16.3509 15.4239 16.0272V12.2987C15.4239 11.975 15.1289 11.7117 14.7664 11.7117H12.9863V4.65709C12.9863 4.3225 13.2912 4.05029 13.666 4.05029H14.6541L15.0158 5.04203C15.1123 5.30631 15.3863 5.48387 15.6976 5.48387H20.7636C21.0751 5.48387 21.349 5.30626 21.4453 5.04198L21.8072 4.05029H22.7952C23.17 4.05029 23.4749 4.3225 23.4749 4.65709V19.3432H23.475Z" fill="#953223"/>
<path d="M10.1966 13.4722H13.1059C13.1703 13.4722 13.2227 13.519 13.2227 13.5765V13.6865C13.1384 13.6702 13.0469 13.6908 12.9813 13.7493C12.8788 13.8409 12.8788 13.9892 12.9814 14.0808L13.2997 14.3649C13.3489 14.4089 13.4157 14.4335 13.4853 14.4335C13.5549 14.4335 13.6217 14.4088 13.6709 14.3649L13.9892 14.0807C14.0917 13.9892 14.0917 13.8408 13.9891 13.7493C13.9236 13.6908 13.8321 13.6701 13.7478 13.6864V13.5765C13.7478 13.2605 13.4599 13.0034 13.1059 13.0034H10.1966C10.0516 13.0034 9.93408 13.1084 9.93408 13.2378C9.93408 13.3672 10.0516 13.4722 10.1966 13.4722Z" fill="white"/>
<path d="M13.8034 14.8534H10.8942C10.8298 14.8534 10.7774 14.8067 10.7774 14.7492V14.6392C10.7958 14.6428 10.8143 14.645 10.8331 14.645C10.9002 14.645 10.9675 14.6221 11.0187 14.5764C11.1213 14.4848 11.1213 14.3365 11.0187 14.2449L10.7005 13.9608C10.6512 13.9168 10.5845 13.8921 10.5148 13.8921C10.4451 13.8921 10.3784 13.9168 10.3291 13.9608L10.0109 14.2449C9.90832 14.3365 9.90832 14.4848 10.0109 14.5764C10.0764 14.6349 10.1679 14.6555 10.2522 14.6392V14.7492C10.2522 15.0651 10.5401 15.3222 10.8941 15.3222H13.8033C13.9484 15.3222 14.0659 15.2172 14.0659 15.0878C14.0659 14.9584 13.9484 14.8534 13.8034 14.8534Z" fill="white"/>
<path d="M5.46314 19.1562C5.39593 19.1562 5.32877 19.1334 5.27747 19.0876C5.17492 18.996 5.17492 18.8477 5.27747 18.7561L5.5838 18.4827C5.68635 18.3912 5.85259 18.3912 5.95508 18.4827L6.26136 18.7561C6.36391 18.8477 6.36391 18.9961 6.26136 19.0876C6.15881 19.1791 5.99263 19.1791 5.89008 19.0876L5.76942 18.9798L5.6487 19.0876C5.59751 19.1333 5.5303 19.1562 5.46314 19.1562Z" fill="#953223"/>
<path d="M18.5369 19.1562C18.4698 19.1562 18.4025 19.1333 18.3513 19.0875L18.2307 18.9798L18.11 19.0876C18.0075 19.1791 17.8412 19.1791 17.7387 19.0876C17.6362 18.996 17.6362 18.8477 17.7387 18.7561L18.0451 18.4827C18.0943 18.4387 18.161 18.4141 18.2307 18.4141C18.3003 18.4141 18.3671 18.4388 18.4163 18.4827L18.7226 18.7562C18.8251 18.8477 18.8251 18.9961 18.7226 19.0876C18.6713 19.1333 18.6041 19.1562 18.5369 19.1562Z" fill="#953223"/>
<path d="M10.8331 2.76467C10.6882 2.76467 10.5706 2.65972 10.5706 2.53029C10.5706 2.37532 10.4294 2.24928 10.2558 2.24928C10.1109 2.24928 9.99329 2.14432 9.99329 2.0149C9.99329 1.88548 10.1109 1.78053 10.2558 1.78053C10.4294 1.78053 10.5706 1.65448 10.5706 1.49951C10.5706 1.37009 10.6882 1.26514 10.8331 1.26514C10.9781 1.26514 11.0957 1.37009 11.0957 1.49951C11.0957 1.65448 11.2369 1.78053 11.4105 1.78053C11.5554 1.78053 11.673 1.88548 11.673 2.0149C11.673 2.14432 11.5554 2.24928 11.4105 2.24928C11.2369 2.24928 11.0957 2.37532 11.0957 2.53029C11.0957 2.65972 10.9781 2.76467 10.8331 2.76467Z" fill="#FF4D4D"/>
<path d="M11.4224 22.7349C11.2775 22.7349 11.1599 22.6299 11.1599 22.5005C11.1599 22.3455 11.0187 22.2195 10.8451 22.2195C10.7001 22.2195 10.5825 22.1145 10.5825 21.9851C10.5825 21.8557 10.7001 21.7507 10.8451 21.7507C11.0186 21.7507 11.1599 21.6247 11.1599 21.4697C11.1599 21.3403 11.2775 21.2354 11.4224 21.2354C11.5674 21.2354 11.685 21.3403 11.685 21.4697C11.685 21.6247 11.8262 21.7507 11.9998 21.7507C12.1448 21.7507 12.2623 21.8557 12.2623 21.9851C12.2623 22.1145 12.1448 22.2195 11.9998 22.2195C11.8262 22.2195 11.685 22.3455 11.685 22.5005C11.685 22.6299 11.5674 22.7349 11.4224 22.7349Z" fill="#953223"/>
<path d="M15.7468 22.2197C15.6017 22.2197 15.4842 22.1148 15.4842 21.9854C15.4842 21.8304 15.343 21.7044 15.1694 21.7044C15.0244 21.7044 14.9069 21.5994 14.9069 21.47C14.9069 21.3406 15.0244 21.2356 15.1694 21.2356C15.343 21.2356 15.4842 21.1096 15.4842 20.9546C15.4842 20.8252 15.6017 20.7202 15.7468 20.7202C15.8918 20.7202 16.0093 20.8252 16.0093 20.9546C16.0093 21.1096 16.1505 21.2356 16.324 21.2356C16.4691 21.2356 16.5866 21.3406 16.5866 21.47C16.5866 21.5994 16.4691 21.7044 16.324 21.7044C16.1505 21.7044 16.0093 21.8304 16.0093 21.9854C16.0093 22.1148 15.8918 22.2197 15.7468 22.2197Z" fill="#FF4D4D"/>
<path d="M18.5207 3.04512C18.4619 3.04512 18.4026 3.02755 18.3536 2.99145L17.7242 2.5273C17.6706 2.48769 17.6367 2.43069 17.6301 2.36881C17.6235 2.30694 17.6447 2.24525 17.6891 2.1973L18.209 1.63541C18.3013 1.53565 18.4667 1.5215 18.5786 1.604L19.208 2.06816C19.2617 2.10776 19.2955 2.16476 19.3021 2.22664C19.3088 2.28851 19.2876 2.3502 19.2432 2.39816L18.7233 2.96005C18.6714 3.01611 18.5964 3.04512 18.5207 3.04512ZM18.2611 2.31519L18.4857 2.4808L18.6712 2.28026L18.4466 2.11466L18.2611 2.31519Z" fill="#953223"/>
<defs>
<linearGradient id="paint0_linear_177_692" x1="3.3351" y1="0.493443" x2="17.3667" y2="25.2895" gradientUnits="userSpaceOnUse">
<stop stop-color="#FF7C7C"/>
<stop offset="0.9993" stop-color="#F0F4FF" stop-opacity="0.09"/>
</linearGradient>
<linearGradient id="paint1_linear_177_692" x1="13.442" y1="20.203" x2="26.9732" y2="11.1363" gradientUnits="userSpaceOnUse">
<stop stop-color="#F7FDFA"/>
<stop offset="1" stop-color="#FDDCDC" stop-opacity="0"/>
</linearGradient>
<linearGradient id="paint2_linear_177_692" x1="-2.62542" y1="12.492" x2="10.2524" y2="21.0424" gradientUnits="userSpaceOnUse">
<stop stop-color="#FEB6B6"/>
<stop offset="1" stop-color="#F3F6FD"/>
</linearGradient>
</defs>
</svg>
