<svg width="90" height="90" viewBox="0 0 90 90" fill="none" xmlns="http://www.w3.org/2000/svg">
<path d="M73.8005 35.3611C73.986 33.9004 74.0767 32.4075 74.0658 30.8897C73.9441 13.9396 61.013 0.108147 45.1883 0.000637604C29.0489 -0.108755 15.9333 13.872 15.9333 31.1339C15.9333 32.5677 16.024 33.9787 16.1993 35.3609C16.91 40.9617 14.4613 46.4965 10.0097 49.5316C3.74994 53.7996 0 59.2357 0 65.1553C0 78.8766 20.1472 90 45 90C69.8528 90 90 78.8766 90 65.1553C90 59.2357 86.2499 53.7996 79.99 49.5316C75.5383 46.4965 73.0898 40.9617 73.8005 35.3611Z" fill="url(#paint0_linear_842:796)"/>
<path opacity="0.1" d="M80.4016 73.9301L66.0306 59.5591V11.0273C66.0306 10.115 65.2906 9.375 64.3782 9.375H19.3958C18.4835 9.375 17.7435 10.115 17.7435 11.0273V59.1134C17.7435 59.1134 17.7435 59.1134 17.7433 59.1134C13.6409 59.1134 10.3155 62.439 10.3155 66.5412C10.3155 70.6434 13.6411 73.969 17.7433 73.969H17.7435V82.3594C17.7435 83.2717 18.4835 84.0117 19.3958 84.0117H64.3782C65.2906 84.0117 66.0306 83.2717 66.0306 82.3594V70.1053L75.1285 79.2032C75.7353 79.81 76.719 79.81 77.3256 79.2032L80.4016 76.1272C81.0082 75.5206 81.0082 74.5369 80.4016 73.9301Z" fill="#953223"/>
<path d="M66.0308 6.28151V77.6135C66.0308 78.5258 65.2907 79.2659 64.3784 79.2659H19.396C18.4837 79.2659 17.7437 78.5258 17.7437 77.6135V6.28151C17.7437 5.3692 18.4837 4.62917 19.396 4.62917H64.3784C65.2907 4.62917 66.0308 5.3692 66.0308 6.28151Z" fill="white"/>
<path d="M66.0308 59.1949V69.74L60.5552 64.2645C59.9717 63.6826 59.9506 62.7545 60.4849 62.1445L53.4256 55.0852C46.0515 60.8631 35.3236 60.3604 28.5349 53.5717C21.2013 46.2381 21.2013 34.3061 28.5349 26.9725C35.8685 19.6389 47.8006 19.6389 55.1341 26.9725C61.9228 33.7611 62.4273 44.4891 56.6476 51.8631L63.707 58.9225C64.317 58.3881 65.2451 58.4092 65.8269 58.991L66.0308 59.1949Z" fill="#EBEBFF"/>
<path d="M25.1719 65.122C25.1719 69.2248 21.8461 72.5506 17.7434 72.5506V57.6935C21.8463 57.6935 25.1719 61.0193 25.1719 65.122Z" fill="#FFD9D9"/>
<path d="M66.0308 6.28151V59.7014H17.7437V6.28151C17.7437 5.3692 18.4837 4.62917 19.396 4.62917H64.3784C65.2907 4.62917 66.0308 5.3692 66.0308 6.28151Z" fill="#FFD9D9"/>
<path d="M66.0303 59.1949V59.7012H58.0411L53.4251 55.0852C46.051 60.8631 35.3231 60.3603 28.5344 53.5717C21.2008 46.2381 21.2008 34.306 28.5344 26.9725C35.868 19.6389 47.8001 19.6389 55.1337 26.9725C61.9223 33.7611 62.4268 44.4891 56.6471 51.8631L63.7065 58.9225C64.3165 58.3881 65.2446 58.4092 65.8264 58.991L66.0303 59.1949Z" fill="#FF9494"/>
<path d="M66.0307 13.2128V6.28301C66.0307 5.36947 65.2901 4.62891 64.3766 4.62891H19.3975C18.484 4.62891 17.7434 5.36947 17.7434 6.28301V13.2128H66.0307Z" fill="#FF6C6C"/>
<path d="M32.1344 13.2128L38.609 4.62891H19.3966C18.4836 4.62891 17.7434 5.36912 17.7434 6.28213V13.2126L32.1344 13.2128Z" fill="#FF6363"/>
<path d="M60.6351 10.0544H40.727C40.2705 10.0544 39.9003 9.68424 39.9003 9.22774C39.9003 8.77124 40.2703 8.40105 40.727 8.40105H60.6351C61.0916 8.40105 61.4618 8.77124 61.4618 9.22774C61.4618 9.68424 61.0918 10.0544 60.6351 10.0544Z" fill="#FFD9D9"/>
<path d="M52.0112 49.3007L55.2325 46.0795L65.0083 55.8552L61.7871 59.0766L52.0112 49.3007Z" fill="#FF6363"/>
<path d="M52.0221 49.2992L55.3023 52.5794C55.8891 52.1071 56.4546 51.5987 56.999 51.0544C57.5434 50.51 58.0517 49.9445 58.5241 49.3577L55.2438 46.0775L52.0221 49.2992Z" fill="#FF9494"/>
<path d="M55.1346 49.1906C47.8012 56.524 35.8689 56.524 28.5353 49.1906C21.2017 41.8571 21.2019 29.9246 28.5353 22.5911C35.8687 15.2577 47.8012 15.2577 55.1346 22.5911C62.468 29.9246 62.468 41.857 55.1346 49.1906Z" fill="#FF6363"/>
<path d="M41.8266 50.0367C49.639 50.0367 55.9723 43.7034 55.9723 35.891C55.9723 28.0786 49.639 21.7454 41.8266 21.7454C34.0142 21.7454 27.681 28.0786 27.681 35.891C27.681 43.7034 34.0142 50.0367 41.8266 50.0367Z" fill="#FFD9D9"/>
<path d="M80.4018 71.3811L77.3258 74.4571C76.719 75.0639 75.7353 75.0639 75.1287 74.4571L60.5545 59.8829C59.9477 59.2761 59.9477 58.2924 60.5545 57.6858L63.6305 54.6098C64.2373 54.003 65.2209 54.003 65.8275 54.6098L80.4018 69.184C81.0084 69.7908 81.0084 70.7745 80.4018 71.3811Z" fill="#FF9494"/>
<path d="M72.6982 72.027L75.1282 74.457C75.735 75.0638 76.7187 75.0638 77.3253 74.457L80.4013 71.381C81.0081 70.7742 81.0081 69.7905 80.4013 69.1839L77.9713 66.7539L72.6982 72.027Z" fill="#FF6363"/>
<path d="M62.6795 62.0213L67.9519 56.749L71.4317 60.2287L66.1593 65.5011L62.6795 62.0213Z" fill="#FF6C6C"/>
<path d="M55.4679 71.6608H28.3063C27.8208 71.6608 27.4274 72.0544 27.4274 72.5397C27.4274 73.0251 27.8208 73.4187 28.3063 73.4187H55.4679C55.9534 73.4187 56.3468 73.0251 56.3468 72.5397C56.3468 72.0544 55.9534 71.6608 55.4679 71.6608Z" fill="#FF6C6C"/>
<path d="M34.7147 68.2322H28.3099C27.8244 68.2322 27.431 68.6258 27.431 69.1112C27.431 69.5965 27.8244 69.9901 28.3099 69.9901H34.7147C35.2002 69.9901 35.5936 69.5965 35.5936 69.1112C35.5936 68.6258 35.2002 68.2322 34.7147 68.2322Z" fill="#FF6C6C"/>
<path d="M38.9368 68.2322H52.2378C52.7232 68.2322 53.1168 68.6258 53.1168 69.1112C53.1168 69.5965 52.7232 69.9901 52.2378 69.9901H38.899C38.385 69.9901 37.9742 69.5489 38.0243 69.0247C38.0679 68.5678 38.4779 68.2322 38.9368 68.2322Z" fill="#FF6C6C"/>
<path d="M31.4683 65.6781C31.9537 65.6781 32.3472 65.2846 32.3472 64.7992C32.3472 64.3138 31.9537 63.9203 31.4683 63.9203C30.9829 63.9203 30.5894 64.3138 30.5894 64.7992C30.5894 65.2846 30.9829 65.6781 31.4683 65.6781Z" fill="#FF6C6C"/>
<path d="M28.6119 65.6781C29.0973 65.6781 29.4908 65.2846 29.4908 64.7992C29.4908 64.3138 29.0973 63.9203 28.6119 63.9203C28.1265 63.9203 27.733 64.3138 27.733 64.7992C27.733 65.2846 28.1265 65.6781 28.6119 65.6781Z" fill="#FF6C6C"/>
<path d="M17.7433 69.223C21.8456 69.223 25.1711 65.8974 25.1711 61.7951C25.1711 57.6929 21.8456 54.3673 17.7433 54.3673C13.641 54.3673 10.3155 57.6929 10.3155 61.7951C10.3155 65.8974 13.641 69.223 17.7433 69.223Z" fill="#FF6C6C"/>
<path d="M17.7432 46.9035C18.2287 46.9035 18.6221 46.51 18.6221 46.0246V6.28213C18.6221 5.85515 18.9697 5.50781 19.3966 5.50781H52.2128C52.6983 5.50781 53.0917 5.11424 53.0917 4.6289C53.0917 4.14357 52.6983 3.75 52.2128 3.75H19.3968C18.0006 3.75 16.8645 4.8859 16.8645 6.28213V46.0246C16.8643 46.51 17.2579 46.9035 17.7432 46.9035Z" fill="#953223"/>
<path d="M81.023 68.5628L66.9095 54.4494V6.28213C66.9095 4.8859 65.7736 3.75 64.3775 3.75H57.592C57.1065 3.75 56.7131 4.14357 56.7131 4.62891C56.7131 5.11424 57.1065 5.50781 57.592 5.50781H64.3775C64.8045 5.50781 65.1517 5.85516 65.1517 6.28213V53.3145C65.0132 53.2902 64.8722 53.276 64.7288 53.276C64.4232 53.276 64.1272 53.3338 63.8507 53.4409L57.8091 47.3993C63.3561 39.7092 62.6725 28.8858 55.7563 21.9695C48.08 14.2934 35.5897 14.2934 27.914 21.9695C24.2012 25.6824 22.1563 30.6264 22.1563 35.8907C22.1563 41.155 24.2012 46.0992 27.914 49.8119C31.752 53.6499 36.7936 55.5689 41.8352 55.5689C45.8785 55.5689 49.9211 54.3333 53.3436 51.8647L59.3852 57.9063C59.2781 58.1828 59.2203 58.479 59.2203 58.7845C59.2203 59.4343 59.4732 60.0452 59.9329 60.5047L65.1517 65.7236V77.6126C65.1517 78.0396 64.8043 78.3869 64.3775 78.3869H19.3967C18.9696 78.3869 18.6222 78.0396 18.6222 77.6126V70.055C22.7909 69.6147 26.0502 66.0787 26.0502 61.7951C26.0502 57.5115 22.7909 53.9756 18.6222 53.5351V51.4036C18.6222 50.9183 18.2288 50.5247 17.7433 50.5247C17.2578 50.5247 16.8644 50.9183 16.8644 51.4036V53.5353C12.6957 53.9758 9.43658 57.5118 9.43658 61.7951C9.43658 66.0783 12.6957 69.6144 16.8644 70.0549V77.6126C16.8644 79.0088 18.0005 80.1447 19.3967 80.1447H64.3775C65.7736 80.1447 66.9095 79.0088 66.9095 77.6126V67.4813L74.5069 75.0787C74.9664 75.5382 75.5773 75.7913 76.2271 75.7913C76.8768 75.7913 77.4877 75.5384 77.947 75.0789L81.023 72.0029C81.9713 71.0545 81.9713 69.5113 81.023 68.5628ZM11.1944 61.7952C11.1944 58.1842 14.1322 55.2463 17.7435 55.2463C21.3546 55.2463 24.2924 58.1842 24.2924 61.7952C24.2924 65.4063 21.3546 68.3442 17.7435 68.3442C14.1322 68.3442 11.1944 65.4063 11.1944 61.7952ZM29.1566 48.5689C25.776 45.1881 23.9139 40.6857 23.9139 35.8907C23.9139 31.0958 25.776 26.5933 29.1566 23.2125C32.652 19.7171 37.2434 17.9695 41.8348 17.9695C46.4262 17.9695 51.0176 19.7173 54.5132 23.2127C61.5039 30.2035 61.5039 41.5783 54.5132 48.5691C47.5224 55.5594 36.148 55.5596 29.1566 48.5689ZM55.756 49.8119C56.0887 49.4791 56.4062 49.1367 56.7101 48.7866L62.4603 54.5369L60.4808 56.5164L54.7307 50.7662C55.0808 50.4621 55.4232 50.1446 55.756 49.8119ZM79.78 70.7599L76.7038 73.8361C76.449 74.091 76.0044 74.0906 75.7497 73.8361L61.1755 59.2619C61.0481 59.1345 60.9779 58.965 60.9779 58.7848C60.9779 58.6046 61.0481 58.4352 61.1755 58.3078L64.2517 55.2318C64.3791 55.1043 64.5484 55.0342 64.7286 55.0342C64.9087 55.0342 65.0782 55.1043 65.2058 55.2319L79.7798 69.8061C80.043 70.0687 80.043 70.4968 79.78 70.7599Z" fill="#953223"/>
<path d="M77.6367 25.4956H77.1094V24.9683C77.1094 24.4829 76.716 24.0894 76.2305 24.0894C75.745 24.0894 75.3516 24.4829 75.3516 24.9683V25.4956H74.8242C74.3387 25.4956 73.9453 25.8892 73.9453 26.3745C73.9453 26.8598 74.3387 27.2534 74.8242 27.2534H75.3516V27.7808C75.3516 28.2661 75.745 28.6597 76.2305 28.6597C76.716 28.6597 77.1094 28.2661 77.1094 27.7808V27.2534H77.6367C78.1222 27.2534 78.5156 26.8598 78.5156 26.3745C78.5156 25.8892 78.1222 25.4956 77.6367 25.4956Z" fill="#FF6363"/>
<path d="M12.5977 42.475H12.0703V41.9476C12.0703 41.4623 11.6769 41.0687 11.1914 41.0687C10.7059 41.0687 10.3125 41.4623 10.3125 41.9476V42.475H9.78516C9.29965 42.475 8.90625 42.8685 8.90625 43.3539C8.90625 43.8392 9.29965 44.2328 9.78516 44.2328H10.3125V44.7601C10.3125 45.2455 10.7059 45.639 11.1914 45.639C11.6769 45.639 12.0703 45.2455 12.0703 44.7601V44.2328H12.5977C13.0832 44.2328 13.4766 43.8392 13.4766 43.3539C13.4766 42.8685 13.0832 42.475 12.5977 42.475Z" fill="#953223"/>
<path d="M74.2584 35.3291C74.0335 35.3291 73.8084 35.2433 73.637 35.0718L72.8521 34.2871L72.0673 35.0718C71.7243 35.4149 71.1674 35.4149 70.8245 35.0718C70.4812 34.7285 70.4812 34.172 70.8245 33.8288L72.2307 32.4226C72.5737 32.0794 73.1306 32.0794 73.4735 32.4226L74.8797 33.8288C75.223 34.1721 75.223 34.7287 74.8797 35.0718C74.7084 35.2433 74.4834 35.3291 74.2584 35.3291Z" fill="#FF4D4D"/>
<path d="M11.1914 51.6145C10.9665 51.6145 10.7414 51.5288 10.57 51.3572L9.78512 50.5725L9.00025 51.3572C8.6573 51.7003 8.10043 51.7003 7.75748 51.3572C7.41417 51.0139 7.41417 50.4574 7.75748 50.1142L9.16373 48.708C9.50668 48.3648 10.0636 48.3648 10.4065 48.708L11.8128 50.1142C12.1561 50.4575 12.1561 51.0141 11.8128 51.3572C11.6414 51.5286 11.4162 51.6145 11.1914 51.6145Z" fill="#FF6363"/>
<path d="M81.5039 63.3781C81.279 63.3781 81.0539 63.2923 80.8825 63.1207L80.0976 62.3361L79.3127 63.1207C78.9698 63.4639 78.4129 63.4639 78.07 63.1207C77.7267 62.7775 77.7267 62.2209 78.07 61.8778L79.4762 60.4716C79.8192 60.1285 80.376 60.1285 80.719 60.4716L82.1252 61.8778C82.4685 62.2211 82.4685 62.7776 82.1252 63.1207C81.9539 63.2923 81.7287 63.3781 81.5039 63.3781Z" fill="#953223"/>
<path d="M18.8205 59.4027C19.3793 59.5148 19.8946 59.7446 20.3386 60.0641L20.6221 60.289C21.4228 60.9865 21.9281 62.002 21.9281 63.1309C21.9281 64.2329 21.4467 65.2268 20.6789 65.9223L20.4302 66.1297C19.77 66.6348 18.9394 66.9363 18.0382 66.9363C17.9268 66.9363 17.8166 66.9314 17.7075 66.9224L17.3963 66.8842C15.5558 66.584 14.1482 65.0153 14.1482 63.1309C14.1482 62.2903 14.4284 61.5127 14.902 60.8823L14.4941 60.4833C14.4327 60.5181 14.363 60.5371 14.2901 60.5371C14.1812 60.5371 14.0788 60.4956 14.0018 60.4203L13.713 60.1377C13.554 59.9822 13.554 59.7292 13.713 59.5737L14.402 58.8997C14.5609 58.7441 14.8196 58.7441 14.9785 58.8997L15.2674 59.1823C15.4007 59.3127 15.4218 59.5114 15.3315 59.664L15.7394 60.063C16.1829 59.7441 16.6977 59.5147 17.2558 59.4028V59.3134C16.5688 59.029 16.1135 58.3843 16.1135 57.6813C16.1135 56.5888 17.1421 56.4487 18.0383 56.4487C18.9343 56.4487 19.9628 56.5888 19.9628 57.6813C19.9628 58.3844 19.5074 59.0291 18.8205 59.3137V59.4027Z" fill="#953223"/>
<path opacity="0.1" d="M18.6847 59.7197V59.1287H18.7157C18.8658 59.1287 18.9875 59.0097 18.9875 58.8628V58.4632C18.9875 58.3164 18.8658 58.1973 18.7157 58.1973H17.3608C17.2107 58.1973 17.089 58.3164 17.089 58.4632V58.8628C17.089 59.0097 17.2107 59.1287 17.3608 59.1287H17.3918V59.7197H18.6847Z" fill="#953223"/>
<path d="M14.2935 60.0998L14.9386 59.4687L16.0142 60.521L15.3691 61.152L14.2935 60.0998Z" fill="#FF6363"/>
<path d="M15.1713 59.6534L14.4823 60.3275C14.3762 60.4313 14.2041 60.4313 14.0979 60.3275L13.8091 60.0449C13.703 59.941 13.703 59.7727 13.8091 59.6689L14.4981 58.9948C14.6042 58.891 14.7763 58.891 14.8825 58.9948L15.1713 59.2774C15.2774 59.3812 15.2774 59.5496 15.1713 59.6534Z" fill="#FF9494"/>
<path d="M17.3916 58.1992H18.6845V59.6875H17.3916V58.1992Z" fill="#FF8383"/>
<path d="M17.3916 58.1992H18.6845V59.1279H17.3916V58.1992Z" fill="#FF6363"/>
<path d="M18.0381 66.8039C20.1115 66.8039 21.7922 65.1597 21.7922 63.1314C21.7922 61.1032 20.1115 59.4589 18.0381 59.4589C15.9648 59.4589 14.2841 61.1032 14.2841 63.1314C14.2841 65.1597 15.9648 66.8039 18.0381 66.8039Z" fill="#953223"/>
<path d="M18.0381 66.2279C19.7866 66.2279 21.204 64.8413 21.204 63.1309C21.204 61.4205 19.7866 60.0339 18.0381 60.0339C16.2897 60.0339 14.8723 61.4205 14.8723 63.1309C14.8723 64.8413 16.2897 66.2279 18.0381 66.2279Z" fill="white"/>
<path d="M18.0381 64.157C18.6179 64.157 19.088 63.6972 19.088 63.13C19.088 62.5628 18.6179 62.103 18.0381 62.103C17.4583 62.103 16.9883 62.5628 16.9883 63.13C16.9883 63.6972 17.4583 64.157 18.0381 64.157Z" fill="#FFB3B3"/>
<path d="M16.4831 62.7438C16.5104 62.641 16.6174 62.579 16.7227 62.6052L18.0877 62.9441C18.1931 62.9708 18.2565 63.0762 18.2291 63.1794C18.2018 63.2826 18.0941 63.3446 17.9886 63.3178L16.6256 62.9794C16.5196 62.953 16.4557 62.8474 16.4831 62.7438Z" fill="#FF6C6C"/>
<path d="M17.933 63.2951C17.8408 63.2382 17.8132 63.119 17.8713 63.0288L19.0932 61.1329C19.1514 61.0427 19.2732 61.0157 19.3654 61.0726C19.4576 61.1294 19.4852 61.2486 19.4271 61.3388L18.2052 63.2347C18.147 63.3249 18.0252 63.3519 17.933 63.2951Z" fill="#FF4D4D"/>
<path d="M18.0381 63.4977C18.2457 63.4977 18.414 63.3331 18.414 63.1299C18.414 62.9268 18.2457 62.7621 18.0381 62.7621C17.8304 62.7621 17.6621 62.9268 17.6621 63.1299C17.6621 63.3331 17.8304 63.4977 18.0381 63.4977Z" fill="#953223"/>
<path d="M18.7157 58.4896H17.3608C17.2107 58.4896 17.089 58.3706 17.089 58.2238V57.8242C17.089 57.6773 17.2107 57.5583 17.3608 57.5583H18.7157C18.8658 57.5583 18.9875 57.6773 18.9875 57.8242V58.2238C18.9875 58.3706 18.8658 58.4896 18.7157 58.4896Z" fill="#FF6C6C"/>
<path d="M42.3695 48.9749C42.0472 48.6783 41.4308 48.0982 40.7757 47.4771L42.206 46.0742C47.0588 45.9025 51.0696 42.3625 51.9655 37.7261L52.9751 38.7358C53.3208 39.0815 53.8845 39.085 54.2337 38.7358L54.8484 38.1211C53.8001 43.9869 48.7628 48.7246 42.3695 48.9749ZM55.0517 35.4015L53.6044 36.8489L52.1454 35.3898C52.0071 30.8337 48.7094 26.608 43.7986 25.6359L44.8082 24.6262C45.1557 24.2787 45.1557 23.715 44.8082 23.3675L44.1935 22.7528C50.2224 23.8298 54.8795 29.0294 55.0517 35.4015ZM41.8363 44.301C37.1751 44.301 33.302 40.5471 33.302 35.7648C33.302 31.047 37.1405 27.228 41.8374 27.228C46.5438 27.228 50.3735 31.0581 50.3735 35.7648C50.3735 40.4516 46.5655 44.301 41.8363 44.301ZM41.4742 22.5494L42.9214 23.9968C42.53 24.3883 41.7988 25.1196 41.4624 25.456C37.0374 25.5907 32.7078 28.761 31.7094 33.8035L30.6998 32.7938C30.3511 32.4457 29.7886 32.4463 29.4411 32.7938L28.8265 33.4091C29.8923 27.4425 35.0399 22.7235 41.4742 22.5494ZM28.6232 36.1287C28.9314 35.8205 29.8062 34.945 30.0705 34.6807C30.1261 34.737 29.7787 34.3889 31.5295 36.1398C31.5822 37.8164 32.7359 44.4885 39.8546 45.889L38.8731 46.8524C38.5145 47.204 38.5186 47.7841 38.8819 48.1305C39.0647 48.3045 39.3108 48.5395 39.5798 48.7944C33.6389 47.7748 28.7984 42.652 28.6232 36.1287ZM41.8374 20.7651C33.234 20.7651 26.6597 27.9552 26.8395 35.8439C26.8618 44.0221 33.5205 50.7651 41.8374 50.7651C50.1262 50.7651 56.8359 44.0555 56.8359 35.7648C56.8359 27.4753 50.128 20.7651 41.8374 20.7651Z" fill="#953223"/>
<path d="M37.2238 36.2653L37.5313 33.244H40.6314V33.9556H38.1837L38.0009 35.6078C38.2973 35.433 38.6339 35.3456 39.0107 35.3456C39.562 35.3456 39.9997 35.5287 40.3238 35.8949C40.648 36.2583 40.8101 36.7508 40.8101 37.3722C40.8101 37.9964 40.6411 38.4889 40.3031 38.8496C39.9679 39.2074 39.4983 39.3864 38.8943 39.3864C38.3596 39.3864 37.9233 39.238 37.5853 38.9411C37.2473 38.6443 37.0548 38.2337 37.0077 37.7093H37.7349C37.782 38.0561 37.9053 38.3183 38.1048 38.4958C38.3042 38.6706 38.5674 38.758 38.8943 38.758C39.2517 38.758 39.5315 38.6359 39.7338 38.3918C39.9388 38.1476 40.0413 37.8106 40.0413 37.3805C40.0413 36.9755 39.9305 36.6509 39.7088 36.4068C39.49 36.1598 39.1977 36.0364 38.832 36.0364C38.4968 36.0364 38.2336 36.1099 38.0424 36.2569L37.8388 36.4234L37.2238 36.2653Z" fill="#953223"/>
<path d="M43.6317 36.6023C42.9474 36.4054 42.4487 36.164 42.1357 35.8783C41.8254 35.5897 41.6703 35.2346 41.6703 34.8129C41.6703 34.3357 41.86 33.9418 42.2396 33.631C42.6219 33.3175 43.1178 33.1608 43.7273 33.1608C44.1428 33.1608 44.5127 33.2413 44.8368 33.4022C45.1637 33.5631 45.4158 33.785 45.5931 34.068C45.7732 34.351 45.8632 34.6603 45.8632 34.996H45.0612C45.0612 34.6298 44.9449 34.3427 44.7121 34.1346C44.4794 33.9237 44.1511 33.8183 43.7273 33.8183C43.3339 33.8183 43.0264 33.9057 42.8047 34.0805C42.5859 34.2525 42.4764 34.4925 42.4764 34.8004C42.4764 35.0473 42.5803 35.2568 42.7881 35.4288C42.9987 35.598 43.3547 35.7534 43.8561 35.8949C44.3603 36.0364 44.7537 36.1931 45.0363 36.3651C45.3216 36.5344 45.5322 36.7327 45.6679 36.9602C45.8064 37.1877 45.8757 37.4555 45.8757 37.7634C45.8757 38.2545 45.6846 38.6484 45.3022 38.9453C44.9199 39.2393 44.4088 39.3864 43.7688 39.3864C43.3533 39.3864 42.9654 39.3073 42.6053 39.1492C42.2451 38.9883 41.9667 38.7691 41.77 38.4917C41.5761 38.2142 41.4791 37.8993 41.4791 37.547H42.2811C42.2811 37.9132 42.4155 38.2031 42.6842 38.4168C42.9557 38.6276 43.3173 38.733 43.7688 38.733C44.1899 38.733 44.5127 38.647 44.7371 38.475C44.9615 38.303 45.0737 38.0686 45.0737 37.7717C45.0737 37.4749 44.9698 37.246 44.762 37.0851C44.5542 36.9214 44.1775 36.7605 43.6317 36.6023Z" fill="#953223"/>
<defs>
<linearGradient id="paint0_linear_842:796" x1="39.375" y1="86.25" x2="60.4355" y2="4.29149" gradientUnits="userSpaceOnUse">
<stop offset="0.008" stop-color="#FFE8DC" stop-opacity="0"/>
<stop offset="0.993" stop-color="#FF8383"/>
</linearGradient>
</defs>
</svg>
