<svg width="24" height="24" viewBox="0 0 24 24" fill="none" xmlns="http://www.w3.org/2000/svg">
<path d="M21.6796 8.05725C21.1964 7.66556 20.6373 7.35773 20.0192 7.13077C18.399 6.53592 17.1252 5.47106 16.4093 4.15116C15.0842 1.70836 12.0742 0.00215825 8.57204 2.00018e-06C3.98631 -0.0028105 0.178825 2.96077 0.00623344 6.67584C-0.0676023 8.26594 0.518342 9.74245 1.55985 10.94C2.88259 12.461 3.22627 14.3985 2.544 16.1755C1.57471 18.7 1.91266 21.0926 3.75665 22.5876C6.98807 25.2073 13.6199 24.0784 18.5692 20.0659C23.5184 16.0535 24.911 10.677 21.6796 8.05725Z" fill="url(#paint0_linear_130_105)"/>
<path d="M17.56 2H6.41C3.98 2 2 3.98 2 6.41V12.91V13.11C2 15.55 3.98 17.52 6.41 17.52H10.25C10.8 17.52 11.25 17.97 11.25 18.52V19.49C11.25 20.04 10.8 20.49 10.25 20.49H7.83C7.42 20.49 7.08 20.83 7.08 21.24C7.08 21.65 7.41 22 7.83 22H16.18C16.59 22 16.93 21.66 16.93 21.25C16.93 20.84 16.59 20.5 16.18 20.5H13.76C13.21 20.5 12.76 20.05 12.76 19.5V18.53C12.76 17.98 13.21 17.53 13.76 17.53H17.57C20.01 17.53 21.98 15.55 21.98 13.12V12.92V6.42C21.97 3.98 19.99 2 17.56 2Z" fill="url(#paint1_linear_130_105)"/>
<path fill-rule="evenodd" clip-rule="evenodd" d="M17.56 2.9H6.41C4.47706 2.9 2.9 4.47706 2.9 6.41V13.11C2.9 15.0516 4.47573 16.62 6.41 16.62H10.25C11.0414 16.62 11.722 17.1073 12.0071 17.7974C12.2946 17.1126 12.9724 16.63 13.76 16.63H17.57C19.5116 16.63 21.08 15.0543 21.08 13.12V6.42193C21.0711 4.47488 19.4903 2.9 17.56 2.9ZM21.98 6.42V13.12C21.98 15.55 20.01 17.53 17.57 17.53H13.76C13.21 17.53 12.76 17.98 12.76 18.53V19.5C12.76 20.05 13.21 20.5 13.76 20.5H16.18C16.59 20.5 16.93 20.84 16.93 21.25C16.93 21.66 16.59 22 16.18 22H7.83C7.41 22 7.08 21.65 7.08 21.24C7.08 20.83 7.42 20.49 7.83 20.49H10.25C10.8 20.49 11.25 20.04 11.25 19.49V18.52C11.25 17.97 10.8 17.52 10.25 17.52H6.41C3.98 17.52 2 15.55 2 13.11V6.41C2 3.98 3.98 2 6.41 2H17.56C19.99 2 21.97 3.98 21.98 6.42ZM12.0029 20.2226C11.8504 20.5859 11.5879 20.8924 11.2575 21.1H12.7368C12.4107 20.8907 12.1524 20.5845 12.0029 20.2226Z" fill="#953223"/>
<path fill-rule="evenodd" clip-rule="evenodd" d="M12.3017 10.9634C13.1645 10.9634 14.0469 11.1917 14.7303 11.6731C15.3746 12.1269 15.8331 12.6983 15.9648 13.2206C16.0318 13.4862 16.026 13.799 15.8291 14.0524C15.631 14.3073 15.319 14.4001 15 14.4001C14.2446 14.4001 13.6793 14.3445 13.1925 14.2966C13.0218 14.2798 12.8607 14.264 12.7044 14.2518C12.1065 14.2053 11.5187 14.2043 10.5784 14.3923C9.93678 14.5207 9.42731 14.5318 9.06585 14.3904C8.87324 14.3151 8.70796 14.1902 8.60491 14.0067C8.50331 13.8259 8.48586 13.6302 8.50901 13.4539C8.55315 13.1177 8.753 12.7777 8.98443 12.4902C9.22407 12.1925 9.53515 11.9047 9.86754 11.6723C10.5548 11.1917 11.4387 10.9634 12.3017 10.9634ZM12.3017 11.7634C11.5679 11.7634 10.8528 11.9595 10.326 12.3279C10.0513 12.5199 9.79679 12.7569 9.6076 12.9919C9.41019 13.2371 9.31798 13.4378 9.3022 13.558C9.29759 13.5931 9.30094 13.6097 9.3025 13.6148C9.3071 13.6195 9.32158 13.6314 9.35731 13.6454C9.49553 13.6995 9.81321 13.7295 10.4215 13.6079C11.4425 13.4037 12.1047 13.4027 12.7665 13.4542C12.9456 13.4682 13.1202 13.4853 13.2992 13.5029C13.7774 13.55 14.2872 13.6001 15 13.6001C15.1397 13.6001 15.1871 13.5697 15.197 13.5615C15.2011 13.5523 15.2134 13.5125 15.1891 13.4163C15.1222 13.1509 14.8306 12.7222 14.2696 12.3271C13.7478 11.9595 13.0356 11.7634 12.3017 11.7634ZM15.1959 13.5637C15.1959 13.5637 15.196 13.5634 15.1964 13.5629L15.1959 13.5637ZM15.1982 13.5605C15.1988 13.5598 15.1991 13.5595 15.1991 13.5596C15.1992 13.5596 15.1989 13.5599 15.1982 13.5605ZM9.3007 13.6125C9.30077 13.6125 9.30126 13.613 9.30198 13.6142C9.301 13.6131 9.30064 13.6126 9.3007 13.6125ZM9.30278 13.6156C9.30308 13.6162 9.30319 13.6165 9.30317 13.6166L9.30278 13.6156Z" fill="#FF6C6C"/>
<path fill-rule="evenodd" clip-rule="evenodd" d="M12.2439 6.4001C11.3577 6.4001 10.6439 7.11741 10.6439 8.00235C10.6439 8.86283 11.3141 9.56004 12.1598 9.59948C12.2136 9.5959 12.2703 9.59571 12.3244 9.59944C13.1691 9.55956 13.8398 8.86289 13.8439 8.00154C13.8434 7.11756 13.1259 6.4001 12.2439 6.4001ZM9.84387 8.00235C9.84387 6.6776 10.9138 5.6001 12.2439 5.6001C13.5688 5.6001 14.6439 6.67702 14.6439 8.00235V8.00402H14.6439C14.6385 9.29945 13.6183 10.3565 12.3294 10.3999C12.3116 10.4005 12.2938 10.3999 12.2761 10.3981C12.2587 10.3964 12.2302 10.396 12.2036 10.3985C12.187 10.4 12.1704 10.4004 12.1538 10.3999C10.8653 10.3565 9.84387 9.29938 9.84387 8.00235Z" fill="#FF6C6C"/>
<defs>
<linearGradient id="paint0_linear_130_105" x1="3" y1="-1" x2="20.7516" y2="16.7475" gradientUnits="userSpaceOnUse">
<stop stop-color="#FF7171"/>
<stop offset="0.992" stop-color="#FFE8DC" stop-opacity="0.06"/>
</linearGradient>
<linearGradient id="paint1_linear_130_105" x1="-0.5" y1="2" x2="33" y2="20.5" gradientUnits="userSpaceOnUse">
<stop stop-color="white"/>
<stop offset="1" stop-color="#FF6C6C" stop-opacity="0.76"/>
</linearGradient>
</defs>
</svg>
