<svg width="90" height="90" viewBox="0 0 90 90" fill="none" xmlns="http://www.w3.org/2000/svg">
<path d="M72.2728 27.2728C67.001 27.2728 62.7274 22.9992 62.7274 17.7274C62.7274 7.9367 54.7905 0 45 0C35.2095 0 27.2728 7.9367 27.2728 17.7272C27.2728 22.999 22.9992 27.2726 17.7274 27.2726C7.9367 27.2728 0 35.2095 0 45C0 54.7905 7.9367 62.7272 17.7272 62.7272C22.999 62.7272 27.2726 67.0008 27.2726 72.2726C27.2728 82.0633 35.2095 90 45 90C54.7905 90 62.7272 82.0633 62.7272 72.2728C62.7272 67.001 67.0008 62.7274 72.2726 62.7274C82.0633 62.7272 90 54.7905 90 45C90 35.2095 82.0633 27.2728 72.2728 27.2728Z" fill="url(#paint0_linear_827:661)"/>
<path d="M63.5897 12.8906H63.0624V12.3633C63.0624 11.8777 62.669 11.4843 62.1835 11.4843C61.698 11.4843 61.3046 11.8777 61.3046 12.3633V12.8906H60.7772C60.2917 12.8906 59.8983 13.284 59.8983 13.7695C59.8983 14.255 60.2917 14.6484 60.7772 14.6484H61.3046V15.1758C61.3046 15.6613 61.698 16.0547 62.1835 16.0547C62.669 16.0547 63.0624 15.6613 63.0624 15.1758V14.6484H63.5897C64.0752 14.6484 64.4686 14.255 64.4686 13.7695C64.4686 13.284 64.0752 12.8906 63.5897 12.8906Z" fill="#953223"/>
<path d="M68.3455 78.1622H67.8182V77.6349C67.8182 77.1494 67.4248 76.756 66.9393 76.756C66.4538 76.756 66.0604 77.1494 66.0604 77.6349V78.1622H65.533C65.0475 78.1622 64.6541 78.5556 64.6541 79.0411C64.6541 79.5266 65.0475 79.92 65.533 79.92H66.0604V80.4474C66.0604 80.9329 66.4538 81.3263 66.9393 81.3263C67.4248 81.3263 67.8182 80.9329 67.8182 80.4474V79.92H68.3455C68.831 79.92 69.2244 79.5266 69.2244 79.0411C69.2244 78.5556 68.8309 78.1622 68.3455 78.1622Z" fill="#953223"/>
<path d="M68.3455 11.0742C68.1207 11.0742 67.8955 10.9884 67.7241 10.8167L66.9392 10.032L66.1544 10.8167C65.8114 11.16 65.2546 11.16 64.9116 10.8167C64.5683 10.4735 64.5683 9.91701 64.9116 9.57388L66.3179 8.16763C66.6608 7.82433 67.2177 7.82433 67.5606 8.16763L68.9669 9.57388C69.3102 9.91701 69.3102 10.4735 68.9669 10.8167C68.7953 10.9884 68.5703 11.0742 68.3455 11.0742Z" fill="#FF6C6C"/>
<path d="M24.7412 81.3262C24.5163 81.3262 24.2912 81.2405 24.1198 81.0687L23.3349 80.284L22.5501 81.0687C22.2071 81.412 21.6502 81.412 21.3073 81.0687C20.964 80.7256 20.964 80.1691 21.3073 79.826L22.7135 78.4197C23.0565 78.0764 23.6134 78.0764 23.9563 78.4197L25.3626 79.826C25.7059 80.1691 25.7059 80.7256 25.3626 81.0687C25.1912 81.2405 24.966 81.3262 24.7412 81.3262Z" fill="#FF6C6C"/>
<path d="M33.5155 79.92C33.2907 79.92 33.0655 79.8342 32.8942 79.6625L32.1093 78.8778L31.3244 79.6625C30.9815 80.0058 30.4246 80.0058 30.0817 79.6625C29.7384 79.3193 29.7384 78.7628 30.0817 78.4197L31.4879 77.0135C31.8309 76.6702 32.3877 76.6702 32.7307 77.0135L34.1369 78.4197C34.4802 78.7628 34.4802 79.3193 34.1369 79.6625C33.9655 79.8342 33.7404 79.92 33.5155 79.92Z" fill="#FF4D4D"/>
<path opacity="0.1" d="M84.7248 68.8975V73.329C84.7248 74.2993 83.9391 75.0868 82.967 75.0868H7.03305C6.06098 75.0868 5.27524 74.2993 5.27524 73.329V68.8975C5.27524 67.9272 6.06098 67.1397 7.03305 67.1397H30.9402C31.1952 67.1397 31.4378 67.2505 31.6046 67.4435L33.8678 70.0577H56.1323L58.3955 67.4435C58.5624 67.2506 58.8048 67.1397 59.0599 67.1397H82.967C83.9391 67.1397 84.7248 67.9272 84.7248 68.8975Z" fill="#953223"/>
<path d="M79.4602 22.6582V66.5561H10.5399V22.6582C10.5399 20.9865 11.8934 19.633 13.5651 19.633H76.435C78.1067 19.633 79.4602 20.9865 79.4602 22.6582Z" fill="#FF6C6C"/>
<path d="M84.7248 64.1514V68.5829C84.7248 69.5532 83.9391 70.3407 82.967 70.3407H7.03305C6.06098 70.3407 5.27524 69.5532 5.27524 68.5829V64.1514C5.27524 63.1811 6.06098 62.3936 7.03305 62.3936H30.9402C31.1952 62.3936 31.4378 62.5044 31.6046 62.6974L33.8678 65.3116H56.1323L58.3955 62.6974C58.5624 62.5045 58.8048 62.3936 59.0599 62.3936H82.967C83.9391 62.3936 84.7248 63.1811 84.7248 64.1514Z" fill="#FFB3B3"/>
<path d="M74.501 58.1794H15.499C15.0136 58.1794 14.6201 57.7858 14.6201 57.3005V24.8808C14.6201 24.3955 15.0136 24.0019 15.499 24.0019H74.501C74.9863 24.0019 75.3799 24.3955 75.3799 24.8808V57.3005C75.3799 57.7858 74.9865 58.1794 74.501 58.1794Z" fill="white"/>
<path d="M75.3805 45.1758V57.3012C75.3805 57.7863 74.9867 58.1801 74.5016 58.1801H15.4988C15.0137 58.1801 14.6199 57.7863 14.6199 57.3012V45.1758H75.3805Z" fill="#FFB3A8"/>
<path d="M26.715 43.1731H19.5923C19.1068 43.1731 18.7134 42.7795 18.7134 42.2942C18.7134 41.8089 19.1068 41.4153 19.5923 41.4153H26.715C27.2005 41.4153 27.5939 41.8089 27.5939 42.2942C27.5939 42.7795 27.2003 43.1731 26.715 43.1731Z" fill="#FF6C6C"/>
<path d="M31.4611 49.1943H19.5923C19.1068 49.1943 18.7134 48.8007 18.7134 48.3154C18.7134 47.83 19.1068 47.4365 19.5923 47.4365H31.4611C31.9466 47.4365 32.34 47.83 32.34 48.3154C32.34 48.8007 31.9464 49.1943 31.4611 49.1943Z" fill="#FF6C6C"/>
<path d="M31.4611 52.2709H19.5923C19.1068 52.2709 18.7134 51.8773 18.7134 51.392C18.7134 50.9066 19.1068 50.5131 19.5923 50.5131H31.4611C31.9466 50.5131 32.34 50.9066 32.34 51.392C32.34 51.8773 31.9464 52.2709 31.4611 52.2709Z" fill="#FF6C6C"/>
<path d="M19.8642 40.0001C20.3496 40.0001 20.7431 39.6066 20.7431 39.1212C20.7431 38.6358 20.3496 38.2423 19.8642 38.2423C19.3788 38.2423 18.9853 38.6358 18.9853 39.1212C18.9853 39.6066 19.3788 40.0001 19.8642 40.0001Z" fill="#FF6C6C"/>
<path d="M22.7207 40.0001C23.2061 40.0001 23.5996 39.6066 23.5996 39.1212C23.5996 38.6358 23.2061 38.2423 22.7207 38.2423C22.2353 38.2423 21.8418 38.6358 21.8418 39.1212C21.8418 39.6066 22.2353 40.0001 22.7207 40.0001Z" fill="#FF6C6C"/>
<path d="M44.8206 9.22607C37.8548 9.3231 32.2507 15.1502 32.414 22.1149C32.4808 24.9645 33.4944 27.5796 35.1525 29.6582C37.6366 32.7725 39.1044 36.5653 39.2899 40.5273H50.7102C50.8958 36.5643 52.3657 32.7713 54.8498 29.6554C56.5648 27.5043 57.5896 24.779 57.5896 21.8143C57.5897 14.8017 51.8559 9.12816 44.8206 9.22607Z" fill="#FFCFCF"/>
<path d="M42.7368 41.4086C42.2513 41.4086 41.8579 41.0152 41.8579 40.5297V32.095L40.841 31.0779C40.4977 30.7348 40.4977 30.1783 40.841 29.8351C41.1839 29.4918 41.7408 29.4918 42.0837 29.8351L43.3582 31.1096C43.523 31.2744 43.6157 31.4979 43.6157 31.7309V40.5299C43.6157 41.015 43.2223 41.4086 42.7368 41.4086Z" fill="#FF6C6C"/>
<path d="M47.2632 41.4063C46.7777 41.4063 46.3843 41.0129 46.3843 40.5274V31.7285C46.3843 31.4954 46.4767 31.2718 46.6418 31.1071L47.9162 29.8327C48.2592 29.4894 48.816 29.4894 49.159 29.8327C49.5023 30.1758 49.5023 30.7323 49.159 31.0754L48.1421 32.0925V40.5272C48.1421 41.0127 47.7487 41.4063 47.2632 41.4063Z" fill="#FF6C6C"/>
<path d="M51.3332 50.9082H38.6673C38.1819 50.9082 37.7884 50.5146 37.7884 50.0293V41.4063C37.7884 40.921 38.1819 40.5274 38.6673 40.5274H51.3332C51.8185 40.5274 52.2121 40.921 52.2121 41.4063V50.0293C52.2121 50.5148 51.8185 50.9082 51.3332 50.9082Z" fill="#FFB3B3"/>
<path d="M50.254 50.9081C50.254 53.8098 47.9017 56.1621 45.0001 56.1621C42.0985 56.1621 39.7462 53.8098 39.7462 50.9081H50.254Z" fill="#EBEBFF"/>
<path d="M49.6055 53.4375C50.0184 52.6871 50.2539 51.8252 50.2539 50.9081H39.7463C39.7463 51.8252 39.9818 52.6871 40.3947 53.4375H49.6055Z" fill="#D9D9FF"/>
<path d="M81.5324 49.6509H63.0624C62.577 49.6509 62.1835 49.2573 62.1835 48.772V32.2828C62.1835 31.7975 62.577 31.4039 63.0624 31.4039H81.5324C82.0177 31.4039 82.4113 31.7975 82.4113 32.2828V48.772C82.4113 49.2575 82.0177 49.6509 81.5324 49.6509Z" fill="#FF6C6C"/>
<path d="M82.4113 36.4463V32.2829C82.4113 31.7976 82.0177 31.404 81.5324 31.404H63.0624C62.577 31.404 62.1835 31.7976 62.1835 32.2829V36.4463H82.4113Z" fill="#FEB6B6"/>
<path d="M82.967 61.5147H80.3398V50.5297H81.5323C82.5016 50.5297 83.2901 49.7412 83.2901 48.7719V32.2828C83.2901 31.3135 82.5016 30.525 81.5323 30.525H80.3398V22.658C80.3398 20.5052 78.5885 18.7539 76.4357 18.7539H58.1179C57.5498 16.2951 56.3003 14.0421 54.4569 12.2244C51.8705 9.67343 48.4517 8.29196 44.8084 8.34734C41.2062 8.39743 37.8349 9.86538 35.3156 12.4807C33.599 14.2625 32.4305 16.4204 31.8847 18.7539H13.5644C11.4116 18.7539 9.66028 20.5052 9.66028 22.658V52.3301C9.66028 52.8156 10.0537 53.209 10.5392 53.209C11.0247 53.209 11.4181 52.8156 11.4181 52.3301V22.658C11.4181 21.4747 12.381 20.5117 13.5644 20.5117H31.5981C31.5463 21.0477 31.5224 21.5891 31.5352 22.1354C31.6048 25.0993 32.6178 27.89 34.4651 30.2063C36.6807 32.9834 38.0105 36.2421 38.3451 39.6793C37.5293 39.8312 36.9092 40.5471 36.9092 41.4062V42.8578C36.5395 42.9617 36.2671 43.2974 36.2671 43.7003C36.2671 44.1032 36.5397 44.4389 36.9092 44.5428V46.5597C36.5395 46.6636 36.2671 46.9993 36.2671 47.4022C36.2671 47.8051 36.5397 48.1409 36.9092 48.2448V50.0291C36.9092 50.9984 37.6977 51.7869 38.667 51.7869H38.931C39.3589 54.7538 41.917 57.041 45 57.041C48.0831 57.041 50.6412 54.7538 51.0689 51.7871H51.3329C52.3022 51.7871 53.0907 50.9985 53.0907 50.0293V48.2449C53.4604 48.141 53.7329 47.8053 53.7329 47.4024C53.7329 46.9995 53.4602 46.6638 53.0907 46.5599V44.543C53.4604 44.4391 53.7329 44.1033 53.7329 43.7005C53.7329 43.2976 53.4602 42.9618 53.0907 42.8579V41.4063C53.0907 40.5473 52.4706 39.8313 51.6549 39.6795C51.9898 36.2438 53.3205 32.984 55.5369 30.2036C57.4548 27.7979 58.4686 24.8971 58.4686 21.8145C58.4686 21.3766 58.4468 20.9421 58.4058 20.5119H76.4357C77.6191 20.5119 78.582 21.4749 78.582 22.6582V30.5251H63.0623C62.093 30.5251 61.3045 31.3137 61.3045 32.2829V48.7721C61.3045 49.7414 62.093 50.5299 63.0623 50.5299H70.7284C71.214 50.5299 71.6073 50.1365 71.6073 49.651C71.6073 49.1655 71.214 48.7721 70.7284 48.7721H63.0623V32.2829H81.5323V48.7721H76.1075C75.622 48.7721 75.2286 49.1655 75.2286 49.651C75.2286 50.1365 75.622 50.5299 76.1075 50.5299H78.582V61.5148H59.0599C58.5494 61.5148 58.0648 61.7363 57.7306 62.1222L55.7304 64.4328H34.2693L32.2691 62.1222C31.9351 61.7363 31.4505 61.5148 30.9398 61.5148H11.4181V57.709C11.4181 57.2235 11.0247 56.8301 10.5392 56.8301C10.0537 56.8301 9.66028 57.2235 9.66028 57.709V61.5147H7.03305C5.57916 61.5147 4.39633 62.6975 4.39633 64.1514V68.5828C4.39633 70.0367 5.57916 71.2195 7.03305 71.2195H82.967C84.4209 71.2195 85.6038 70.0367 85.6038 68.5828V64.1514C85.6038 62.6975 84.4211 61.5147 82.967 61.5147ZM51.3329 41.4063L51.3331 42.8215H38.667V41.4063H39.2898H50.7101H51.3329ZM51.3334 44.5792L51.3336 46.5235H38.667V44.5792H51.3334ZM45 55.2832C42.8886 55.2832 41.1218 53.7798 40.7138 51.7871H49.2863C48.8783 53.7798 47.1115 55.2832 45 55.2832ZM50.254 50.0293H39.7463H38.6672V48.2813H51.334L51.3341 50.0293H50.254ZM54.1625 29.1076C51.7024 32.1938 50.2343 35.8223 49.8896 39.6485H40.1105C39.766 35.8207 38.2986 32.1933 35.8394 29.1103C34.2336 27.097 33.3528 24.6711 33.2927 22.0945C33.219 18.9592 34.3873 15.9782 36.5815 13.7002C38.7728 11.4254 41.7033 10.1486 44.8327 10.105C47.9945 10.0659 50.9734 11.2583 53.2224 13.4761C55.4719 15.6943 56.7108 18.6557 56.7108 21.8146C56.7108 24.4946 55.8296 27.0165 54.1625 29.1076ZM83.8459 68.5828C83.8459 69.0674 83.4517 69.4617 82.967 69.4617H7.03305C6.54842 69.4617 6.15414 69.0674 6.15414 68.5828V64.1514C6.15414 63.6667 6.54842 63.2725 7.03305 63.2725H30.9404L33.2034 65.8867C33.3702 66.0795 33.6128 66.1904 33.8678 66.1904H56.1323C56.3873 66.1904 56.6299 66.0795 56.7967 65.8867L59.0599 63.2725H82.967C83.4517 63.2725 83.8459 63.6667 83.8459 64.1514V68.5828Z" fill="#953223"/>
<path d="M65.5916 35.0693C65.9314 35.0693 66.2068 34.7938 66.2068 34.454C66.2068 34.1143 65.9314 33.8388 65.5916 33.8388C65.2518 33.8388 64.9764 34.1143 64.9764 34.454C64.9764 34.7938 65.2518 35.0693 65.5916 35.0693Z" fill="#FF6C6C"/>
<path d="M67.5545 35.0693C67.8943 35.0693 68.1697 34.7938 68.1697 34.454C68.1697 34.1143 67.8943 33.8388 67.5545 33.8388C67.2147 33.8388 66.9393 34.1143 66.9393 34.454C66.9393 34.7938 67.2147 35.0693 67.5545 35.0693Z" fill="#FF6C6C"/>
<path d="M69.5173 35.0693C69.8571 35.0693 70.1326 34.7938 70.1326 34.454C70.1326 34.1143 69.8571 33.8388 69.5173 33.8388C69.1776 33.8388 68.9021 34.1143 68.9021 34.454C68.9021 34.7938 69.1776 35.0693 69.5173 35.0693Z" fill="#FF6C6C"/>
<defs>
<linearGradient id="paint0_linear_827:661" x1="16.875" y1="-5.625" x2="52.5" y2="99.375" gradientUnits="userSpaceOnUse">
<stop stop-color="white" stop-opacity="0"/>
<stop offset="1" stop-color="#FF6C6C" stop-opacity="0.88"/>
</linearGradient>
</defs>
</svg>
