<svg width="24" height="24" viewBox="0 0 24 24" fill="none" xmlns="http://www.w3.org/2000/svg">
<path d="M23.6 3.6002V22.4002C23.6 22.7185 23.4736 23.0237 23.2486 23.2487C23.0235 23.4738 22.7183 23.6002 22.4 23.6002H1.60002C1.28176 23.6002 0.97654 23.4738 0.751496 23.2487C0.526453 23.0237 0.400024 22.7185 0.400024 22.4002V3.6002L0.800024 3.2002H23.2L23.6 3.6002Z" fill="url(#paint0_linear_151_840)"/>
<path d="M23.6 1.5999V3.5999H0.400024V1.5999C0.400024 1.28164 0.526453 0.976418 0.751496 0.751374C0.97654 0.526331 1.28176 0.399902 1.60002 0.399902H22.4C22.7183 0.399902 23.0235 0.526331 23.2486 0.751374C23.4736 0.976418 23.6 1.28164 23.6 1.5999Z" fill="#953223"/>
<path d="M2.39998 2.4001H1.99998C1.89389 2.4001 1.79215 2.35796 1.71713 2.28294C1.64212 2.20793 1.59998 2.10619 1.59998 2.0001C1.59998 1.89401 1.64212 1.79227 1.71713 1.71726C1.79215 1.64224 1.89389 1.6001 1.99998 1.6001H2.39998C2.50606 1.6001 2.6078 1.64224 2.68282 1.71726C2.75783 1.79227 2.79998 1.89401 2.79998 2.0001C2.79998 2.10619 2.75783 2.20793 2.68282 2.28294C2.6078 2.35796 2.50606 2.4001 2.39998 2.4001Z" fill="white"/>
<path d="M4.39997 2.4001H3.99997C3.89389 2.4001 3.79215 2.35796 3.71713 2.28294C3.64212 2.20793 3.59998 2.10619 3.59998 2.0001C3.59998 1.89401 3.64212 1.79227 3.71713 1.71726C3.79215 1.64224 3.89389 1.6001 3.99997 1.6001H4.39997C4.50606 1.6001 4.6078 1.64224 4.68281 1.71726C4.75783 1.79227 4.79997 1.89401 4.79997 2.0001C4.79997 2.10619 4.75783 2.20793 4.68281 2.28294C4.6078 2.35796 4.50606 2.4001 4.39997 2.4001Z" fill="white"/>
<path d="M6.39997 2.4001H5.99997C5.89389 2.4001 5.79215 2.35796 5.71713 2.28294C5.64212 2.20793 5.59998 2.10619 5.59998 2.0001C5.59998 1.89401 5.64212 1.79227 5.71713 1.71726C5.79215 1.64224 5.89389 1.6001 5.99997 1.6001H6.39997C6.50606 1.6001 6.6078 1.64224 6.68282 1.71726C6.75783 1.79227 6.79997 1.89401 6.79997 2.0001C6.79997 2.10619 6.75783 2.20793 6.68282 2.28294C6.6078 2.35796 6.50606 2.4001 6.39997 2.4001Z" fill="white"/>
<path d="M22.0001 2.4001H19.6001C19.494 2.4001 19.3922 2.35796 19.3172 2.28294C19.2422 2.20793 19.2001 2.10619 19.2001 2.0001C19.2001 1.89401 19.2422 1.79227 19.3172 1.71726C19.3922 1.64224 19.494 1.6001 19.6001 1.6001H22.0001C22.1062 1.6001 22.2079 1.64224 22.2829 1.71726C22.3579 1.79227 22.4001 1.89401 22.4001 2.0001C22.4001 2.10619 22.3579 2.20793 22.2829 2.28294C22.2079 2.35796 22.1062 2.4001 22.0001 2.4001Z" fill="#FF6363"/>
<path d="M20.4 22.0002C20.2939 22.0002 20.1922 21.9581 20.1172 21.883C20.0421 21.808 20 21.7063 20 21.6002V5.6002C20 5.49411 20.0421 5.39237 20.1172 5.31735C20.1922 5.24234 20.2939 5.2002 20.4 5.2002C20.5061 5.2002 20.6078 5.24234 20.6828 5.31735C20.7578 5.39237 20.8 5.49411 20.8 5.6002V21.6002C20.8 21.7063 20.7578 21.808 20.6828 21.883C20.6078 21.9581 20.5061 22.0002 20.4 22.0002Z" fill="#FFB3B3"/>
<path d="M17.5999 22.0002C17.4939 22.0002 17.3921 21.9581 17.3171 21.883C17.2421 21.808 17.2 21.7063 17.2 21.6002V5.6002C17.2 5.49411 17.2421 5.39237 17.3171 5.31735C17.3921 5.24234 17.4939 5.2002 17.5999 5.2002C17.706 5.2002 17.8078 5.24234 17.8828 5.31735C17.9578 5.39237 17.9999 5.49411 17.9999 5.6002V21.6002C17.9999 21.7063 17.9578 21.808 17.8828 21.883C17.8078 21.9581 17.706 22.0002 17.5999 22.0002Z" fill="#FFB3B3"/>
<path d="M14.7999 22.0002C14.6938 22.0002 14.5921 21.9581 14.5171 21.883C14.442 21.808 14.3999 21.7063 14.3999 21.6002V5.6002C14.3999 5.49411 14.442 5.39237 14.5171 5.31735C14.5921 5.24234 14.6938 5.2002 14.7999 5.2002C14.906 5.2002 15.0077 5.24234 15.0827 5.31735C15.1577 5.39237 15.1999 5.49411 15.1999 5.6002V21.6002C15.1999 21.7063 15.1577 21.808 15.0827 21.883C15.0077 21.9581 14.906 22.0002 14.7999 22.0002Z" fill="#FFB3B3"/>
<path d="M12 22.0002C11.8939 22.0002 11.7921 21.9581 11.7171 21.883C11.6421 21.808 11.6 21.7063 11.6 21.6002V5.6002C11.6 5.49411 11.6421 5.39237 11.7171 5.31735C11.7921 5.24234 11.8939 5.2002 12 5.2002C12.1061 5.2002 12.2078 5.24234 12.2828 5.31735C12.3578 5.39237 12.4 5.49411 12.4 5.6002V21.6002C12.4 21.7063 12.3578 21.808 12.2828 21.883C12.2078 21.9581 12.1061 22.0002 12 22.0002Z" fill="#FFB3B3"/>
<path d="M9.19993 22.0002C9.09384 22.0002 8.9921 21.9581 8.91708 21.883C8.84207 21.808 8.79993 21.7063 8.79993 21.6002V5.6002C8.79993 5.49411 8.84207 5.39237 8.91708 5.31735C8.9921 5.24234 9.09384 5.2002 9.19993 5.2002C9.30601 5.2002 9.40776 5.24234 9.48277 5.31735C9.55779 5.39237 9.59993 5.49411 9.59993 5.6002V21.6002C9.59993 21.7063 9.55779 21.808 9.48277 21.883C9.40776 21.9581 9.30601 22.0002 9.19993 22.0002Z" fill="#FFB3B3"/>
<path d="M6.4 22.0002C6.29391 22.0002 6.19217 21.9581 6.11716 21.883C6.04214 21.808 6 21.7063 6 21.6002V5.6002C6 5.49411 6.04214 5.39237 6.11716 5.31735C6.19217 5.24234 6.29391 5.2002 6.4 5.2002C6.50609 5.2002 6.60783 5.24234 6.68284 5.31735C6.75786 5.39237 6.8 5.49411 6.8 5.6002V21.6002C6.8 21.7063 6.75786 21.808 6.68284 21.883C6.60783 21.9581 6.50609 22.0002 6.4 22.0002Z" fill="#FFB3B3"/>
<path d="M3.59995 22.0002C3.49387 22.0002 3.39212 21.9581 3.31711 21.883C3.24209 21.808 3.19995 21.7063 3.19995 21.6002V5.6002C3.19995 5.49411 3.24209 5.39237 3.31711 5.31735C3.39212 5.24234 3.49387 5.2002 3.59995 5.2002C3.70604 5.2002 3.80778 5.24234 3.8828 5.31735C3.95781 5.39237 3.99995 5.49411 3.99995 5.6002V21.6002C3.99995 21.7063 3.95781 21.808 3.8828 21.883C3.80778 21.9581 3.70604 22.0002 3.59995 22.0002Z" fill="#FFB3B3"/>
<path d="M22 6.0002H1.99998C1.89389 6.0002 1.79215 5.95805 1.71713 5.88304C1.64212 5.80803 1.59998 5.70628 1.59998 5.6002C1.59998 5.49411 1.64212 5.39237 1.71713 5.31735C1.79215 5.24234 1.89389 5.2002 1.99998 5.2002H22C22.1061 5.2002 22.2078 5.24234 22.2828 5.31735C22.3578 5.39237 22.4 5.49411 22.4 5.6002C22.4 5.70628 22.3578 5.80803 22.2828 5.88304C22.2078 5.95805 22.1061 6.0002 22 6.0002Z" fill="#FFB3B3"/>
<path d="M3.2 10.4C3.86274 10.4 4.4 9.86274 4.4 9.2C4.4 8.53726 3.86274 8 3.2 8C2.53726 8 2 8.53726 2 9.2C2 9.86274 2.53726 10.4 3.2 10.4Z" fill="#FF4D4D"/>
<path d="M3.2 15.1998C3.86274 15.1998 4.4 14.6625 4.4 13.9998C4.4 13.3371 3.86274 12.7998 3.2 12.7998C2.53726 12.7998 2 13.3371 2 13.9998C2 14.6625 2.53726 15.1998 3.2 15.1998Z" fill="#FF6363"/>
<path d="M3.2 20.0001C3.86274 20.0001 4.4 19.4628 4.4 18.8001C4.4 18.1374 3.86274 17.6001 3.2 17.6001C2.53726 17.6001 2 18.1374 2 18.8001C2 19.4628 2.53726 20.0001 3.2 20.0001Z" fill="#FEB6B6"/>
<path d="M14.8 8.3999H6.8C6.35817 8.3999 6 8.75808 6 9.1999C6 9.64173 6.35817 9.99991 6.8 9.99991H14.8C15.2418 9.99991 15.6 9.64173 15.6 9.1999C15.6 8.75808 15.2418 8.3999 14.8 8.3999Z" fill="#FF4D4D"/>
<path d="M18 13.1997H8.8C8.35817 13.1997 8 13.5579 8 13.9997C8 14.4415 8.35817 14.7997 8.8 14.7997H18C18.4418 14.7997 18.8 14.4415 18.8 13.9997C18.8 13.5579 18.4418 13.1997 18 13.1997Z" fill="#FF6363"/>
<path d="M20.8 18H11.2C10.7582 18 10.4 18.3582 10.4 18.8C10.4 19.2418 10.7582 19.6 11.2 19.6H20.8C21.2419 19.6 21.6 19.2418 21.6 18.8C21.6 18.3582 21.2419 18 20.8 18Z" fill="#FEB6B6"/>
<defs>
<linearGradient id="paint0_linear_151_840" x1="2.27346" y1="4.26582" x2="23.5782" y2="24.0939" gradientUnits="userSpaceOnUse">
<stop stop-color="white"/>
<stop offset="1" stop-color="#FFCCCC"/>
</linearGradient>
</defs>
</svg>
