<svg width="90" height="90" viewBox="0 0 90 90" fill="none" xmlns="http://www.w3.org/2000/svg">
<path d="M72.2728 27.2728C67.001 27.2728 62.7274 22.9992 62.7274 17.7274C62.7274 7.9367 54.7905 0 45 0C35.2095 0 27.2728 7.9367 27.2728 17.7272C27.2728 22.999 22.9992 27.2726 17.7274 27.2726C7.9367 27.2728 0 35.2095 0 45C0 54.7905 7.9367 62.7272 17.7272 62.7272C22.999 62.7272 27.2726 67.0008 27.2726 72.2726C27.2728 82.0633 35.2095 90 45 90C54.7905 90 62.7272 82.0633 62.7272 72.2728C62.7272 67.001 67.0008 62.7274 72.2726 62.7274C82.0633 62.7272 90 54.7905 90 45C90 35.2095 82.0633 27.2728 72.2728 27.2728Z" fill="url(#paint0_linear_842:1008)"/>
<path opacity="0.1" d="M79.8157 75.6655L65.4447 61.2945V12.7627C65.4447 11.8504 64.7046 11.1104 63.7923 11.1104H18.8099C17.8976 11.1104 17.1575 11.8504 17.1575 12.7627V60.8487C17.1575 60.8487 17.1575 60.8487 17.1574 60.8487C13.055 60.8487 9.72955 64.1743 9.72955 68.2765C9.72955 72.3787 13.0552 75.7044 17.1574 75.7044H17.1575V84.0947C17.1575 85.007 17.8976 85.7471 18.8099 85.7471H63.7923C64.7046 85.7471 65.4447 85.007 65.4447 84.0947V71.8407L74.5426 80.9386C75.1494 81.5454 76.133 81.5454 76.7396 80.9386L79.8157 77.8626C80.4223 77.256 80.4223 76.2723 79.8157 75.6655Z" fill="#953223"/>
<path d="M65.4448 8.01662V79.3486C65.4448 80.261 64.7048 81.001 63.7925 81.001H18.81C17.8977 81.001 17.1577 80.261 17.1577 79.3486V8.01662C17.1577 7.10432 17.8977 6.36428 18.81 6.36428H63.7925C64.7048 6.36428 65.4448 7.10432 65.4448 8.01662Z" fill="white"/>
<path d="M65.4448 60.93V71.4751L59.9692 65.9995C59.3856 65.4177 59.3645 64.4896 59.8989 63.8796L52.8395 56.8202C45.4655 62.5982 34.7376 62.0954 27.9489 55.3068C20.6153 47.9732 20.6153 36.0411 27.9489 28.7075C35.2825 21.374 47.2145 21.374 54.5481 28.7075C61.3368 35.4962 61.8413 46.2242 56.0616 53.5982L63.121 60.6576C63.731 60.1232 64.6591 60.1443 65.2409 60.7261L65.4448 60.93Z" fill="#EBEBFF"/>
<path d="M24.586 66.8571C24.586 70.9599 21.2602 74.2857 17.1574 74.2857V59.4286C21.2604 59.4286 24.586 62.7544 24.586 66.8571Z" fill="#FFD9D9"/>
<path d="M65.4448 8.01662V61.4365H17.1577V8.01662C17.1577 7.10432 17.8977 6.36428 18.81 6.36428H63.7925C64.7048 6.36428 65.4448 7.10432 65.4448 8.01662Z" fill="#FFD9D9"/>
<path d="M65.4444 60.93V61.4363H57.4551L52.8391 56.8202C45.4651 62.5982 34.7372 62.0954 27.9485 55.3068C20.6149 47.9732 20.6149 36.0411 27.9485 28.7075C35.2821 21.374 47.2141 21.374 54.5477 28.7075C61.3364 35.4962 61.8409 46.2242 56.0612 53.5982L63.1206 60.6576C63.7305 60.1232 64.6587 60.1443 65.2405 60.7261L65.4444 60.93Z" fill="#FF9494"/>
<path d="M65.4447 14.9479V8.0181C65.4447 7.10456 64.7042 6.364 63.7906 6.364H18.8115C17.898 6.364 17.1574 7.10456 17.1574 8.0181V14.9479H65.4447Z" fill="#FF6C6C"/>
<path d="M31.5485 14.9479L38.023 6.364H18.8107C17.8977 6.364 17.1574 7.10421 17.1574 8.01722V14.9477L31.5485 14.9479Z" fill="#FF6363"/>
<path d="M60.0492 11.7895H40.1411C39.6846 11.7895 39.3145 11.4193 39.3145 10.9628C39.3145 10.5063 39.6845 10.1361 40.1411 10.1361H60.0492C60.5057 10.1361 60.8759 10.5063 60.8759 10.9628C60.8759 11.4193 60.5059 11.7895 60.0492 11.7895Z" fill="#FFD9D9"/>
<path d="M51.4253 51.0358L54.6467 47.8146L64.4224 57.5903L61.2012 60.8117L51.4253 51.0358Z" fill="#FF6363"/>
<path d="M51.4362 51.0343L54.7164 54.3145C55.3032 53.8422 55.8687 53.3338 56.4131 52.7894C56.9575 52.245 57.4658 51.6796 57.9381 51.0928L54.6579 47.8126L51.4362 51.0343Z" fill="#FF9494"/>
<path d="M54.5487 50.9257C47.2153 58.2591 35.2829 58.2591 27.9493 50.9257C20.6158 43.5922 20.6159 31.6597 27.9493 24.3262C35.2827 16.9928 47.2153 16.9928 54.5487 24.3262C61.8821 31.6597 61.8821 43.5921 54.5487 50.9257Z" fill="#FF6363"/>
<path d="M41.2407 51.7718C49.0531 51.7718 55.3863 45.4385 55.3863 37.6261C55.3863 29.8137 49.0531 23.4805 41.2407 23.4805C33.4283 23.4805 27.0951 29.8137 27.0951 37.6261C27.0951 45.4385 33.4283 51.7718 41.2407 51.7718Z" fill="#FFD9D9"/>
<path d="M50.0023 26.5103L30.1337 46.3788C29.348 45.3839 28.7169 44.3064 28.2388 43.1796L46.8031 24.6154C47.9298 25.0935 49.0074 25.7246 50.0023 26.5103Z" fill="#FFEEEE"/>
<path d="M55.2669 35.7497L39.3728 51.6438C36.5164 51.2659 33.7531 50.0161 31.5189 47.8962L51.5193 27.8958C53.6392 30.1299 54.8892 32.8932 55.2669 35.7497Z" fill="#FFEEEE"/>
<path d="M79.8158 73.1162L76.7398 76.1922C76.133 76.799 75.1493 76.799 74.5427 76.1922L59.9685 61.618C59.3617 61.0112 59.3617 60.0275 59.9685 59.4209L63.0445 56.3449C63.6513 55.7381 64.635 55.7381 65.2416 56.3449L79.8158 70.9191C80.4224 71.5259 80.4224 72.5095 79.8158 73.1162Z" fill="#FF9494"/>
<path d="M72.1122 73.7621L74.5423 76.1921C75.1491 76.7989 76.1327 76.7989 76.7394 76.1921L79.8154 73.1161C80.4222 72.5093 80.4222 71.5256 79.8154 70.919L77.3854 68.489L72.1122 73.7621Z" fill="#FF6363"/>
<path d="M62.0935 63.7564L67.3659 58.4841L70.8457 61.9638L65.5733 67.2362L62.0935 63.7564Z" fill="#FF6C6C"/>
<path d="M54.8819 73.3959H27.7202C27.2347 73.3959 26.8413 73.7895 26.8413 74.2748C26.8413 74.7602 27.2347 75.1538 27.7202 75.1538H54.8819C55.3674 75.1538 55.7608 74.7602 55.7608 74.2748C55.7608 73.7895 55.3674 73.3959 54.8819 73.3959Z" fill="#FF6C6C"/>
<path d="M34.1288 69.9673H27.724C27.2385 69.9673 26.8451 70.3609 26.8451 70.8462C26.8451 71.3316 27.2385 71.7252 27.724 71.7252H34.1288C34.6143 71.7252 35.0077 71.3316 35.0077 70.8462C35.0077 70.3609 34.6143 69.9673 34.1288 69.9673Z" fill="#FF6C6C"/>
<path d="M38.3507 69.9673H51.6518C52.1371 69.9673 52.5307 70.3609 52.5307 70.8462C52.5307 71.3316 52.1371 71.7252 51.6518 71.7252H38.3129C37.799 71.7252 37.3882 71.2839 37.4383 70.7598C37.4818 70.3029 37.8918 69.9673 38.3507 69.9673Z" fill="#FF6C6C"/>
<path d="M30.8824 67.4132C31.3678 67.4132 31.7613 67.0197 31.7613 66.5343C31.7613 66.0489 31.3678 65.6554 30.8824 65.6554C30.3969 65.6554 30.0034 66.0489 30.0034 66.5343C30.0034 67.0197 30.3969 67.4132 30.8824 67.4132Z" fill="#FF6C6C"/>
<path d="M28.0259 67.4132C28.5113 67.4132 28.9048 67.0197 28.9048 66.5343C28.9048 66.0489 28.5113 65.6554 28.0259 65.6554C27.5405 65.6554 27.147 66.0489 27.147 66.5343C27.147 67.0197 27.5405 67.4132 28.0259 67.4132Z" fill="#FF6C6C"/>
<path d="M17.1574 70.958C21.2597 70.958 24.5852 67.6325 24.5852 63.5302C24.5852 59.428 21.2597 56.1024 17.1574 56.1024C13.0551 56.1024 9.72955 59.428 9.72955 63.5302C9.72955 67.6325 13.0551 70.958 17.1574 70.958Z" fill="#FF6C6C"/>
<path d="M17.1573 48.6386C17.6428 48.6386 18.0362 48.2451 18.0362 47.7597V8.01722C18.0362 7.59025 18.3837 7.2429 18.8107 7.2429H51.6269C52.1124 7.2429 52.5058 6.84933 52.5058 6.364C52.5058 5.87867 52.1124 5.48509 51.6269 5.48509H18.8108C17.4146 5.48509 16.2785 6.62099 16.2785 8.01722V47.7597C16.2784 48.2451 16.6719 48.6386 17.1573 48.6386Z" fill="#953223"/>
<path d="M80.437 70.2979L66.3236 56.1844V8.01722C66.3236 6.62099 65.1877 5.48509 63.7916 5.48509H57.0061C56.5206 5.48509 56.1272 5.87867 56.1272 6.364C56.1272 6.84933 56.5206 7.2429 57.0061 7.2429H63.7916C64.2186 7.2429 64.5658 7.59025 64.5658 8.01722V55.0496C64.4272 55.0253 64.2863 55.0111 64.1428 55.0111C63.8373 55.0111 63.5413 55.0689 63.2648 55.176L57.2232 49.1344C62.7701 41.4443 62.0865 30.6209 55.1704 23.7046C47.494 16.0285 35.0037 16.0285 27.3281 23.7046C23.6152 27.4175 21.5704 32.3615 21.5704 37.6258C21.5704 42.8901 23.6152 47.8343 27.3281 51.547C31.1661 55.385 36.2077 57.304 41.2492 57.304C45.2926 57.304 49.3352 56.0684 52.7576 53.5998L58.7992 59.6414C58.6922 59.9179 58.6344 60.2141 58.6344 60.5196C58.6344 61.1694 58.8873 61.7803 59.347 62.2398L64.5658 67.4587V79.3477C64.5658 79.7746 64.2184 80.122 63.7916 80.122H18.8108C18.3836 80.122 18.0363 79.7746 18.0363 79.3477V71.7901C22.2049 71.3498 25.4643 67.8138 25.4643 63.5302C25.4643 59.2465 22.2049 55.7107 18.0363 55.2702V53.1387C18.0363 52.6533 17.6429 52.2598 17.1574 52.2598C16.6719 52.2598 16.2785 52.6533 16.2785 53.1387V55.2704C12.1098 55.7109 8.85065 59.2469 8.85065 63.5302C8.85065 67.8134 12.1098 71.3494 16.2785 71.7899V79.3477C16.2785 80.7439 17.4145 81.8798 18.8108 81.8798H63.7916C65.1877 81.8798 66.3236 80.7439 66.3236 79.3477V69.2163L73.921 76.8138C74.3805 77.2733 74.9913 77.5264 75.6412 77.5264C76.2909 77.5264 76.9017 77.2734 77.361 76.8139L80.437 73.738C81.3854 72.7896 81.3854 71.2464 80.437 70.2979ZM10.6085 63.5303C10.6085 59.9193 13.5463 56.9814 17.1575 56.9814C20.7686 56.9814 23.7065 59.9193 23.7065 63.5303C23.7065 67.1414 20.7686 70.0792 17.1575 70.0792C13.5463 70.0792 10.6085 67.1414 10.6085 63.5303ZM28.5707 50.304C25.19 46.9232 23.328 42.4208 23.328 37.6258C23.328 32.8309 25.19 28.3284 28.5707 24.9476C32.0661 21.4522 36.6575 19.7046 41.2489 19.7046C45.8403 19.7046 50.4317 21.4524 53.9273 24.9478C60.9179 31.9386 60.9179 43.3134 53.9273 50.3042C46.9365 57.2945 35.562 57.2947 28.5707 50.304ZM55.1701 51.547C55.5028 51.2142 55.8203 50.8718 56.1242 50.5216L61.8744 56.272L59.8949 58.2514L54.1447 52.5013C54.4949 52.1972 54.8373 51.8797 55.1701 51.547ZM79.1941 72.495L76.1179 75.5712C75.863 75.8261 75.4185 75.8257 75.1638 75.5712L60.5896 60.997C60.4621 60.8695 60.392 60.7001 60.392 60.5199C60.392 60.3397 60.4621 60.1703 60.5896 60.0428L63.6657 56.9668C63.7932 56.8394 63.9625 56.7693 64.1426 56.7693C64.3228 56.7693 64.4923 56.8394 64.6199 56.967L79.1939 71.5412C79.4571 71.8038 79.4571 72.2319 79.1941 72.495Z" fill="#953223"/>
<path d="M77.0508 27.2308H76.5234V26.7035C76.5234 26.2181 76.13 25.8246 75.6445 25.8246C75.159 25.8246 74.7656 26.2181 74.7656 26.7035V27.2308H74.2383C73.7528 27.2308 73.3594 27.6244 73.3594 28.1097C73.3594 28.5951 73.7528 28.9886 74.2383 28.9886H74.7656V29.516C74.7656 30.0013 75.159 30.3949 75.6445 30.3949C76.13 30.3949 76.5234 30.0013 76.5234 29.516V28.9886H77.0508C77.5363 28.9886 77.9297 28.5951 77.9297 28.1097C77.9297 27.6244 77.5363 27.2308 77.0508 27.2308Z" fill="#FF6363"/>
<path d="M12.0116 44.2098H11.4843V43.6825C11.4843 43.1972 11.0909 42.8036 10.6053 42.8036C10.1198 42.8036 9.72644 43.1972 9.72644 43.6825V44.2098H9.1991C8.71359 44.2098 8.32019 44.6034 8.32019 45.0887C8.32019 45.5741 8.71359 45.9677 9.1991 45.9677H9.72644V46.495C9.72644 46.9803 10.1198 47.3739 10.6053 47.3739C11.0909 47.3739 11.4843 46.9803 11.4843 46.495V45.9677H12.0116C12.4971 45.9677 12.8905 45.5741 12.8905 45.0887C12.8905 44.6034 12.4971 44.2098 12.0116 44.2098Z" fill="#953223"/>
<path d="M73.6724 37.0641C73.4476 37.0641 73.2224 36.9783 73.051 36.8067L72.2662 36.022L71.4813 36.8067C71.1384 37.1498 70.5815 37.1498 70.2386 36.8067C69.8953 36.4634 69.8953 35.9069 70.2386 35.5638L71.6448 34.1575C71.9877 33.8144 72.5446 33.8144 72.8876 34.1575L74.2938 35.5638C74.6371 35.9071 74.6371 36.4636 74.2938 36.8067C74.1224 36.9783 73.8974 37.0641 73.6724 37.0641Z" fill="#FF4D4D"/>
<path d="M10.6054 53.3494C10.3806 53.3494 10.1554 53.2636 9.98405 53.092L9.19918 52.3073L8.41432 53.092C8.07137 53.4351 7.51449 53.4351 7.17154 53.092C6.82824 52.7487 6.82824 52.1922 7.17154 51.849L8.57779 50.4428C8.92074 50.0997 9.47762 50.0997 9.82057 50.4428L11.2268 51.849C11.5701 52.1924 11.5701 52.7489 11.2268 53.092C11.0554 53.2634 10.8303 53.3494 10.6054 53.3494Z" fill="#FF6363"/>
<path d="M80.9179 65.1128C80.6931 65.1128 80.4679 65.027 80.2965 64.8554L79.5117 64.0708L78.7268 64.8554C78.3839 65.1986 77.827 65.1986 77.484 64.8554C77.1407 64.5121 77.1407 63.9556 77.484 63.6125L78.8903 62.2063C79.2332 61.8631 79.7901 61.8631 80.133 62.2063L81.5393 63.6125C81.8826 63.9558 81.8826 64.5123 81.5393 64.8554C81.3679 65.027 81.1427 65.1128 80.9179 65.1128Z" fill="#953223"/>
<path d="M18.2345 61.1377C18.7933 61.2497 19.3087 61.4795 19.7526 61.7991L20.0362 62.0239C20.8369 62.7214 21.3422 63.7369 21.3422 64.8658C21.3422 65.9678 20.8607 66.9617 20.093 67.6573L19.8443 67.8646C19.184 68.3698 18.3535 68.6712 17.4522 68.6712C17.3409 68.6712 17.2306 68.6663 17.1216 68.6573L16.8104 68.6191C14.9698 68.3189 13.5623 66.7503 13.5623 64.8658C13.5623 64.0252 13.8425 63.2476 14.3161 62.6172L13.9082 62.2182C13.8468 62.2531 13.7771 62.272 13.7042 62.272C13.5953 62.272 13.4929 62.2305 13.4159 62.1552L13.127 61.8727C12.9681 61.7171 12.9681 61.4641 13.127 61.3086L13.8161 60.6346C13.975 60.4791 14.2336 60.4791 14.3926 60.6346L14.6815 60.9172C14.8148 61.0476 14.8358 61.2464 14.7455 61.3989L15.1535 61.7979C15.597 61.479 16.1118 61.2496 16.6699 61.1377V61.0484C15.9829 60.7639 15.5276 60.1192 15.5276 59.4162C15.5276 58.3237 16.5562 58.1836 17.4523 58.1836C18.3483 58.1836 19.3768 58.3237 19.3768 59.4162C19.3768 60.1193 18.9215 60.764 18.2345 61.0486V61.1377Z" fill="#953223"/>
<path opacity="0.1" d="M18.0988 61.4546V60.8636H18.1297C18.2799 60.8636 18.4015 60.7446 18.4015 60.5978V60.1981C18.4015 60.0513 18.2799 59.9323 18.1297 59.9323H16.7748C16.6247 59.9323 16.5031 60.0513 16.5031 60.1981V60.5978C16.5031 60.7446 16.6247 60.8636 16.7748 60.8636H16.8058V61.4546H18.0988Z" fill="#953223"/>
<path d="M13.7075 61.8347L14.3526 61.2037L15.4283 62.2559L14.7832 62.887L13.7075 61.8347Z" fill="#FF6363"/>
<path d="M14.5854 61.3883L13.8964 62.0624C13.7902 62.1662 13.6181 62.1662 13.512 62.0624L13.2232 61.7798C13.117 61.676 13.117 61.5076 13.2232 61.4038L13.9122 60.7297C14.0183 60.6259 14.1904 60.6259 14.2965 60.7297L14.5854 61.0123C14.6915 61.1162 14.6915 61.2845 14.5854 61.3883Z" fill="#FF9494"/>
<path d="M16.8057 59.9341H18.0985V61.4224H16.8057V59.9341Z" fill="#FF8383"/>
<path d="M16.8057 59.9341H18.0985V60.8628H16.8057V59.9341Z" fill="#FF6363"/>
<path d="M17.4522 68.5388C19.5255 68.5388 21.2063 66.8946 21.2063 64.8663C21.2063 62.8381 19.5255 61.1938 17.4522 61.1938C15.3789 61.1938 13.6981 62.8381 13.6981 64.8663C13.6981 66.8946 15.3789 68.5388 17.4522 68.5388Z" fill="#953223"/>
<path d="M17.4522 67.9628C19.2006 67.9628 20.618 66.5762 20.618 64.8658C20.618 63.1554 19.2006 61.7688 17.4522 61.7688C15.7037 61.7688 14.2863 63.1554 14.2863 64.8658C14.2863 66.5762 15.7037 67.9628 17.4522 67.9628Z" fill="white"/>
<path d="M17.4522 65.8919C18.032 65.8919 18.502 65.4321 18.502 64.8649C18.502 64.2977 18.032 63.8379 17.4522 63.8379C16.8724 63.8379 16.4023 64.2977 16.4023 64.8649C16.4023 65.4321 16.8724 65.8919 17.4522 65.8919Z" fill="#FFB3B3"/>
<path d="M15.8972 64.4787C15.9244 64.3759 16.0315 64.3139 16.1367 64.3401L17.5017 64.679C17.6072 64.7057 17.6706 64.8111 17.6432 64.9143C17.6159 65.0175 17.5082 65.0795 17.4027 65.0527L16.0396 64.7143C15.9336 64.688 15.8697 64.5823 15.8972 64.4787Z" fill="#FF6C6C"/>
<path d="M17.3471 65.03C17.2549 64.9731 17.2272 64.8539 17.2854 64.7637L18.5073 62.8678C18.5654 62.7776 18.6873 62.7506 18.7795 62.8075C18.8717 62.8644 18.8993 62.9835 18.8412 63.0738L17.6193 64.9696C17.5611 65.0598 17.4393 65.0868 17.3471 65.03Z" fill="#FF4D4D"/>
<path d="M17.4521 65.2327C17.6598 65.2327 17.8281 65.068 17.8281 64.8649C17.8281 64.6617 17.6598 64.4971 17.4521 64.4971C17.2445 64.4971 17.0762 64.6617 17.0762 64.8649C17.0762 65.068 17.2445 65.2327 17.4521 65.2327Z" fill="#953223"/>
<path d="M18.1297 60.2246H16.7748C16.6247 60.2246 16.5031 60.1055 16.5031 59.9587V59.5591C16.5031 59.4122 16.6247 59.2932 16.7748 59.2932H18.1297C18.2799 59.2932 18.4015 59.4122 18.4015 59.5591V59.9587C18.4015 60.1055 18.2799 60.2246 18.1297 60.2246Z" fill="#FF6C6C"/>
<defs>
<linearGradient id="paint0_linear_842:1008" x1="76.8313" y1="13.1687" x2="-0.703125" y2="90.7031" gradientUnits="userSpaceOnUse">
<stop stop-color="#FFD9D9" stop-opacity="0"/>
<stop offset="0.9981" stop-color="#FF5050"/>
</linearGradient>
</defs>
</svg>
