<svg width="24" height="24" viewBox="0 0 24 24" fill="none" xmlns="http://www.w3.org/2000/svg">
<g clip-path="url(#clip0_154_469)">
<path d="M19.7194 2.1609C11.381 3.60413 11.2786 -0.943266 5.2627 0.180574C-1.509 1.44564 -1.04831 13.7405 2.72119 18.7969C9.32892 27.6604 22.7786 25.2745 21.136 11.0642C20.916 9.16021 22.1637 8.13477 23.3409 6.9987C24.8194 5.57181 23.8934 1.43846 19.7194 2.1609Z" fill="url(#paint0_linear_154_469)"/>
<path d="M15.871 6.19355H14.7097V10.0645H15.4839V8.51613H15.871C16.5112 8.51613 17.0323 7.9951 17.0323 7.35484C17.0323 6.71458 16.5112 6.19355 15.871 6.19355ZM15.871 7.74194H15.4839V6.96774H15.871C16.0843 6.96774 16.2581 7.14116 16.2581 7.35484C16.2581 7.56852 16.0843 7.74194 15.871 7.74194ZM13.1613 6.19355H13.9355V6.58065C13.9355 7.21587 13.6235 7.776 13.1493 8.12903C13.6235 8.48206 13.9355 9.04219 13.9355 9.67742V10.0645H13.1613V9.67742C13.1613 9.17342 12.8365 8.74761 12.3871 8.58735V10.0645H11.6129V6.19355H12.3871V7.67071C12.8365 7.51045 13.1613 7.08465 13.1613 6.58065V6.19355ZM17.8065 6.19355H20.129V6.96774H19.3548V9.29032H20.129V10.0645H17.8065V9.29032H18.5806V6.96774H17.8065V6.19355ZM15.871 2.32258C12.6693 2.32258 10.0645 4.92735 10.0645 8.12903C10.0645 11.3307 12.6693 13.9355 15.871 13.9355C19.0726 13.9355 21.6774 11.3307 21.6774 8.12903C21.6774 4.92735 19.0726 2.32258 15.871 2.32258ZM15.871 13.1613C13.0963 13.1613 10.8387 10.9037 10.8387 8.12903C10.8387 5.35432 13.0963 3.09677 15.871 3.09677C18.6457 3.09677 20.9032 5.35432 20.9032 8.12903C20.9032 10.9037 18.6457 13.1613 15.871 13.1613ZM23.0501 6.56323L23.7933 6.01277L22.9695 4.0231L22.0548 4.15974C22.0065 4.08426 21.9561 4.00916 21.9046 3.93523L22.3804 3.14206L20.8583 1.61923L20.0648 2.09535C19.9908 2.04387 19.9161 1.99355 19.8403 1.94477L19.9765 1.03045L17.9872 0.206323L17.4368 0.949548C17.3489 0.930581 17.2603 0.912774 17.172 0.896903L16.9475 0H14.7945L14.5699 0.89729C14.4813 0.913161 14.393 0.930968 14.3052 0.949935L13.7547 0.20671L11.7654 1.03084L11.8428 1.54839H0V24H20.9032V14.5935L22.38 13.116L21.9043 12.3228C21.9557 12.2489 22.0061 12.1738 22.0545 12.0983L22.9692 12.2342L23.7929 10.2453L23.0497 9.69484C23.0686 9.60697 23.0861 9.51871 23.1019 9.42968L24 9.20516V7.0529L23.1023 6.82839C23.0865 6.73935 23.069 6.6511 23.0501 6.56323ZM10.181 2.32258L9.36193 3.14206L9.83768 3.93523C9.78619 4.00916 9.73587 4.08426 9.68748 4.15974L8.77277 4.0231L8.51497 4.64516H0.774194V2.32258H10.181ZM0.774194 5.41935H8.19445L7.94865 6.01277L8.69187 6.56323C8.6729 6.6511 8.65548 6.73935 8.63961 6.82839L7.74194 7.0529V9.20555L8.63961 9.43006C8.65548 9.51871 8.6729 9.60736 8.69187 9.69523L7.94865 10.2457L8.77239 12.2346L9.6871 12.0987C9.73548 12.1742 9.78581 12.2493 9.83729 12.3232L9.36155 13.1164L9.45716 13.212C5.52581 13.5867 2.21535 16.1644 0.774194 19.6835V5.41935ZM13.2511 15.8427L12.9043 16.6804C12.6058 16.5755 12.2969 16.4911 11.9803 16.4241C11.7147 15.672 11.4495 14.9799 11.2308 14.4302L11.6775 14.1623C11.7515 14.2138 11.8262 14.2641 11.9021 14.3129L11.7658 15.2272L13.2511 15.8427ZM16.7361 16.2581C16.8302 16.3386 16.9227 16.4206 17.0133 16.5039L15.3708 18.1467C14.8506 17.6783 14.2657 17.2781 13.6215 16.9719L14.3102 15.3093C14.3965 15.3279 14.4832 15.3453 14.5703 15.3608L14.7945 16.2581H16.7361ZM17.3845 21.1603L19.5356 20.2692C19.8797 21.2063 20.0779 22.2015 20.1182 23.2258H17.7894C17.7519 22.5074 17.6148 21.8133 17.3845 21.1603ZM17.0907 20.4437C16.7861 19.8043 16.3877 19.2178 15.9174 18.6948L17.5618 17.0501C18.2543 17.7979 18.8179 18.6422 19.2387 19.5538L17.0907 20.4437ZM10.4516 23.2258C9.38439 23.2258 8.51613 22.3575 8.51613 21.2903C8.51613 19.6134 9.81406 16.1617 10.4516 14.5672C11.0868 16.1559 12.3871 19.6119 12.3871 21.2903C12.3871 22.3575 11.5188 23.2258 10.4516 23.2258ZM1.37419 20.2719L3.51871 21.1603C3.28839 21.8133 3.15135 22.5074 3.11381 23.2258H0.783871C0.82529 22.1926 1.02968 21.1994 1.37419 20.2719ZM3.81252 20.4437L1.67342 19.5577C2.10155 18.6383 2.66981 17.7968 3.35071 17.0594L4.98581 18.6945C4.51548 19.2178 4.11716 19.8043 3.81252 20.4437ZM5.53277 18.1467L3.89729 16.5108C4.63432 15.8295 5.47742 15.2628 6.39677 14.8347L7.28206 16.9715C6.63794 17.2781 6.05264 17.6783 5.53277 18.1467ZM7.99897 16.6804L7.11019 14.5351C7.97729 14.2134 8.90168 14.0121 9.86361 13.9537C9.63097 14.5231 9.276 15.4208 8.92219 16.4241C8.60632 16.4911 8.29742 16.5755 7.99897 16.6804ZM3.888 23.2258C4.05097 20.4283 5.95781 18.0561 8.62645 17.2912C8.14916 18.7455 7.74194 20.28 7.74194 21.2903C7.74194 22.0483 8.05548 22.7334 8.5591 23.2258H3.888ZM13.1613 21.2903C13.1613 20.2804 12.7552 18.749 12.2756 17.2912C14.945 18.0557 16.8523 20.4283 17.0152 23.2258H12.3441C12.8477 22.7334 13.1613 22.0483 13.1613 21.2903ZM17.1197 15.5694L17.172 15.3608C17.2606 15.3449 17.3489 15.3271 17.4368 15.3081L17.9872 16.0514L19.9765 15.2272L19.8403 14.3129C19.9157 14.2641 19.9908 14.2138 20.0648 14.1623L20.1294 14.201V19.6548C19.4888 18.0863 18.4645 16.6846 17.1197 15.5694ZM23.2258 8.60129L22.4145 8.80413L22.3777 9.06194C22.3444 9.29652 22.2979 9.53071 22.2399 9.75832L22.1752 10.0099L22.8465 10.5074L22.4853 11.3795L21.6592 11.2568L21.5265 11.4801C21.4068 11.6818 21.2741 11.88 21.1312 12.0701L20.9748 12.2783L21.4053 12.9956L20.7379 13.6634L20.0203 13.2329L19.812 13.3893C19.6219 13.5317 19.4237 13.6653 19.2221 13.7849L18.9987 13.9177L19.1214 14.7434L18.2493 15.1049L17.7519 14.4337L17.4999 14.4979C17.2703 14.5564 17.0357 14.6028 16.8039 14.6357L16.5457 14.6725L16.3428 15.4839H15.3991L15.1963 14.6721L14.9381 14.6354C14.7058 14.6025 14.4716 14.556 14.2421 14.4975L13.9901 14.4333L13.4926 15.1045L12.6205 14.743L12.7432 13.9173L12.5199 13.7845C12.3182 13.6645 12.1196 13.5314 11.9299 13.3889L11.7217 13.2325L11.004 13.663L10.3366 12.9952L10.7671 12.2779L10.6107 12.0697C10.4679 11.8796 10.3347 11.681 10.2155 11.4797L10.0827 11.2564L9.25665 11.3791L8.89548 10.507L9.56671 10.0095L9.50206 9.75794C9.444 9.53032 9.39755 9.29652 9.36426 9.06155L9.32748 8.80374L8.51613 8.60129V7.65677L9.32748 7.45394L9.36426 7.19613C9.39755 6.96155 9.444 6.72736 9.50206 6.49974L9.56671 6.24813L8.89548 5.75071L9.25665 4.87858L10.0827 5.00129L10.2155 4.77794C10.3351 4.57626 10.4679 4.37806 10.6107 4.188L10.7671 3.97974L10.3366 3.26245L11.004 2.59471L11.7217 3.02516L11.9299 2.86877C12.12 2.72632 12.3182 2.59277 12.5199 2.47316L12.7432 2.34039L12.6205 1.51471L13.4926 1.15316L13.9901 1.82439L14.2421 1.76013C14.4716 1.70168 14.7062 1.65523 14.9381 1.62232L15.1963 1.58555L15.3991 0.774194H16.3428L16.5457 1.58594L16.8039 1.62271C17.0361 1.65561 17.2703 1.70206 17.4999 1.76052L17.7519 1.82477L18.2493 1.15355L19.1214 1.5151L18.9987 2.34039L19.2221 2.47316C19.4237 2.59316 19.6223 2.72632 19.812 2.86877L20.0203 3.02516L20.7379 2.59471L21.4053 3.26245L20.9748 3.97974L21.1312 4.188C21.2741 4.37806 21.4072 4.57665 21.5265 4.77794L21.6592 5.00129L22.4853 4.87858L22.8465 5.75071L22.1752 6.24813L22.2399 6.49974C22.2979 6.72736 22.3444 6.96116 22.3777 7.19613L22.4145 7.45394L23.2258 7.65677V8.60129ZM10.4516 20.129C9.81135 20.129 9.29032 20.6501 9.29032 21.2903C9.29032 21.9306 9.81135 22.4516 10.4516 22.4516C11.0919 22.4516 11.6129 21.9306 11.6129 21.2903C11.6129 20.6501 11.0919 20.129 10.4516 20.129ZM10.4516 21.6774C10.2383 21.6774 10.0645 21.504 10.0645 21.2903C10.0645 21.0766 10.2383 20.9032 10.4516 20.9032C10.6649 20.9032 10.8387 21.0766 10.8387 21.2903C10.8387 21.504 10.6649 21.6774 10.4516 21.6774ZM2.32258 3.87097H1.54839V3.09677H2.32258V3.87097ZM3.87097 3.87097H3.09677V3.09677H3.87097V3.87097ZM5.41935 3.87097H4.64516V3.09677H5.41935V3.87097ZM6.96774 9.29032H1.54839V6.19355H6.96774V6.96774H2.32258V8.51613H6.96774V9.29032ZM1.54839 10.0645H2.32258V10.8387H1.54839V10.0645ZM3.09677 10.0645H6.96774V10.8387H3.09677V10.0645ZM1.54839 11.6129H2.32258V12.3871H1.54839V11.6129ZM3.09677 11.6129H6.96774V12.3871H3.09677V11.6129ZM1.54839 13.1613H2.32258V13.9355H1.54839V13.1613ZM3.09677 13.1613H5.41935V13.9355H3.09677V13.1613Z" fill="#953223"/>
</g>
<defs>
<linearGradient id="paint0_linear_154_469" x1="3.90825" y1="20.2245" x2="21.4119" y2="1.43289" gradientUnits="userSpaceOnUse">
<stop stop-color="white" stop-opacity="0"/>
<stop offset="0.2532" stop-color="#EEEEFF" stop-opacity="0.403"/>
<stop offset="0.629" stop-color="#FF9494"/>
</linearGradient>
<clipPath id="clip0_154_469">
<rect width="24" height="24" fill="white"/>
</clipPath>
</defs>
</svg>
