<svg width="24" height="24" viewBox="0 0 24 24" fill="none" xmlns="http://www.w3.org/2000/svg">
<path d="M21.7526 6.44902C20.251 4.71057 17.9077 4.47075 16.1739 5.72951C15.6806 6.08762 15.0833 6.2077 14.5103 6.0645C13.154 5.72555 11.7352 5.95705 10.5268 6.69522C9.71436 7.19144 8.72483 7.10517 7.96674 6.51C7.46349 6.11494 6.87911 5.83184 6.23694 5.69866C3.85484 5.20456 1.53887 6.98277 1.08095 9.65969C0.612633 12.3973 2.22512 15.0282 4.65578 15.5156C5.24965 15.6346 5.8369 15.6146 6.3912 15.4761C7.29079 15.2514 8.23069 15.6271 8.81124 16.4325C9.17768 16.9408 9.61957 17.3946 10.1328 17.7715C12.7853 19.7195 16.3387 18.8785 18.0695 15.8932C18.0713 15.8901 18.0731 15.8869 18.075 15.8837C18.3919 15.3349 18.885 14.9436 19.4551 14.8141C20.2867 14.6251 21.0794 14.1658 21.722 13.436C23.4138 11.5146 23.4279 8.38864 21.7526 6.44902Z" fill="url(#paint0_linear_142_382)"/>
<path opacity="0.1" d="M14.8571 1.00006C14.778 0.997642 14.7122 1.06805 14.7122 1.15713V2.50696C14.7121 2.50696 14.7121 2.50696 14.7121 2.50696C13.6407 2.50696 12.6709 2.99612 11.9692 3.78686H4.71701C4.3611 3.78686 4.07227 4.11145 4.07227 4.51202V21.162C4.07227 21.5625 4.3611 21.8877 4.71701 21.8877H14.171C14.527 21.8877 14.8158 21.5626 14.8158 21.162V11.2314C16.9088 11.1696 18.5887 9.24058 18.5887 6.86996C18.5887 6.86996 18.5887 6.86996 18.5887 6.86992H19.7881C19.8672 6.86992 19.9298 6.79588 19.9277 6.70685C19.8522 3.59352 17.6234 1.08498 14.8571 1.00006Z" fill="#953223"/>
<path d="M14.8158 5.38287V22.0329C14.8158 22.4334 14.5269 22.7585 14.171 22.7585H4.71701C4.3611 22.7585 4.07227 22.4334 4.07227 22.0329V5.38287C4.07227 4.98231 4.3611 4.65771 4.71701 4.65771H14.171C14.5269 4.65771 14.8158 4.98231 14.8158 5.38287Z" fill="url(#paint1_linear_142_382)"/>
<path d="M14.8158 15.4116V19.7896C13.7722 19.75 12.9366 18.7853 12.9366 17.6006C12.9366 16.4159 13.7722 15.4513 14.8158 15.4116Z" fill="#D2DEFF"/>
<path d="M14.8157 6.98707V5.38273C14.8157 4.98206 14.5271 4.65723 14.1711 4.65723H4.71688C4.36089 4.65723 4.07227 4.98206 4.07227 5.38273V6.98707H14.8157Z" fill="#FF6363"/>
<path d="M14.712 12.104C16.853 12.104 18.5887 10.1506 18.5887 7.74098C18.5887 5.33133 16.853 3.37793 14.712 3.37793C12.571 3.37793 10.8354 5.33133 10.8354 7.74098C10.8354 10.1506 12.571 12.104 14.712 12.104Z" fill="#FF6C6C"/>
<path d="M19.7881 7.74106H14.8517C14.7746 7.74106 14.7122 7.67074 14.7122 7.58399V2.02823C14.7122 1.93915 14.7779 1.86869 14.857 1.87116C17.6233 1.95608 19.8522 4.46461 19.9277 7.57799C19.9298 7.66702 19.8672 7.74106 19.7881 7.74106Z" fill="#FF4D4D"/>
<path d="M16.3962 6.76504H16.1671C15.8874 6.76504 15.6599 6.50892 15.6599 6.19414V5.39804C15.6599 5.08326 15.8874 4.82715 16.1671 4.82715H16.3962C16.6759 4.82715 16.9035 5.08326 16.9035 5.39804V6.19414C16.9035 6.50897 16.6759 6.76504 16.3962 6.76504ZM16.1671 5.3108C16.1243 5.3108 16.0895 5.34997 16.0895 5.39809V6.19419C16.0895 6.24231 16.1243 6.28148 16.1671 6.28148H16.3962C16.439 6.28148 16.4738 6.24231 16.4738 6.19419V5.39809C16.4738 5.34997 16.439 5.3108 16.3962 5.3108H16.1671Z" fill="#FEB6B6"/>
<path d="M17.6349 6.76499C17.5162 6.76499 17.42 6.65676 17.42 6.52319V5.31075H17.4009C17.2822 5.31075 17.186 5.20252 17.186 5.06895C17.186 4.93538 17.2822 4.82715 17.4009 4.82715H17.6349C17.7536 4.82715 17.8497 4.93538 17.8497 5.06895V6.52319C17.8497 6.65676 17.7535 6.76499 17.6349 6.76499Z" fill="#FEB6B6"/>
<path d="M13.9878 10.6303H13.7586C13.479 10.6303 13.2514 10.3742 13.2514 10.0594V9.26327C13.2514 8.9485 13.479 8.69238 13.7586 8.69238H13.9878C14.2675 8.69238 14.495 8.9485 14.495 9.26327V10.0594C14.495 10.3742 14.2675 10.6303 13.9878 10.6303ZM13.7586 9.17603C13.7159 9.17603 13.6811 9.2152 13.6811 9.26332V10.0595C13.6811 10.1076 13.7159 10.1468 13.7586 10.1468H13.9878C14.0306 10.1468 14.0654 10.1076 14.0654 10.0595V9.26332C14.0654 9.2152 14.0306 9.17603 13.9878 9.17603H13.7586Z" fill="#953223"/>
<path d="M15.7708 10.609H14.9924C14.9013 10.609 14.82 10.5442 14.7898 10.4474C14.7595 10.3507 14.7869 10.2429 14.8579 10.1786C15.0747 9.98268 15.4101 9.62457 15.4772 9.44187C15.503 9.37165 15.4989 9.29422 15.4665 9.23977C15.4414 9.19746 15.404 9.17598 15.3553 9.17598C15.2737 9.17598 15.2073 9.25075 15.2073 9.34258C15.2073 9.47615 15.1111 9.58438 14.9924 9.58438C14.8738 9.58438 14.7776 9.47615 14.7776 9.34258C14.7776 8.98404 15.0367 8.69238 15.3553 8.69238C15.5478 8.69238 15.7186 8.79394 15.8237 8.97098C15.9365 9.16075 15.9554 9.40584 15.8743 9.62665C15.8161 9.78508 15.6852 9.96522 15.5478 10.1254H15.7707C15.8894 10.1254 15.9856 10.2336 15.9856 10.3672C15.9856 10.5008 15.8894 10.609 15.7708 10.609Z" fill="#953223"/>
<path d="M16.8316 17.3031C16.9541 16.1006 16.1873 15.014 15.1189 14.8761C14.0505 14.7382 13.085 15.6012 12.9625 16.8037C12.8399 18.0062 13.6067 19.0928 14.6751 19.2307C15.7436 19.3686 16.709 18.5056 16.8316 17.3031Z" fill="#FF4D4D"/>
<path d="M5.70874 5.57715C5.59006 5.57715 5.4939 5.68538 5.4939 5.81895V5.82601C5.4939 5.95958 5.59006 6.06781 5.70874 6.06781C5.82742 6.06781 5.92358 5.95958 5.92358 5.82601V5.81895C5.92358 5.68538 5.82742 5.57715 5.70874 5.57715Z" fill="#953223"/>
<path d="M6.53918 5.57715C6.4205 5.57715 6.32434 5.68538 6.32434 5.81895V5.82601C6.32434 5.95958 6.4205 6.06781 6.53918 6.06781C6.65786 6.06781 6.75403 5.95958 6.75403 5.82601V5.81895C6.75403 5.68538 6.65786 5.57715 6.53918 5.57715Z" fill="#953223"/>
<path d="M7.36969 5.57715C7.25101 5.57715 7.15485 5.68538 7.15485 5.81895V5.82601C7.15485 5.95958 7.25101 6.06781 7.36969 6.06781C7.48837 6.06781 7.58453 5.95958 7.58453 5.82601V5.81895C7.58453 5.68538 7.48837 5.57715 7.36969 5.57715Z" fill="#953223"/>
<path d="M14.8629 1.62912C14.7664 1.62554 14.6728 1.66752 14.6044 1.74257C14.5354 1.81816 14.4973 1.91952 14.4973 2.0279V3.14352C13.5127 3.20077 12.5921 3.64941 11.8808 4.418C11.874 4.41727 11.8674 4.41568 11.8604 4.41568H4.71688C4.24298 4.41568 3.85742 4.84961 3.85742 5.38298V6.98732C3.85742 7.12089 3.95359 7.22912 4.07227 7.22912H10.6465C10.6299 7.398 10.6206 7.56866 10.6206 7.74082C10.6206 10.238 12.3961 12.2773 14.6009 12.3438V14.6415C13.5422 14.7976 12.722 15.8188 12.722 17.0523C12.722 18.2857 13.5422 19.3069 14.6009 19.4631V22.0327C14.6009 22.2994 14.4081 22.5164 14.1711 22.5164H4.71688C4.47991 22.5164 4.28711 22.2994 4.28711 22.0327V8.31931C4.28711 8.18574 4.19095 8.07751 4.07227 8.07751C3.95359 8.07751 3.85742 8.18574 3.85742 8.31931V22.0327C3.85742 22.5661 4.24298 23 4.71688 23H14.1711C14.645 23 15.0305 22.5661 15.0305 22.0327V19.4782C16.1535 19.3925 17.0441 18.3375 17.0441 17.0522C17.0441 15.7669 16.1535 14.712 15.0305 14.6263V12.3316C17.0676 12.1543 18.6913 10.2906 18.7979 7.98248H19.7881C19.8844 7.98248 19.9745 7.93968 20.0416 7.86201C20.1083 7.78493 20.145 7.67892 20.1425 7.57098C20.0639 4.32761 17.7448 1.71757 14.8629 1.62912ZM4.28711 6.74547V5.38293C4.28711 5.11622 4.47991 4.89923 4.71688 4.89923H11.4928C11.1116 5.44454 10.8485 6.07375 10.7173 6.74547H4.28711ZM16.6144 17.0523C16.6144 18.1267 15.8377 19.0009 14.883 19.0009C13.9284 19.0009 13.1516 18.1267 13.1516 17.0523C13.1516 15.9778 13.9284 15.1037 14.883 15.1037C15.8377 15.1037 16.6144 15.9778 16.6144 17.0523ZM18.5887 7.49892C18.47 7.49892 18.3739 7.60715 18.3739 7.74073C18.3739 10.0132 16.7312 11.8619 14.7121 11.8619C12.6929 11.8619 11.0503 10.0132 11.0503 7.74073C11.0503 6.6607 11.4188 5.63982 12.0881 4.86615C12.7306 4.12329 13.5828 3.68703 14.4973 3.6276V7.5836C14.4973 7.80354 14.6562 7.98248 14.8517 7.98248H17.4049C17.5236 7.98248 17.6198 7.87425 17.6198 7.74068C17.6198 7.60711 17.5236 7.49888 17.4049 7.49888H14.927V2.11552C17.5205 2.23865 19.6009 4.58015 19.7103 7.49892H18.5887Z" fill="#953223"/>
<path d="M15.5965 16.6545C15.5965 16.2118 15.2764 15.8516 14.883 15.8516C14.4896 15.8516 14.1696 16.2117 14.1696 16.6545C14.1696 16.8728 14.2476 17.0708 14.3736 17.2157C14.2476 17.3606 14.1696 17.5585 14.1696 17.7768C14.1696 17.9104 14.2657 18.0186 14.3844 18.0186C14.5031 18.0186 14.5992 17.9104 14.5992 17.7768C14.5992 17.6007 14.7265 17.4575 14.883 17.4575C15.0395 17.4575 15.1668 17.6007 15.1668 17.7768C15.1668 17.9104 15.2629 18.0186 15.3816 18.0186C15.5003 18.0186 15.5965 17.9104 15.5965 17.7768C15.5965 17.5586 15.5184 17.3606 15.3924 17.2157C15.5184 17.0708 15.5965 16.8728 15.5965 16.6545ZM14.8831 16.3352C15.0395 16.3352 15.1668 16.4785 15.1668 16.6546C15.1668 16.8307 15.0395 16.974 14.8831 16.974C14.7266 16.974 14.5993 16.8307 14.5993 16.6546C14.5993 16.4785 14.7266 16.3352 14.8831 16.3352Z" fill="white"/>
<path d="M18.7615 13.088C18.7066 13.088 18.6515 13.0644 18.6096 13.0171L18.1376 12.4859C18.0537 12.3915 18.0537 12.2384 18.1376 12.144L18.6096 11.6128C18.6934 11.5184 18.8296 11.5184 18.9134 11.6128L19.3854 12.144C19.4693 12.2384 19.4693 12.3915 19.3854 12.4859L18.9134 13.0171C18.8715 13.0644 18.8165 13.088 18.7615 13.088ZM18.5934 12.315L18.7615 12.5042L18.9296 12.315L18.7615 12.1257L18.5934 12.315Z" fill="#FF6C6C"/>
<path d="M11.528 3.3136C11.473 3.3136 11.418 3.29 11.3761 3.24276L10.9041 2.71157C10.8202 2.61717 10.8202 2.46406 10.9041 2.36966L11.3761 1.83843C11.4164 1.79306 11.471 1.76758 11.528 1.76758C11.585 1.76758 11.6396 1.79302 11.6799 1.83843L12.1519 2.36966C12.2358 2.46406 12.2358 2.61717 12.1519 2.71157L11.6799 3.24276C11.638 3.29 11.583 3.3136 11.528 3.3136ZM11.3599 2.54061L11.528 2.72985L11.6961 2.54061L11.528 2.35133L11.3599 2.54061Z" fill="#FF6C6C"/>
<path d="M17.5298 15.0352C17.4111 15.0352 17.3149 14.927 17.3149 14.7934C17.3149 14.633 17.1989 14.5024 17.0563 14.5024C16.9376 14.5024 16.8414 14.3941 16.8414 14.2606C16.8414 14.127 16.9376 14.0188 17.0563 14.0188C17.1989 14.0188 17.3149 13.8882 17.3149 13.7276C17.3149 13.5941 17.4111 13.4858 17.5298 13.4858C17.6485 13.4858 17.7446 13.5941 17.7446 13.7276C17.7446 13.8881 17.8606 14.0188 18.0033 14.0188C18.122 14.0188 18.2182 14.127 18.2182 14.2606C18.2182 14.3941 18.122 14.5024 18.0033 14.5024C17.8607 14.5024 17.7446 14.6329 17.7446 14.7934C17.7446 14.927 17.6485 15.0352 17.5298 15.0352Z" fill="#953223"/>
<path d="M16.6505 21.4273C16.5318 21.4273 16.4356 21.3191 16.4356 21.1855C16.4356 21.025 16.3196 20.8944 16.1769 20.8944C16.0583 20.8944 15.9621 20.7862 15.9621 20.6526C15.9621 20.519 16.0583 20.4108 16.1769 20.4108C16.3196 20.4108 16.4356 20.2802 16.4356 20.1197C16.4356 19.9862 16.5318 19.8779 16.6505 19.8779C16.7691 19.8779 16.8653 19.9862 16.8653 20.1197C16.8653 20.2802 16.9813 20.4108 17.124 20.4108C17.2427 20.4108 17.3388 20.519 17.3388 20.6526C17.3388 20.7862 17.2427 20.8944 17.124 20.8944C16.9814 20.8944 16.8653 21.025 16.8653 21.1855C16.8653 21.3191 16.7691 21.4273 16.6505 21.4273Z" fill="#FF4D4D"/>
<path d="M7.33333 11H6.66667C6.29833 11 6 11.3282 6 11.7333V12.4667C6 12.8718 6.29833 13.2 6.66667 13.2H7.33333C7.70167 13.2 8 12.8718 8 12.4667V11.7333C8 11.3282 7.70167 11 7.33333 11ZM7.66667 12.4667C7.66667 12.6691 7.51733 12.8333 7.33333 12.8333H6.66667C6.48267 12.8333 6.33333 12.6691 6.33333 12.4667V11.7333C6.33333 11.5309 6.48267 11.3667 6.66667 11.3667H7.33333C7.51733 11.3667 7.66667 11.5309 7.66667 11.7333V12.4667Z" fill="#FF6C6C"/>
<path d="M6.94778 12.5L6.49592 12.0639C6.43718 12.0072 6.43718 11.915 6.49592 11.8583C6.55466 11.8016 6.65015 11.8016 6.7089 11.8583L7.05442 12.1915L8.15275 11.1314C8.21149 11.0747 8.30698 11.0747 8.36573 11.1314C8.42447 11.1881 8.42447 11.2803 8.36573 11.337L7.16076 12.5C7.10202 12.5567 7.00682 12.5567 6.94778 12.5Z" fill="#953223"/>
<path d="M12.0249 12.0789H9.01244C8.92929 12.0789 8.86182 12.0047 8.86182 11.9132C8.86182 11.8218 8.92929 11.7476 9.01244 11.7476H12.0249C12.108 11.7476 12.1755 11.8218 12.1755 11.9132C12.1755 12.0047 12.108 12.0789 12.0249 12.0789Z" fill="#FF4D4D"/>
<path d="M12.6273 12.741H9.01244C8.92929 12.741 8.86182 12.6668 8.86182 12.5754C8.86182 12.4839 8.92929 12.4097 9.01244 12.4097H12.6273C12.7105 12.4097 12.778 12.4839 12.778 12.5754C12.778 12.6668 12.7105 12.741 12.6273 12.741Z" fill="#FF4D4D"/>
<path d="M7.33333 14H6.66667C6.29833 14 6 14.3282 6 14.7333V15.4667C6 15.8718 6.29833 16.2 6.66667 16.2H7.33333C7.70167 16.2 8 15.8718 8 15.4667V14.7333C8 14.3282 7.70167 14 7.33333 14ZM7.66667 15.4667C7.66667 15.6691 7.51733 15.8333 7.33333 15.8333H6.66667C6.48267 15.8333 6.33333 15.6691 6.33333 15.4667V14.7333C6.33333 14.5309 6.48267 14.3667 6.66667 14.3667H7.33333C7.51733 14.3667 7.66667 14.5309 7.66667 14.7333V15.4667Z" fill="#FF6C6C"/>
<path d="M6.94778 15.4111L6.49592 14.975C6.43718 14.9183 6.43718 14.8261 6.49592 14.7694C6.55466 14.7127 6.65015 14.7127 6.7089 14.7694L7.05442 15.1026L8.15275 14.0425C8.21149 13.9858 8.30698 13.9858 8.36573 14.0425C8.42447 14.0992 8.42447 14.1914 8.36573 14.2481L7.16076 15.4111C7.10202 15.4678 7.00682 15.4678 6.94778 15.4111Z" fill="#953223"/>
<path d="M12.163 15.6312H9.15062C9.06748 15.6312 9 15.5569 9 15.4655C9 15.374 9.06748 15.2998 9.15062 15.2998H12.163C12.2462 15.2998 12.3137 15.374 12.3137 15.4655C12.3137 15.5569 12.2462 15.6312 12.163 15.6312Z" fill="#FF4D4D"/>
<path d="M7.33333 17H6.66667C6.29833 17 6 17.3282 6 17.7333V18.4667C6 18.8718 6.29833 19.2 6.66667 19.2H7.33333C7.70167 19.2 8 18.8718 8 18.4667V17.7333C8 17.3282 7.70167 17 7.33333 17ZM7.66667 18.4667C7.66667 18.6691 7.51733 18.8333 7.33333 18.8333H6.66667C6.48267 18.8333 6.33333 18.6691 6.33333 18.4667V17.7333C6.33333 17.5309 6.48267 17.3667 6.66667 17.3667H7.33333C7.51733 17.3667 7.66667 17.5309 7.66667 17.7333V18.4667Z" fill="#FF6C6C"/>
<path d="M6.95186 18.5L6.5 18.0639C6.44126 18.0072 6.44126 17.915 6.5 17.8583C6.55874 17.8016 6.65424 17.8016 6.71298 17.8583L7.0585 18.1915L8.15683 17.1314C8.21557 17.0747 8.31106 17.0747 8.36981 17.1314C8.42855 17.1881 8.42855 17.2803 8.36981 17.337L7.16484 18.5C7.1061 18.5567 7.01091 18.5567 6.95186 18.5Z" fill="#953223"/>
<path d="M11.2717 18.7059H9.01244C8.92929 18.7059 8.86182 18.6317 8.86182 18.5402C8.86182 18.4487 8.92929 18.3745 9.01244 18.3745H11.2717C11.3549 18.3745 11.4224 18.4487 11.4224 18.5402C11.4224 18.6317 11.3549 18.7059 11.2717 18.7059Z" fill="#FF4D4D"/>
<path d="M10.6693 19.3685H9.01244C8.92929 19.3685 8.86182 19.2942 8.86182 19.2028C8.86182 19.1113 8.92929 19.0371 9.01244 19.0371H10.6693C10.7524 19.0371 10.8199 19.1113 10.8199 19.2028C10.8199 19.2942 10.7524 19.3685 10.6693 19.3685Z" fill="#FF4D4D"/>
<defs>
<linearGradient id="paint0_linear_142_382" x1="0.499999" y1="25.2" x2="25.6934" y2="7.22317" gradientUnits="userSpaceOnUse">
<stop stop-color="white" stop-opacity="0"/>
<stop offset="0.9993" stop-color="#FF7070"/>
</linearGradient>
<linearGradient id="paint1_linear_142_382" x1="4.5" y1="7.05" x2="18.5869" y2="24.4665" gradientUnits="userSpaceOnUse">
<stop stop-color="#E8E8E8"/>
<stop offset="1" stop-color="#FFAEAE" stop-opacity="0"/>
</linearGradient>
</defs>
</svg>
