<svg width="90" height="90" viewBox="0 0 90 90" fill="none" xmlns="http://www.w3.org/2000/svg">
<path d="M90 31.636C90 17.1945 69.8528 5.48733 45 5.48733C20.1472 5.48733 0 17.1945 0 31.636C0 33.9703 0.527168 36.233 1.51523 38.3863C3.27428 42.219 3.71285 46.5841 2.8401 50.7473C2.48221 52.4545 2.28129 54.2245 2.25422 56.0396C2.03713 70.5939 13.1458 82.6114 26.8253 82.6112C37.0985 82.6112 45.8981 75.9028 49.5687 66.3785C51.5846 61.148 55.8204 57.2284 61.0218 56.0766C77.9636 52.3251 90 42.7979 90 31.636Z" fill="url(#paint0_linear_842:1270)"/>
<g opacity="0.1">
<path opacity="0.1" d="M12.612 68.0018H13.5491C14.6931 68.0018 15.6239 67.0114 15.6239 65.7942V62.716C15.6239 61.4987 14.6931 60.5084 13.5491 60.5084H12.612C11.4681 60.5084 10.5373 61.4987 10.5373 62.716V65.7942C10.5373 67.0114 11.4681 68.0018 12.612 68.0018ZM12.2951 62.716C12.2951 62.5302 12.4373 62.3789 12.612 62.3789H13.5491C13.7239 62.3789 13.8661 62.5302 13.8661 62.716V65.7942C13.8661 65.9801 13.7239 66.1314 13.5491 66.1314H12.612C12.4373 66.1314 12.2951 65.9801 12.2951 65.7942V62.716Z" fill="#0000CC"/>
<path opacity="0.1" d="M18.6145 60.5084H17.6576C17.1721 60.5084 16.7787 60.9271 16.7787 61.4437C16.7787 61.9603 17.1721 62.3789 17.6576 62.3789H17.7356V67.0666C17.7356 67.5832 18.129 68.0018 18.6145 68.0018C19.1 68.0018 19.4934 67.5832 19.4934 67.0666V61.4437C19.4934 60.9271 19.1 60.5084 18.6145 60.5084Z" fill="#0000CC"/>
<path opacity="0.1" d="M18.6145 70.3292H7.99805C7.51254 70.3292 7.11914 70.7478 7.11914 71.2644C7.11914 71.7811 7.51254 72.1997 7.99805 72.1997H18.6145C19.1 72.1997 19.4934 71.7811 19.4934 71.2644C19.4934 70.7478 19.1 70.3292 18.6145 70.3292Z" fill="#0000CC"/>
<path opacity="0.1" d="M18.6145 73.6981H7.99805C7.51254 73.6981 7.11914 74.1167 7.11914 74.6333C7.11914 75.1499 7.51254 75.5686 7.99805 75.5686H18.6145C19.1 75.5686 19.4934 75.1499 19.4934 74.6333C19.4934 74.1167 19.1 73.6981 18.6145 73.6981Z" fill="#0000CC"/>
<path opacity="0.1" d="M71.3067 18.8163H83.5053C83.9908 18.8163 84.3842 18.3977 84.3842 17.8811C84.3842 17.3645 83.9908 16.9458 83.5053 16.9458H71.3067C70.8212 16.9458 70.4278 17.3645 70.4278 17.8811C70.4278 18.3977 70.8214 18.8163 71.3067 18.8163Z" fill="#0000CC"/>
<path opacity="0.1" d="M83.5055 20.3143H71.307C70.8215 20.3143 70.4281 20.7329 70.4281 21.2495C70.4281 21.7661 70.8215 22.1847 71.307 22.1847H83.5055C83.991 22.1847 84.3844 21.7661 84.3844 21.2495C84.3844 20.7329 83.9908 20.3143 83.5055 20.3143Z" fill="#0000CC"/>
<path opacity="0.1" d="M72.5026 14.6181H73.4399C74.5838 14.6181 75.5144 13.6277 75.5144 12.4104V9.33244C75.5144 8.11515 74.5838 7.12475 73.4399 7.12475H72.5026C71.3586 7.12475 70.4278 8.11515 70.4278 9.33244V12.4106C70.4278 13.6277 71.3586 14.6181 72.5026 14.6181ZM72.1857 9.33244C72.1857 9.14652 72.3279 8.9952 72.5026 8.9952H73.4399C73.6144 8.9952 73.7566 9.14652 73.7566 9.33244V12.4106C73.7566 12.5966 73.6144 12.7479 73.4399 12.7479H72.5026C72.3279 12.7479 72.1857 12.5966 72.1857 12.4106V9.33244Z" fill="#0000CC"/>
<path opacity="0.1" d="M77.5482 10.5742C78.0337 10.5742 78.4271 10.1556 78.4271 9.63901C78.4271 9.28399 78.6985 8.9952 79.0321 8.9952C79.2309 8.9952 79.3838 9.07806 79.4867 9.24172C79.6189 9.45215 79.6356 9.75142 79.5301 10.0228C79.2557 10.7291 77.8842 12.1138 76.998 12.8713C76.7072 13.1199 76.5954 13.5368 76.7192 13.9111C76.8429 14.2854 77.1751 14.536 77.5482 14.536H80.7312C81.2167 14.536 81.6101 14.1174 81.6101 13.6008C81.6101 13.0842 81.2167 12.6656 80.7312 12.6656H79.8198C80.3814 12.0463 80.9166 11.3501 81.1547 10.7375C81.4864 9.88385 81.409 8.9359 80.9478 8.20213C80.5176 7.51754 79.8193 7.12475 79.0321 7.12475C77.7292 7.12475 76.6693 8.25263 76.6693 9.63901C76.6693 10.1556 77.0626 10.5742 77.5482 10.5742Z" fill="#0000CC"/>
<path opacity="0.1" d="M83.5055 84.761H71.307C70.8215 84.761 70.4281 85.1796 70.4281 85.6962C70.4281 86.2129 70.8215 86.6315 71.307 86.6315H83.5055C83.991 86.6315 84.3844 86.2129 84.3844 85.6962C84.3844 85.1796 83.9908 84.761 83.5055 84.761Z" fill="#0000CC"/>
<path opacity="0.1" d="M83.5055 88.1297H71.307C70.8215 88.1297 70.4281 88.5483 70.4281 89.0649C70.4281 89.5815 70.8215 90.0001 71.307 90.0001H83.5055C83.991 90.0001 84.3844 89.5815 84.3844 89.0649C84.3844 88.5483 83.9908 88.1297 83.5055 88.1297Z" fill="#0000CC"/>
<path opacity="0.1" d="M72.5026 82.3923H73.4399C74.5838 82.3923 75.5144 81.4019 75.5144 80.1846V77.1066C75.5144 75.8893 74.5838 74.8989 73.4399 74.8989H72.5026C71.3586 74.8989 70.4278 75.8893 70.4278 77.1066V80.1846C70.4278 81.4019 71.3586 82.3923 72.5026 82.3923ZM72.1857 77.1066C72.1857 76.9207 72.3279 76.7694 72.5026 76.7694H73.4399C73.6144 76.7694 73.7566 76.9207 73.7566 77.1066V80.1846C73.7566 80.3706 73.6144 80.5219 73.4399 80.5219H72.5026C72.3279 80.5219 72.1857 80.3706 72.1857 80.1846V77.1066Z" fill="#0000CC"/>
<path opacity="0.1" d="M79.1905 80.5219H77.539C77.0535 80.5219 76.6601 80.9405 76.6601 81.4571C76.6601 81.9737 77.0535 82.3923 77.539 82.3923H79.1905C80.4034 82.3923 81.3904 81.3422 81.3904 80.0513C81.3904 79.5234 81.2234 79.0375 80.9455 78.6454C81.2234 78.2534 81.3904 77.7676 81.3904 77.2398C81.3904 75.949 80.4035 74.8987 79.1905 74.8987H77.539C77.0535 74.8987 76.6601 75.3173 76.6601 75.8339C76.6601 76.3506 77.0535 76.7692 77.539 76.7692H79.1905C79.4343 76.7692 79.6326 76.9803 79.6326 77.2398C79.6326 77.4992 79.4343 77.7102 79.1905 77.7102H77.539C77.0535 77.7102 76.6601 78.1288 76.6601 78.6454C76.6601 79.162 77.0535 79.5806 77.539 79.5806H79.1905C79.4343 79.5806 79.6326 79.7918 79.6326 80.0513C79.6326 80.3107 79.4343 80.5219 79.1905 80.5219Z" fill="#0000CC"/>
</g>
<path opacity="0.1" d="M63.1784 41.9777C68.6577 41.9777 73.0995 37.2512 73.0995 31.4209C73.0995 25.5905 68.6577 20.8641 63.1784 20.8641C57.6992 20.8641 53.2574 25.5905 53.2574 31.4209C53.2574 37.2512 57.6992 41.9777 63.1784 41.9777Z" fill="#C6C6EE"/>
<path opacity="0.1" d="M63.1784 74.8843C68.6577 74.8843 73.0995 70.1578 73.0995 64.3275C73.0995 58.4971 68.6577 53.7706 63.1784 53.7706C57.6992 53.7706 53.2574 58.4971 53.2574 64.3275C53.2574 70.1578 57.6992 74.8843 63.1784 74.8843Z" fill="#0000CC"/>
<path opacity="0.1" d="M26.8215 59.0953C32.3008 59.0953 36.7426 54.3689 36.7426 48.5385C36.7426 42.7081 32.3008 37.9817 26.8215 37.9817C21.3422 37.9817 16.9004 42.7081 16.9004 48.5385C16.9004 54.3689 21.3422 59.0953 26.8215 59.0953Z" fill="#E8E8E8"/>
<path opacity="0.1" d="M23.2207 83.2667C23.2207 85.4177 24.8608 87.1628 26.884 87.1628H63.116C65.1393 87.1628 66.7793 85.4177 66.7793 83.2667V9.88147C66.7793 7.73045 65.1393 5.98532 63.116 5.98532H26.884C24.8608 5.98532 23.2207 7.73045 23.2207 9.88147V83.2667Z" fill="#953223"/>
<path d="M66.7793 4.83129V78.2165C66.7793 80.3675 65.1393 82.1126 63.116 82.1126H26.884C24.8608 82.1126 23.2207 80.3675 23.2207 78.2165V4.83129C23.2207 2.68027 24.8608 0.935143 26.884 0.935143H63.116C65.1393 0.935143 66.7793 2.68027 66.7793 4.83129Z" fill="white" fill-opacity="0.71"/>
<path d="M66.7793 21.581V41.2581C65.6631 41.7219 64.4485 41.9763 63.1793 41.9763C57.6985 41.9763 53.2583 37.2516 53.2583 31.4195C53.2583 25.5893 57.6985 20.8627 63.1793 20.8627C64.4485 20.8627 65.6631 21.1171 66.7793 21.581Z" fill="#FEB6B6"/>
<path d="M36.7418 48.5379C36.7418 54.3681 32.3016 59.0947 26.8207 59.0947C25.5516 59.0947 24.3369 58.8403 23.2207 58.3765V38.6993C24.3369 38.2355 25.5516 37.9811 26.8207 37.9811C32.3016 37.9811 36.7418 42.7077 36.7418 48.5379Z" fill="#FEB6B6"/>
<path d="M66.7793 62.9403V78.2163C66.7793 80.3673 65.1393 82.1124 63.116 82.1124H26.884C24.8608 82.1124 23.2207 80.3673 23.2207 78.2163V62.9403H66.7793Z" fill="#FEB6B6"/>
<path d="M66.7793 62.9403V74.1649C65.6631 74.6288 64.4485 74.8832 63.1793 74.8832C57.6985 74.8832 53.2583 70.1565 53.2583 64.3263C53.2583 63.8569 53.2864 63.393 53.3426 62.9403H66.7793Z" fill="#FBFBFB"/>
<path d="M56.8735 6.17378L58.3594 0.935211H31.6406L33.1265 6.17378C33.3504 6.96348 34.0342 7.50367 34.8093 7.50367H55.1904C55.9658 7.50367 56.6494 6.96329 56.8735 6.17378Z" fill="#FF4D4D"/>
<path d="M37.267 5.12701C37.7382 5.12701 38.1202 4.72052 38.1202 4.2191C38.1202 3.71767 37.7382 3.31118 37.267 3.31118C36.7957 3.31118 36.4137 3.71767 36.4137 4.2191C36.4137 4.72052 36.7957 5.12701 37.267 5.12701Z" fill="#FEB6B6"/>
<path d="M40.1367 5.12701C40.6079 5.12701 40.9899 4.72052 40.9899 4.2191C40.9899 3.71767 40.6079 3.31118 40.1367 3.31118C39.6654 3.31118 39.2834 3.71767 39.2834 4.2191C39.2834 4.72052 39.6654 5.12701 40.1367 5.12701Z" fill="#FEB6B6"/>
<path d="M52.1368 5.1268H45.5974C45.1451 5.1268 44.7785 4.73662 44.7785 4.25535C44.7785 3.77409 45.1451 3.38391 45.5974 3.38391H52.1368C52.5891 3.38391 52.9558 3.77409 52.9558 4.25535C52.9558 4.73662 52.5891 5.1268 52.1368 5.1268Z" fill="#FEB6B6"/>
<path d="M9.98384 49.6218C9.75902 49.6218 9.53384 49.5306 9.36245 49.3478L7.37753 47.2357C7.03423 46.8706 7.03423 46.2784 7.37753 45.9133L9.36245 43.8012C9.7054 43.4359 10.2619 43.4361 10.6052 43.801L12.5903 45.9131C12.7552 46.0886 12.8478 46.3265 12.8478 46.5745C12.8478 46.8225 12.7554 47.0605 12.5903 47.2359L10.6052 49.348C10.4338 49.5306 10.2087 49.6218 9.98384 49.6218ZM9.24187 46.5745L9.98384 47.364L10.726 46.5745L9.98384 45.785L9.24187 46.5745Z" fill="#FF6C6C"/>
<path d="M16.9004 13.8108C16.6756 13.8108 16.4504 13.7195 16.279 13.5368L14.2939 11.4247C13.9506 11.0596 13.9506 10.4674 14.2939 10.1023L16.2788 7.99016C16.6218 7.62486 17.1787 7.62486 17.5216 7.99016L19.5065 10.1023C19.8498 10.4674 19.8498 11.0596 19.5065 11.4247L17.5218 13.5368C17.3502 13.7195 17.1252 13.8108 16.9004 13.8108ZM16.1584 10.7635L16.9004 11.553L17.6424 10.7635L16.9004 9.97396L16.1584 10.7635Z" fill="#FF6363"/>
<path d="M17.6576 32.9592C16.3964 32.9592 15.3703 31.8674 15.3703 30.5254C15.3703 29.1833 16.3964 28.0916 17.6576 28.0916C18.9188 28.0916 19.9449 29.1833 19.9449 30.5254C19.9449 31.8674 18.9188 32.9592 17.6576 32.9592ZM17.6576 29.9622C17.3656 29.9622 17.1281 30.2149 17.1281 30.5256C17.1281 30.8363 17.3656 31.089 17.6576 31.089C17.9496 31.089 18.187 30.8363 18.187 30.5256C18.187 30.2149 17.9496 29.9622 17.6576 29.9622Z" fill="#FF6C6C"/>
<path d="M76.6551 57.3265C75.3938 57.3265 74.3678 56.2347 74.3678 54.8926C74.3678 53.5506 75.3938 52.4588 76.6551 52.4588C77.9163 52.4588 78.9423 53.5506 78.9423 54.8926C78.9423 56.2347 77.9163 57.3265 76.6551 57.3265ZM76.6551 54.3294C76.3631 54.3294 76.1256 54.5821 76.1256 54.8928C76.1256 55.2035 76.3631 55.4562 76.6551 55.4562C76.9471 55.4562 77.1845 55.2035 77.1845 54.8928C77.1845 54.5821 76.9471 54.3294 76.6551 54.3294Z" fill="#FF6C6C"/>
<path d="M75.5262 41.1785C74.265 41.1785 73.239 40.0865 73.239 38.7444C73.239 37.4024 74.265 36.3106 75.5262 36.3106C76.7875 36.3106 77.8135 37.4024 77.8135 38.7444C77.8135 40.0865 76.7875 41.1785 75.5262 41.1785ZM75.5262 38.1813C75.2343 38.1813 74.9968 38.434 74.9968 38.7446C74.9968 39.0553 75.2343 39.3082 75.5262 39.3082C75.8182 39.3082 76.0557 39.0553 76.0557 38.7446C76.0557 38.434 75.8182 38.1813 75.5262 38.1813Z" fill="#FF6C6C"/>
<path d="M54.7261 54.9598C54.5891 54.9598 54.4503 54.9256 54.3204 54.8538L36.336 44.8783C36.0456 44.7173 35.8635 44.3976 35.8635 44.0489C35.8635 43.7003 36.0456 43.3808 36.336 43.2196L54.3204 33.2441C54.7502 33.0056 55.2815 33.1829 55.506 33.641C55.7303 34.0991 55.5633 34.664 55.133 34.9026L38.6437 44.0488L55.133 53.1949C55.5633 53.4335 55.7303 53.9984 55.506 54.4565C55.3494 54.7767 55.0432 54.9598 54.7261 54.9598Z" fill="#FF6C6C"/>
<path d="M63.1783 37.4885C68.6576 37.4885 73.0994 32.762 73.0994 26.9316C73.0994 21.1013 68.6576 16.3748 63.1783 16.3748C57.699 16.3748 53.2572 21.1013 53.2572 26.9316C53.2572 32.762 57.699 37.4885 63.1783 37.4885Z" fill="#FF6363"/>
<path d="M63.1783 28.9528C61.5681 28.9528 60.258 27.5587 60.258 25.8454C60.258 24.1321 61.5681 22.738 63.1783 22.738C64.7884 22.738 66.0985 24.1321 66.0985 25.8454C66.0985 27.5587 64.7884 28.9528 63.1783 28.9528ZM63.1783 24.6083C62.5374 24.6083 62.0158 25.1632 62.0158 25.8452C62.0158 26.5272 62.5374 27.0821 63.1783 27.0821C63.8191 27.0821 64.3407 26.5272 64.3407 25.8452C64.3407 25.1632 63.8193 24.6083 63.1783 24.6083Z" fill="white"/>
<path d="M65.2196 31.1252C64.7341 31.1252 64.3407 30.7065 64.3407 30.1899C64.3407 29.508 63.8191 28.953 63.1783 28.953C62.5374 28.953 62.0158 29.508 62.0158 30.1899C62.0158 30.7065 61.6224 31.1252 61.1369 31.1252C60.6514 31.1252 60.258 30.7065 60.258 30.1899C60.258 28.4766 61.5681 27.0826 63.1783 27.0826C64.7884 27.0826 66.0985 28.4766 66.0985 30.1899C66.0985 30.7065 65.7051 31.1252 65.2196 31.1252Z" fill="white"/>
<path d="M63.1783 70.3948C68.6576 70.3948 73.0994 65.6683 73.0994 59.8379C73.0994 54.0076 68.6576 49.2811 63.1783 49.2811C57.699 49.2811 53.2572 54.0076 53.2572 59.8379C53.2572 65.6683 57.699 70.3948 63.1783 70.3948Z" fill="#FF6C6C"/>
<path d="M63.1783 61.8598C61.5681 61.8598 60.258 60.4658 60.258 58.7524C60.258 57.0391 61.5681 55.6451 63.1783 55.6451C64.7884 55.6451 66.0985 57.0391 66.0985 58.7524C66.0985 60.4658 64.7884 61.8598 63.1783 61.8598ZM63.1783 57.5153C62.5374 57.5153 62.0158 58.0703 62.0158 58.7522C62.0158 59.4342 62.5374 59.9892 63.1783 59.9892C63.8191 59.9892 64.3407 59.4342 64.3407 58.7522C64.3407 58.0703 63.8193 57.5153 63.1783 57.5153Z" fill="white"/>
<path d="M65.2196 64.032C64.7341 64.032 64.3407 63.6134 64.3407 63.0967C64.3407 62.4148 63.8191 61.8598 63.1783 61.8598C62.5374 61.8598 62.0158 62.4148 62.0158 63.0967C62.0158 63.6134 61.6224 64.032 61.1369 64.032C60.6514 64.032 60.258 63.6134 60.258 63.0967C60.258 61.3834 61.5681 59.9894 63.1783 59.9894C64.7884 59.9894 66.0985 61.3834 66.0985 63.0967C66.0985 63.6134 65.7051 64.032 65.2196 64.032Z" fill="white"/>
<path d="M26.8215 54.6058C32.3008 54.6058 36.7426 49.8793 36.7426 44.049C36.7426 38.2186 32.3008 33.4922 26.8215 33.4922C21.3422 33.4922 16.9004 38.2186 16.9004 44.049C16.9004 49.8793 21.3422 54.6058 26.8215 54.6058Z" fill="#FF4D4D"/>
<path d="M26.8215 46.0701C25.2113 46.0701 23.9012 44.676 23.9012 42.9627C23.9012 41.2494 25.2113 39.8553 26.8215 39.8553C28.4317 39.8553 29.7418 41.2494 29.7418 42.9627C29.7418 44.676 28.4317 46.0701 26.8215 46.0701ZM26.8215 41.7256C26.1806 41.7256 25.6591 42.2805 25.6591 42.9625C25.6591 43.6445 26.1806 44.1994 26.8215 44.1994C27.4624 44.1994 27.9839 43.6445 27.9839 42.9625C27.9839 42.2805 27.4624 41.7256 26.8215 41.7256Z" fill="white"/>
<path d="M28.8628 48.2424C28.3773 48.2424 27.9839 47.8238 27.9839 47.3072C27.9839 46.6253 27.4624 46.0703 26.8215 46.0703C26.1806 46.0703 25.6591 46.6253 25.6591 47.3072C25.6591 47.8238 25.2657 48.2424 24.7802 48.2424C24.2946 48.2424 23.9012 47.8238 23.9012 47.3072C23.9012 45.5939 25.2113 44.1998 26.8215 44.1998C28.4317 44.1998 29.7418 45.5939 29.7418 47.3072C29.7418 47.8238 29.3484 48.2424 28.8628 48.2424Z" fill="white"/>
<path d="M73.9784 59.8383C73.9784 55.2016 71.3828 51.2002 67.6578 49.3855V37.3845C71.3828 35.5698 73.9784 31.5685 73.9784 26.9318C73.9784 22.2952 71.3828 18.2937 67.6578 16.479V4.8323C67.6578 2.16785 65.6205 0 63.1165 0H26.8834C24.3794 0 22.3421 2.16785 22.3421 4.8323V28.0178C22.3421 28.5344 22.7355 28.9531 23.221 28.9531C23.7065 28.9531 24.0999 28.5344 24.0999 28.0178V4.8323C24.0999 3.19922 25.3486 1.87045 26.8834 1.87045H30.9877L32.285 6.44407C32.6235 7.63723 33.638 8.4389 34.8092 8.4389H55.1905C56.3617 8.4389 57.3763 7.63723 57.7147 6.44388L59.012 1.87045H63.1165C64.6512 1.87045 65.9 3.19922 65.9 4.8323V15.8098C65.03 15.5685 64.1181 15.4396 63.1784 15.4396C61.3961 15.4396 59.6288 15.9123 58.0668 16.8071C57.6393 17.0519 57.4793 17.6191 57.7096 18.0738C57.9397 18.5289 58.4729 18.6989 58.9 18.4538C60.2066 17.7055 61.686 17.3101 63.1784 17.3101C68.1642 17.3101 72.2205 21.6263 72.2205 26.9317C72.2205 32.237 68.1642 36.5531 63.1784 36.5531C58.1925 36.5531 54.1362 32.237 54.1362 26.9317C54.1362 25.4155 54.4605 23.9614 55.1002 22.6102C55.3185 22.1489 55.1441 21.5865 54.7104 21.3542C54.2773 21.1217 53.7484 21.3074 53.5301 21.7688C52.7658 23.3834 52.3782 25.1205 52.3782 26.9318C52.3782 33.2686 57.2232 38.4237 63.1782 38.4237C64.1181 38.4237 65.03 38.2946 65.8998 38.0535V48.7166C65.0299 48.4753 64.1179 48.3464 63.1782 48.3464C57.2231 48.3464 52.3784 53.5019 52.3784 59.8385C52.3784 66.175 57.2232 71.3303 63.1782 71.3303C64.1181 71.3303 65.03 71.2013 65.8998 70.9602V78.2166C65.8998 79.8496 64.6511 81.1784 63.1163 81.1784H26.8834C25.3486 81.1784 24.0999 79.8496 24.0999 78.2166V55.1711C24.9698 55.4124 25.8818 55.5413 26.8215 55.5413C32.7766 55.5413 37.6213 50.3858 37.6213 44.0493C37.6213 37.7127 32.7765 32.5572 26.8215 32.5572C20.8666 32.5572 16.0215 37.7127 16.0215 44.0493C16.0215 48.6859 18.6171 52.6874 22.3421 54.5021V78.2164C22.3421 80.8808 24.3794 83.0487 26.8834 83.0487H63.1167C65.6207 83.0487 67.658 80.8808 67.658 78.2164V70.2909C71.3828 68.4762 73.9784 64.4749 73.9784 59.8383ZM56.032 5.90351C55.9191 6.30136 55.5811 6.56864 55.1907 6.56864H34.8092C34.4188 6.56864 34.0806 6.30136 33.9679 5.9037L32.8239 1.87045H57.176L56.032 5.90351ZM17.7793 44.0493C17.7793 38.7439 21.8357 34.4277 26.8215 34.4277C31.8074 34.4277 35.8635 38.7439 35.8635 44.0493C35.8635 49.3546 31.8074 53.6708 26.8215 53.6708C21.8357 53.6708 17.7793 49.3546 17.7793 44.0493ZM54.1363 59.8383C54.1363 54.5329 58.1925 50.2167 63.1784 50.2167C68.1642 50.2167 72.2205 54.5329 72.2205 59.8383C72.2205 65.1436 68.1642 69.4597 63.1784 69.4597C58.1925 69.4597 54.1363 65.1436 54.1363 59.8383Z" fill="#953223"/>
<path d="M28.9343 16.7678H42.8566C43.3088 16.7678 43.6755 17.158 43.6755 17.6393C43.6755 18.1205 43.3088 18.5107 42.8566 18.5107H28.9343C28.4821 18.5107 28.1154 18.1205 28.1154 17.6393C28.1154 17.158 28.4821 16.7678 28.9343 16.7678Z" fill="#FF6363"/>
<path d="M28.9343 20.2859H39.1652C39.6174 20.2859 39.9841 20.6761 39.9841 21.1573C39.9841 21.6386 39.6174 22.0288 39.1652 22.0288H28.9343C28.4821 22.0288 28.1154 21.6386 28.1154 21.1573C28.1154 20.6761 28.4821 20.2859 28.9343 20.2859Z" fill="#FF6363"/>
<path d="M28.9343 77.1984H42.8566C43.3088 77.1984 43.6755 76.8082 43.6755 76.3269C43.6755 75.8457 43.3088 75.4555 42.8566 75.4555H28.9343C28.4821 75.4555 28.1154 75.8457 28.1154 76.3269C28.1154 76.8082 28.4821 77.1984 28.9343 77.1984Z" fill="white"/>
<path d="M28.9343 73.6803H39.1652C39.6174 73.6803 39.9841 73.2902 39.9841 72.8089C39.9841 72.3276 39.6174 71.9375 39.1652 71.9375H28.9343C28.4821 71.9375 28.1154 72.3276 28.1154 72.8089C28.1154 73.2902 28.4821 73.6803 28.9343 73.6803Z" fill="white"/>
<path d="M29.3605 27.2613C29.1356 27.2613 28.9106 27.17 28.7391 26.9874C28.3958 26.6221 28.3958 26.0301 28.7389 25.6648L29.7642 24.5736C29.9291 24.3982 30.1527 24.2996 30.3858 24.2996C30.6189 24.2996 30.8425 24.398 31.0072 24.5736L32.0327 25.6648C32.376 26.0299 32.376 26.6221 32.0327 26.9872C31.6897 27.3525 31.1329 27.3525 30.7899 26.9872L30.3858 26.5574L29.982 26.9872C29.8105 27.17 29.5855 27.2613 29.3605 27.2613Z" fill="#FF6C6C"/>
<path d="M34.8701 27.2613C34.6453 27.2613 34.4203 27.17 34.2487 26.9874C33.9054 26.6221 33.9054 26.0301 34.2485 25.6648L35.2739 24.5736C35.4388 24.3982 35.6624 24.2996 35.8954 24.2996C36.1285 24.2996 36.3521 24.398 36.5168 24.5736L37.5423 25.6648C37.8856 26.0299 37.8856 26.6221 37.5423 26.9872C37.1994 27.3525 36.6425 27.3525 36.2996 26.9872L35.8954 26.5574L35.4917 26.9872C35.3199 27.17 35.0949 27.2613 34.8701 27.2613Z" fill="#FF6C6C"/>
<defs>
<linearGradient id="paint0_linear_842:1270" x1="15" y1="67.4997" x2="41.6795" y2="-42.0589" gradientUnits="userSpaceOnUse">
<stop offset="0.007" stop-color="#FF9895"/>
<stop offset="0.992" stop-color="#FFE5E3" stop-opacity="0.12"/>
</linearGradient>
</defs>
</svg>
