<svg width="90" height="90" viewBox="0 0 90 90" fill="none" xmlns="http://www.w3.org/2000/svg">
<path d="M89.979 47.1349C90.2272 41.7744 88.263 36.625 84.6257 32.0815C82.0948 28.9201 80.031 25.3458 78.5086 21.4754C73.6403 9.09869 64.7554 0.626153 54.2517 0.0330852C46.7874 -0.388454 39.7693 3.24125 34.1842 9.59871C30.4873 13.8069 25.9207 16.9368 20.8988 18.8409C8.73474 23.453 0.489658 31.935 0.0209834 42.0556C-0.447691 52.1763 6.97088 61.5428 18.6453 67.5008C23.4651 69.9605 27.7187 73.5885 31.0077 78.191C35.9764 85.1443 42.6227 89.5456 50.0868 89.9669C60.5905 90.56 70.2118 83.1324 76.198 71.3685C78.0699 67.6899 80.4532 64.3667 83.2629 61.5068C87.301 57.3967 89.7308 52.4954 89.979 47.1349Z" fill="url(#paint0_linear_827:664)"/>
<path opacity="0.1" d="M13.4909 44.2563V37.7147H26.7557V41.9267C26.7557 42.4631 27.1496 42.898 27.6354 42.898H54.3537C54.8394 42.898 55.2333 42.4631 55.2333 41.9267V37.7147H68.4982V44.2563H70.2575V36.7434C70.2575 36.2068 69.8636 35.7721 69.3778 35.7721H55.2333V34.2312C55.2333 33.6949 54.8394 33.2599 54.3537 33.2599H27.6354C27.1496 33.2599 26.7557 33.6949 26.7557 34.2312V35.7721H12.6112C12.1255 35.7721 11.7316 36.2068 11.7316 36.7434V44.2563H13.4909Z" fill="#953223"/>
<g opacity="0.1">
<path opacity="0.1" d="M38.9303 62.823H35.5502V55.4172C35.5502 54.8808 35.1562 54.4459 34.6705 54.4459H19.8636L18.8221 51.1423C18.699 50.7519 18.3658 50.4904 17.9914 50.4904H7.43848C6.95274 50.4904 6.55884 50.9254 6.55884 51.4617V74.6372C6.55884 75.1736 6.95274 75.6085 7.43848 75.6085H34.9571C35.3155 75.6085 35.6381 75.3684 35.7725 75.0014L39.7457 64.1586C39.9797 63.52 39.5541 62.823 38.9303 62.823Z" fill="#0000CC"/>
<path opacity="0.1" d="M82.5606 62.823H79.1805V55.4172C79.1805 54.8808 78.7866 54.4459 78.3009 54.4459H63.494L62.4525 51.1423C62.3293 50.7519 61.9961 50.4904 61.6218 50.4904H51.0688C50.5831 50.4904 50.1892 50.9254 50.1892 51.4617V74.6372C50.1892 75.1736 50.5831 75.6085 51.0688 75.6085H78.5875C78.9458 75.6085 79.2685 75.3684 79.4029 75.0014L83.3761 64.1586C83.6101 63.52 83.1845 62.823 82.5606 62.823Z" fill="#0000CC"/>
</g>
<path d="M19.8636 48.6183L18.8221 45.3148C18.699 44.9243 18.3658 44.6628 17.9914 44.6628H7.43848C6.95274 44.6628 6.55884 45.0978 6.55884 45.6341V69.7809H35.5502V49.5896C35.5502 49.0533 35.1562 48.6183 34.6705 48.6183H19.8636Z" fill="url(#paint1_linear_827:664)"/>
<path d="M11.0214 57.6025L6.55884 69.7809H35.5502L39.7457 58.3312C39.9797 57.6927 39.5541 56.9957 38.9303 56.9957H11.8369C11.4785 56.9955 11.1559 57.2356 11.0214 57.6025Z" fill="#FF6363"/>
<path d="M17.6063 49.1515H9.07379V46.8947H17.0059L17.6063 49.1515Z" fill="#FF6C6C"/>
<path d="M63.494 48.6183L62.4525 45.3148C62.3293 44.9243 61.9961 44.6628 61.6218 44.6628H51.0688C50.5831 44.6628 50.1892 45.0978 50.1892 45.6341V69.7809H79.1805V49.5896C79.1805 49.0533 78.7866 48.6183 78.3009 48.6183H63.494Z" fill="url(#paint2_linear_827:664)"/>
<path d="M54.6518 57.6025L50.1892 69.7809H79.1805L83.3761 58.3312C83.6101 57.6927 83.1845 56.9957 82.5606 56.9957H55.4672C55.1089 56.9955 54.7862 57.2356 54.6518 57.6025Z" fill="#FF6363"/>
<path d="M61.2367 49.1515H52.7042V46.8947H60.6363L61.2367 49.1515Z" fill="#FF6C6C"/>
<path d="M54.3533 37.653H27.635C27.1493 37.653 26.7554 37.2181 26.7554 36.6817V28.9864C26.7554 28.4501 27.1493 28.0151 27.635 28.0151H54.3533C54.8391 28.0151 55.233 28.4501 55.233 28.9864V36.6817C55.233 37.2183 54.8391 37.653 54.3533 37.653Z" fill="url(#paint3_linear_827:664)"/>
<path d="M84.0192 56.8806C83.6918 56.3442 83.1465 56.0241 82.5604 56.0241H80.06V49.5895C80.06 48.5184 79.2707 47.6469 78.3007 47.6469H70.2569V31.4983C70.2569 30.9618 69.863 30.527 69.3772 30.527H56.1125V28.9862C56.1125 27.915 55.3233 27.0436 54.3532 27.0436H27.6349C26.6649 27.0436 25.8756 27.915 25.8756 28.9862V30.527H12.611C12.1252 30.527 11.7313 30.9618 11.7313 31.4983V43.6914H7.4383C6.46823 43.6914 5.67902 44.5629 5.67902 45.634V50.0507C5.67902 50.5872 6.07292 51.0219 6.55866 51.0219C7.0444 51.0219 7.4383 50.5872 7.4383 50.0507V45.634H11.7311V51.745C11.7311 52.2815 12.125 52.7163 12.6108 52.7163C13.0965 52.7163 13.4904 52.2815 13.4904 51.745V45.6338H17.991L19.0325 48.9376C19.1557 49.328 19.4889 49.5895 19.8633 49.5895H34.6703V56.0241H11.8367C11.1161 56.0241 10.4761 56.5006 10.2058 57.238L7.4383 64.7907V56.6554C7.4383 56.1189 7.0444 55.6841 6.55866 55.6841C6.07292 55.6841 5.67902 56.1189 5.67902 56.6554V69.7806C5.67902 70.308 6.08101 70.7519 6.55866 70.7519H20.7274H35.55C35.9083 70.7519 36.231 70.5118 36.3654 70.1449L40.5611 58.6951C40.7809 58.0953 40.7165 57.4171 40.3889 56.8806C40.0615 56.3442 39.5161 56.0241 38.9301 56.0241H36.4296V49.5895C36.4296 48.5184 35.6404 47.6469 34.6703 47.6469H20.4885L19.6527 44.9953C19.4069 44.2154 18.7391 43.6914 17.9912 43.6914H13.4906V32.4696H25.8756V36.6817C25.8756 37.7528 26.6649 38.6242 27.6349 38.6242H41.9211C42.4068 38.6242 42.8007 38.1895 42.8007 37.653C42.8007 37.1164 42.4068 36.6817 41.9211 36.6817H27.6349V28.9863H54.3532V36.6817H47.9026C47.4169 36.6817 47.023 37.1164 47.023 37.653C47.023 38.1895 47.4169 38.6242 47.9026 38.6242H54.3532C55.3233 38.6242 56.1125 37.7528 56.1125 36.6817V32.4696H68.4976V47.6469H64.1189L63.283 44.9953C63.0373 44.2154 62.3694 43.6914 61.6216 43.6914H51.0688C50.0988 43.6914 49.3095 44.5629 49.3095 45.634V69.7808C49.3095 70.3082 49.7115 70.7521 50.1892 70.7521H61.3216H79.1805C79.5389 70.7521 79.8615 70.512 79.9959 70.145L84.1917 58.6953C84.411 58.0953 84.3468 57.4171 84.0192 56.8806ZM38.9303 57.9667L34.9571 68.8093H22.264H7.86353L11.8365 57.9665L38.9303 57.9667ZM61.6216 45.6338L62.6631 48.9376C62.7862 49.328 63.1194 49.5895 63.4938 49.5895H68.4976V51.745C68.4976 52.2815 68.8915 52.7163 69.3772 52.7163C69.863 52.7163 70.2569 52.2815 70.2569 51.745V49.5895H78.3007V56.0241H66.8838H55.4669C54.7463 56.0241 54.1062 56.5006 53.836 57.238L51.0685 64.7907V45.634L61.6216 45.6338ZM78.5874 68.8095H62.9064H51.4939L55.4669 57.9667L82.5604 57.9669L78.5874 68.8095Z" fill="#953223"/>
<path d="M46.0455 16.4506C46.2974 15.9921 46.165 15.3946 45.7496 15.1164C44.3168 14.157 42.6724 13.6496 40.9941 13.6496C39.3155 13.6496 37.6711 14.1568 36.2385 15.1164C35.8232 15.3948 35.6907 15.9921 35.9426 16.4508C36.108 16.7519 36.3981 16.9184 36.6956 16.9184C36.8509 16.9184 37.0084 16.8729 37.1509 16.7773C38.3085 16.0019 39.6373 15.592 40.9941 15.592C42.3507 15.592 43.6796 16.0017 44.8372 16.7773C45.2526 17.0555 45.7936 16.9094 46.0455 16.4506Z" fill="#953223"/>
<path d="M40.9944 17.5658C40.188 17.5658 39.3977 17.8096 38.7091 18.2706C38.2937 18.5489 38.1613 19.1463 38.4132 19.6047C38.6653 20.0634 39.2061 20.2098 39.6215 19.9317C40.448 19.3776 41.5405 19.3776 42.367 19.9317C42.5097 20.027 42.667 20.0727 42.8223 20.0727C43.1196 20.0727 43.4097 19.9062 43.5753 19.6049C43.8272 19.1465 43.6947 18.5489 43.2794 18.2708C42.5911 17.8096 41.801 17.5658 40.9944 17.5658Z" fill="#953223"/>
<path d="M34.4102 13.5998C34.5655 13.5998 34.723 13.5544 34.8655 13.4586C36.7114 12.2224 38.8306 11.5687 40.994 11.5687C43.1576 11.5687 45.2768 12.2222 47.1225 13.4586C47.5378 13.7372 48.0786 13.5905 48.3307 13.1321C48.5827 12.6734 48.4504 12.0759 48.0348 11.7979C45.914 10.3773 43.4793 9.6261 40.994 9.6261C38.5086 9.6261 36.0738 10.3769 33.953 11.7979C33.5376 12.0761 33.4051 12.6734 33.6571 13.1321C33.823 13.4332 34.1129 13.5998 34.4102 13.5998Z" fill="#953223"/>
<g opacity="0.1">
<g opacity="0.1">
<path opacity="0.1" d="M42.8223 25.3173C42.667 25.3173 42.5095 25.2719 42.367 25.1763C41.5405 24.6227 40.448 24.6227 39.6215 25.1763C39.2061 25.4547 38.6651 25.3084 38.4132 24.8496C38.1613 24.3907 38.2937 23.7936 38.7091 23.5154C39.3977 23.0542 40.1878 22.8106 40.9944 22.8106C41.801 22.8106 42.5911 23.0544 43.2797 23.5154C43.6951 23.7936 43.8276 24.3909 43.5756 24.8496C43.4097 25.1509 43.1196 25.3173 42.8223 25.3173Z" fill="#0000CC"/>
</g>
</g>
<path d="M44.7627 34.2799C45.4859 34.2799 46.0721 33.6326 46.0721 32.834C46.0721 32.0355 45.4859 31.3882 44.7627 31.3882C44.0395 31.3882 43.4533 32.0355 43.4533 32.834C43.4533 33.6326 44.0395 34.2799 44.7627 34.2799Z" fill="#953223"/>
<path d="M49.1361 31.3882C49.8592 31.3882 50.4456 32.0354 50.4456 32.834C50.4456 33.6324 49.8594 34.2799 49.1361 34.2799C48.4129 34.2799 47.8267 33.6326 47.8267 32.834C47.8267 32.0356 48.4129 31.3882 49.1361 31.3882Z" fill="#953223"/>
<path d="M32.4297 34.1802C31.9309 34.1802 31.5266 33.7338 31.5266 33.1831V32.4851C31.5266 31.9344 31.9309 31.488 32.4297 31.488C32.9284 31.488 33.3327 31.9344 33.3327 32.4851V33.1831C33.3327 33.7336 32.9286 34.1802 32.4297 34.1802Z" fill="#FF4D4D"/>
<path d="M35.3475 31.488C35.8462 31.488 36.2505 31.9344 36.2505 32.4851V33.1831C36.2505 33.7338 35.8462 34.1802 35.3475 34.1802C34.8487 34.1802 34.4444 33.7338 34.4444 33.1831V32.4851C34.4444 31.9344 34.8487 31.488 35.3475 31.488Z" fill="#953223"/>
<path d="M60.4581 18.4489C60.2329 18.4489 60.0079 18.3541 59.836 18.1643L57.8494 15.9708C57.5058 15.5916 57.5058 14.9766 57.8494 14.5974L59.836 12.4038C60.1796 12.0244 60.7364 12.0244 61.08 12.4038L63.0666 14.5974C63.2316 14.7796 63.3241 15.0265 63.3241 15.2841C63.3241 15.5417 63.2314 15.7888 63.0666 15.9708L61.08 18.1643C60.9084 18.3539 60.6833 18.4489 60.4581 18.4489ZM59.7156 15.2841L60.4582 16.104L61.2008 15.2841L60.4582 14.4641L59.7156 15.2841Z" fill="#FF6C6C"/>
<path d="M47.8269 82.705C47.5936 82.705 47.3698 82.6028 47.2048 82.4204L45.2182 80.2266C45.0532 80.0444 44.9606 79.7975 44.9606 79.5399C44.9606 79.2824 45.0533 79.0353 45.2182 78.8532L47.2048 76.6597C47.5484 76.2803 48.1052 76.2803 48.4488 76.6597L50.4354 78.8532C50.6004 79.0355 50.6929 79.2824 50.6929 79.5399C50.6929 79.7975 50.6002 80.0446 50.4354 80.2266L48.4488 82.4204C48.2839 82.6028 48.0601 82.705 47.8269 82.705ZM47.0843 79.5399L47.8269 80.3601L48.5695 79.5399L47.8269 78.72L47.0843 79.5399Z" fill="#FF6C6C"/>
<path d="M68.3985 24.6909C67.1362 24.6909 66.1093 23.5571 66.1093 22.1633C66.1093 20.7695 67.1362 19.6356 68.3985 19.6356C69.6608 19.6356 70.6877 20.7695 70.6877 22.1633C70.6877 23.5571 69.6608 24.6909 68.3985 24.6909ZM68.3985 21.5784C68.1063 21.5784 67.8686 21.8408 67.8686 22.1635C67.8686 22.4861 68.1063 22.7486 68.3985 22.7486C68.6907 22.7486 68.9284 22.4861 68.9284 22.1635C68.9284 21.8408 68.6907 21.5784 68.3985 21.5784Z" fill="#FF6C6C"/>
<path d="M41.4138 76.5798C40.1515 76.5798 39.1246 75.4459 39.1246 74.0522C39.1246 72.6584 40.1515 71.5245 41.4138 71.5245C42.6761 71.5245 43.703 72.6584 43.703 74.0522C43.703 75.4459 42.6761 76.5798 41.4138 76.5798ZM41.4138 73.467C41.1216 73.467 40.8839 73.7295 40.8839 74.0522C40.8839 74.3748 41.1216 74.6373 41.4138 74.6373C41.706 74.6373 41.9437 74.3748 41.9437 74.0522C41.9437 73.7295 41.706 73.467 41.4138 73.467Z" fill="#FF6C6C"/>
<path d="M17.4325 14.898C16.1702 14.898 15.1433 13.7641 15.1433 12.3703C15.1433 10.9765 16.1702 9.84265 17.4325 9.84265C18.6948 9.84265 19.7216 10.9765 19.7216 12.3703C19.7216 13.7641 18.6948 14.898 17.4325 14.898ZM17.4325 11.7854C17.1402 11.7854 16.9026 12.0479 16.9026 12.3705C16.9026 12.6932 17.1402 12.9556 17.4325 12.9556C17.7247 12.9556 17.9624 12.6932 17.9624 12.3705C17.9624 12.0479 17.7247 11.7854 17.4325 11.7854Z" fill="#FF6C6C"/>
<defs>
<linearGradient id="paint0_linear_827:664" x1="26.25" y1="3.75" x2="54.7705" y2="112.97" gradientUnits="userSpaceOnUse">
<stop offset="0.007" stop-color="#FF9B98"/>
<stop offset="0.992" stop-color="white" stop-opacity="0"/>
</linearGradient>
<linearGradient id="paint1_linear_827:664" x1="21.0545" y1="44.6628" x2="1.875" y2="84.3748" gradientUnits="userSpaceOnUse">
<stop stop-color="white"/>
<stop offset="1" stop-color="#FF2C2B"/>
</linearGradient>
<linearGradient id="paint2_linear_827:664" x1="64.6849" y1="44.6628" x2="65.625" y2="89.9998" gradientUnits="userSpaceOnUse">
<stop stop-color="white"/>
<stop offset="1" stop-color="#FF2C2B"/>
</linearGradient>
<linearGradient id="paint3_linear_827:664" x1="40.9942" y1="28.0151" x2="40.9942" y2="37.653" gradientUnits="userSpaceOnUse">
<stop stop-color="white"/>
<stop offset="1" stop-color="#FF6C6C" stop-opacity="0.77"/>
</linearGradient>
</defs>
</svg>
