<svg width="24" height="24" viewBox="0 0 24 24" fill="none" xmlns="http://www.w3.org/2000/svg">
<path d="M21.2892 7.72153C20.8147 7.34616 20.2657 7.05116 19.6587 6.83365C18.0677 6.26359 16.8168 5.2431 16.1138 3.97819C14.8126 1.63718 11.8568 0.00206832 8.41767 1.91684e-06C3.91452 -0.00269339 0.175605 2.8374 0.00612119 6.39768C-0.0663848 7.92152 0.509007 9.33652 1.53176 10.4842C2.83068 11.9418 3.16817 13.7986 2.49818 15.5015C1.54635 17.9209 1.87822 20.2137 3.689 21.6464C6.86223 24.157 13.3746 23.0751 18.2348 19.2298C23.0949 15.3846 24.4624 10.2322 21.2892 7.72153Z" fill="url(#paint0_linear_151_817)"/>
<path d="M1.59998 1.6001H2.39998V2.4001H1.59998V1.6001Z" fill="#FF6C6C"/>
<path d="M3.20001 1.6001H4.00001V2.4001H3.20001V1.6001Z" fill="#FF6C6C"/>
<path d="M4.79999 1.6001H5.59999V2.4001H4.79999V1.6001Z" fill="#FF6C6C"/>
<path d="M19.2 1.6001H20V2.4001H19.2V1.6001Z" fill="#FF6C6C"/>
<path d="M1.59998 4.7998H3.19998V5.5998H1.59998V4.7998Z" fill="#FF6363"/>
<path d="M1.59998 7.19971H3.19998V7.99971H1.59998V7.19971Z" fill="#FF6363"/>
<path d="M1.59998 9.59961H3.19998V10.3996H1.59998V9.59961Z" fill="#FF6363"/>
<path d="M1.59998 11.9995H3.19998V12.7995H1.59998V11.9995Z" fill="#FF6363"/>
<path d="M1.59998 14.3999H3.19998V15.1999H1.59998V14.3999Z" fill="#FF6363"/>
<path d="M5.59998 4.7998H9.59997V5.5998H5.59998V4.7998Z" fill="#FF6363"/>
<path d="M9.59997 6.3999H5.59998V9.5999H9.59997V6.3999ZM8.79997 8.7999H6.39998V7.1999H8.79997V8.7999Z" fill="#FF6363"/>
<path d="M10.8 4.7998H14.8V5.5998H10.8V4.7998Z" fill="#FF6363"/>
<path d="M10.8 9.5999H14.8V6.3999H10.8V9.5999ZM11.6 7.1999H14V8.7999H11.6V7.1999Z" fill="#FF6363"/>
<path d="M16 4.7998H20V5.5998H16V4.7998Z" fill="#FF6363"/>
<path d="M16 9.5999H20V6.3999H16V9.5999ZM16.8 7.1999H19.2V8.7999H16.8V7.1999Z" fill="#FF6363"/>
<path d="M9.59997 10.3999H5.59998V13.5999H9.59997V10.3999ZM8.79997 12.7999H6.39998V11.1999H8.79997V12.7999Z" fill="#FF6363"/>
<path d="M5.59998 17.5999H9.59997V14.3999H5.59998V17.5999ZM6.39998 15.1999H8.79997V16.7999H6.39998V15.1999Z" fill="#FF6363"/>
<path d="M13.2195 17.5643L14.0163 17.636C14.0921 16.8316 14.4087 16.0687 14.9247 15.447C15.4407 14.8252 16.1322 14.3735 16.9088 14.1507L16.6911 13.3809C15.7589 13.6483 14.929 14.1905 14.3097 14.9368C13.6904 15.6831 13.3105 16.5987 13.2195 17.5643Z" fill="#FF9494"/>
<path d="M18.3641 21.9838L18.4359 22.7806C19.0679 22.725 19.6824 22.5437 20.2434 22.2474C20.8044 21.951 21.3005 21.5456 21.7027 21.0549L21.0858 20.5454C20.7508 20.9544 20.3375 21.2923 19.8701 21.5393C19.4027 21.7863 18.8907 21.9374 18.3641 21.9838Z" fill="#FF9494"/>
<path d="M19.2 16H22.4V16.8H19.2V16Z" fill="#FF4D4D"/>
<path d="M19.2 17.6001H22.4V18.4001H19.2V17.6001Z" fill="#FF4D4D"/>
<path d="M16.4678 20.0978L17.0828 19.4828L16.5172 18.917L15.9021 19.5321C15.689 19.3905 15.4506 19.2914 15.2 19.2401V18.3999H14.4V19.2401C14.1494 19.2914 13.911 19.3905 13.6979 19.5321L13.0828 18.917L12.5172 19.4828L13.1322 20.0978C12.9906 20.3109 12.8915 20.5493 12.8402 20.7999H12V21.5999H12.8402C12.8915 21.8505 12.9906 22.0889 13.1322 22.302L12.5172 22.917L13.0828 23.4828L13.6979 22.8677C13.911 23.0093 14.1494 23.1084 14.4 23.1597V23.9999H15.2V23.1597C15.4506 23.1084 15.689 23.0093 15.9021 22.8677L16.5172 23.4828L17.0828 22.917L16.4678 22.302C16.6094 22.0889 16.7085 21.8505 16.7598 21.5999H17.6V20.7999H16.7598C16.7085 20.5493 16.6094 20.3109 16.4678 20.0978ZM14.8 22.3999C14.5627 22.3999 14.3307 22.3295 14.1333 22.1977C13.936 22.0658 13.7822 21.8784 13.6913 21.6591C13.6005 21.4398 13.5768 21.1986 13.6231 20.9658C13.6694 20.733 13.7836 20.5192 13.9515 20.3514C14.1193 20.1836 14.3331 20.0693 14.5659 20.023C14.7987 19.9767 15.0399 20.0004 15.2592 20.0912C15.4785 20.1821 15.6659 20.3359 15.7978 20.5332C15.9296 20.7306 16 20.9626 16 21.1999C15.9996 21.518 15.8731 21.8231 15.6481 22.048C15.4232 22.273 15.1181 22.3995 14.8 22.3999Z" fill="#FF6C6C"/>
<path d="M21.7171 12.3515C21.606 12.2397 21.4737 12.1511 21.3281 12.0907C21.1824 12.0304 21.0263 11.9996 20.8686 12H18.8C18.4818 12.0004 18.1768 12.1269 17.9518 12.3519C17.7269 12.5768 17.6003 12.8819 17.6 13.2V18.8C17.6003 19.1182 17.7269 19.4232 17.9518 19.6481C18.1768 19.8731 18.4818 19.9996 18.8 20H22.8C23.1181 19.9996 23.4231 19.8731 23.6481 19.6481C23.8731 19.4232 23.9996 19.1182 24 18.8V15.1314C24.0004 14.9737 23.9696 14.8175 23.9092 14.6719C23.8489 14.5262 23.7603 14.394 23.6485 14.2828L21.7171 12.3515ZM21.6 13.3657L22.6343 14.4H22C21.8939 14.3999 21.7923 14.3577 21.7173 14.2827C21.6423 14.2077 21.6001 14.1061 21.6 14V13.3657ZM23.2 18.8C23.1999 18.9061 23.1577 19.0077 23.0827 19.0827C23.0077 19.1577 22.906 19.1999 22.8 19.2H18.8C18.6939 19.1999 18.5923 19.1577 18.5173 19.0827C18.4423 19.0077 18.4001 18.9061 18.4 18.8V13.2C18.4001 13.094 18.4423 12.9923 18.5173 12.9173C18.5923 12.8423 18.6939 12.8001 18.8 12.8H20.8V14C20.8003 14.3182 20.9269 14.6232 21.1518 14.8481C21.3768 15.0731 21.6818 15.1996 22 15.2H23.2V18.8Z" fill="#FF4D4D"/>
<path d="M19.2 14.3999H20V15.1999H19.2V14.3999Z" fill="#FF4D4D"/>
<path d="M10.8 13.5999H14.8V10.3999H10.8V13.5999ZM11.6 11.1999H14V12.7999H11.6V11.1999Z" fill="#FF6363"/>
<path d="M10.8 17.5999H12.4V16.7999H11.6V15.1999H12.8V14.3999H10.8V17.5999Z" fill="#FF6363"/>
<path d="M22.8 2.4H21.6V1.2C21.5996 0.88185 21.4731 0.576835 21.2481 0.351869C21.0232 0.126903 20.7181 0.000359693 20.4 0H1.2C0.88185 0.000359693 0.576835 0.126903 0.351869 0.351869C0.126903 0.576835 0.000359693 0.88185 0 1.2V18C0.000359693 18.3181 0.126903 18.6232 0.351869 18.8481C0.576835 19.0731 0.88185 19.1996 1.2 19.2H2.4V20.4C2.40036 20.7181 2.52691 21.0232 2.75187 21.2481C2.97684 21.4731 3.28185 21.5996 3.6 21.6H11.2V20.8H3.6C3.49395 20.7999 3.39228 20.7577 3.31729 20.6827C3.2423 20.6077 3.20012 20.506 3.2 20.4V19.2H12V18.4H4.8V4H20.8V10.9702H21.6V3.2H22.8C22.906 3.20012 23.0077 3.2423 23.0827 3.31729C23.1577 3.39228 23.1999 3.49395 23.2 3.6V12.8H24V3.6C23.9996 3.28185 23.8731 2.97684 23.6481 2.75187C23.4232 2.52691 23.1181 2.40036 22.8 2.4ZM4 18.4H1.2C1.09395 18.3999 0.992279 18.3577 0.917291 18.2827C0.842303 18.2077 0.800121 18.106 0.8 18V4H4V18.4ZM20.8 3.2H0.8V1.2C0.800121 1.09395 0.842303 0.992279 0.917291 0.917291C0.992279 0.842303 1.09395 0.800121 1.2 0.8H20.4C20.506 0.800121 20.6077 0.842303 20.6827 0.917291C20.7577 0.992279 20.7999 1.09395 20.8 1.2V3.2Z" fill="#953223"/>
<path d="M16 10.3999H20V11.1999H16V10.3999Z" fill="#FF6363"/>
<defs>
<linearGradient id="paint0_linear_151_817" x1="2.94597" y1="-0.958333" x2="19.953" y2="16.4645" gradientUnits="userSpaceOnUse">
<stop stop-color="#FF7171"/>
<stop offset="0.992" stop-color="#FFE8DC" stop-opacity="0.06"/>
</linearGradient>
</defs>
</svg>
