<svg width="24" height="24" viewBox="0 0 24 24" fill="none" xmlns="http://www.w3.org/2000/svg">
<g clip-path="url(#clip0_154_480)">
<path d="M21.9687 8.05725C21.4856 7.66556 20.9265 7.35773 20.3083 7.13077C18.6881 6.53592 17.4144 5.47106 16.6984 4.15116C15.3733 1.70836 12.3634 0.00215825 8.86117 2.00018e-06C4.27543 -0.0028105 0.467949 2.96077 0.295357 6.67584C0.221521 8.26594 0.807465 9.74245 1.84897 10.94C3.17171 12.461 3.51539 14.3985 2.83312 16.1755C1.86383 18.7 2.20179 21.0926 4.04577 22.5876C7.2772 25.2073 13.909 24.0784 18.8583 20.0659C23.8075 16.0535 25.2001 10.677 21.9687 8.05725Z" fill="url(#paint0_linear_154_480)"/>
<path d="M15.0968 7.74194C16.5906 7.74194 17.8065 6.52645 17.8065 5.03226C17.8065 3.53806 16.5906 2.32258 15.0968 2.32258C13.603 2.32258 12.3871 3.53806 12.3871 5.03226C12.3871 6.52645 13.603 7.74194 15.0968 7.74194ZM15.0968 3.09677C16.164 3.09677 17.0323 3.96503 17.0323 5.03226C17.0323 6.09948 16.164 6.96774 15.0968 6.96774C14.0295 6.96774 13.1613 6.09948 13.1613 5.03226C13.1613 3.96503 14.0295 3.09677 15.0968 3.09677ZM15.0968 6.19355C15.737 6.19355 16.2581 5.67252 16.2581 5.03226C16.2581 4.392 15.737 3.87097 15.0968 3.87097C14.4565 3.87097 13.9355 4.392 13.9355 5.03226C13.9355 5.67252 14.4565 6.19355 15.0968 6.19355ZM15.0968 4.64516C15.3105 4.64516 15.4839 4.81897 15.4839 5.03226C15.4839 5.24555 15.3105 5.41935 15.0968 5.41935C14.8831 5.41935 14.7097 5.24555 14.7097 5.03226C14.7097 4.81897 14.8831 4.64516 15.0968 4.64516ZM24 23.2258H20.129V21.3755C20.6342 20.3315 20.9032 19.171 20.9032 18.0108V17.8065H22.8387C23.479 17.8065 24 17.2854 24 16.6452V5.03226C24 4.392 23.479 3.87097 22.8387 3.87097H19.7992C19.5186 3.79974 19.2941 3.60929 19.1822 3.33987C19.0668 3.06194 19.0935 2.7569 19.255 2.50258L19.4218 2.24052L17.8877 0.706839L17.6257 0.873677C17.3721 1.03548 17.0671 1.06181 16.7884 0.946452C16.5105 0.831484 16.3134 0.596903 16.2484 0.303097L16.1818 0H14.0121L13.9448 0.303097C13.8797 0.596903 13.6827 0.831484 13.4048 0.946452C13.1268 1.06181 12.8218 1.0351 12.5675 0.873677L12.3054 0.706839L10.7714 2.24052L10.9382 2.50258C11.0996 2.75652 11.1263 3.06155 11.011 3.33987C10.8995 3.60929 10.675 3.79974 10.3943 3.87097H3.48387C2.84361 3.87097 2.32258 4.392 2.32258 5.03226V11.0655L0.957677 12.4308C0.340258 13.0479 0 13.8689 0 14.7418C0 15.0101 0.0329032 15.2768 0.0979355 15.5346L1.44271 20.9137C1.06606 20.9663 0.774194 21.2868 0.774194 21.6774V23.2258H0V24H24V23.2258ZM12.3871 10.8387V11.6129H10.8387V10.8387H12.3871ZM10.8705 13.9355H10.8387V12.3871H12.3871V13.2434C12.216 13.1942 12.0383 13.1613 11.8521 13.1613C11.3764 13.1613 10.9785 13.4923 10.8705 13.9355ZM12.3871 10.0645V9.30581L12.5675 9.19123C12.8218 9.02981 13.1268 9.00348 13.4048 9.11845C13.6738 9.22993 13.8646 9.45484 13.9355 9.73587V15.4521C13.9351 15.485 13.8778 15.4908 13.872 15.4575L13.7582 14.7766C13.685 14.3381 13.4667 13.9599 13.1613 13.6773V10.0645H12.3871ZM11.6129 10.0645H10.0645V13.9355H9.29032V8.6249L11.6129 9.20555V10.0645ZM8.51613 10.8387H7.74194V10.0645H8.51613V10.8387ZM7.74194 11.6129H8.51613V12.3871H7.74194V11.6129ZM7.74194 13.1613H8.51613V13.9355H7.74194V13.1613ZM8.51613 7.63316V9.29032H6.96774V14.7097H10.9634L11.0865 15.0174C11.148 15.1707 11.1972 15.3275 11.2479 15.4839H6.19355V6.19355H9.29032V7.82671L8.51613 7.63316ZM11.4565 16.2581C11.5095 16.5139 11.5521 16.7717 11.5773 17.0323H6.45832C6.43819 17.0044 6.42348 16.9734 6.40219 16.9463L5.86684 16.2581H11.4565ZM6.82994 19.4443C6.92129 19.1702 6.96774 18.8845 6.96774 18.595C6.96774 18.3267 6.92129 18.0615 6.84271 17.8065H11.6129V18.1935C11.6129 19.4586 12.1912 20.6648 13.1613 21.4688V23.2258H6.19355V21.353L6.82994 19.4443ZM19.3548 23.2258H13.9355V21.6774H19.3548V23.2258ZM20.129 18.0108C20.129 19.0053 19.9088 19.9994 19.495 20.9032H13.6893C12.8741 20.2455 12.3871 19.2441 12.3871 18.1935V17.7492C12.3871 16.7102 12.1912 15.6945 11.8057 14.7302L11.6396 14.316C11.6218 14.2711 11.6129 14.2235 11.6129 14.1747C11.6129 14.0427 11.7201 13.9355 11.8521 13.9355C12.4208 13.9355 12.9012 14.3423 12.9945 14.9036L13.1083 15.5841C13.1733 15.9747 13.5077 16.2581 13.9034 16.2581C14.3477 16.2581 14.7097 15.8961 14.7097 15.4517V9.67742C14.7097 9.46413 14.8831 9.29032 15.0968 9.29032C15.3105 9.29032 15.4839 9.46413 15.4839 9.67742V15.4839H16.2581V13.5484C16.2581 13.3351 16.4315 13.1613 16.6452 13.1613C16.8588 13.1613 17.0323 13.3351 17.0323 13.5484V15.4839H17.8065V13.5484C17.8065 13.3351 17.9799 13.1613 18.1935 13.1613C18.4072 13.1613 18.5806 13.3351 18.5806 13.5484V15.4839H19.3548V14.3226C19.3548 14.1093 19.5283 13.9355 19.7419 13.9355C19.9556 13.9355 20.129 14.1093 20.129 14.3226V18.0108ZM23.2258 5.03226V16.6452C23.2258 16.8585 23.0524 17.0323 22.8387 17.0323H20.9032V16.2581H22.4516V5.41935H20.129V4.64516H22.8387C23.0524 4.64516 23.2258 4.81897 23.2258 5.03226ZM19.7992 6.19355H21.6774V15.4839H20.9032V14.3226C20.9032 13.6823 20.3822 13.1613 19.7419 13.1613C19.589 13.1613 19.4439 13.1926 19.3099 13.2465C19.1764 12.7529 18.7289 12.3871 18.1935 12.3871C17.8951 12.3871 17.6253 12.5036 17.4194 12.689C17.2134 12.5032 16.9436 12.3871 16.6452 12.3871C16.5089 12.3871 16.3796 12.415 16.2581 12.4583V9.73548C16.3289 9.45445 16.5197 9.22955 16.7888 9.11806C17.0675 9.0031 17.3725 9.02942 17.6261 9.19084L17.8881 9.35768L19.4222 7.82361L19.2554 7.56155C19.0939 7.308 19.0672 7.00297 19.1826 6.72464C19.2937 6.45561 19.5186 6.26477 19.7992 6.19355ZM10.8387 4.53755C11.2363 4.36529 11.5575 4.044 11.7263 3.636C11.8955 3.22839 11.8959 2.77394 11.736 2.37058L12.4355 1.6711C12.8385 1.83097 13.2929 1.83058 13.7013 1.66142C14.1085 1.49265 14.4298 1.17174 14.6025 0.774194H15.5915C15.7637 1.17174 16.085 1.49265 16.4926 1.66181C16.9006 1.83058 17.3551 1.83135 17.7585 1.67148L18.4579 2.37097C18.2985 2.77432 18.2988 3.22839 18.4676 3.63639C18.6364 4.044 18.9577 4.36568 19.3552 4.53794V5.52735C18.9573 5.69961 18.6364 6.0209 18.4676 6.4289C18.2985 6.83652 18.2981 7.29097 18.4579 7.69393L17.7585 8.39342C17.3559 8.23394 16.9014 8.23432 16.4926 8.4031C16.2581 8.50026 16.0541 8.64929 15.8884 8.83277C15.6805 8.63768 15.4034 8.51613 15.0968 8.51613C14.7902 8.51613 14.513 8.63768 14.3052 8.83239C14.1399 8.6489 13.9355 8.49987 13.7009 8.40271C13.2929 8.23355 12.8385 8.23316 12.4351 8.39303L11.7356 7.69355C11.8951 7.29058 11.8947 6.83613 11.7259 6.42852C11.5572 6.02052 11.2363 5.69923 10.8383 5.52697V4.53755H10.8387ZM11.011 6.72464C11.1263 7.00258 11.0996 7.30761 10.9382 7.56155L10.7714 7.82361L11.2695 8.32181L10.0645 8.02026V6.19355H10.3943C10.675 6.26477 10.8999 6.45561 11.011 6.72464ZM3.48387 4.64516H10.0645V5.41935H5.41935V15.6828L4.29252 14.2343C4.14503 14.0446 3.92206 13.9355 3.64916 13.9355C3.45135 13.9355 3.26555 13.9819 3.09677 14.0597V5.03226C3.09677 4.81897 3.27019 4.64516 3.48387 4.64516ZM0.774194 14.7418C0.774194 14.0756 1.03355 13.4493 1.50503 12.9778L2.32258 12.1603V15.2621C2.32258 15.4665 2.37097 15.6712 2.46232 15.8555L3.91161 18.7537L4.60413 18.4072L3.15523 15.5094C3.1169 15.4332 3.09677 15.3472 3.09677 15.2621C3.09677 14.9578 3.34452 14.7097 3.68129 14.7097H3.68168L5.79097 17.4213C6.05071 17.7554 6.19355 18.1719 6.19355 18.5946C6.19355 18.8005 6.16065 19.0041 6.09561 19.1988L5.52735 20.9032H2.23742L0.848516 15.3468C0.798968 15.1498 0.774194 14.9466 0.774194 14.7418ZM1.54839 21.6774H5.41935V23.2258H1.54839V21.6774ZM4.64516 12.3871H3.87097V9.29032H4.64516V12.3871ZM17.0323 10.8387H17.8065V11.6129H17.0323V10.8387ZM18.5806 10.8387H20.9032V11.6129H18.5806V10.8387ZM18.5806 9.29032H20.9032V10.0645H18.5806V9.29032Z" fill="#953223"/>
</g>
<defs>
<linearGradient id="paint0_linear_154_480" x1="26.9627" y1="-2.02584" x2="-2.26002" y2="34.02" gradientUnits="userSpaceOnUse">
<stop offset="0.0023" stop-color="#FF9494"/>
<stop offset="0.992" stop-color="#FFE8DC" stop-opacity="0"/>
</linearGradient>
<clipPath id="clip0_154_480">
<rect width="24" height="24" fill="white"/>
</clipPath>
</defs>
</svg>
