<svg width="90" height="90" viewBox="0 0 90 90" fill="none" xmlns="http://www.w3.org/2000/svg">
<path d="M87.6888 18.1507L87.4513 13.5315L82.7708 12.9495C82.4127 11.8325 81.898 10.7866 81.2537 9.83326L83.7519 5.92337L80.236 2.82332L76.5006 5.64215C75.4635 5.11298 74.3448 4.71884 73.1697 4.48384L72.1039 0L67.3692 0.235187L66.7693 4.80209C65.6242 5.15236 64.5516 5.65527 63.5741 6.2846L59.5685 3.8502L56.3885 7.2827L59.2751 10.925C58.7319 11.9372 58.3271 13.029 58.0854 14.1756L53.4886 15.2185L53.7261 19.8377L58.4066 20.4197C58.7646 21.5367 59.2793 22.5826 59.9236 23.536L57.4254 27.4459L60.9413 30.5459L64.6768 27.7271C65.7139 28.2562 66.8326 28.6504 68.0076 28.8854L69.0731 33.3696L73.8078 33.1344L74.4077 28.5675C75.5528 28.2172 76.6254 27.7143 77.6028 27.085L81.6085 29.5194L84.7885 26.0869L81.9018 22.4445C82.4451 21.4324 82.8498 20.3406 83.0916 19.194L87.6888 18.1507ZM70.9184 23.0994C67.2869 23.2797 64.1953 20.5539 64.0133 17.0111C63.831 13.4684 66.6273 10.4502 70.2586 10.2698C73.8899 10.0895 76.9815 12.8154 77.1637 16.3581C77.3459 19.9008 74.5497 22.919 70.9184 23.0994Z" fill="#953223"/>
<path d="M32.6226 50.2603L62.3008 63.0472L75.5152 33.4298L70.06 19.6678L50.1075 11.0712L32.6226 50.2603Z" fill="url(#paint0_linear_827:656)"/>
<path d="M68.1962 33.4296L56.1619 60.402L62.3007 63.047L75.5152 33.4296L72.0848 24.7755L68.1962 33.4296Z" fill="#F9A5AB"/>
<path d="M70.0601 19.6676L65.7747 29.2016L75.5153 33.4296L70.0601 19.6676Z" fill="#FFEEF8"/>
<path d="M60.7753 47.0881H84.232V70.0651H60.7753V47.0881Z" fill="#953223"/>
<path d="M89.9999 64.039L84.2318 70.0657V47.0886L89.9999 41.0619V64.039Z" fill="#FEB6B6"/>
<path d="M84.2318 47.0886H60.7753L66.5432 41.0619H89.9999L84.2318 47.0886Z" fill="#FF6C6C"/>
<path d="M69.3561 86.0358L72.0665 83.3698L69.866 80.2724C70.3571 79.4493 70.7189 78.5718 70.9529 77.6683L74.7225 77.0145L74.7068 73.2323L70.9317 72.5549C70.6901 71.6498 70.3211 70.7702 69.8232 69.944L71.998 66.8603L69.2655 64.1774L66.1293 66.3175C65.288 65.8289 64.3925 65.467 63.4712 65.2305L62.7787 61.5213L58.9298 61.5093L58.268 65.2142C57.3487 65.4449 56.4561 65.8012 55.6188 66.2846L52.4649 64.1249L49.7545 66.7909L51.9549 69.8882C51.4638 70.7114 51.1021 71.5888 50.8681 72.4924L47.0984 73.1462L47.1142 76.9284L50.8893 77.6057C51.1308 78.5109 51.4999 79.3905 51.9978 80.2167L49.8229 83.3004L52.5556 85.9833L55.6918 83.8432C56.5332 84.3317 57.4286 84.6937 58.3499 84.9301L59.0425 88.6394L62.8914 88.6514L63.5532 84.9465C64.4725 84.7158 65.365 84.3594 66.2023 83.8761L69.3561 86.0358ZM57.5049 78.4299C55.6027 76.5625 55.5903 73.5442 57.477 71.6885C59.3636 69.8329 62.435 69.8424 64.3372 71.7099C66.2393 73.5773 66.2519 76.5956 64.3652 78.4513C62.4784 80.3069 59.407 80.2974 57.5049 78.4299Z" fill="#FF6363"/>
<path d="M17.8353 14.1732C18.1865 14.1732 18.5376 14.0416 18.8057 13.7784C19.3416 13.2517 19.3418 12.3978 18.8058 11.8713L14.1264 7.27207C13.5905 6.74524 12.7215 6.74542 12.1858 7.27189C11.6499 7.79854 11.6497 8.65245 12.1856 9.17892L16.865 13.778C17.1327 14.0416 17.484 14.1732 17.8353 14.1732Z" fill="#953223"/>
<path d="M7.98998 35.4188H1.37231C0.61443 35.4188 0 36.0224 0 36.7673C0 37.5123 0.61443 38.1159 1.37231 38.1159H7.98998C8.74786 38.1159 9.36229 37.5123 9.36229 36.7673C9.36229 36.0224 8.74786 35.4188 7.98998 35.4188Z" fill="#953223"/>
<path d="M19.2241 59.5863C18.6882 59.0598 17.8192 59.0596 17.2835 59.5865L12.6043 64.1856C12.0683 64.7122 12.0685 65.5661 12.6044 66.0926C12.8723 66.3558 13.2236 66.4874 13.5748 66.4874C13.9259 66.4874 14.2772 66.3558 14.5453 66.0924L19.2243 61.4933C19.7602 60.9667 19.76 60.1128 19.2241 59.5863Z" fill="#953223"/>
<path d="M41.8925 9.0365C41.6684 9.0365 41.4439 9.0383 41.2186 9.04369C26.265 9.39144 14.1359 21.535 13.9947 36.2882C13.8929 46.8994 19.8824 56.1379 28.7227 60.8163V65.44C28.7227 67.328 30.2743 68.8585 32.1884 68.8585H41.8925V9.0365Z" fill="#FF6C6C"/>
<path d="M41.8926 68.8586H32.1885V76.3994C32.1885 79.7866 34.9828 82.5324 38.4296 82.5324H41.8926V68.8586Z" fill="#FEB6B6"/>
<path d="M42.0224 90.0001C41.2645 90.0001 40.6501 89.3964 40.6501 88.6515V1.80927C40.6501 1.06433 41.2645 0.460716 42.0224 0.460716C42.7803 0.460716 43.3947 1.06433 43.3947 1.80927V88.6515C43.3947 89.3964 42.7803 90.0001 42.0224 90.0001Z" fill="#953223"/>
<path d="M70.953 77.6682L74.7227 77.0144L74.7069 73.2322L70.9318 72.5549C70.6903 71.6497 70.3212 70.7701 69.8233 69.9439L71.9982 66.8602L69.2654 64.1773L66.1292 66.3172C65.3205 65.8475 64.4614 65.4962 63.5776 65.2596C66.581 67.6665 68.5 71.3304 68.5 75.4357C68.5 78.9905 67.0597 82.2128 64.7243 84.5765C65.2312 84.3836 65.7258 84.1511 66.2021 83.8762L69.356 86.0359L72.0664 83.3699L69.8659 80.2725C70.3572 79.4492 70.7192 78.5719 70.953 77.6682Z" fill="#FF6C6C"/>
<defs>
<linearGradient id="paint0_linear_827:656" x1="46.419" y1="11.0742" x2="87.7237" y2="31.6838" gradientUnits="userSpaceOnUse">
<stop stop-color="#F0F0FF"/>
<stop offset="1" stop-color="#FF6C6C"/>
</linearGradient>
</defs>
</svg>
