<svg width="90" height="90" viewBox="0 0 90 90" fill="none" xmlns="http://www.w3.org/2000/svg">
<path d="M81.0752 1.69644C64.9588 -5.64541 54.5964 13.0029 39.7134 16.5839C32.1763 18.3974 24.1537 14.6218 16.3939 15.5225C13.7732 15.8266 10.7168 16.683 9.80295 18.7989C7.88248 23.2458 13.4752 26.7676 11.3143 33.1607C8.84643 40.4625 -3.03561 47.7432 2.86994 55.3712C7.97712 61.9681 18.6241 57.8005 26.1979 57.0949C63.0587 53.6605 36.344 89.6177 57.4243 89.9918C73.9356 90.2846 83.4373 82.7399 77.8308 68.6114C75.6317 63.0695 72.0695 57.8585 71.112 52.0647C69.4278 41.8749 75.6527 31.6203 84.0827 24.2553C92.555 16.8533 92.2525 6.78829 81.0752 1.69644V1.69644Z" fill="url(#paint0_linear_861:972)"/>
<path opacity="0.1" d="M87.1217 59.8141L72.1253 53.5686C69.5005 52.477 67.1272 55.3844 69.2366 57.1018L71.2573 58.7471H56.8927C62.0574 54.9281 65.629 49.5801 66.6268 43.5367C70.277 43.2585 73.1386 40.6455 73.1386 37.4614C73.1386 34.0917 69.9343 31.3602 65.9818 31.3602H65.0486C60.9058 22.015 50.3032 15.3504 37.9075 15.3504C33.4515 15.3504 29.2272 16.2125 25.4512 17.7498C24.1712 16.7264 22.4509 16.0987 20.5577 16.0987H9.84411C5.89161 16.0987 2.68738 18.8304 2.68738 22.1999C2.68738 25.5695 5.89161 28.3011 9.84411 28.3011H12.4091C10.1748 31.8035 8.9047 35.8147 8.9047 40.0739C8.9047 40.2022 8.91295 40.3323 8.91501 40.4606L6.74999 39.1493C4.37053 37.7061 1.47147 40.2408 3.2241 42.2324L11.9285 52.1084C11.8992 52.5121 11.8827 52.9189 11.8827 53.329C11.8827 57.5734 13.4712 61.501 16.1678 64.7052C15.3777 65.042 14.6453 65.4621 13.9888 65.955L11.5532 65.1529C10.9846 64.9657 10.3408 65.1594 10.0361 65.6094L8.40489 68.0181C8.10014 68.4681 8.2253 69.0403 8.69974 69.3665L10.7293 70.7615C10.5996 71.3149 10.5305 71.8869 10.5305 72.4726C10.5305 73.0585 10.5996 73.6305 10.7293 74.1836L8.69974 75.5786C8.22509 75.9047 8.10014 76.4771 8.40489 76.9271L10.0361 79.3358C10.3408 79.7858 10.9848 79.9795 11.5532 79.7923L13.9888 78.9902C14.9911 79.7429 16.168 80.3295 17.4615 80.7013L17.864 82.8983C17.958 83.4118 18.4768 83.7903 19.0863 83.7903H22.3489C22.9584 83.7903 23.4771 83.4118 23.5712 82.8983L23.9736 80.7013C25.2671 80.3293 26.444 79.7427 27.4463 78.9902L29.8817 79.7923C30.4504 79.9795 31.0941 79.7858 31.3988 79.3358L33.03 76.9271C33.3348 76.4771 33.2096 75.9049 32.7352 75.5786L30.7056 74.1836C30.8271 73.6653 30.8931 73.1298 30.9011 72.5826C32.1679 72.7677 33.4698 72.8653 34.7987 72.8653C42.4275 72.8653 49.1842 69.6866 53.3497 64.799H71.2571L69.2384 66.4426C67.127 68.1617 69.5003 71.0674 72.1251 69.9758L87.1215 63.7303C89.0331 62.9342 89.0331 60.6104 87.1217 59.8141ZM48.1124 37.4262C44.3597 35.139 39.7641 33.7925 34.7992 33.7925C29.9444 33.7925 25.443 35.0806 21.7373 37.2763C20.7707 36.1838 18.6052 35.9332 17.5073 37.3844L16.0268 39.3444C16.2161 35.1685 18.0219 31.3398 20.9239 28.3011H26.684C27.2533 28.3011 27.715 27.9075 27.715 27.4222V23.5499C30.7609 22.1779 34.2297 21.4006 37.9079 21.4006C46.2967 21.4006 53.5961 25.4422 57.2737 31.36H55.2683C51.3294 31.36 48.1347 34.0727 48.1124 37.4262ZM59.4249 43.5624C58.9952 45.4907 58.217 47.3153 57.1463 48.9861C56.6318 47.0538 55.7815 45.2302 54.6501 43.5624H59.4249Z" fill="#953223"/>
<path d="M34.7993 68.6467C47.4557 68.6467 57.7157 59.8999 57.7157 49.1102C57.7157 38.3205 47.4557 29.5737 34.7993 29.5737C22.1429 29.5737 11.8829 38.3205 11.8829 49.1102C11.8829 59.8999 22.1429 68.6467 34.7993 68.6467Z" fill="#FF4D4D"/>
<path d="M25.1488 36.0245L34.7965 49.1079H16.6702C16.6702 43.5954 20.0558 38.7579 25.1488 36.0245Z" fill="#FF4D4D"/>
<path d="M52.929 49.1096H34.8006L44.4483 36.0245C49.5434 38.7597 52.929 43.5971 52.929 49.1096Z" fill="#FF4D4D"/>
<path d="M44.4482 36.0232L34.7984 49.1101L25.1486 36.0232C27.9425 34.522 31.2519 33.6537 34.7984 33.6537C38.3449 33.6537 41.6543 34.522 44.4482 36.0232V36.0232Z" fill="white"/>
<path d="M34.7984 36.5496C35.3677 36.5496 35.8293 36.1561 35.8293 35.6707C35.8293 35.1853 35.3677 34.7918 34.7984 34.7918C34.229 34.7918 33.7674 35.1853 33.7674 35.6707C33.7674 36.1561 34.229 36.5496 34.7984 36.5496Z" fill="#FF6C6C"/>
<path d="M29.4071 37.3601C29.9764 37.3601 30.438 36.9666 30.438 36.4812C30.438 35.9957 29.9764 35.6022 29.4071 35.6022C28.8377 35.6022 28.3761 35.9957 28.3761 36.4812C28.3761 36.9666 28.8377 37.3601 29.4071 37.3601Z" fill="#FF6C6C"/>
<path d="M24.6658 39.6928C25.2352 39.6928 25.6968 39.2993 25.6968 38.8139C25.6968 38.3285 25.2352 37.935 24.6658 37.935C24.0964 37.935 23.6348 38.3285 23.6348 38.8139C23.6348 39.2993 24.0964 39.6928 24.6658 39.6928Z" fill="white"/>
<path d="M21.1467 43.2678C21.7161 43.2678 22.1777 42.8743 22.1777 42.3889C22.1777 41.9035 21.7161 41.51 21.1467 41.51C20.5774 41.51 20.1158 41.9035 20.1158 42.3889C20.1158 42.8743 20.5774 43.2678 21.1467 43.2678Z" fill="white"/>
<path d="M19.2742 47.6543C19.8436 47.6543 20.3052 47.2608 20.3052 46.7753C20.3052 46.2899 19.8436 45.8964 19.2742 45.8964C18.7049 45.8964 18.2433 46.2899 18.2433 46.7753C18.2433 47.2608 18.7049 47.6543 19.2742 47.6543Z" fill="white"/>
<path d="M40.1899 37.3601C40.7593 37.3601 41.2209 36.9666 41.2209 36.4812C41.2209 35.9957 40.7593 35.6022 40.1899 35.6022C39.6205 35.6022 39.1589 35.9957 39.1589 36.4812C39.1589 36.9666 39.6205 37.3601 40.1899 37.3601Z" fill="#FF6C6C"/>
<path d="M44.931 39.6928C45.5004 39.6928 45.962 39.2993 45.962 38.8139C45.962 38.3285 45.5004 37.935 44.931 37.935C44.3616 37.935 43.9 38.3285 43.9 38.8139C43.9 39.2993 44.3616 39.6928 44.931 39.6928Z" fill="white"/>
<path d="M48.4503 43.2678C49.0197 43.2678 49.4812 42.8743 49.4812 42.3889C49.4812 41.9035 49.0197 41.51 48.4503 41.51C47.8809 41.51 47.4193 41.9035 47.4193 42.3889C47.4193 42.8743 47.8809 43.2678 48.4503 43.2678Z" fill="white"/>
<path d="M50.3225 47.6535C50.8918 47.6535 51.3534 47.26 51.3534 46.7746C51.3534 46.2892 50.8918 45.8957 50.3225 45.8957C49.7531 45.8957 49.2915 46.2892 49.2915 46.7746C49.2915 47.26 49.7531 47.6535 50.3225 47.6535Z" fill="white"/>
<path d="M16.6702 49.1092C16.6702 57.645 24.7869 64.5646 34.7992 64.5646C44.8115 64.5646 52.9283 57.645 52.9283 49.1092H16.6702Z" fill="white"/>
<path d="M87.1216 59.5125L72.1252 65.758C69.5004 66.8496 67.1271 63.9439 69.2385 62.2248L71.2572 60.5813H53.3494C54.8917 58.7725 56.0773 56.7317 56.8196 54.5291H71.2572L69.2365 52.8838C67.1271 51.1664 69.5004 48.259 72.1252 49.3506L87.1216 55.5961C89.033 56.3924 89.033 58.7162 87.1216 59.5125V59.5125Z" fill="white"/>
<path d="M66.9107 35.8553C66.9107 43.3436 62.9848 50.0654 56.797 54.6006C57.3949 52.8603 57.7145 51.0182 57.7145 49.1109C57.7145 47.6186 57.5187 46.1648 57.1455 44.7691C58.8445 42.1184 59.8095 39.0809 59.8095 35.8553C59.8095 25.5598 49.9865 17.1821 37.9077 17.1821C26.1176 17.1821 16.4781 25.1678 16.0266 35.1258L17.507 33.1658C19.0885 31.0758 22.8866 32.5137 22.1237 34.9166L17.7607 48.6504C17.2019 50.4029 14.5276 50.8406 13.2512 49.3904L3.2241 38.0139C1.47147 36.0223 4.37053 33.4875 6.74999 34.9307L8.91501 36.242C8.91295 36.1137 8.9047 35.9836 8.9047 35.8553C8.9047 22.2235 21.9154 11.1317 37.9077 11.1317C53.9 11.1317 66.9107 22.2235 66.9107 35.8553V35.8553Z" fill="white"/>
<path d="M37.5174 49.1107C37.5174 48.142 36.8197 47.313 35.8297 46.9667V39.2812C35.8297 38.7957 35.3683 38.4023 34.7988 38.4023C34.2293 38.4023 33.7678 38.7957 33.7678 39.2812V46.9669C32.7779 47.3132 32.0803 48.1422 32.0803 49.1109C32.0803 50.3909 33.2975 51.4286 34.799 51.4286C36.3003 51.4284 37.5174 50.3908 37.5174 49.1107Z" fill="#953223"/>
<path d="M34.7991 50.1208C35.4533 50.1208 35.9837 49.6686 35.9837 49.1109C35.9837 48.5532 35.4533 48.1011 34.7991 48.1011C34.1449 48.1011 33.6145 48.5532 33.6145 49.1109C33.6145 49.6686 34.1449 50.1208 34.7991 50.1208Z" fill="white"/>
<path d="M49.1424 39.3437H65.982C69.9345 39.3437 73.1387 36.6121 73.1387 33.2425C73.1387 29.8728 69.9345 27.1413 65.982 27.1413H55.2684C51.3159 27.1413 48.1117 29.873 48.1117 33.2425V38.465C48.1115 38.9501 48.5732 39.3437 49.1424 39.3437Z" fill="#FF6C6C"/>
<path d="M61.2192 32.198H53.8461C53.2769 32.198 52.8152 31.8044 52.8152 31.3191C52.8152 30.8337 53.2769 30.4402 53.8461 30.4402H61.2192C61.7885 30.4402 62.2501 30.8337 62.2501 31.3191C62.2501 31.8044 61.7885 32.198 61.2192 32.198Z" fill="white"/>
<path d="M65.8024 35.6909H53.8461C53.2769 35.6909 52.8152 35.2973 52.8152 34.812C52.8152 34.3266 53.2769 33.9331 53.8461 33.9331H65.8024C66.3717 33.9331 66.8334 34.3266 66.8334 34.812C66.8334 35.2973 66.3717 35.6909 65.8024 35.6909Z" fill="white"/>
<path d="M26.6849 24.0837H9.84521C5.8925 24.0837 2.68848 21.3521 2.68848 17.9825C2.68848 14.6128 5.89271 11.8813 9.84521 11.8813H20.559C24.5117 11.8813 27.7157 14.613 27.7157 17.9825V23.205C27.7159 23.6903 27.2542 24.0837 26.6849 24.0837Z" fill="#FF6C6C"/>
<path d="M17.3968 16.9402H10.0238C9.45446 16.9402 8.9928 16.5466 8.9928 16.0613C8.9928 15.5759 9.45446 15.1824 10.0238 15.1824H17.3968C17.9661 15.1824 18.4277 15.5759 18.4277 16.0613C18.4277 16.5466 17.9661 16.9402 17.3968 16.9402Z" fill="white"/>
<path d="M21.98 20.4357H10.0238C9.45446 20.4357 8.9928 20.0421 8.9928 19.5568C8.9928 19.0714 9.45446 18.6778 10.0238 18.6778H21.98C22.5493 18.6778 23.011 19.0714 23.011 19.5568C23.011 20.0421 22.5493 20.4357 21.98 20.4357Z" fill="white"/>
<path d="M32.7356 71.3596L30.7061 69.9646C30.8358 69.4113 30.9048 68.8393 30.9048 68.2536C30.9048 67.6679 30.8358 67.0957 30.7061 66.5425L32.7356 65.1475C33.2101 64.8213 33.3352 64.2491 33.0305 63.7991L31.3993 61.3904C31.0945 60.9404 30.4506 60.7467 29.8821 60.9339L27.4468 61.736C26.4445 60.9833 25.2675 60.3967 23.9741 60.0249L23.5716 57.8278C23.4776 57.3144 22.9588 56.9359 22.3493 56.9359H19.0867C18.4772 56.9359 17.9584 57.3144 17.8644 57.8278L17.4619 60.0249C16.1683 60.3969 14.9915 60.9833 13.9892 61.736L11.5539 60.9339C10.9852 60.7467 10.3415 60.9404 10.0367 61.3904L8.40555 63.7991C8.1008 64.2491 8.22596 64.8213 8.70041 65.1475L10.73 66.5425C10.6003 67.0959 10.5312 67.6679 10.5312 68.2536C10.5312 68.8393 10.6003 69.4114 10.73 69.9646L8.70041 71.3596C8.22596 71.6857 8.1008 72.258 8.40555 72.708L10.0367 75.1168C10.3415 75.5668 10.9854 75.7605 11.5539 75.5733L13.9892 74.7712C14.9915 75.5239 16.1685 76.1105 17.4619 76.4822L17.8644 78.6793C17.9584 79.1928 18.4772 79.5712 19.0867 79.5712H22.3493C22.9588 79.5712 23.4776 79.1928 23.5716 78.6793L23.9741 76.4822C25.2675 76.1103 26.4445 75.5237 27.4468 74.7712L29.8821 75.5733C30.4508 75.7605 31.0945 75.5668 31.3993 75.1168L33.0305 72.708C33.3352 72.258 33.2101 71.6859 32.7356 71.3596V71.3596Z" fill="white"/>
<path d="M87.5743 54.8045L72.5775 48.5588C70.9509 47.8828 69.0933 48.2944 68.0594 49.5602C67.026 50.8257 67.2173 52.4531 68.5248 53.5174L68.6854 53.6484H59.4812C63.7053 49.9287 66.5247 45.2003 67.5281 40.0951C71.3059 39.4769 74.1699 36.6398 74.1699 33.2414C74.1699 29.3925 70.497 26.2612 65.9822 26.2612H57.8803C53.807 20.1053 46.2125 16.3026 37.9077 16.3026C34.7542 16.3026 31.6191 16.8657 28.7445 17.9362C28.7334 16.4065 28.1425 14.9922 27.1496 13.845C30.5572 12.6279 34.1693 12.0101 37.9077 12.0101C47.5299 12.0101 56.3659 16.1617 61.5433 23.1159C61.7398 23.3796 62.0735 23.5239 62.4149 23.5239C62.6038 23.5239 62.7951 23.4796 62.9665 23.387C63.4471 23.1268 63.5894 22.5838 63.2844 22.1739C57.7263 14.709 48.2398 10.2524 37.9079 10.2524C33.6226 10.2524 29.4912 11.0083 25.616 12.497C24.2223 11.5608 22.4662 10.9998 20.5581 10.9998H9.84412C5.32934 10.9998 1.65643 14.131 1.65643 17.9801C1.65643 21.829 5.32934 24.9602 9.84412 24.9602H10.7308C9.07338 27.9617 8.1119 31.2335 7.91251 34.5563L7.34775 34.2142C5.87348 33.32 3.96187 33.4662 2.69935 34.5703C1.43684 35.6741 1.31354 37.3069 2.39996 38.5416L10.8924 48.1768C10.8796 48.444 10.8514 48.8434 10.8514 49.1088C10.8514 53.0803 12.1757 56.8901 14.687 60.1908C14.3808 60.3576 14.083 60.5367 13.7956 60.7294L11.9254 60.1132C10.8759 59.7675 9.70639 60.1196 9.14369 60.9501L7.5123 63.359C6.95001 64.1898 7.17765 65.2293 8.05314 65.8309L9.61216 66.9026C9.53793 67.35 9.5002 67.8023 9.5002 68.253C9.5002 68.7037 9.53793 69.1558 9.61216 69.6033L8.05334 70.6749C7.17744 71.2767 6.95001 72.3163 7.5125 73.1469L9.14389 75.5558C9.70618 76.3863 10.8755 76.7384 11.9252 76.3925L13.7956 75.7764C14.6327 76.3377 15.5509 76.7901 16.5367 77.1273L16.8458 78.8144C17.0194 79.7621 17.9617 80.4497 19.0867 80.4497H22.3493C23.4743 80.4497 24.4166 79.7621 24.5902 78.8144L24.8993 77.1273C25.8851 76.7901 26.8032 76.3378 27.6404 75.7764L29.5105 76.3925C30.5603 76.7383 31.7296 76.3862 32.2923 75.5556L33.9235 73.1469C34.486 72.3161 34.2585 71.2766 33.3826 70.6749L31.8236 69.6033C31.8366 69.5253 31.8471 69.4469 31.8578 69.3685C32.8298 69.4704 33.8144 69.524 34.7983 69.524C42.5629 69.524 49.4751 66.3565 53.8536 61.4585H68.6852L68.5267 61.5875C67.2184 62.6528 67.0264 64.2803 68.0596 65.5458C68.7603 66.4037 69.8397 66.869 70.9692 66.869C71.5057 66.869 72.054 66.7639 72.5777 66.546L87.5743 60.3005C88.8154 59.7835 89.5861 58.7304 89.5861 57.5525C89.5861 56.3746 88.8154 55.3216 87.5743 54.8045ZM58.5103 51.9632C58.6641 51.0301 58.7455 50.0774 58.7455 49.1087C58.7455 47.6878 58.5692 46.277 58.2294 44.8985C59.1418 43.417 59.826 41.8489 60.2627 40.2215H65.408C64.4509 44.6072 62.0493 48.6769 58.5103 51.9632ZM65.982 28.019C69.3599 28.019 72.1078 30.3618 72.1078 33.2414C72.1078 36.1211 69.3599 38.4637 65.982 38.4637H49.1423V33.2414C49.1423 33.2381 49.1425 33.2347 49.1425 33.2316C49.1425 33.2328 49.1425 33.2304 49.1425 33.2316C49.1512 30.3583 51.8956 28.019 55.2681 28.019H65.982ZM58.1385 40.2215C57.9309 40.9211 57.6735 41.6084 57.3669 42.2801C57.0758 41.5792 56.7405 40.8919 56.3603 40.2215H58.1385ZM34.0944 63.6726C34.049 63.5658 33.9921 63.4606 33.9233 63.3587L32.2921 60.9498C31.7294 60.1194 30.5601 59.767 29.5105 60.1131L27.6402 60.7292C26.803 60.1679 25.8849 59.7155 24.8991 59.3783L24.59 57.6912C24.4164 56.7435 23.4741 56.0559 22.3491 56.0559H19.7713C18.663 54.3204 17.958 52.3722 17.7601 50.304C18.2289 49.9257 18.5778 49.4382 18.756 48.8793L21.633 39.8234C24.7714 36.5943 29.507 34.5327 34.7985 34.5327C39.6925 34.5327 44.1094 36.297 47.2293 39.1151C47.4037 39.486 47.7219 39.7945 48.1254 39.9905C50.4828 42.4893 51.8981 45.6598 51.8981 49.1083C51.8981 57.1468 44.2277 63.6858 34.7985 63.6858C34.5625 63.6862 34.328 63.6807 34.0944 63.6726ZM28.7458 23.2022V19.8705C31.5791 18.685 34.7332 18.0604 37.9077 18.0604C45.0686 18.0604 51.6486 21.1686 55.4743 26.2612H55.2683C51.3797 26.2612 48.118 28.5848 47.2872 31.6884C43.5333 29.726 39.2507 28.6934 34.7983 28.6934C32.1556 28.6934 29.5557 29.0599 27.0713 29.7828C26.5325 29.9397 26.2447 30.4391 26.4286 30.8986C26.6127 31.3578 27.1981 31.6035 27.7375 31.4465C30.0071 30.7861 32.3826 30.4512 34.7983 30.4512C39.2158 30.4512 43.4496 31.5639 47.0804 33.6679V36.582C43.7525 34.2063 39.4676 32.7751 34.7983 32.7751C30.2172 32.7751 26.0053 34.1534 22.7048 36.4491L23.1188 35.1457C23.5914 33.6571 22.7672 32.1801 21.1146 31.553C19.8943 31.0906 18.5737 31.2233 17.5706 31.845C18.2423 29.3521 19.5446 27.0174 21.422 24.9598H26.6839C27.8208 24.96 28.7458 24.1715 28.7458 23.2022ZM9.84412 23.2022C6.46628 23.2022 3.71836 20.8596 3.71836 17.9799C3.71836 15.1003 6.46628 12.7575 9.84412 12.7575H20.5579C23.9357 12.7575 26.6839 15.1003 26.6839 17.9799L26.6851 23.2022H9.84412ZM4.04888 37.4858C3.47031 36.8286 3.73526 36.1826 4.17569 35.7973C4.61653 35.4121 5.36707 35.1703 6.15307 35.6468L8.31809 36.9581C8.63481 37.1499 9.0509 37.1738 9.39483 37.0197C9.73876 36.8657 9.95176 36.56 9.94598 36.2288C9.94495 36.1698 9.94289 36.1105 9.94083 36.0511C9.93835 35.9855 9.93588 35.9201 9.93588 35.8551C9.93588 32.0677 11.0064 28.3131 13.0323 24.9604H18.8789C16.498 27.9648 15.1612 31.4328 14.9969 35.092C14.9789 35.4879 15.2742 35.8449 15.7171 35.9639C16.1604 36.0829 16.6421 35.9346 16.8938 35.6015L18.3739 33.642C18.896 32.9521 19.6993 32.94 20.2768 33.1597C20.8538 33.3784 21.3806 33.8946 21.129 34.6869L16.7662 48.4198C16.6093 48.912 16.1658 49.263 15.5794 49.3586C14.994 49.4541 14.4331 49.2686 14.0758 48.8626L4.04888 37.4858ZM12.9679 50.4096C13.6127 50.8812 14.4286 51.1402 15.281 51.1402C15.4472 51.1402 15.6148 51.1268 15.7827 51.1069C16.0563 53.0122 16.7149 54.8166 17.693 56.4623C17.2512 56.7549 16.938 57.1853 16.8454 57.6913L16.5363 59.3785C16.5332 59.3795 16.5301 59.3808 16.5268 59.3818C14.4399 56.6936 13.2265 53.6259 12.9679 50.4096ZM29.6951 66.7138C29.8136 67.2199 29.8739 67.7378 29.8739 68.2528C29.8739 68.7678 29.8136 69.2855 29.6951 69.7918C29.62 70.1127 29.76 70.4427 30.059 70.6482L32.0886 72.0432C32.1682 72.098 32.189 72.1924 32.1378 72.2678L30.5069 74.6764C30.4555 74.7521 30.3485 74.7838 30.2537 74.7526L27.8181 73.9506C27.4602 73.8328 27.054 73.8941 26.7653 74.1109C25.8479 74.7998 24.798 75.3171 23.6444 75.6486C23.28 75.7534 23.0145 76.0221 22.9551 76.3459L22.5526 78.543C22.5369 78.6291 22.4513 78.6917 22.3491 78.6917H19.0865C18.9842 78.6917 18.8986 78.6293 18.883 78.543L18.4805 76.3459C18.4211 76.0221 18.1555 75.7534 17.7912 75.6486C16.6375 75.3171 15.5876 74.7998 14.6703 74.1109C14.4787 73.9671 14.2356 73.8915 13.9886 73.8915C13.8638 73.8915 13.7377 73.9108 13.6172 73.9506L11.1817 74.7526C11.0866 74.7839 10.9798 74.7521 10.9289 74.6765L9.29771 72.2678C9.24658 72.1922 9.2674 72.0978 9.34699 72.0432L11.3765 70.6482C11.6753 70.4427 11.8155 70.1127 11.7405 69.7918C11.6219 69.2855 11.5617 68.7678 11.5617 68.2528C11.5617 67.7378 11.6219 67.2199 11.7405 66.7138C11.8155 66.393 11.6755 66.0629 11.3765 65.8574L9.34679 64.4622C9.2672 64.4074 9.24678 64.3128 9.29771 64.2376L10.9287 61.829C10.98 61.7533 11.0866 61.7216 11.1819 61.7528L13.6174 62.5548C13.9766 62.673 14.382 62.6111 14.6703 62.3945C15.5876 61.7056 16.6375 61.1883 17.7912 60.8568C18.1555 60.752 18.4211 60.4833 18.4805 60.1595L18.883 57.9624C18.8986 57.8763 18.9842 57.8137 19.0865 57.8137H22.3491C22.4513 57.8137 22.5369 57.8761 22.5526 57.9624L22.9551 60.1595C23.0145 60.4833 23.28 60.752 23.6444 60.8568C24.798 61.1883 25.8479 61.7056 26.7653 62.3945C27.0536 62.6111 27.4598 62.673 27.8181 62.5548L30.2537 61.7528C30.3487 61.7215 30.4553 61.7533 30.5065 61.8289L32.1374 64.2374C32.1886 64.313 32.1679 64.4076 32.0884 64.4622L30.0588 65.8574C29.76 66.0629 29.6198 66.393 29.6951 66.7138ZM34.7983 67.766C33.8307 67.766 32.8626 67.7102 31.9094 67.6024C31.8906 67.3684 31.8626 67.1348 31.824 66.9026L33.3828 65.8309C33.5581 65.7105 33.7061 65.572 33.8282 65.4217C34.1497 65.4354 34.4728 65.444 34.7985 65.444C45.3638 65.444 53.96 58.1157 53.96 49.1087C53.96 45.8323 52.8204 42.7814 50.8644 40.2215H54.045C55.772 42.9361 56.6838 45.9972 56.6838 49.1087C56.6836 59.3962 46.866 67.766 34.7983 67.766ZM86.6693 58.7209L71.6732 64.966C70.8074 65.3266 70.1129 64.9831 69.7519 64.541C69.3912 64.0994 69.2541 63.4255 69.9506 62.8584L71.9693 61.2149C72.274 60.9668 72.3709 60.5856 72.2142 60.2521C72.0575 59.9188 71.6785 59.7002 71.2573 59.7002H55.2636C56.2201 58.3618 56.9999 56.9223 57.5781 55.4058H71.2573C71.6785 55.4058 72.0575 55.1873 72.2142 54.8539C72.3711 54.5206 72.274 54.1395 71.9693 53.8913L69.9486 52.2458C69.2531 51.6796 69.3908 51.0059 69.7514 50.5643C70.1127 50.1219 70.8069 49.7782 71.6727 50.138L86.6689 56.3834C87.2044 56.6066 87.524 57.0434 87.524 57.5518C87.5242 58.061 87.2046 58.4978 86.6693 58.7209Z" fill="#953223"/>
<path d="M20.7177 73.9898C24.434 73.9898 27.4466 71.4215 27.4466 68.2534C27.4466 65.0853 24.434 62.517 20.7177 62.517C17.0015 62.517 13.9888 65.0853 13.9888 68.2534C13.9888 71.4215 17.0015 73.9898 20.7177 73.9898Z" fill="#953223"/>
<path d="M20.7176 72.3091C23.3455 72.3091 25.4757 70.493 25.4757 68.2527C25.4757 66.0125 23.3455 64.1964 20.7176 64.1964C18.0898 64.1964 15.9595 66.0125 15.9595 68.2527C15.9595 70.493 18.0898 72.3091 20.7176 72.3091Z" fill="white"/>
<path d="M31.0482 55.8812C31.6176 55.8812 32.0791 55.4877 32.0791 55.0023C32.0791 54.5169 31.6176 54.1234 31.0482 54.1234C30.4788 54.1234 30.0172 54.5169 30.0172 55.0023C30.0172 55.4877 30.4788 55.8812 31.0482 55.8812Z" fill="#FF6C6C"/>
<path d="M34.7984 55.8812C35.3677 55.8812 35.8293 55.4877 35.8293 55.0023C35.8293 54.5169 35.3677 54.1234 34.7984 54.1234C34.229 54.1234 33.7674 54.5169 33.7674 55.0023C33.7674 55.4877 34.229 55.8812 34.7984 55.8812Z" fill="#FF6C6C"/>
<path d="M38.5488 55.8812C39.1182 55.8812 39.5798 55.4877 39.5798 55.0023C39.5798 54.5169 39.1182 54.1234 38.5488 54.1234C37.9795 54.1234 37.5179 54.5169 37.5179 55.0023C37.5179 55.4877 37.9795 55.8812 38.5488 55.8812Z" fill="#FF6C6C"/>
<path d="M79.1852 44.3236C79.0904 44.3236 78.9953 44.3126 78.9034 44.2902C76.2004 43.6349 75.9975 40.3287 75.9903 40.1882C75.9695 39.789 76.2674 39.428 76.7153 39.3097L78.8803 38.738C79.0793 38.6855 79.2914 38.6855 79.4904 38.738L81.6554 39.3097C82.1033 39.428 82.401 39.789 82.3804 40.1882C82.3732 40.3287 82.1705 43.6349 79.4673 44.2902C79.3751 44.3126 79.2801 44.3236 79.1852 44.3236V44.3236ZM78.1528 40.7702C78.2963 41.3888 78.6048 42.173 79.1852 42.4899C79.7653 42.1731 80.0739 41.3892 80.2176 40.7702L79.1852 40.4976L78.1528 40.7702Z" fill="#FF6C6C"/>
<path d="M3.19598 58.6938C3.10113 58.6938 3.00628 58.6827 2.91411 58.6604C0.211136 58.0052 0.00824309 54.6988 0.00102636 54.5583C-0.0197991 54.1591 0.278149 53.7981 0.725998 53.6798L2.89102 53.1081C3.08999 53.0556 3.30217 53.0556 3.50114 53.1081L5.66616 53.6798C6.11401 53.7981 6.41175 54.1591 6.39113 54.5583C6.38392 54.6988 6.18123 58.0052 3.47805 58.6604C3.38567 58.6827 3.29083 58.6938 3.19598 58.6938ZM2.16357 55.1403C2.30708 55.7589 2.61555 56.5429 3.19577 56.8598C3.77868 56.5404 4.08425 55.7457 4.22653 55.1398L3.19598 54.8677L2.16357 55.1403Z" fill="#FF6C6C"/>
<path d="M81.35 30.0963C81.2551 30.0963 81.1603 30.0853 81.0681 30.0629C78.3651 29.4078 78.1622 26.1015 78.155 25.9611C78.1342 25.5619 78.4321 25.2008 78.88 25.0825L81.045 24.5107C81.2436 24.4582 81.4566 24.4582 81.6551 24.5107L83.8201 25.0825C84.268 25.2008 84.5657 25.5619 84.5451 25.9611C84.5379 26.1015 84.3352 29.4078 81.632 30.0629C81.5397 30.0851 81.4448 30.0963 81.35 30.0963V30.0963ZM80.3176 26.5431C80.4611 27.1615 80.7695 27.9457 81.3498 28.2624C81.9327 27.943 82.2382 27.1483 82.3805 26.5426L81.35 26.2703L80.3176 26.5431Z" fill="#FF6C6C"/>
<path d="M43.4171 80.8817C43.1534 80.8817 42.8892 80.7959 42.6882 80.6241C42.2855 80.281 42.2855 79.7245 42.6882 79.3814L44.7501 77.6235C45.1524 77.2802 45.8056 77.2802 46.2079 77.6235C46.6106 77.9667 46.6106 78.5232 46.2079 78.8663L44.146 80.6241C43.9449 80.7957 43.681 80.8817 43.4171 80.8817Z" fill="#FF6C6C"/>
<path d="M70.0457 19.3055C69.782 19.3055 69.5178 19.2197 69.3168 19.0479C68.9141 18.7048 68.9141 18.1483 69.3168 17.8052L71.3787 16.0474C71.781 15.7041 72.4342 15.7041 72.8365 16.0474C73.2392 16.3905 73.2392 16.947 72.8365 17.2901L70.7746 19.0479C70.5733 19.2197 70.3094 19.3055 70.0457 19.3055V19.3055Z" fill="#FF6C6C"/>
<defs>
<linearGradient id="paint0_linear_861:972" x1="-33.75" y1="60" x2="99.375" y2="15" gradientUnits="userSpaceOnUse">
<stop stop-color="white" stop-opacity="0"/>
<stop offset="1" stop-color="#FF5858"/>
</linearGradient>
</defs>
</svg>
