<svg width="90" height="90" viewBox="0 0 90 90" fill="none" xmlns="http://www.w3.org/2000/svg">
<path d="M88.8796 52.2582C86.8008 45.2649 82.1757 40.1023 76.6009 37.6691C73.7128 36.4084 71.794 33.2528 71.7516 29.702C71.7508 29.6244 71.7495 29.5467 71.7479 29.4689C71.483 16.4194 61.9942 5.9632 50.6406 6.18729C43.9444 6.31944 38.0217 10.0982 34.3097 15.87C31.1131 20.8405 26.1376 23.9453 20.7604 23.9421C20.6026 23.9421 20.4446 23.9439 20.2858 23.948C9.40198 24.2216 0.147088 34.9558 0.00189241 47.4686C-0.152795 60.7906 9.19561 71.6459 20.7497 71.6459C29.7053 71.6459 37.3345 65.124 40.2414 55.9868C41.002 53.596 43.2564 52.3146 45.3888 53.002C45.4154 53.0105 45.4421 53.0192 45.4688 53.0277C47.4198 53.6468 48.7134 55.7838 48.5538 58.1032C48.3398 61.2115 48.6559 64.4186 49.573 67.5588C53.1802 79.9118 64.899 86.6909 75.6753 82.6487C86.6987 78.5135 92.6169 64.83 88.8796 52.2582Z" fill="url(#paint0_linear_842:1072)"/>
<path opacity="0.1" d="M80.1563 34.4391V15.6518C80.1563 13.9787 78.9751 12.6209 77.5196 12.6209H52.0083L46.5109 1.99778C45.8294 0.680956 44.1709 0.680956 43.4894 1.99778L37.992 12.6209H12.4805C11.025 12.6209 9.84375 13.9787 9.84375 15.6518V34.4391H80.1563Z" fill="#953223"/>
<path d="M54.9686 88.9911H35.0313L39.0184 70.8251H50.9815L54.9686 88.9911Z" fill="#FF6C6C"/>
<path d="M80.1563 19.8958V71.2696C80.1563 72.9427 78.9751 74.3005 77.5196 74.3005H12.4805C11.025 74.3005 9.84375 72.9427 9.84375 71.2696V19.8958C9.84375 18.2228 11.025 16.8649 12.4805 16.8649H77.5196C78.9751 16.8649 80.1563 18.2228 80.1563 19.8958Z" fill="white"/>
<path d="M24.3605 51.9058H65.6394C67.0027 51.9058 67.8472 50.199 67.15 48.8523L46.5108 8.96906C45.8293 7.65224 44.1708 7.65224 43.4893 8.96906L22.8498 48.8523C22.1528 50.1992 22.9971 51.9058 24.3605 51.9058Z" fill="#FFB3B3"/>
<path d="M80.1563 35.0453V19.8958C80.1563 18.2228 78.9751 16.8649 77.5196 16.8649H12.4805C11.025 16.8649 9.84375 18.2228 9.84375 19.8958V35.0453H80.1563Z" fill="#FFC4DF"/>
<path d="M80.1563 26.5984V19.8958C80.1563 18.222 78.9758 16.8649 77.5196 16.8649H12.4805C11.0243 16.8649 9.84375 18.222 9.84375 19.8958V26.5984H80.1563Z" fill="#F18989"/>
<path d="M9.84375 64.1183V71.2692C9.84375 72.9431 11.0243 74.3001 12.4805 74.3001H77.5196C78.9758 74.3001 80.1563 72.9431 80.1563 71.2692V64.1183H9.84375Z" fill="#FEB6B6"/>
<path d="M16.5379 22.7566C16.0523 22.7566 15.659 22.3042 15.659 21.7463V21.717C15.659 21.1591 16.0523 20.7067 16.5379 20.7067C17.0234 20.7067 17.4168 21.1591 17.4168 21.717V21.7463C17.4168 22.3042 17.0234 22.7566 16.5379 22.7566Z" fill="#FFB3B3"/>
<path d="M19.9346 22.7566C19.4491 22.7566 19.0557 22.3042 19.0557 21.7463V21.717C19.0557 21.1591 19.4491 20.7067 19.9346 20.7067C20.4201 20.7067 20.8135 21.1591 20.8135 21.717V21.7463C20.8135 22.3042 20.4201 22.7566 19.9346 22.7566Z" fill="#FFB3B3"/>
<path d="M23.3316 22.7566C22.8461 22.7566 22.4527 22.3042 22.4527 21.7463V21.717C22.4527 21.1591 22.8461 20.7067 23.3316 20.7067C23.8171 20.7067 24.2105 21.1591 24.2105 21.717V21.7463C24.2105 22.3042 23.8171 22.7566 23.3316 22.7566Z" fill="#FFB3B3"/>
<path d="M24.3605 49.178H65.6394C67.0027 49.178 67.8472 47.4712 67.15 46.1245L46.5108 6.24125C45.8293 4.92443 44.1708 4.92443 43.4893 6.24125L22.8498 46.1245C22.1528 47.4714 22.9971 49.178 24.3605 49.178Z" fill="#FF6C6C"/>
<path d="M77.5196 15.8546H56.8396C56.3541 15.8546 55.9607 16.307 55.9607 16.8649C55.9607 17.4228 56.3541 17.8752 56.8396 17.8752H77.5196C78.4889 17.8752 79.2774 18.7817 79.2774 19.8958V25.5881H57.5454L47.266 5.72455C46.786 4.7971 45.9387 4.24325 44.9997 4.24325C44.0608 4.24325 43.2137 4.79709 42.7339 5.72475L37.4915 15.8546H12.4805C10.542 15.8546 8.96484 17.6675 8.96484 19.8958V71.269C8.96484 73.4973 10.542 75.3102 12.4805 75.3102H37.1277L35.4208 83.0869C35.302 83.628 35.5873 84.1772 36.058 84.3136C36.1301 84.3346 36.2023 84.3445 36.2737 84.3445C36.6668 84.3445 37.0247 84.0392 37.1252 83.5811L38.9405 75.31H51.0597L53.8404 87.9794H31.6522C31.1667 87.9794 30.7733 88.4318 30.7733 88.9897C30.7733 89.5476 31.1667 90 31.6522 90H58.3476C58.8331 90 59.2266 89.5476 59.2266 88.9897C59.2266 88.4318 58.8331 87.9794 58.3476 87.9794H55.6529L52.8722 75.31H77.5196C79.4581 75.31 81.0352 73.4971 81.0352 71.2688V19.8958C81.0352 17.6675 79.4581 15.8546 77.5196 15.8546ZM79.2774 27.6087V63.1078H10.7227V27.6087H31.4091L22.0947 45.6078C21.6035 46.5567 21.5937 47.6959 22.0686 48.6557C22.5436 49.6154 23.4002 50.1883 24.3607 50.1883H65.6398C66.6002 50.1883 67.457 49.6154 67.9318 48.6557C68.4066 47.6959 68.3969 46.5567 67.9058 45.608L58.5913 27.6089L79.2774 27.6087ZM44.2447 6.75768C44.4755 6.31194 44.8496 6.26405 45 6.26385C45.1501 6.26385 45.5247 6.31194 45.7555 6.75768L66.3949 46.6409C66.6308 47.0968 66.4795 47.5033 66.4037 47.6567C66.3276 47.8102 66.101 48.1675 65.6396 48.1675H24.3605C23.8991 48.1675 23.6725 47.8102 23.5964 47.6567C23.5204 47.5031 23.3693 47.0968 23.6051 46.6407L44.2447 6.75768ZM12.4805 17.8752H36.4462L32.4547 25.5881H10.7227V19.8958C10.7227 18.7817 11.5112 17.8752 12.4805 17.8752ZM77.5196 73.2896H12.4805C11.5112 73.2896 10.7227 72.3832 10.7227 71.269V65.1284H79.2774V71.269C79.2774 72.3832 78.4889 73.2896 77.5196 73.2896Z" fill="#953223"/>
<path d="M45 35.6791C44.0293 35.6791 43.2422 34.7745 43.2422 33.6585V20.3731C43.2422 19.2571 44.0293 18.3525 45 18.3525C45.9707 18.3525 46.7578 19.2571 46.7578 20.3731V33.6585C46.7578 34.7745 45.9707 35.6791 45 35.6791Z" fill="white"/>
<path d="M45 41.9547C44.0293 41.9547 43.2422 41.0501 43.2422 39.9341V39.9109C43.2422 38.7949 44.0293 37.8903 45 37.8903C45.9707 37.8903 46.7578 38.7949 46.7578 39.9109V39.9341C46.7578 41.0501 45.9707 41.9547 45 41.9547Z" fill="white"/>
<path d="M21.6395 58.5223C21.4146 58.5223 21.1895 58.4237 21.0181 58.2265C20.6067 57.7538 19.9377 57.7534 19.5266 58.2265C19.1836 58.6209 18.6267 58.6209 18.2838 58.2265C18.1121 58.029 18.0263 57.7706 18.0263 57.512C18.0263 57.2533 18.1121 56.9949 18.2838 56.7975C18.483 56.5685 18.5926 56.264 18.5926 55.9401C18.5926 55.6162 18.483 55.3119 18.2838 55.083C18.1121 54.8858 18.0263 54.6272 18.0263 54.3687C18.0263 54.1101 18.1121 53.8514 18.2836 53.6542C18.6269 53.2596 19.1833 53.2594 19.5266 53.6542C19.7259 53.8832 19.9908 54.0093 20.2724 54.0093C20.554 54.0093 20.8187 53.8832 21.0179 53.6542C21.3612 53.2596 21.9175 53.2594 22.2608 53.6542C22.4326 53.8514 22.5184 54.1101 22.5184 54.3685C22.5184 54.6272 22.4326 54.8858 22.261 55.083C21.8497 55.5558 21.8497 56.3249 22.2608 56.7975C22.4326 56.9949 22.5184 57.2533 22.5184 57.512C22.5184 57.7706 22.4326 58.029 22.2608 58.2265C22.0895 58.4237 21.8645 58.5223 21.6395 58.5223Z" fill="#953223"/>
<path d="M28.7879 58.5223C28.563 58.5223 28.3379 58.4237 28.1665 58.2265C27.7551 57.7536 27.0861 57.7536 26.6748 58.2265C26.3318 58.6209 25.775 58.6209 25.432 58.2265C25.2603 58.029 25.1745 57.7706 25.1745 57.512C25.1745 57.2533 25.2603 56.9949 25.432 56.7975C25.6312 56.5685 25.7409 56.264 25.7409 55.9401C25.7409 55.6162 25.6312 55.3119 25.432 55.083C25.2603 54.8858 25.1745 54.6272 25.1745 54.3687C25.1745 54.1101 25.2603 53.8514 25.4318 53.6542C25.7751 53.2596 26.3315 53.2594 26.6748 53.6542C27.0861 54.1269 27.7551 54.1269 28.1665 53.6542C28.5094 53.2598 29.0661 53.2596 29.4094 53.6542C29.581 53.8514 29.6668 54.1101 29.6668 54.3687C29.6668 54.6272 29.581 54.8858 29.4092 55.083C29.2101 55.3119 29.1004 55.6164 29.1004 55.9401C29.1004 56.2638 29.2101 56.5683 29.4092 56.7975C29.581 56.9949 29.6668 57.2533 29.6668 57.512C29.6668 57.7706 29.581 58.029 29.4092 58.2265C29.2379 58.4237 29.0129 58.5223 28.7879 58.5223Z" fill="#953223"/>
<path d="M35.9364 58.5223C35.7115 58.5223 35.4864 58.4237 35.315 58.2265C34.9036 57.7536 34.2346 57.7536 33.8233 58.2265C33.4803 58.6209 32.9235 58.6209 32.5805 58.2265C32.4088 58.029 32.323 57.7706 32.323 57.512C32.323 57.2533 32.4088 56.9949 32.5805 56.7975C32.7797 56.5685 32.8894 56.264 32.8894 55.9401C32.8894 55.6162 32.7797 55.3119 32.5805 55.083C32.4088 54.8858 32.323 54.6272 32.323 54.3687C32.323 54.1101 32.4088 53.8514 32.5803 53.6542C32.9236 53.2596 33.48 53.2594 33.8233 53.6542C34.2346 54.1269 34.9036 54.1269 35.315 53.6542C35.6579 53.2598 36.2146 53.2596 36.5579 53.6542C36.7295 53.8514 36.8153 54.1101 36.8153 54.3687C36.8153 54.6272 36.7295 54.8858 36.5577 55.083C36.3586 55.3119 36.2489 55.6164 36.2489 55.9401C36.2489 56.2638 36.3586 56.5683 36.5577 56.7975C36.7295 56.9949 36.8153 57.2533 36.8153 57.512C36.8153 57.7706 36.7295 58.029 36.5577 58.2265C36.3864 58.4237 36.1614 58.5223 35.9364 58.5223Z" fill="#953223"/>
<path d="M70.2147 55.0414H42.5899C42.1037 55.0414 41.7096 54.5884 41.7096 54.0295C41.7096 53.4706 42.1037 53.0175 42.5899 53.0175H70.2147C70.7009 53.0175 71.095 53.4706 71.095 54.0295C71.095 54.5884 70.701 55.0414 70.2147 55.0414Z" fill="#FEB6B6"/>
<path d="M70.2147 58.8632H42.5899C42.1037 58.8632 41.7096 58.4101 41.7096 57.8512C41.7096 57.2923 42.1037 56.8393 42.5899 56.8393H70.2147C70.7009 56.8393 71.095 57.2923 71.095 57.8512C71.095 58.4099 70.701 58.8632 70.2147 58.8632Z" fill="#FEB6B6"/>
<path d="M25.2685 85.371C25.0354 85.371 24.8118 85.2645 24.6471 85.0752L22.7103 82.8489C22.367 82.4543 22.367 81.8145 22.7103 81.4201L24.6471 79.1938C24.812 79.0043 25.0354 78.898 25.2685 78.898C25.5016 78.898 25.7252 79.0045 25.8899 79.1938L27.8268 81.4201C27.9917 81.6096 28.0843 81.8665 28.0843 82.1346C28.0843 82.4027 27.9919 82.6596 27.8268 82.8491L25.8899 85.0754C25.7252 85.2645 25.5016 85.371 25.2685 85.371ZM24.5748 82.1344L25.2685 82.9319L25.9623 82.1344L25.2685 81.3369L24.5748 82.1344Z" fill="#953223"/>
<path d="M56.4021 10.2501C56.169 10.2501 55.9454 10.1436 55.7807 9.95428L53.8438 7.72798C53.6789 7.53845 53.5863 7.28163 53.5863 7.0135C53.5863 6.74537 53.6787 6.48855 53.8438 6.29902L55.7807 4.07272C55.9456 3.88318 56.169 3.7769 56.4021 3.7769C56.6352 3.7769 56.8588 3.88339 57.0235 4.07272L58.9603 6.29902C59.3036 6.69364 59.3036 7.33336 58.9603 7.72778L57.0235 9.95408C56.8588 10.1436 56.6352 10.2501 56.4021 10.2501ZM55.7083 7.0135L56.4021 7.81103L57.0958 7.0135L56.4021 6.21597L55.7083 7.0135Z" fill="#FF6C6C"/>
<path d="M64.157 6.4732C63.6715 6.4732 63.2781 6.02079 63.2781 5.4629C63.2781 4.79246 62.8035 4.2469 62.2201 4.2469C61.7346 4.2469 61.3412 3.79449 61.3412 3.2366C61.3412 2.67871 61.7346 2.2263 62.2201 2.2263C62.8033 2.2263 63.2781 1.68074 63.2781 1.0103C63.2781 0.452413 63.6715 0 64.157 0C64.6425 0 65.0359 0.452413 65.0359 1.0103C65.0359 1.68074 65.5103 2.2263 66.0938 2.2263C66.5793 2.2263 66.9727 2.67871 66.9727 3.2366C66.9727 3.79449 66.5793 4.2469 66.0938 4.2469C65.5105 4.2469 65.0359 4.79246 65.0359 5.4629C65.0359 6.02099 64.6425 6.4732 64.157 6.4732Z" fill="#953223"/>
<path d="M28.7878 10.2501C28.3023 10.2501 27.9089 9.79769 27.9089 9.2398C27.9089 8.56936 27.4345 8.0238 26.851 8.0238C26.3655 8.0238 25.9721 7.57139 25.9721 7.0135C25.9721 6.45561 26.3655 6.0032 26.851 6.0032C27.4343 6.0032 27.9089 5.45764 27.9089 4.7872C27.9089 4.22931 28.3023 3.7769 28.7878 3.7769C29.2733 3.7769 29.6667 4.22931 29.6667 4.7872C29.6667 5.45764 30.1413 6.0032 30.7247 6.0032C31.2102 6.0032 31.6036 6.45561 31.6036 7.0135C31.6036 7.57139 31.2102 8.0238 30.7247 8.0238C30.1415 8.0238 29.6667 8.56936 29.6667 9.2398C29.6667 9.79769 29.2733 10.2501 28.7878 10.2501Z" fill="#953223"/>
<defs>
<linearGradient id="paint0_linear_842:1072" x1="0.194021" y1="27.2745" x2="94.4135" y2="50.5488" gradientUnits="userSpaceOnUse">
<stop offset="0.0485" stop-color="#FF8E8E"/>
<stop offset="0.9993" stop-color="#FEB6B6" stop-opacity="0.15"/>
</linearGradient>
</defs>
</svg>
