<svg width="90" height="90" viewBox="0 0 90 90" fill="none" xmlns="http://www.w3.org/2000/svg">
<path d="M82.3826 30.2147C80.5709 28.7459 78.4742 27.5915 76.1561 26.7404C70.0805 24.5097 65.3039 20.5165 62.6189 15.5668C57.65 6.40635 46.3626 0.00809344 33.2294 7.50068e-06C16.0329 -0.0105394 1.75479 11.1029 1.10757 25.0344C0.83069 30.9973 3.02798 36.5342 6.93363 41.0251C11.8939 46.7288 13.1827 53.9945 10.6242 60.6581C6.98935 70.1251 8.25669 79.0972 15.1716 84.7033C27.2895 94.5274 52.1587 90.2939 70.7186 75.2472C89.2783 60.2005 94.5005 40.0389 82.3826 30.2147Z" fill="url(#paint0_linear_845:2014)"/>
<g opacity="0.1">
<path opacity="0.1" d="M35.1171 57.1889H14.3941C12.2844 57.1889 10.5743 58.5755 10.5743 60.2856V83.6037C10.5743 85.3141 12.2846 86.7005 14.3941 86.7005H35.1171C37.2267 86.7005 38.9368 85.3139 38.9368 83.6037V60.2856C38.937 58.5755 37.2267 57.1889 35.1171 57.1889Z" fill="#0000CC"/>
<path opacity="0.1" d="M77.2575 43.5873H57.8928V17.5017C57.8928 12.2386 52.5617 7.96609 46.0475 8.04678C39.6475 8.12606 34.5647 12.4563 34.5647 17.6453V36.2243C34.5647 36.7097 35.0502 37.1032 35.6488 37.1032H39.4535C40.0521 37.1032 40.5376 36.7097 40.5376 36.2243V17.5017C40.5376 14.9112 43.1843 12.8126 46.4009 12.8899C49.4963 12.9643 51.92 15.0891 51.92 17.5998V43.5873H50.0518C48.8543 43.5873 47.8836 44.3743 47.8836 45.3451V84.9428C47.8836 85.9136 48.8543 86.7006 50.0518 86.7006H77.2575C78.4551 86.7006 79.4258 85.9136 79.4258 84.9428V45.3451C79.4258 44.3743 78.4548 43.5873 77.2575 43.5873Z" fill="#0000CC"/>
</g>
<path d="M35.1171 81.9545H14.3941C12.2844 81.9545 10.5743 80.568 10.5743 78.8578V55.5395C10.5743 53.8292 12.2846 52.4428 14.3941 52.4428H35.1171C37.2267 52.4428 38.9368 53.8294 38.9368 55.5395V78.8576C38.937 80.568 37.2267 81.9545 35.1171 81.9545Z" fill="white"/>
<path d="M28.8302 52.4428V53.3662C28.8302 55.1904 27.0061 56.6695 24.7556 56.6695C22.5054 56.6695 20.6811 55.1906 20.6811 53.3662V52.4428H28.8302Z" fill="#FF6363"/>
<path d="M28.2925 67.2532H21.2189C20.6202 67.2532 20.1347 66.8597 20.1347 66.3743V60.6395C20.1347 60.1541 20.6202 59.7606 21.2189 59.7606H28.2927C28.8914 59.7606 29.3768 60.1541 29.3768 60.6395V66.3743C29.3766 66.8597 28.8914 67.2532 28.2925 67.2532Z" fill="#FF6363"/>
<path d="M28.2925 76.7454H21.2189C20.6202 76.7454 20.1347 76.3518 20.1347 75.8664V70.1316C20.1347 69.6463 20.6202 69.2527 21.2189 69.2527H28.2927C28.8914 69.2527 29.3768 69.6463 29.3768 70.1316V75.8664C29.3766 76.3518 28.8914 76.7454 28.2925 76.7454Z" fill="#FF6C6C"/>
<path d="M51.92 41.322V12.8537C51.92 10.343 49.4964 8.21816 46.401 8.14381C43.1846 8.06646 40.5377 10.1651 40.5377 12.7556V31.4782C40.5377 31.9636 40.0522 32.3571 39.4535 32.3571H35.6489C35.0503 32.3571 34.5648 31.9636 34.5648 31.4782V12.8992C34.5648 7.70998 39.6476 3.37979 46.0476 3.30068C52.5618 3.22 57.8929 7.49254 57.8929 12.7556V41.322H51.92Z" fill="#FF6363"/>
<path d="M77.2576 81.9545H50.0519C48.8544 81.9545 47.8837 81.1675 47.8837 80.1967V40.599C47.8837 39.6282 48.8544 38.8412 50.0519 38.8412H77.2576C78.4552 38.8412 79.4259 39.6282 79.4259 40.599V80.1967C79.4259 81.1674 78.4552 81.9545 77.2576 81.9545Z" fill="#FEB6B6"/>
<path d="M35.1172 51.5639H14.3943C11.6903 51.5639 9.49036 53.3474 9.49036 55.5397V78.8578C9.49036 81.05 11.6903 82.8335 14.3943 82.8335H35.1172C37.8212 82.8335 40.0211 81.05 40.0211 78.8578V71.2794C40.0211 70.794 39.5358 70.4004 38.937 70.4004C38.3381 70.4004 37.8529 70.794 37.8529 71.2794V78.8576C37.8529 80.0805 36.6256 81.0755 35.1172 81.0755H14.3943C12.8858 81.0755 11.6586 80.0805 11.6586 78.8576V55.5395C11.6586 54.3165 12.8858 53.3215 14.3943 53.3215H35.1172C36.6256 53.3215 37.8529 54.3165 37.8529 55.5395V65.3028C37.8529 65.7881 38.3381 66.1817 38.937 66.1817C39.5358 66.1817 40.0211 65.7881 40.0211 65.3028V55.5395C40.0211 53.3474 37.8212 51.5639 35.1172 51.5639Z" fill="#A53629"/>
<path d="M29.4222 45.7127C29.7886 45.7127 30.1461 45.5621 30.3502 45.2895C30.6607 44.8744 30.4974 44.3339 29.9852 44.0822C28.4098 43.3073 26.6015 42.8979 24.7555 42.8979C22.9094 42.8979 21.1011 43.3075 19.5257 44.0822C19.014 44.3339 18.8507 44.8744 19.1612 45.2895C19.4717 45.7045 20.1382 45.8372 20.6503 45.5851C21.8864 44.9771 23.306 44.6558 24.7555 44.6558C26.2049 44.6558 27.6242 44.9771 28.861 45.5851C29.0369 45.6714 29.2307 45.7127 29.4222 45.7127Z" fill="#A53629"/>
<path d="M24.7556 46.0194C23.8567 46.0194 22.9755 46.2189 22.2077 46.5965C21.6958 46.8482 21.5325 47.3887 21.8428 47.8038C22.1531 48.2188 22.82 48.3511 23.332 48.0996C24.1897 47.6779 25.322 47.6781 26.1789 48.0996C26.3547 48.1861 26.5485 48.2272 26.7402 48.2272C27.1064 48.2272 27.4642 48.0766 27.668 47.8041C27.9787 47.3891 27.8154 46.8486 27.3035 46.5967C26.5362 46.2191 25.6548 46.0194 24.7556 46.0194Z" fill="#A53629"/>
<path d="M17.6081 43.0674C17.7996 43.0674 17.9934 43.0262 18.1693 42.9398C20.1532 41.9643 22.4307 41.4486 24.7557 41.4486C27.081 41.4486 29.3585 41.9643 31.3422 42.9398C31.8541 43.1918 32.5211 43.0593 32.8313 42.6441C33.1418 42.2291 32.9786 41.6885 32.4664 41.4368C30.1438 40.2944 27.4773 39.6908 24.7555 39.6908C22.0339 39.6908 19.3674 40.2946 17.0446 41.4368C16.5327 41.6885 16.3694 42.2291 16.6797 42.6441C16.8839 42.9167 17.2417 43.0675 17.6081 43.0674Z" fill="#A53629"/>
<path d="M77.2573 37.9623H53.0041V12.8537C53.0041 9.85929 50.0561 7.3523 46.433 7.26529C44.5885 7.22257 42.8387 7.77136 41.512 8.8155C40.1846 9.86017 39.4537 11.2594 39.4537 12.7556V31.4783H35.6491V12.8993C35.6491 8.1623 40.3212 4.25047 46.064 4.17945C48.9226 4.14447 51.6106 5.02039 53.648 6.64707C55.6862 8.27427 56.8087 10.4438 56.8087 12.7556V32.8645C56.8087 33.3498 57.2939 33.7434 57.8928 33.7434C58.4917 33.7434 58.9769 33.3498 58.9769 32.8645V12.7556C58.9769 9.96916 57.6248 7.35494 55.1695 5.39463C52.7153 3.43519 49.4761 2.38068 46.031 2.42181C39.1109 2.50742 33.4808 7.20763 33.4808 12.8993V31.4783C33.4808 32.4475 34.4535 33.2361 35.6491 33.2361H39.4537C40.6492 33.2361 41.6219 32.4475 41.6219 31.4783V12.7556C41.6219 11.7389 42.1193 10.7874 43.0224 10.0767C43.9248 9.3664 45.1199 8.99076 46.3688 9.02222C48.832 9.08128 50.8361 10.8001 50.8361 12.8535V37.9621H50.052C48.2587 37.9621 46.7997 39.145 46.7997 40.5989V80.1966C46.7997 81.6505 48.2587 82.8333 50.052 82.8333H77.2578C79.0511 82.8333 80.5101 81.6505 80.5101 80.1966V40.599C80.5097 39.1451 79.0509 37.9623 77.2573 37.9623ZM78.3414 80.1966C78.3414 80.6812 77.8551 81.0755 77.2573 81.0755H50.0518C49.454 81.0755 48.9677 80.6812 48.9677 80.1966V40.599C48.9677 40.1144 49.454 39.7201 50.0518 39.7201H77.2575C77.8553 39.7201 78.3417 40.1144 78.3417 40.599V80.1966H78.3414Z" fill="#A53629"/>
<path d="M62.9159 46.8768V73.6501C62.9159 74.1352 62.4302 74.529 61.8318 74.529H56.0513C55.4528 74.529 54.9671 74.1352 54.9671 73.6501V46.8768C54.9671 46.3917 55.4528 45.9979 56.0513 45.9979H61.8318C62.4302 45.9979 62.9159 46.3917 62.9159 46.8768Z" fill="#FFA7A7"/>
<path d="M62.9159 50.0286V53.6479L54.9671 60.092V56.4727L62.9159 50.0286Z" fill="white"/>
<path d="M62.9159 56.7293V64.9453L54.9671 71.3895V63.1735L62.9159 56.7293Z" fill="white"/>
<path d="M69.7394 74.1166C70.6735 74.1166 71.4308 73.5026 71.4308 72.7453C71.4308 71.988 70.6735 71.374 69.7394 71.374C68.8052 71.374 68.0479 71.988 68.0479 72.7453C68.0479 73.5026 68.8052 74.1166 69.7394 74.1166Z" fill="#FF6C6C"/>
<path d="M69.7394 69.6492C70.6735 69.6492 71.4308 69.0353 71.4308 68.278C71.4308 67.5206 70.6735 66.9067 69.7394 66.9067C68.8052 66.9067 68.0479 67.5206 68.0479 68.278C68.0479 69.0353 68.8052 69.6492 69.7394 69.6492Z" fill="#FF6C6C"/>
<g opacity="0.1">
<g opacity="0.1">
<path opacity="0.1" d="M29.4221 50.489C29.2306 50.489 29.0368 50.4479 28.8609 50.3614C27.6244 49.7533 26.2048 49.432 24.7554 49.432C23.3059 49.432 21.8866 49.7533 20.6502 50.3614C20.1383 50.6133 19.4716 50.4809 19.1611 50.0657C18.8504 49.6507 19.0136 49.1102 19.5256 48.8584C21.101 48.0836 22.9093 47.6742 24.7554 47.6742C26.6014 47.6742 28.4097 48.0838 29.9851 48.8584C30.4971 49.1102 30.6603 49.6507 30.3501 50.0657C30.146 50.3383 29.7887 50.489 29.4221 50.489Z" fill="#A53629"/>
</g>
<g opacity="0.1">
<path opacity="0.1" d="M26.7401 53.0031C26.5485 53.0031 26.3546 52.962 26.1788 52.8755C25.3219 52.4541 24.1896 52.4538 23.3319 52.8755C22.8198 53.1272 22.153 52.9948 21.8427 52.5796C21.5323 52.1646 21.6955 51.6241 22.2077 51.3724C22.9754 50.9948 23.8564 50.7953 24.7556 50.7953C25.6547 50.7953 26.5361 50.9948 27.3037 51.3724C27.8154 51.6243 27.9786 52.1648 27.6682 52.5798C27.4641 52.8523 27.1066 53.0031 26.7401 53.0031Z" fill="#A53629"/>
</g>
<g opacity="0.1">
<path opacity="0.1" d="M17.6081 47.8433C17.2417 47.8433 16.8839 47.6926 16.6801 47.42C16.3696 47.005 16.5329 46.4644 17.045 46.2127C19.3678 45.0703 22.0343 44.4667 24.7559 44.4667C27.4777 44.4667 30.1442 45.0705 32.4668 46.2127C32.9787 46.4644 33.142 47.005 32.8317 47.42C32.5212 47.835 31.8545 47.9674 31.3426 47.7156C29.3589 46.7402 27.0813 46.2245 24.7561 46.2245C22.4311 46.2245 20.1536 46.7402 18.1697 47.7156C17.9934 47.8021 17.7996 47.8433 17.6081 47.8433Z" fill="#A53629"/>
</g>
</g>
<path d="M21.6855 29.1166C20.1298 29.1166 18.8642 28.0906 18.8642 26.8293C18.8642 25.5681 20.1298 24.5421 21.6855 24.5421C23.2412 24.5421 24.5068 25.5681 24.5068 26.8293C24.5068 28.0906 23.241 29.1166 21.6855 29.1166ZM21.6855 26.2999C21.3254 26.2999 21.0324 26.5373 21.0324 26.8293C21.0324 27.1213 21.3254 27.3588 21.6855 27.3588C22.0457 27.3588 22.3386 27.1213 22.3386 26.8293C22.3384 26.5373 22.0457 26.2999 21.6855 26.2999Z" fill="#FF4D4D"/>
<path d="M2.82131 50.6508C1.2656 50.6508 0 49.6247 0 48.3635C0 47.1023 1.2656 46.0762 2.82131 46.0762C4.37702 46.0762 5.64262 47.1023 5.64262 48.3635C5.64262 49.6247 4.37702 50.6508 2.82131 50.6508ZM2.82131 47.8342C2.46117 47.8342 2.16824 48.0717 2.16824 48.3637C2.16824 48.6556 2.46117 48.8931 2.82131 48.8931C3.18145 48.8931 3.47438 48.6556 3.47438 48.3637C3.47438 48.0717 3.18145 47.8342 2.82131 47.8342Z" fill="#FF6C6C"/>
<path d="M69.7397 34.3928C68.184 34.3928 66.9184 33.3668 66.9184 32.1056C66.9184 30.8443 68.184 29.8183 69.7397 29.8183C71.2954 29.8183 72.561 30.8443 72.561 32.1056C72.561 33.3668 71.2952 34.3928 69.7397 34.3928ZM69.7397 31.5761C69.3796 31.5761 69.0866 31.8136 69.0866 32.1056C69.0866 32.3975 69.3796 32.635 69.7397 32.635C70.0998 32.635 70.3928 32.3975 70.3928 32.1056C70.3928 31.8136 70.0998 31.5761 69.7397 31.5761Z" fill="#FF6C6C"/>
<path d="M73.816 19.04C73.5386 19.04 73.2609 18.9543 73.0495 18.7827L70.6644 16.8491C70.241 16.5058 70.241 15.9493 70.6644 15.6062L73.0495 13.6726C73.4725 13.3294 74.1594 13.3294 74.5824 13.6726L76.9675 15.6062C77.391 15.9495 77.391 16.506 76.9675 16.8491L74.5824 18.7827C74.371 18.9543 74.0935 19.04 73.816 19.04ZM72.9643 16.2275L73.8162 16.9182L74.6681 16.2275L73.8162 15.5369L72.9643 16.2275Z" fill="#FF6C6C"/>
<path d="M86.5308 70.0111C86.2535 70.0111 85.9757 69.9253 85.7643 69.7538L83.3793 67.8202C82.9558 67.4769 82.9558 66.9204 83.3793 66.5772L85.7643 64.6436C86.1874 64.3005 86.8743 64.3005 87.2973 64.6436L89.6823 66.5772C90.1058 66.9205 90.1058 67.4771 89.6823 67.8202L87.2973 69.7538C87.0859 69.9253 86.8081 70.0111 86.5308 70.0111ZM85.6789 67.1986L86.5308 67.8893L87.3827 67.1986L86.5308 66.508L85.6789 67.1986Z" fill="#FF4D4D"/>
<defs>
<linearGradient id="paint0_linear_845:2014" x1="101.11" y1="-7.5969" x2="-8.4751" y2="127.575" gradientUnits="userSpaceOnUse">
<stop offset="0.0023" stop-color="#FF9494"/>
<stop offset="0.992" stop-color="#FFE8DC" stop-opacity="0"/>
</linearGradient>
</defs>
</svg>
