<svg width="90" height="91" viewBox="0 0 90 91" fill="none" xmlns="http://www.w3.org/2000/svg">
<path d="M89.979 47.1349C90.2272 41.7744 88.263 36.625 84.6257 32.0815C82.0948 28.9201 80.031 25.3458 78.5086 21.4754C73.6403 9.09869 64.7554 0.626153 54.2517 0.0330852C46.7874 -0.388454 39.7693 3.24125 34.1842 9.59871C30.4873 13.8069 25.9207 16.9368 20.8988 18.8409C8.73474 23.453 0.489658 31.935 0.0209834 42.0556C-0.447691 52.1763 6.97088 61.5428 18.6453 67.5008C23.4651 69.9605 27.7187 73.5885 31.0077 78.191C35.9764 85.1443 42.6227 89.5456 50.0868 89.9669C60.5905 90.56 70.2118 83.1324 76.198 71.3685C78.0699 67.6899 80.4532 64.3667 83.2629 61.5068C87.301 57.3967 89.7308 52.4954 89.979 47.1349Z" fill="url(#paint0_linear_845:1978)"/>
<path d="M50.7047 1.50104L32.7053 32.6775L46.9938 40.9272L45.8959 36.8293L49.9937 35.7314L47.5968 30.882L51.6947 29.7841L49.2978 24.9362L53.3956 23.8383L50.9987 18.9904L55.0966 17.8925L53.9986 13.7946L58.0965 12.6967L58.4985 6.00089L50.7047 1.50104Z" fill="#F5F5F5"/>
<path d="M49.2978 24.9362L49.7583 24.8132C48.5524 23.6554 47.7689 22.1271 47.5327 20.4721C47.2965 18.8171 47.6211 17.1306 48.4549 15.6816L55.1581 4.07195L50.6988 1.50104L32.6994 32.6775L46.9879 40.9272L45.899 36.8293L49.9968 35.7299L47.5969 30.882L51.6948 29.7841L49.2978 24.9362Z" fill="#FF6C6C"/>
<path d="M7.90217 67.607L13.902 77.9986C14.7304 79.4334 16.565 79.925 17.9998 79.0966L28.3915 73.0968C29.8263 72.2684 30.3178 70.4337 29.4894 68.9989L23.4896 58.6073C22.6612 57.1725 20.8266 56.6809 19.3918 57.5093L9.00013 63.5091C7.56535 64.3375 7.07377 66.1722 7.90217 67.607Z" fill="#FF4D4D"/>
<path d="M16.6031 59.1184C17.3595 61.1144 17.3818 63.3143 16.6661 65.3252C15.9503 67.3361 14.5431 69.0272 12.6957 70.0965L10.1788 71.5485L13.9017 77.9982C14.2995 78.6872 14.9548 79.19 15.7232 79.3959C16.4917 79.6018 17.3106 79.494 17.9996 79.0962L28.3927 73.0964C29.0817 72.6986 29.5845 72.0434 29.7904 71.2749C29.9963 70.5064 29.8885 69.6876 29.4907 68.9985L23.4909 58.6054C23.0931 57.9164 22.4378 57.4137 21.6693 57.2077C20.9008 57.0018 20.082 57.1096 19.393 57.5074L16.6031 59.1184Z" fill="#FF6C6C"/>
<path d="M7.49915 37.4986L33.4783 52.4981L27.4785 62.8897L1.49935 47.8902L7.49915 37.4986Z" fill="#FF6C6C"/>
<path d="M17.4714 43.2573C16.4254 44.8539 14.8085 45.9903 12.9519 46.4337C11.0952 46.8771 9.13937 46.5939 7.48474 45.6422L3.97036 43.6128L1.49994 47.8921L27.4791 62.8916L33.4789 52.5L17.4714 43.2573Z" fill="#FF4D4D"/>
<path d="M9.98175 14.0959L21.6469 2.43084L32.2515 13.0355L20.5864 24.7006L9.98175 14.0959Z" fill="#F5F5F5"/>
<path d="M1.49689 22.5774L5.73874 18.3355L16.3434 28.9402L12.1015 33.182L1.49689 22.5774Z" fill="#F5F5F5"/>
<path d="M7.86121 20.4584L12.1037 16.2159L18.4674 22.5796L14.225 26.8221L7.86121 20.4584Z" fill="#FF4D4D"/>
<path d="M37.5623 3.48849L37.4648 3.51549C35.7178 3.99156 34.1253 4.91548 32.8449 6.19586C31.5645 7.47624 30.6406 9.06872 30.1645 10.8157L30.1375 10.9132L23.7733 4.54896C25.3174 3.00444 27.3085 1.98498 29.4643 1.63501C31.6201 1.28504 33.8314 1.62231 35.7848 2.59902L37.5623 3.48849Z" fill="#F5F5F5"/>
<path d="M23.7675 21.5208L30.1303 15.158L51.3396 36.3673L44.9768 42.7301L23.7675 21.5208Z" fill="#953223"/>
<path d="M24.8338 14.4595C24.2767 15.0167 23.6153 15.4586 22.8873 15.7602C22.1594 16.0617 21.3792 16.2169 20.5912 16.2169C19.8033 16.2169 19.0231 16.0617 18.2951 15.7602C17.5672 15.4586 16.9058 15.0167 16.3486 14.4595L12.9857 11.1011L9.98584 14.101L20.592 24.7072L32.2586 13.0405L29.2587 10.0406L24.8338 14.4595Z" fill="#FF6C6C"/>
<path d="M8.9253 27.0007L3.0005 21.0804L1.50055 22.5804L12.1067 33.1865L16.35 28.9507L14.8051 27.3997C13.942 28.0543 12.8712 28.3744 11.7905 28.3011C10.7098 28.2277 9.69206 27.7659 8.9253 27.0007Z" fill="#FF6C6C"/>
<path d="M34.3149 2.00549C33.2317 2.75085 32.2994 3.69441 31.567 4.7864C31.3505 5.12006 31.062 5.40106 30.7228 5.60881C30.3836 5.81657 30.0022 5.94581 29.6066 5.98709C29.211 6.02836 28.8112 5.98061 28.4364 5.84735C28.0616 5.71408 27.7214 5.49867 27.4406 5.21688L25.4472 3.22345C24.8449 3.60647 24.284 4.05082 23.7733 4.54941L30.1375 10.9137L30.163 10.8162C30.6396 9.06919 31.5639 7.47682 32.8445 6.19648C34.1251 4.91615 35.7177 3.99219 37.4648 3.51594L37.5623 3.48894L35.7848 2.60097C35.3107 2.36549 34.8193 2.16642 34.3149 2.00549Z" fill="#FF6C6C"/>
<path d="M34.8504 19.8679L32.9484 21.7698C32.5606 22.1572 32.0349 22.3748 31.4867 22.3748C30.9386 22.3748 30.4129 22.1572 30.025 21.7698C29.6376 21.3818 29.42 20.8558 29.42 20.3074C29.42 19.759 29.6376 19.233 30.025 18.8449L31.9255 16.9505L30.1375 15.1506L23.7733 21.5149L44.9855 42.7316L51.3498 36.3674L34.8504 19.8679Z" fill="#FF9494"/>
<path d="M48.9763 40.4993L46.8059 38.3288L70.1391 14.9941L76.5034 21.3584L59.7325 38.1279L48.9763 40.4993Z" fill="#FF6C6C"/>
<path d="M68.5102 16.6233L61.1394 24C61.4137 24.3447 61.7072 24.6737 62.0184 24.9855C64.0013 26.9742 66.6217 28.2005 69.4191 28.4489L76.4974 21.3586L74.2475 19.1087L72.6185 20.7377L68.5102 16.6233Z" fill="#FEB6B6"/>
<path d="M87.5475 10.3145L78.6243 19.2377L72.26 12.8734L81.1832 3.95018C78.6194 2.86329 75.7574 2.70192 73.0876 3.49374C70.4179 4.28555 68.1067 5.98124 66.55 8.2902C64.9934 10.5992 64.2882 13.3777 64.5555 16.1495C64.8227 18.9213 66.0456 21.5139 68.0147 23.483C69.9837 25.4521 72.5764 26.675 75.3482 26.9422C78.12 27.2094 80.8985 26.5043 83.2075 24.9477C85.5164 23.391 87.2121 21.0798 88.0039 18.41C88.7958 15.7403 88.6344 12.8783 87.5475 10.3145Z" fill="#F5F5F5"/>
<path d="M86.487 17.4798C84.8215 19.1478 82.7013 20.2879 80.3914 20.7577C78.0815 21.2274 75.6844 21.0059 73.4997 20.1208C71.315 19.2357 69.4397 17.7263 68.108 15.7813C66.7764 13.8363 66.0476 11.542 66.0127 9.18506C65.1153 10.7917 64.5997 12.5835 64.506 14.4214C64.4123 16.2594 64.743 18.0942 65.4725 19.7838C66.2019 21.4734 67.3106 22.9724 68.7125 24.1647C70.1144 25.3569 71.772 26.2104 73.5568 26.6591C75.3416 27.1077 77.2058 27.1395 79.0048 26.7518C80.8039 26.3642 82.4896 25.5676 83.9312 24.4238C85.3729 23.2799 86.532 21.8196 87.3185 20.1558C88.1051 18.492 88.498 16.6694 88.467 14.8294C87.9338 15.8008 87.2674 16.693 86.487 17.4798Z" fill="#FF6C6C"/>
<path d="M85.4976 62.9991V47.9996H78.4193C77.868 46.0754 77.1033 44.2189 76.1394 42.4648L81.1357 37.4684L70.5296 26.8623L65.5333 31.8586C63.779 30.8949 61.9225 30.1302 59.9985 29.5787V22.5004H44.999V29.5787C43.0749 30.1302 41.2184 30.8949 39.4641 31.8586L34.4678 26.8623L23.8617 37.4684L28.858 42.4648C27.8941 44.2189 27.1294 46.0754 26.5781 47.9996H19.4998V62.9991H26.5781C27.1296 64.9231 27.8943 66.7796 28.858 68.5339L23.8617 73.5302L34.4678 84.1363L39.4641 79.14C41.2184 80.1037 43.0749 80.8684 44.999 81.4199V88.4982H59.9985V81.4199C61.9225 80.8684 63.779 80.1037 65.5333 79.14L70.5296 84.1363L81.1357 73.5302L76.1394 68.5339C77.1031 66.7796 77.8678 64.9231 78.4193 62.9991H85.4976ZM52.4987 68.9989C49.8287 68.9989 47.2187 68.2071 44.9988 66.7238C42.7788 65.2404 41.0485 63.1321 40.0267 60.6654C39.005 58.1986 38.7377 55.4843 39.2585 52.8657C39.7794 50.247 41.0651 47.8416 42.9531 45.9537C44.841 44.0658 47.2464 42.78 49.8651 42.2592C52.4837 41.7383 55.198 42.0056 57.6648 43.0274C60.1315 44.0491 62.2398 45.7794 63.7232 47.9994C65.2065 50.2194 65.9982 52.8294 65.9982 55.4993C65.9982 59.0796 64.576 62.5133 62.0443 65.0449C59.5127 67.5766 56.079 68.9989 52.4987 68.9989Z" fill="url(#paint1_linear_845:1978)"/>
<path d="M70.4981 77.9985C64.4677 77.9981 58.5196 76.5992 53.1211 73.9118C47.7226 71.2244 43.0209 67.3216 39.3855 62.5102C35.7501 57.6988 33.28 52.1099 32.1693 46.1827C31.0586 40.2555 31.3376 34.1514 32.9844 28.3502L23.8617 37.4729L28.858 42.4692C27.8944 44.222 27.1297 46.077 26.5781 47.9996H19.4998V62.9991H26.5781C27.1296 64.9231 27.8943 66.7796 28.858 68.5339L23.8617 73.5302L34.4678 84.1363L39.4641 79.14C41.2184 80.1037 43.0749 80.8684 44.999 81.4199V88.4982H59.9984V81.4199C61.9225 80.8684 63.779 80.1037 65.5333 79.14L70.5296 84.1363L77.2644 77.4016C75.0305 77.7962 72.7666 77.996 70.4981 77.9985Z" fill="#FF6363"/>
<path d="M85.4971 46.499H79.5258C79.0999 45.214 78.5831 43.9609 77.9793 42.7492L82.1957 38.5343C82.3351 38.395 82.4458 38.2296 82.5213 38.0475C82.5967 37.8654 82.6356 37.6702 82.6356 37.4731C82.6356 37.276 82.5967 37.0808 82.5213 36.8987C82.4458 36.7166 82.3351 36.5512 82.1957 36.4119L74.0465 28.2596C74.8549 28.4093 75.6752 28.4856 76.4974 28.4876C78.7267 28.4901 80.9219 27.94 82.8866 26.8864C84.8513 25.8328 86.5242 24.3087 87.7556 22.4503C88.9871 20.5919 89.7386 18.4573 89.9431 16.2373C90.1476 14.0174 89.7987 11.7813 88.9275 9.72927C88.8316 9.50306 88.6817 9.30384 88.4909 9.14912C88.3 8.99441 88.0741 8.88894 87.833 8.84199C87.5918 8.79503 87.3428 8.80803 87.1079 8.87983C86.8729 8.95164 86.6592 9.08005 86.4855 9.25379L81.2552 14.4856C81.112 14.624 80.9977 14.7895 80.9191 14.9725C80.8405 15.1555 80.7991 15.3523 80.7973 15.5515C80.7956 15.7506 80.8336 15.9482 80.909 16.1325C80.9844 16.3168 81.0958 16.4843 81.2366 16.6251C81.3774 16.766 81.5449 16.8773 81.7293 16.9528C81.9136 17.0282 82.1111 17.0661 82.3103 17.0644C82.5094 17.0627 82.7063 17.0213 82.8893 16.9427C83.0723 16.8641 83.2378 16.7498 83.3761 16.6065L86.838 13.1462C87.2316 15.3464 86.9128 17.6149 85.9279 19.6214C84.943 21.6279 83.3435 23.2678 81.3622 24.3023C79.3808 25.3369 77.121 25.7121 74.9116 25.3735C72.7022 25.0348 70.6586 23.9999 69.0781 22.4194C67.4976 20.8389 66.4627 18.7952 66.124 16.5858C65.7854 14.3765 66.1606 12.1166 67.1952 10.1353C68.2297 8.15394 69.8696 6.55444 71.8761 5.56957C73.8826 4.5847 76.151 4.26586 78.3513 4.65945L71.1996 11.8127C70.9184 12.094 70.7604 12.4754 70.7604 12.8732C70.7604 13.2709 70.9184 13.6524 71.1996 13.9336L77.5638 20.2979C77.8467 20.5711 78.2256 20.7223 78.6189 20.7189C79.0122 20.7155 79.3884 20.5577 79.6665 20.2796C79.9446 20.0015 80.1023 19.6253 80.1058 19.2321C80.1092 18.8388 79.958 18.4599 79.6848 18.177L74.3809 12.8732L82.2437 5.01194C82.4174 4.83824 82.5458 4.62453 82.6176 4.38958C82.6894 4.15463 82.7024 3.90564 82.6555 3.6645C82.6085 3.42335 82.5031 3.19743 82.3483 3.00659C82.1936 2.81575 81.9944 2.66584 81.7682 2.57002C79.3753 1.55303 76.7393 1.24969 74.178 1.69655C71.6166 2.14342 69.2391 3.32142 67.3319 5.08862C65.4247 6.85582 64.0693 9.13682 63.4288 11.6568C62.7884 14.1767 62.8903 16.8281 63.7223 19.2915L61.2669 21.7499C61.1393 21.5249 60.955 21.3373 60.7324 21.2057C60.5098 21.0741 60.2565 21.0032 59.9979 20.9999H53.6651L53.1537 19.9664L55.4846 19.341C55.6749 19.29 55.8533 19.202 56.0095 19.082C56.1658 18.9621 56.2969 18.8125 56.3954 18.6419C56.4939 18.4713 56.5578 18.2829 56.5835 18.0876C56.6091 17.8923 56.5961 17.6938 56.5451 17.5035L55.8356 14.8501L58.4845 14.1406C58.7887 14.059 59.0595 13.8836 59.2584 13.6394C59.4574 13.3952 59.5744 13.0946 59.5929 12.7802L59.9979 6.0904C60.0144 5.81205 59.9529 5.53464 59.8204 5.28929C59.688 5.04394 59.4897 4.84038 59.248 4.70145L51.4482 0.201598C51.2776 0.10288 51.0891 0.0387707 50.8937 0.0129355C50.6983 -0.0128996 50.4996 4.66418e-05 50.3092 0.0510338C50.1188 0.102021 49.9402 0.190049 49.7839 0.310083C49.6275 0.430117 49.4963 0.579803 49.3978 0.750579L37.8482 20.7539L32.2564 15.1501L33.3183 14.0896C33.4578 13.9503 33.5684 13.7849 33.6439 13.6028C33.7194 13.4207 33.7582 13.2255 33.7582 13.0284C33.7582 12.8313 33.7194 12.6361 33.6439 12.454C33.5684 12.2719 33.4578 12.1065 33.3183 11.9672L31.8529 10.5032C32.3501 9.15575 33.163 7.94708 34.2237 6.97858C35.2843 6.01008 36.5617 5.30996 37.9487 4.93694C38.2423 4.8578 38.505 4.69126 38.7019 4.4594C38.8987 4.22754 39.0204 3.94132 39.0508 3.63869C39.0813 3.33607 39.019 3.03135 38.8722 2.76495C38.7255 2.49854 38.5012 2.28304 38.2292 2.14703L36.4487 1.25756C34.4445 0.25562 32.1975 -0.158345 29.9677 0.0635675C27.738 0.28548 25.6166 1.1342 23.8492 2.51152L22.7047 1.36706C22.4234 1.08586 22.042 0.927894 21.6442 0.927894C21.2465 0.927894 20.865 1.08586 20.5838 1.36706L16.8339 5.10793C16.5607 5.39083 16.4095 5.76972 16.4129 6.163C16.4163 6.55628 16.5741 6.93249 16.8522 7.21059C17.1303 7.48869 17.5065 7.64644 17.8997 7.64986C18.293 7.65327 18.6719 7.50209 18.9548 7.22886L21.6382 4.54845L30.1219 13.0322L20.5763 22.5793L12.106 14.1001L14.728 11.4767C15.0012 11.1938 15.1524 10.8149 15.149 10.4216C15.1455 10.0284 14.9878 9.65216 14.7097 9.37406C14.4316 9.09596 14.0554 8.93821 13.6621 8.93479C13.2688 8.93137 12.8899 9.08256 12.607 9.35579L8.92466 13.0337C8.7852 13.173 8.67456 13.3384 8.59908 13.5205C8.52359 13.7026 8.48474 13.8978 8.48474 14.0949C8.48474 14.292 8.52359 14.4872 8.59908 14.6693C8.67456 14.8514 8.7852 15.0168 8.92466 15.1561L9.98512 16.2151L7.86269 18.3375L6.80223 17.277C6.52095 16.9958 6.1395 16.8379 5.74176 16.8379C5.34403 16.8379 4.96258 16.9958 4.6813 17.277L0.439444 21.5189C0.158247 21.8002 0.00027905 22.1816 0.00027905 22.5793C0.00027905 22.9771 0.158247 23.3585 0.439444 23.6398L11.0456 34.2459C11.3269 34.5271 11.7083 34.6851 12.106 34.6851C12.5038 34.6851 12.8852 34.5271 13.1665 34.2459L17.4084 29.9996C17.6896 29.7183 17.8475 29.3369 17.8475 28.9391C17.8475 28.5414 17.6896 28.1599 17.4084 27.8787L16.3479 26.8167L18.4688 24.6958L19.5308 25.7562C19.8121 26.0374 20.1935 26.1954 20.5913 26.1954C20.989 26.1954 21.3704 26.0374 21.6517 25.7562L23.7727 23.6338L29.672 29.5331L22.7992 36.4074C22.6597 36.5467 22.5491 36.7121 22.4736 36.8942C22.3981 37.0763 22.3593 37.2715 22.3593 37.4686C22.3593 37.6657 22.3981 37.8609 22.4736 38.043C22.5491 38.2251 22.6597 38.3905 22.7992 38.5298L27.0155 42.7447C26.4606 43.8656 25.9806 45.0221 25.5786 46.2065L8.24968 36.2004C7.90517 36.0015 7.49577 35.9476 7.11152 36.0505C6.72727 36.1535 6.39966 36.4049 6.20075 36.7494L0.200952 47.141C0.00205519 47.4855 -0.0518449 47.8949 0.0511084 48.2792C0.154062 48.6634 0.405435 48.991 0.749933 49.1899L15.6669 57.8027L7.94069 62.2635C7.42831 62.5587 6.97914 62.952 6.61887 63.421C6.2586 63.8899 5.99429 64.4253 5.84105 64.9964C5.68782 65.5676 5.64866 66.1633 5.72582 66.7496C5.80298 67.3359 5.99495 67.9012 6.29075 68.4133L12.2905 78.8064C12.5506 79.2471 12.8838 79.6403 13.276 79.9689L5.24978 84.5977C5.079 84.6962 4.92932 84.8274 4.80928 84.9838C4.68925 85.1402 4.60122 85.3187 4.55024 85.5092C4.49925 85.6996 4.4863 85.8982 4.51214 86.0936C4.53797 86.2891 4.60208 86.4775 4.7008 86.6482L6.20075 89.2461C6.29852 89.418 6.42934 89.569 6.58567 89.6902C6.74201 89.8114 6.92078 89.9004 7.11168 89.9523C7.30258 90.0041 7.50185 90.0177 7.69802 89.9922C7.89418 89.9667 8.08336 89.9026 8.25467 89.8037C8.42598 89.7048 8.57603 89.573 8.69619 89.4158C8.81635 89.2587 8.90424 89.0794 8.9548 88.8881C9.00537 88.6969 9.0176 88.4975 8.9908 88.3015C8.964 88.1055 8.8987 87.9168 8.79866 87.7461L8.04869 86.4472L19.4993 79.8354L24.9171 76.708L33.4068 85.1977C33.5461 85.3372 33.7116 85.4478 33.8937 85.5233C34.0757 85.5988 34.2709 85.6376 34.468 85.6376C34.6652 85.6376 34.8603 85.5988 35.0424 85.5233C35.2245 85.4478 35.39 85.3372 35.5293 85.1977L39.7441 80.9814C40.9573 81.5848 42.2119 82.1011 43.4985 82.5263V88.4976C43.4985 88.8954 43.6565 89.2769 43.9378 89.5582C44.2191 89.8395 44.6006 89.9976 44.9984 89.9976H59.9979C60.3957 89.9976 60.7773 89.8395 61.0586 89.5582C61.3399 89.2769 61.4979 88.8954 61.4979 88.4976V82.5263C62.7829 82.1004 64.0361 81.5836 65.2477 80.9799L69.4626 85.1962C69.6019 85.3357 69.7673 85.4463 69.9494 85.5218C70.1315 85.5973 70.3267 85.6361 70.5238 85.6361C70.7209 85.6361 70.9161 85.5973 71.0982 85.5218C71.2803 85.4463 71.4457 85.3357 71.585 85.1962L82.1972 74.5901C82.3366 74.4508 82.4473 74.2853 82.5228 74.1033C82.5982 73.9212 82.6371 73.726 82.6371 73.5289C82.6371 73.3317 82.5982 73.1366 82.5228 72.9545C82.4473 72.7724 82.3366 72.607 82.1972 72.4677L77.9793 68.2483C78.5831 67.0366 79.0999 65.7835 79.5258 64.4984H85.4971C85.8949 64.4984 86.2764 64.3404 86.5577 64.0591C86.839 63.7778 86.997 63.3963 86.997 62.9985C86.997 62.6007 86.839 62.2191 86.5577 61.9379C86.2764 61.6566 85.8949 61.4985 85.4971 61.4985H78.4188C78.0934 61.4985 77.7769 61.6042 77.5168 61.7999C77.2568 61.9955 77.0675 62.2703 76.9774 62.583C76.4569 64.399 75.7355 66.1513 74.8264 67.8073C74.6693 68.0919 74.6089 68.4199 74.6544 68.7419C74.6998 69.0638 74.8486 69.3622 75.0784 69.5922L79.0143 73.5296L70.5291 82.0148L66.5977 78.079C66.3677 77.8492 66.0692 77.7004 65.7473 77.6549C65.4254 77.6095 65.0974 77.6699 64.8128 77.827C63.1568 78.736 61.4045 79.4575 59.5884 79.9779C59.2758 80.068 59.0009 80.2574 58.8053 80.5174C58.6097 80.7774 58.5039 81.094 58.504 81.4193V86.9977H46.4984V81.4193C46.4984 81.094 46.3927 80.7774 46.1971 80.5174C46.0014 80.2574 45.7266 80.068 45.4139 79.9779C43.5979 79.4575 41.8456 78.736 40.1896 77.827C39.905 77.6699 39.577 77.6095 39.2551 77.6549C38.9331 77.7004 38.6347 77.8492 38.4047 78.079L34.4673 82.0148L25.9821 73.5296L29.9179 69.5983C30.1477 69.3682 30.2965 69.0698 30.342 68.7479C30.3874 68.4259 30.3271 68.0979 30.1699 67.8133C29.2609 66.1573 28.5394 64.405 28.019 62.589C27.93 62.2752 27.7411 61.999 27.481 61.8023C27.2209 61.6055 26.9037 61.4989 26.5776 61.4985H20.9992V49.4989H26.5776C26.9029 49.499 27.2195 49.3932 27.4795 49.1976C27.7395 49.002 27.9289 48.7271 28.019 48.4145C28.5394 46.5984 29.2609 44.8462 30.1699 43.1901C30.3271 42.9055 30.3874 42.5775 30.342 42.2556C30.2965 41.9337 30.1477 41.6352 29.9179 41.4052L25.9821 37.4678L34.4673 28.9826L38.3987 32.9185C38.6287 33.1483 38.9271 33.2971 39.2491 33.3425C39.571 33.388 39.899 33.3276 40.1836 33.1705C41.8396 32.2614 43.5919 31.54 45.4079 31.0196C45.7217 30.9305 45.9979 30.7416 46.1947 30.4815C46.3914 30.2214 46.4981 29.9043 46.4984 29.5781V23.9998H58.498V29.5781C58.4979 29.9035 58.6037 30.2201 58.7993 30.4801C58.9949 30.7401 59.2698 30.9294 59.5824 31.0196C61.3985 31.54 63.1508 32.2614 64.8068 33.1705C65.0914 33.3276 65.4194 33.388 65.7413 33.3425C66.0632 33.2971 66.3617 33.1483 66.5917 32.9185L70.5291 28.9826L79.0143 37.4678L75.0784 41.3992C74.8486 41.6292 74.6998 41.9277 74.6544 42.2496C74.6089 42.5715 74.6693 42.8995 74.8264 43.1841C75.7355 44.8402 76.4569 46.5924 76.9774 48.4085C77.0675 48.7211 77.2568 48.996 77.5168 49.1916C77.7769 49.3872 78.0934 49.493 78.4188 49.4929H83.9971V56.9927C83.9971 57.3905 84.1551 57.772 84.4364 58.0533C84.7177 58.3346 85.0993 58.4926 85.4971 58.4926C85.8949 58.4926 86.2764 58.3346 86.5577 58.0533C86.839 57.772 86.997 57.3905 86.997 56.9927V47.999C86.997 47.6012 86.839 47.2196 86.5577 46.9384C86.2764 46.6571 85.8949 46.499 85.4971 46.499ZM12.106 31.0646L3.62084 22.5793L5.74176 20.4584L14.227 28.9496L12.106 31.0646ZM14.227 24.7003L9.98362 20.4584L12.106 18.336L16.3494 22.5793L14.227 24.7003ZM8.04869 39.5498L10.6466 41.0497L8.39668 44.9496C8.29663 45.1202 8.23133 45.309 8.20453 45.505C8.17774 45.701 8.18997 45.9003 8.24053 46.0916C8.29109 46.2828 8.37898 46.4622 8.49914 46.6193C8.6193 46.7764 8.76935 46.9082 8.94066 47.0072C9.11197 47.1061 9.30116 47.1701 9.49732 47.1956C9.69348 47.2211 9.89275 47.2076 10.0837 47.1557C10.2746 47.1039 10.4533 47.0148 10.6097 46.8936C10.766 46.7724 10.8968 46.6215 10.9946 46.4495L13.2445 42.5497L15.8424 44.0496L13.5925 47.9495C13.4925 48.1201 13.4272 48.3089 13.4004 48.5049C13.3736 48.7009 13.3858 48.9002 13.4364 49.0915C13.4869 49.2827 13.5748 49.4621 13.695 49.6192C13.8151 49.7763 13.9652 49.9081 14.1365 50.0071C14.3078 50.106 14.497 50.17 14.6931 50.1955C14.8893 50.221 15.0886 50.2075 15.2795 50.1556C15.4704 50.1038 15.6491 50.0147 15.8055 49.8935C15.9618 49.7723 16.0926 49.6214 16.1904 49.4494L18.4403 45.5496L20.0903 46.5005H19.4993C19.1015 46.5005 18.72 46.6586 18.4387 46.9399C18.1574 47.2211 17.9993 47.6027 17.9993 48.0005V55.6862L3.54884 47.342L8.04869 39.5498ZM18.7748 66.9073C19.0619 66.9837 19.3198 67.1435 19.5159 67.3667C19.712 67.5898 19.8375 67.8661 19.8764 68.1606C19.9152 68.4551 19.8658 68.7545 19.7343 69.0208C19.6028 69.2872 19.3952 69.5085 19.1378 69.6567C18.7919 69.8535 18.3829 69.9073 17.9979 69.8067C17.645 69.7138 17.3382 69.4954 17.1348 69.1925C16.9313 68.8896 16.8453 68.523 16.8928 68.1612C16.9402 67.7994 17.1179 67.4674 17.3925 67.2272C17.6672 66.987 18.02 66.8552 18.3848 66.8563C18.5164 66.8565 18.6474 66.8746 18.7748 66.9073ZM25.4706 64.4984C25.8965 65.7835 26.4133 67.0366 27.017 68.2483L22.7992 72.4677C22.5336 72.7362 22.3799 73.0956 22.369 73.4731C22.3582 73.8506 22.491 74.2182 22.7407 74.5016L16.9389 77.848C16.5947 78.0466 16.1858 78.1005 15.8019 77.998C15.6115 77.9478 15.4331 77.8601 15.277 77.7401C15.1209 77.62 14.9904 77.4701 14.893 77.299L8.89316 66.9043C8.69509 66.5603 8.64149 66.1517 8.74411 65.7682C8.84674 65.3847 9.09721 65.0576 9.44064 64.8584L17.9993 59.9206V62.9985C18.0062 63.317 18.1168 63.6245 18.3143 63.8744C17.2305 63.8906 16.1891 64.2982 15.3823 65.022C14.5755 65.7459 14.0577 66.7371 13.9244 67.8128C13.7912 68.8885 14.0515 69.9761 14.6574 70.8749C15.2633 71.7737 16.1737 72.4231 17.2209 72.7031C17.6037 72.8039 17.998 72.8543 18.3938 72.8531C19.3799 72.8559 20.3395 72.5336 21.1238 71.9359C21.9082 71.3383 22.4736 70.4987 22.7326 69.5472C22.9916 68.5957 22.9296 67.5854 22.5563 66.6727C22.1831 65.7599 21.5193 64.9958 20.6678 64.4984H25.4706ZM33.9183 3.45049C32.059 4.61741 30.5546 6.27114 29.5685 8.23233L25.9941 4.65045C27.1291 3.84465 28.4372 3.31632 29.8135 3.10792C31.1897 2.89952 32.5957 3.01685 33.9183 3.45049ZM39.7486 30.0176L35.5293 25.7997C35.39 25.6603 35.2245 25.5496 35.0424 25.4742C34.8603 25.3987 34.6652 25.3598 34.468 25.3598C34.2709 25.3598 34.0757 25.3987 33.8937 25.4742C33.7116 25.5496 33.5461 25.6603 33.4068 25.7997L31.7989 27.4167L25.8996 21.5174L30.1414 17.2755L41.925 29.0576C41.1781 29.3516 40.4491 29.6666 39.7486 30.0176ZM44.9984 20.9999C44.6006 20.9999 44.2191 21.1579 43.9378 21.4392C43.6565 21.7205 43.4985 22.102 43.4985 22.4998V26.3997L40.0486 22.9498L51.2532 3.54948L56.953 6.83587L56.671 11.5277L53.6171 12.3452C53.4269 12.3962 53.2485 12.4842 53.0922 12.6041C52.9359 12.7241 52.8048 12.8736 52.7063 13.0442C52.6078 13.2149 52.5439 13.4032 52.5183 13.5985C52.4926 13.7939 52.5056 13.9923 52.5567 14.1826L53.2677 16.8315L50.6172 17.541C50.4024 17.5971 50.2027 17.7003 50.0326 17.8429C49.8624 17.9856 49.7261 18.1643 49.6334 18.366C49.5407 18.5678 49.4939 18.7876 49.4965 19.0097C49.4991 19.2317 49.5509 19.4504 49.6483 19.6499L50.3128 20.9999H44.9984ZM65.2477 30.0176C64.0361 29.4138 62.7829 28.897 61.4979 28.4711V25.7577L65.0813 22.1729C66.0911 23.7957 67.4386 25.1821 69.0321 26.2377L65.2477 30.0176Z" fill="#953223"/>
<path d="M52.4981 43.4993C54.7557 43.5017 56.9667 44.1423 58.8759 45.3472C59.0424 45.4599 59.2299 45.5379 59.4272 45.5766C59.6245 45.6154 59.8275 45.6141 60.0243 45.5728C60.221 45.5315 60.4075 45.4511 60.5726 45.3363C60.7376 45.2216 60.878 45.0748 60.9852 44.9047C61.0924 44.7346 61.1643 44.5447 61.1967 44.3463C61.2291 44.1479 61.2212 43.945 61.1736 43.7496C61.126 43.5543 61.0396 43.3705 60.9196 43.2093C60.7995 43.048 60.6483 42.9125 60.4748 42.8108C57.3466 40.8412 53.6024 40.0932 49.9575 40.7099C46.3127 41.3266 43.0229 43.2646 40.7167 46.1537C38.4106 49.0427 37.2498 52.6803 37.4562 56.3711C37.6626 60.062 39.2218 63.5474 41.8357 66.1613C44.4496 68.7752 47.935 70.3344 51.6259 70.5408C55.3167 70.7472 58.9542 69.5864 61.8433 67.2803C64.7324 64.9741 66.6704 61.6843 67.2871 58.0394C67.9038 54.3946 67.1558 50.6503 65.1862 47.5221C65.0845 47.3487 64.949 47.1975 64.7877 47.0774C64.6264 46.9574 64.4427 46.871 64.2473 46.8234C64.052 46.7758 63.8491 46.7679 63.6507 46.8003C63.4522 46.8327 63.2624 46.9046 63.0923 47.0118C62.9222 47.119 62.7754 47.2593 62.6606 47.4244C62.5459 47.5895 62.4655 47.7759 62.4242 47.9727C62.3829 48.1695 62.3816 48.3725 62.4204 48.5698C62.4591 48.7671 62.5371 48.9546 62.6498 49.1211C64.0622 51.3739 64.6859 54.0322 64.4228 56.678C64.1597 59.3239 63.0247 61.8073 61.1962 63.7378C59.3678 65.6683 56.9496 66.9364 54.3219 67.3426C51.6942 67.7489 49.006 67.2704 46.6799 65.9822C44.3538 64.6941 42.5218 62.6694 41.4719 60.2265C40.422 57.7837 40.2138 55.0611 40.8799 52.487C41.5461 49.9128 43.0488 47.6331 45.1519 46.0062C47.255 44.3792 49.8392 43.4974 52.4981 43.4993Z" fill="#953223"/>
<defs>
<linearGradient id="paint0_linear_845:1978" x1="26.25" y1="3.75" x2="54.7705" y2="112.97" gradientUnits="userSpaceOnUse">
<stop offset="0.007" stop-color="#FF9B98"/>
<stop offset="0.992" stop-color="white" stop-opacity="0"/>
</linearGradient>
<linearGradient id="paint1_linear_845:1978" x1="34.6868" y1="37.1243" x2="113.997" y2="35.9994" gradientUnits="userSpaceOnUse">
<stop stop-color="#FF6C6C"/>
<stop offset="1" stop-color="#F5F5F5"/>
</linearGradient>
</defs>
</svg>
