<svg width="24" height="24" viewBox="0 0 24 24" fill="none" xmlns="http://www.w3.org/2000/svg">
<path d="M19.2728 7.27275C17.8669 7.27275 16.7273 6.13312 16.7273 4.7273C16.7273 2.11645 14.6108 0 12 0C9.3892 0 7.27275 2.11645 7.27275 4.72725C7.27275 6.13308 6.13312 7.2727 4.7273 7.2727C2.11645 7.27275 0 9.3892 0 12C0 14.6108 2.11645 16.7272 4.72725 16.7272C6.13308 16.7272 7.2727 17.8669 7.2727 19.2727C7.27275 21.8835 9.3892 24 12 24C14.6108 24 16.7272 21.8835 16.7272 19.2728C16.7272 17.8669 17.8669 16.7273 19.2727 16.7273C21.8835 16.7272 24 14.6108 24 12C24 9.3892 21.8835 7.27275 19.2728 7.27275Z" fill="url(#paint0_linear_400_3673)"/>
<path opacity="0.1" d="M21.2842 20.1776L17.452 16.3453V3.40352C17.452 3.16023 17.2546 2.96289 17.0113 2.96289H5.01603C4.77275 2.96289 4.5754 3.16023 4.5754 3.40352V16.2265C4.5754 16.2265 4.5754 16.2265 4.57535 16.2265C3.48139 16.2265 2.5946 17.1133 2.5946 18.2072C2.5946 19.3011 3.48143 20.188 4.57535 20.188H4.5754V22.4254C4.5754 22.6687 4.77275 22.866 5.01603 22.866H17.0113C17.2546 22.866 17.452 22.6687 17.452 22.4254V19.1576L19.8781 21.5837C20.0399 21.7456 20.3022 21.7456 20.464 21.5837L21.2842 20.7635C21.446 20.6017 21.446 20.3394 21.2842 20.1776Z" fill="#953223"/>
<path d="M17.452 2.13789V21.1598C17.452 21.403 17.2547 21.6004 17.0114 21.6004H5.01606C4.77278 21.6004 4.57544 21.403 4.57544 21.1598V2.13789C4.57544 1.89461 4.77278 1.69727 5.01606 1.69727H17.0114C17.2547 1.69727 17.452 1.89461 17.452 2.13789Z" fill="white"/>
<path d="M17.452 16.2481V19.0601L15.9919 17.6C15.8362 17.4448 15.8306 17.1973 15.9731 17.0347L14.0906 15.1522C12.1242 16.6929 9.26342 16.5589 7.45311 14.7486C5.49748 12.7929 5.49748 9.61106 7.45311 7.65544C9.40873 5.69981 12.5906 5.69981 14.5462 7.65544C16.3565 9.46575 16.4911 12.3265 14.9498 14.2929L16.8323 16.1754C16.995 16.0329 17.2425 16.0386 17.3976 16.1937L17.452 16.2481Z" fill="#EBEBFF"/>
<path d="M6.55632 17.8286C6.55632 18.9227 5.66944 19.8095 4.57538 19.8095V15.8477C5.66949 15.8477 6.55632 16.7345 6.55632 17.8286Z" fill="#FFD9D9"/>
<path d="M17.452 2.13789V16.3832H4.57544V2.13789C4.57544 1.89461 4.77278 1.69727 5.01606 1.69727H17.0114C17.2547 1.69727 17.452 1.89461 17.452 2.13789Z" fill="#FFD9D9"/>
<path d="M12.1443 14.6902H9.17158C9.11072 14.6902 9.06146 14.7394 9.06146 14.8003C9.06146 14.8612 9.1107 14.9104 9.17158 14.9104H12.1443C12.2051 14.9104 12.2544 14.8612 12.2544 14.8003C12.2544 14.7394 12.2051 14.6902 12.1443 14.6902Z" fill="#FF6C6C"/>
<path d="M10.2296 5.73001H11.0863C11.1471 5.73001 11.1964 5.68077 11.1964 5.61989C11.1964 5.55903 11.1471 5.50977 11.0863 5.50977H10.2296C10.1688 5.50977 10.1195 5.55901 10.1195 5.61989C10.1195 5.68074 10.1687 5.73001 10.2296 5.73001Z" fill="#FF6C6C"/>
<path d="M9.27491 12.6532C9.27491 12.5923 9.22567 12.5431 9.16479 12.5431H8.51077V11.8889C8.51077 11.8281 8.46153 11.7788 8.40065 11.7788C8.33977 11.7788 8.29053 11.8281 8.29053 11.8889V12.6532C8.29053 12.714 8.33977 12.7633 8.40065 12.7633H9.16479C9.22567 12.7633 9.27491 12.714 9.27491 12.6532Z" fill="#FF6C6C"/>
<path d="M12.9153 8.02808H12.1511C12.0903 8.02808 12.041 8.07732 12.041 8.1382C12.041 8.19906 12.0903 8.24832 12.1511 8.24832H12.8052V8.90245C12.8052 8.96331 12.8544 9.01257 12.9153 9.01257C12.9761 9.01257 13.0254 8.96333 13.0254 8.90245V8.1382C13.0254 8.07734 12.9762 8.02808 12.9153 8.02808Z" fill="#FF6C6C"/>
<path d="M12.9153 11.7788C12.8544 11.7788 12.8052 11.8281 12.8052 11.8889V12.5431H12.1511C12.0903 12.5431 12.041 12.5923 12.041 12.6532C12.041 12.714 12.0903 12.7633 12.1511 12.7633H12.9153C12.9761 12.7633 13.0254 12.7141 13.0254 12.6532V11.8889C13.0254 11.8281 12.9762 11.7788 12.9153 11.7788Z" fill="#FF6C6C"/>
<path d="M8.40065 9.01257C8.46151 9.01257 8.51077 8.96333 8.51077 8.90245V8.24832H9.16479C9.22565 8.24832 9.27491 8.19908 9.27491 8.1382C9.27491 8.07734 9.22567 8.02808 9.16479 8.02808H8.40065C8.33979 8.02808 8.29053 8.07732 8.29053 8.1382V8.90245C8.29055 8.96331 8.33979 9.01257 8.40065 9.01257Z" fill="#FF6C6C"/>
<path d="M10.0656 8.61183V9.68876C10.0656 9.75042 10.0149 9.79888 9.95548 9.79888H8.87855C8.81689 9.79888 8.76843 9.75044 8.76843 9.68876V8.61183C8.76843 8.55017 8.81687 8.50171 8.87855 8.50171H9.95548C10.015 8.50171 10.0656 8.55017 10.0656 8.61183Z" fill="#FF6C6C"/>
<path d="M12.552 8.61183V9.68876C12.552 9.75042 12.5035 9.79888 12.4419 9.79888H11.3649C11.3033 9.79888 11.2548 9.75044 11.2548 9.68876V8.61183C11.2548 8.55017 11.3033 8.50171 11.3649 8.50171H12.4419C12.5036 8.50171 12.552 8.55017 12.552 8.61183Z" fill="#FF6C6C"/>
<path d="M11.3649 12.2857C11.4257 12.2857 11.475 12.2365 11.475 12.1756V11.2088H12.4417C12.5026 11.2088 12.5518 11.1595 12.5518 11.0986C12.5518 11.0378 12.5026 10.9885 12.4417 10.9885H11.3649C11.304 10.9885 11.2548 11.0378 11.2548 11.0986V12.1756C11.2547 12.2365 11.304 12.2857 11.3649 12.2857Z" fill="#FF6C6C"/>
<path d="M9.38763 10.1753C9.38763 10.2361 9.43687 10.2854 9.49775 10.2854H10.4134C10.4743 10.2854 10.5235 10.2362 10.5235 10.1753V8.61183C10.5235 8.55097 10.4743 8.50171 10.4134 8.50171C10.3525 8.50171 10.3033 8.55095 10.3033 8.61183V10.0652H9.49775C9.4369 10.0652 9.38763 10.1144 9.38763 10.1753Z" fill="#FF6C6C"/>
<path d="M10.8782 10.237H12.4418C12.5026 10.237 12.5519 10.1878 12.5519 10.1269C12.5519 10.066 12.5026 10.0168 12.4418 10.0168H10.9883V9.22511C10.9883 9.16425 10.9391 9.11499 10.8782 9.11499C10.8173 9.11499 10.7681 9.16423 10.7681 9.22511V10.1269C10.7681 10.1878 10.8173 10.237 10.8782 10.237Z" fill="#FF6C6C"/>
<path d="M10.3033 11.0986V12.1756C10.3033 12.2365 10.3525 12.2857 10.4134 12.2857C10.4743 12.2857 10.5235 12.2365 10.5235 12.1756V11.0986C10.5235 11.0378 10.4743 10.9885 10.4134 10.9885C10.3525 10.9885 10.3033 11.0378 10.3033 11.0986Z" fill="#FF6C6C"/>
<path d="M10.7283 11.3636C10.6674 11.3636 10.6181 11.4129 10.6181 11.4737C10.6181 11.5346 10.6674 11.5839 10.7283 11.5839H10.9831C11.044 11.5839 11.0932 11.5346 11.0932 11.4737V10.6878H11.4748C11.5356 10.6878 11.5849 10.6385 11.5849 10.5776C11.5849 10.5168 11.5356 10.4675 11.4748 10.4675H10.0111C9.95026 10.4675 9.901 10.5168 9.901 10.5776C9.901 10.6385 9.95024 10.6878 10.0111 10.6878H10.873V11.3636H10.7283Z" fill="#FF6C6C"/>
<path d="M12.4417 10.4675H11.972C11.9111 10.4675 11.8619 10.5168 11.8619 10.5776C11.8619 10.6385 11.9111 10.6878 11.972 10.6878H12.4417C12.5026 10.6878 12.5518 10.6385 12.5518 10.5776C12.5518 10.5168 12.5026 10.4675 12.4417 10.4675Z" fill="#FF6C6C"/>
<path d="M8.87813 10.6878H9.41656C9.47742 10.6878 9.52668 10.6385 9.52668 10.5776C9.52668 10.5168 9.47744 10.4675 9.41656 10.4675H8.87813C8.81727 10.4675 8.76801 10.5168 8.76801 10.5776C8.76801 10.6385 8.81725 10.6878 8.87813 10.6878Z" fill="#FF6C6C"/>
<path d="M14.4438 5.66951C14.2522 5.66951 14.0695 5.71355 13.9065 5.79063V5.65409C13.9065 5.29291 13.6136 5 13.2524 5H8.06373C7.70255 5 7.40744 5.29291 7.40744 5.65409V7.00851H7.30172C7.13433 7.00851 7 7.14283 7 7.31022V7.63395C7 7.79912 7.13433 7.93567 7.30172 7.93567H7.40744V8.6338H7.30172C7.13433 8.6338 7 8.76813 7 8.93552V9.25924C7 9.42663 7.13433 9.56096 7.30172 9.56096H7.40744V15.1372C7.40744 15.4984 7.70255 15.7913 8.06373 15.7913H13.2524C13.6136 15.7913 13.9065 15.4984 13.9065 15.1372V8.06562C14.0694 8.1427 14.2522 8.18895 14.4438 8.18895C15.1398 8.18895 15.7036 7.62294 15.7036 6.92923C15.7036 6.23331 15.1398 5.66951 14.4438 5.66951ZM7.40744 9.34076H7.30172C7.25548 9.34076 7.22024 9.30333 7.22024 9.25928V8.93556C7.22024 8.89151 7.25548 8.85408 7.30172 8.85408H7.40744V9.34076ZM7.40744 7.71545H7.30172C7.25548 7.71545 7.22024 7.67802 7.22024 7.63397V7.31024C7.22024 7.26398 7.25548 7.22877 7.30172 7.22877H7.40744V7.71545ZM12.0565 5.22024L11.7174 5.80384C11.6403 5.93599 11.4949 6.01966 11.3408 6.01966H9.97534C9.82117 6.01966 9.67582 5.93597 9.59874 5.80384L9.25959 5.22024H12.0565ZM13.6862 5.92498C13.3823 6.15623 13.1841 6.51961 13.1841 6.92925C13.1841 7.33887 13.3823 7.70224 13.6862 7.93129V15.1373C13.6862 15.3773 13.4924 15.5711 13.2524 15.5711H8.06373C7.82367 15.5711 7.62768 15.3773 7.62768 15.1373C7.62768 9.0875 7.62768 7.70224 7.62768 7.70224V5.65409C7.62768 5.41403 7.82367 5.22024 8.06373 5.22024H9.00631L9.40714 5.91396C9.52387 6.11438 9.74189 6.2399 9.97534 6.2399H11.3408C11.5742 6.2399 11.7922 6.11436 11.909 5.91396L12.3098 5.22024H13.2524C13.4924 5.22024 13.6862 5.41405 13.6862 5.65409V5.92498ZM15.0076 6.64954L14.2941 7.3631C14.2522 7.40714 14.1817 7.40714 14.1399 7.3631L13.88 7.10542C13.8382 7.06138 13.8382 6.99311 13.88 6.94906C13.9241 6.90722 13.9924 6.90722 14.0364 6.94906L14.217 7.12965L14.8535 6.49318C14.8953 6.45134 14.9658 6.45134 15.0076 6.49318C15.0517 6.53723 15.0517 6.6055 15.0076 6.64954Z" fill="#FF6C6C"/>
<path d="M10.0656 11.0982V12.1751C10.0656 12.2367 10.0149 12.2852 9.95548 12.2852H8.87855C8.81689 12.2852 8.76843 12.2368 8.76843 12.1751V11.0982C8.76843 11.0387 8.81687 10.988 8.87855 10.988H9.95548C10.015 10.988 10.0656 11.0387 10.0656 11.0982Z" fill="#FF6C6C"/>
<path d="M17.452 3.98631V2.13836C17.452 1.89475 17.2545 1.69727 17.0109 1.69727H5.01647C4.77286 1.69727 4.57538 1.89475 4.57538 2.13836V3.98631H17.452Z" fill="#FF6C6C"/>
<path d="M8.41299 3.98631L10.1395 1.69727H5.01624C4.77277 1.69727 4.57538 1.89466 4.57538 2.13812V3.98626L8.41299 3.98631Z" fill="#FF6363"/>
<path d="M16.0132 3.14403H10.7043C10.5826 3.14403 10.4839 3.04531 10.4839 2.92358C10.4839 2.80184 10.5826 2.70312 10.7043 2.70312H16.0132C16.1349 2.70312 16.2336 2.80184 16.2336 2.92358C16.2336 3.04531 16.1349 3.14403 16.0132 3.14403Z" fill="#FFD9D9"/>
<path d="M14 13.9998L15 12.9998L17.1793 15.3576L16.3203 16.2166L14 13.9998Z" fill="#FF6363"/>
<path d="M21.2843 19.4977L20.464 20.318C20.3022 20.4798 20.0399 20.4798 19.8781 20.318L15.9917 16.4316C15.8298 16.2698 15.8298 16.0074 15.9917 15.8457L16.8119 15.0254C16.9737 14.8636 17.236 14.8636 17.3978 15.0254L21.2843 18.9119C21.446 19.0737 21.446 19.336 21.2843 19.4977Z" fill="#FF9494"/>
<path d="M19.23 19.6701L19.878 20.3181C20.0398 20.4799 20.3021 20.4799 20.4639 20.3181L21.2841 19.4978C21.446 19.336 21.446 19.0737 21.2841 18.9119L20.6361 18.2639L19.23 19.6701Z" fill="#FF6363"/>
<path d="M16.5583 17.0019L17.9643 15.5959L18.8922 16.5239L17.4862 17.9299L16.5583 17.0019Z" fill="#FF6C6C"/>
<path d="M14.6353 19.5725H7.39215C7.26268 19.5725 7.15778 19.6775 7.15778 19.8069C7.15778 19.9363 7.26268 20.0413 7.39215 20.0413H14.6353C14.7647 20.0413 14.8696 19.9363 14.8696 19.8069C14.8696 19.6775 14.7647 19.5725 14.6353 19.5725Z" fill="#FF6C6C"/>
<path d="M9.10113 18.6582H7.39319C7.26372 18.6582 7.15881 18.7632 7.15881 18.8926C7.15881 19.022 7.26372 19.127 7.39319 19.127H9.10113C9.23059 19.127 9.3355 19.022 9.3355 18.8926C9.3355 18.7632 9.23059 18.6582 9.10113 18.6582Z" fill="#FF6C6C"/>
<path d="M10.227 18.6582H13.7739C13.9033 18.6582 14.0083 18.7632 14.0083 18.8926C14.0083 19.022 13.9033 19.127 13.7739 19.127H10.2169C10.0798 19.127 9.97029 19.0093 9.98365 18.8695C9.99527 18.7477 10.1046 18.6582 10.227 18.6582Z" fill="#FF6C6C"/>
<path d="M8.23535 17.9771C8.36479 17.9771 8.46973 17.8721 8.46973 17.7427C8.46973 17.6132 8.36479 17.5083 8.23535 17.5083C8.10591 17.5083 8.00098 17.6132 8.00098 17.7427C8.00098 17.8721 8.10591 17.9771 8.23535 17.9771Z" fill="#FF6C6C"/>
<path d="M7.47363 17.9771C7.60307 17.9771 7.70801 17.8721 7.70801 17.7427C7.70801 17.6132 7.60307 17.5083 7.47363 17.5083C7.34419 17.5083 7.23926 17.6132 7.23926 17.7427C7.23926 17.8721 7.34419 17.9771 7.47363 17.9771Z" fill="#FF6C6C"/>
<path d="M4.57536 18.9224C5.6693 18.9224 6.55611 18.0356 6.55611 16.9417C6.55611 15.8477 5.6693 14.9609 4.57536 14.9609C3.48142 14.9609 2.5946 15.8477 2.5946 16.9417C2.5946 18.0356 3.48142 18.9224 4.57536 18.9224Z" fill="#FF6C6C"/>
<path d="M4.57533 12.9705C4.7048 12.9705 4.80971 12.8655 4.80971 12.7361V2.13812C4.80971 2.02426 4.90238 1.93164 5.01624 1.93164H13.7672C13.8967 1.93164 14.0016 1.82669 14.0016 1.69727C14.0016 1.56784 13.8967 1.46289 13.7672 1.46289H5.01628C4.64396 1.46289 4.341 1.7658 4.341 2.13812V12.7361C4.34096 12.8655 4.44591 12.9705 4.57533 12.9705Z" fill="#953223"/>
<path d="M21.4499 18.7463L17.6863 14.9827V2.13813C17.6863 1.7658 17.3834 1.46289 17.0112 1.46289H15.2017C15.0722 1.46289 14.9673 1.56784 14.9673 1.69727C14.9673 1.82669 15.0722 1.93164 15.2017 1.93164H17.0112C17.125 1.93164 17.2176 2.02427 17.2176 2.13813V14.6801C17.1807 14.6736 17.1431 14.6698 17.1048 14.6698C17.0233 14.6698 16.9444 14.6853 16.8707 14.7138L15.2596 13.1027C16.7388 11.052 16.5565 8.16578 14.7122 6.32144C12.6651 4.27445 9.33439 4.27445 7.28754 6.32144C6.29745 7.31153 5.75215 8.62994 5.75215 10.0338C5.75215 11.4376 6.29745 12.756 7.28754 13.7461C8.31101 14.7695 9.65543 15.2813 10.9999 15.2813C12.0781 15.2813 13.1561 14.9518 14.0688 14.2935L15.6799 15.9046C15.6513 15.9783 15.6359 16.0573 15.6359 16.1388C15.6359 16.312 15.7033 16.4749 15.8259 16.5975L17.2176 17.9892V21.1596C17.2176 21.2734 17.125 21.3661 17.0112 21.3661H5.01626C4.90235 21.3661 4.80973 21.2734 4.80973 21.1596V19.1442C5.92137 19.0268 6.79053 18.0839 6.79053 16.9416C6.79053 15.7993 5.92137 14.8564 4.80973 14.7389V14.1705C4.80973 14.0411 4.70482 13.9361 4.57535 13.9361C4.44589 13.9361 4.34098 14.0411 4.34098 14.1705V14.739C3.22934 14.8564 2.36023 15.7994 2.36023 16.9416C2.36023 18.0838 3.22934 19.0267 4.34098 19.1442V21.1596C4.34098 21.5319 4.64393 21.8348 5.01626 21.8348H17.0112C17.3834 21.8348 17.6863 21.5319 17.6863 21.1596V18.4579L19.7123 20.4839C19.8349 20.6064 19.9977 20.6739 20.171 20.6739C20.3443 20.6739 20.5072 20.6065 20.6297 20.4839L21.4499 19.6637C21.7028 19.4108 21.7028 18.9992 21.4499 18.7463ZM2.82898 16.9416C2.82898 15.9787 3.6124 15.1952 4.5754 15.1952C5.53835 15.1952 6.32178 15.9787 6.32178 16.9416C6.32178 17.9046 5.53835 18.688 4.5754 18.688C3.6124 18.688 2.82898 17.9046 2.82898 16.9416ZM7.6189 13.4146C6.7174 12.5131 6.22085 11.3124 6.22085 10.0338C6.22085 8.75509 6.7174 7.55444 7.6189 6.65289C8.55101 5.72078 9.77539 5.25475 10.9998 5.25475C12.2241 5.25475 13.4485 5.72083 14.3807 6.65294C16.2448 8.51716 16.2448 11.5504 14.3807 13.4147C12.5164 15.2787 9.48326 15.2788 7.6189 13.4146ZM14.7121 13.7461C14.8008 13.6573 14.8855 13.566 14.9665 13.4726L16.4999 15.0061L15.972 15.5339L14.4387 14.0005C14.532 13.9195 14.6233 13.8348 14.7121 13.7461ZM21.1185 19.3322L20.2982 20.1525C20.2302 20.2205 20.1117 20.2204 20.0437 20.1525L16.1573 16.2661C16.1233 16.2321 16.1046 16.1869 16.1046 16.1388C16.1046 16.0908 16.1233 16.0456 16.1573 16.0116L16.9776 15.1914C17.0116 15.1574 17.0567 15.1387 17.1048 15.1387C17.1528 15.1387 17.198 15.1574 17.232 15.1914L21.1184 19.0779C21.1886 19.1479 21.1886 19.262 21.1185 19.3322Z" fill="#953223"/>
<path d="M20.5469 7.26172H20.4062V7.12109C20.4062 6.99167 20.3013 6.88672 20.1719 6.88672C20.0424 6.88672 19.9375 6.99167 19.9375 7.12109V7.26172H19.7969C19.6674 7.26172 19.5625 7.36667 19.5625 7.49609C19.5625 7.62552 19.6674 7.73047 19.7969 7.73047H19.9375V7.87109C19.9375 8.00052 20.0424 8.10547 20.1719 8.10547C20.3013 8.10547 20.4062 8.00052 20.4062 7.87109V7.73047H20.5469C20.6763 7.73047 20.7812 7.62552 20.7812 7.49609C20.7812 7.36667 20.6763 7.26172 20.5469 7.26172Z" fill="#FF6363"/>
<path d="M3.20312 11.7891H3.0625V11.6484C3.0625 11.519 2.95759 11.4141 2.82812 11.4141C2.69866 11.4141 2.59375 11.519 2.59375 11.6484V11.7891H2.45312C2.32366 11.7891 2.21875 11.894 2.21875 12.0234C2.21875 12.1529 2.32366 12.2578 2.45312 12.2578H2.59375V12.3984C2.59375 12.5279 2.69866 12.6328 2.82812 12.6328C2.95759 12.6328 3.0625 12.5279 3.0625 12.3984V12.2578H3.20312C3.33259 12.2578 3.4375 12.1529 3.4375 12.0234C3.4375 11.894 3.33259 11.7891 3.20312 11.7891Z" fill="#953223"/>
<path d="M19.646 9.88375C19.586 9.88375 19.526 9.86087 19.4803 9.81512L19.271 9.60587L19.0617 9.81512C18.9702 9.90662 18.8217 9.90662 18.7303 9.81512C18.6387 9.72357 18.6387 9.57517 18.7303 9.48367L19.1053 9.10866C19.1967 9.01716 19.3452 9.01716 19.4367 9.10866L19.8117 9.48367C19.9032 9.57521 19.9032 9.72362 19.8117 9.81512C19.766 9.86087 19.706 9.88375 19.646 9.88375Z" fill="#FF4D4D"/>
<path d="M2.82812 14.2265C2.76816 14.2265 2.70812 14.2037 2.66241 14.1579L2.45312 13.9486L2.24382 14.1579C2.15236 14.2494 2.00386 14.2494 1.91241 14.1579C1.82086 14.0664 1.82086 13.9179 1.91241 13.8264L2.28741 13.4514C2.37886 13.3599 2.52737 13.3599 2.61882 13.4514L2.99382 13.8264C3.08537 13.918 3.08537 14.0664 2.99382 14.1579C2.94812 14.2036 2.88807 14.2265 2.82812 14.2265Z" fill="#FF6363"/>
<path d="M21.5781 17.3632C21.5182 17.3632 21.4581 17.3404 21.4124 17.2946L21.2031 17.0854L20.9938 17.2946C20.9024 17.3861 20.7539 17.3861 20.6624 17.2946C20.5709 17.2031 20.5709 17.0547 20.6624 16.9632L21.0374 16.5882C21.1289 16.4967 21.2774 16.4967 21.3688 16.5882L21.7438 16.9632C21.8354 17.0547 21.8354 17.2031 21.7438 17.2946C21.6981 17.3404 21.6381 17.3632 21.5781 17.3632Z" fill="#953223"/>
<path d="M4.86254 16.3034C5.01156 16.3333 5.14899 16.3945 5.26737 16.4798L5.34298 16.5397C5.55651 16.7257 5.69125 16.9965 5.69125 17.2975C5.69125 17.5914 5.56286 17.8564 5.35812 18.0419L5.29181 18.0972C5.11575 18.2319 4.89426 18.3123 4.65393 18.3123C4.62423 18.3123 4.59483 18.311 4.56576 18.3086L4.48276 18.2984C3.99195 18.2184 3.6166 17.8001 3.6166 17.2975C3.6166 17.0734 3.69133 16.866 3.81762 16.6979L3.70885 16.5915C3.69248 16.6008 3.67388 16.6059 3.65444 16.6059C3.6254 16.6059 3.5981 16.5948 3.57757 16.5747L3.50054 16.4994C3.45815 16.4579 3.45815 16.3904 3.50054 16.349L3.68428 16.1692C3.72666 16.1277 3.79563 16.1277 3.83802 16.1692L3.91506 16.2446C3.9506 16.2794 3.95622 16.3324 3.93214 16.373L4.04092 16.4795C4.1592 16.3944 4.29648 16.3332 4.4453 16.3034V16.2796C4.26211 16.2037 4.14069 16.0318 4.14069 15.8443C4.14069 15.553 4.41499 15.5156 4.65396 15.5156C4.89289 15.5156 5.16715 15.553 5.16715 15.8443C5.16715 16.0318 5.04573 16.2037 4.86254 16.2796V16.3034Z" fill="#953223"/>
<path opacity="0.1" d="M4.82634 16.3879V16.2303H4.8346C4.87463 16.2303 4.90708 16.1986 4.90708 16.1594V16.0528C4.90708 16.0137 4.87463 15.9819 4.8346 15.9819H4.47329C4.43327 15.9819 4.40082 16.0137 4.40082 16.0528V16.1594C4.40082 16.1986 4.43327 16.2303 4.47329 16.2303H4.48156V16.3879H4.82634Z" fill="#953223"/>
<path d="M3.65533 16.4893L3.82736 16.321L4.11421 16.6016L3.94218 16.7699L3.65533 16.4893Z" fill="#FF6363"/>
<path d="M3.88943 16.3702L3.70569 16.55C3.67739 16.5777 3.6315 16.5777 3.6032 16.55L3.52617 16.4746C3.49787 16.4469 3.49787 16.402 3.52617 16.3743L3.70991 16.1946C3.73821 16.1669 3.7841 16.1669 3.8124 16.1946L3.88943 16.27C3.91773 16.2976 3.91773 16.3425 3.88943 16.3702Z" fill="#FF9494"/>
<path d="M4.48151 15.9824H4.82627V16.3793H4.48151V15.9824Z" fill="#FF8383"/>
<path d="M4.48151 15.9824H4.82627V16.2301H4.48151V15.9824Z" fill="#FF6363"/>
<path d="M4.65392 18.277C5.20681 18.277 5.65501 17.8386 5.65501 17.2977C5.65501 16.7568 5.20681 16.3184 4.65392 16.3184C4.10104 16.3184 3.65283 16.7568 3.65283 17.2977C3.65283 17.8386 4.10104 18.277 4.65392 18.277Z" fill="#953223"/>
<path d="M4.65391 18.1234C5.12017 18.1234 5.49814 17.7537 5.49814 17.2976C5.49814 16.8414 5.12017 16.4717 4.65391 16.4717C4.18766 16.4717 3.80969 16.8414 3.80969 17.2976C3.80969 17.7537 4.18766 18.1234 4.65391 18.1234Z" fill="white"/>
<path d="M4.65392 17.5712C4.80853 17.5712 4.93387 17.4486 4.93387 17.2973C4.93387 17.1461 4.80853 17.0234 4.65392 17.0234C4.4993 17.0234 4.37396 17.1461 4.37396 17.2973C4.37396 17.4486 4.4993 17.5712 4.65392 17.5712Z" fill="#FFB3B3"/>
<path d="M4.23925 17.1943C4.24651 17.1669 4.27506 17.1504 4.30313 17.1574L4.66712 17.2477C4.69525 17.2549 4.71216 17.283 4.70485 17.3105C4.69757 17.338 4.66885 17.3545 4.64071 17.3474L4.27724 17.2571C4.24897 17.2501 4.23193 17.2219 4.23925 17.1943Z" fill="#FF6C6C"/>
<path d="M4.62589 17.3413C4.6013 17.3262 4.59393 17.2944 4.60944 17.2703L4.93528 16.7648C4.95078 16.7407 4.98327 16.7335 5.00786 16.7487C5.03245 16.7638 5.03981 16.7956 5.02431 16.8197L4.69847 17.3252C4.68296 17.3493 4.65047 17.3565 4.62589 17.3413Z" fill="#FF4D4D"/>
<path d="M4.65391 17.3954C4.70927 17.3954 4.75416 17.3515 4.75416 17.2973C4.75416 17.2431 4.70927 17.1992 4.65391 17.1992C4.59854 17.1992 4.55365 17.2431 4.55365 17.2973C4.55365 17.3515 4.59854 17.3954 4.65391 17.3954Z" fill="#953223"/>
<path d="M4.8346 16.0599H4.47329C4.43327 16.0599 4.40082 16.0281 4.40082 15.989V15.8824C4.40082 15.8433 4.43327 15.8115 4.47329 15.8115H4.8346C4.87463 15.8115 4.90708 15.8433 4.90708 15.8824V15.989C4.90708 16.0281 4.87463 16.0599 4.8346 16.0599Z" fill="#FF6C6C"/>
<defs>
<linearGradient id="paint0_linear_400_3673" x1="20.4884" y1="3.51164" x2="-0.1875" y2="24.1875" gradientUnits="userSpaceOnUse">
<stop stop-color="#FFD9D9" stop-opacity="0"/>
<stop offset="0.9981" stop-color="#FF5050"/>
</linearGradient>
</defs>
</svg>
