<svg width="24" height="24" viewBox="0 0 24 24" fill="none" xmlns="http://www.w3.org/2000/svg">
<g clip-path="url(#clip0_154_409)">
<path d="M23.7543 12.2165C23.7543 18.6984 18.4997 23.953 12.0178 23.953C5.53583 23.953 0.28125 18.6984 0.28125 12.2165C0.28125 5.73456 5.53583 0.47998 12.0178 0.47998C18.4997 0.47998 23.7543 5.73456 23.7543 12.2165Z" fill="url(#paint0_linear_154_409)"/>
<path d="M12.6405 7.66596C12.6405 11.0789 9.87379 13.8456 6.46088 13.8456C3.04798 13.8456 0.28125 11.0789 0.28125 7.66596C0.28125 4.25305 3.04798 1.48633 6.46088 1.48633C9.87379 1.48633 12.6405 4.25305 12.6405 7.66596Z" fill="#FF6C6C"/>
<path d="M12.6406 7.66571C12.6406 10.8355 10.2538 13.4475 7.17945 13.8036C4.1051 13.4475 1.71851 10.8355 1.71851 7.66571C1.71851 4.49579 4.1051 1.88397 7.17945 1.52783C10.2538 1.88397 12.6406 4.49579 12.6406 7.66571Z" fill="#FF6C6C"/>
<path d="M11.4818 7.66548C11.4818 10.4384 9.23377 12.6864 6.46082 12.6864C3.68787 12.6864 1.43988 10.4384 1.43988 7.66548C1.43988 4.89252 3.68787 2.64453 6.46082 2.64453C9.23377 2.64453 11.4818 4.89252 11.4818 7.66548Z" fill="#FFF5F5"/>
<path d="M6.90508 2.11157V8.97089C6.90508 9.10309 6.79778 9.21039 6.66558 9.21039H6.37207C6.23987 9.21039 6.13257 9.10309 6.13257 8.97089V2.11157C6.13257 1.97937 6.23987 1.87207 6.37207 1.87207H6.66558C6.79778 1.87207 6.90508 1.97937 6.90508 2.11157Z" fill="#FD8787"/>
<path d="M10.4311 8.03278H5.50299C5.37079 8.03278 5.26349 7.92548 5.26349 7.79328V7.49976C5.26349 7.36755 5.37079 7.26025 5.50299 7.26025H10.4311C10.5635 7.26025 10.6708 7.36755 10.6708 7.49976V7.79328C10.6708 7.92548 10.5635 8.03278 10.4311 8.03278Z" fill="#953223"/>
<path d="M3.38269 8.03252H2.31665C2.18445 8.03252 2.07715 7.92522 2.07715 7.79302V7.4995C2.07715 7.3673 2.18445 7.26 2.31665 7.26H3.38269C3.51489 7.26 3.62219 7.3673 3.62219 7.4995V7.79302C3.62219 7.92522 3.51489 8.03252 3.38269 8.03252ZM4.36688 9.59075C4.27332 9.49718 4.12152 9.49718 4.02814 9.59075L3.27448 10.3444C3.18091 10.438 3.18091 10.5896 3.27448 10.6832L3.48193 10.8906C3.5755 10.9842 3.72711 10.9842 3.82068 10.8906L4.57434 10.137C4.66791 10.0434 4.66791 9.89177 4.57434 9.79821L4.36688 9.59075ZM9.76319 4.60918L9.55573 4.40172C9.46216 4.30815 9.31055 4.30815 9.21698 4.40172L8.46332 5.15538C8.36975 5.24895 8.36975 5.40056 8.46332 5.49413L8.67078 5.70158C8.76435 5.79515 8.91596 5.79515 9.00952 5.70158L9.76319 4.94792C9.85675 4.85454 9.85675 4.70274 9.76319 4.60918ZM6.66559 10.5429H6.37207C6.23987 10.5429 6.13257 10.6502 6.13257 10.7824V11.8484C6.13257 11.9806 6.23987 12.0879 6.37207 12.0879H6.66559C6.79779 12.0879 6.90509 11.9806 6.90509 11.8484V10.7824C6.90509 10.6502 6.79779 10.5429 6.66559 10.5429ZM3.82068 4.40172C3.72711 4.30815 3.5755 4.30815 3.48193 4.40172L3.27448 4.60918C3.18091 4.70274 3.18091 4.85436 3.27448 4.94792L4.02814 5.70158C4.12171 5.79515 4.27332 5.79515 4.36688 5.70158L4.57434 5.49413C4.66791 5.40056 4.66791 5.24895 4.57434 5.15538L3.82068 4.40172Z" fill="#FFB3B3"/>
<path d="M18.6285 19.3234H8.61652C8.21973 19.3234 7.89801 19.0017 7.89801 18.6049V10.2527C7.89801 9.8559 8.21973 9.53418 8.61652 9.53418H18.6285C19.0253 9.53418 19.347 9.8559 19.347 10.2527V18.6049C19.347 19.0017 19.0253 19.3234 18.6285 19.3234Z" fill="#FF6C6C"/>
<path d="M18.6286 19.3234H9.85089C9.4541 19.3234 9.13239 19.0017 9.13239 18.6049V10.2527C9.13239 9.8559 9.4541 9.53418 9.85089 9.53418H18.6286C19.0254 9.53418 19.3471 9.8559 19.3471 10.2527V18.6049C19.3471 19.0017 19.0254 19.3234 18.6286 19.3234Z" fill="#FF4D4D"/>
<path d="M11.6655 13.2248L11.2593 13.4429C11.2103 13.4693 11.144 13.4841 11.0746 13.4841C10.9305 13.4841 10.8135 13.4213 10.8135 13.3439V9.53418H16.4317V13.3439C16.4317 13.4213 16.3147 13.4841 16.1704 13.4841C16.1012 13.4841 16.0347 13.4693 15.9859 13.4429L15.5797 13.2248C15.4966 13.1802 15.3618 13.1802 15.2787 13.2248L14.9872 13.3814C14.8649 13.4471 14.6988 13.4841 14.5258 13.4841C14.3527 13.4841 14.1868 13.4471 14.0645 13.3814L13.773 13.2248C13.6899 13.1802 13.5551 13.1802 13.472 13.2248L13.1805 13.3814C13.0582 13.4471 12.8923 13.4841 12.7192 13.4841C12.5462 13.4841 12.3801 13.4471 12.2578 13.3814L11.9663 13.2248C11.8834 13.1803 11.7486 13.1803 11.6655 13.2248Z" fill="#FFF5F5"/>
<path d="M11.6887 10.3853H15.5565C15.6094 10.3853 15.6522 10.4281 15.6522 10.481V10.9278C15.6522 10.9809 15.6094 11.0237 15.5565 11.0237H11.6887C11.6358 11.0237 11.593 10.9809 11.593 10.9278V10.481C11.593 10.4281 11.6358 10.3853 11.6887 10.3853ZM11.593 11.6516V12.0984C11.593 12.1513 11.6358 12.1941 11.6887 12.1941H14.1678C14.2207 12.1941 14.2637 12.1513 14.2637 12.0984V11.6516C14.2637 11.5985 14.2207 11.5557 14.1678 11.5557H11.6887C11.6358 11.5557 11.593 11.5985 11.593 11.6516Z" fill="#FF4D4D"/>
<path d="M13.7659 16.9687V17.5673C13.7659 17.8319 13.5515 18.0463 13.2869 18.0463H12.6885C12.4239 18.0463 12.2095 17.8319 12.2095 17.5673V16.9687C12.2095 16.7042 12.4239 16.4897 12.6885 16.4897H13.2869C13.5515 16.4897 13.7659 16.7042 13.7659 16.9687ZM15.4272 16.4897H14.8286C14.564 16.4897 14.3496 16.7042 14.3496 16.9687V17.5673C14.3496 17.8319 14.564 18.0463 14.8286 18.0463H15.4272C15.6918 18.0463 15.9062 17.8319 15.9062 17.5673V16.9687C15.9062 16.7042 15.6918 16.4897 15.4272 16.4897ZM17.5673 16.4897H16.969C16.7044 16.4897 16.4899 16.7042 16.4899 16.9687V17.5673C16.4899 17.8319 16.7044 18.0463 16.969 18.0463H17.5673C17.8319 18.0463 18.0465 17.8319 18.0465 17.5673V16.9687C18.0465 16.7042 17.8319 16.4897 17.5673 16.4897Z" fill="#FF6C6C"/>
<path d="M18.949 12.9818L15.2468 6.94757C14.1359 5.13684 14.4119 2.80042 15.9139 1.2984C17.7076 -0.495301 20.6155 -0.495301 22.409 1.2984C23.9112 2.80042 24.1871 5.13684 23.0761 6.94757L19.374 12.9818C19.2766 13.1404 19.0463 13.1404 18.949 12.9818Z" fill="#FF6363"/>
<path d="M19.8613 12.1878L16.6463 6.94764C15.5354 5.1369 15.8112 2.80048 17.3134 1.29846C18.0317 0.580139 18.9287 0.149841 19.8613 0.00683594C20.7938 0.149841 21.6909 0.580139 22.409 1.29846C23.9112 2.80048 24.1872 5.1369 23.0762 6.94764L19.8613 12.1878Z" fill="#FF4D4D"/>
<path d="M19.1614 1.28369C17.337 1.28369 15.858 2.76264 15.858 4.5871C15.858 6.41156 17.337 7.89051 19.1614 7.89051C20.9859 7.89051 22.465 6.41156 22.465 4.5871C22.465 2.76264 20.9859 1.28369 19.1614 1.28369ZM19.1614 6.78949C17.9451 6.78949 16.959 5.80347 16.959 4.5871C16.959 3.37073 17.9451 2.38471 19.1614 2.38471C20.3778 2.38471 21.3638 3.37073 21.3638 4.5871C21.3638 5.80347 20.3778 6.78949 19.1614 6.78949ZM20.538 4.5871C20.538 5.34735 19.9217 5.9635 19.1614 5.9635C18.4012 5.9635 17.785 5.34735 17.785 4.5871C17.785 3.82684 18.4012 3.21069 19.1614 3.21069C19.9217 3.21069 20.538 3.82684 20.538 4.5871Z" fill="#FEB6B6"/>
<path d="M12.552 15.5157L7.7869 20.7397C7.61771 20.9251 7.37839 21.0308 7.12754 21.0308C6.8765 21.0308 6.63718 20.9251 6.46799 20.7397L3.81973 17.8363C3.48758 17.4721 3.51358 16.9076 3.87777 16.5755C4.24197 16.2431 4.80649 16.2691 5.13864 16.6333L7.12735 18.8136L11.233 14.3127C11.5653 13.9483 12.1298 13.9225 12.494 14.2546C12.8582 14.5869 12.8842 15.1515 12.552 15.5157Z" fill="#953223"/>
<path d="M12.4703 14.2343C12.4419 14.2585 12.4144 14.2845 12.3886 14.3128L7.7564 19.3814C7.58867 19.5654 7.29955 19.5672 7.12945 19.3854C6.97728 19.2228 6.97564 18.9707 7.12578 18.8061L11.233 14.3128C11.5582 13.9565 12.1057 13.9243 12.4703 14.2343ZM7.62365 20.7398L4.15874 17.0201C4.02947 16.8783 3.95476 16.7066 3.93279 16.5297C3.91393 16.5444 3.89562 16.5594 3.87767 16.5757C3.51348 16.9078 3.48766 17.4725 3.81981 17.8367L6.46807 20.74C6.63726 20.9253 6.87658 21.031 7.12743 21.031C7.34038 21.031 7.54473 20.9548 7.70531 20.8184C7.67657 20.794 7.64928 20.768 7.62365 20.7398Z" fill="#953223"/>
</g>
<defs>
<linearGradient id="paint0_linear_154_409" x1="12.0178" y1="0.47998" x2="12.0178" y2="23.953" gradientUnits="userSpaceOnUse">
<stop stop-color="#FF8888"/>
<stop offset="1" stop-color="#FFD9D9" stop-opacity="0"/>
</linearGradient>
<clipPath id="clip0_154_409">
<rect width="24" height="24" fill="white"/>
</clipPath>
</defs>
</svg>
